<?xml version="1.0" encoding="utf-8"?>
<!-- Generator: Adobe Illustrator 19.0.1, SVG Export Plug-In . SVG Version: 6.00 Build 0)  -->
<svg version="1.1" id="Layer_1" xmlns="http://www.w3.org/2000/svg" xmlns:xlink="http://www.w3.org/1999/xlink" x="0px" y="0px"
	 viewBox="-49 141 512 512" style="enable-background:new -49 141 512 512;" xml:space="preserve">
<style type="text/css">
	.st0{fill:#0086CE;}
</style>
<path class="st0" d="M156.3,632.9h210.9c11,0,21-9.6,21-20.7V180.4c0-11-10-19.3-21-19.3H156.3c-5.5,0-10-4.5-10-10s4.5-10,10-10
	h210.9c22.1,0,41.1,17.3,41.1,39.4v431.9c0,22.1-19,40.7-41.1,40.7H156.3c-5.5,0-10-4.5-10-10S150.7,632.9,156.3,632.9z"/>
<path class="st0" d="M15.7,381.9h218.4l-75.3-84c-3.7-4.1-3.4-10.6,0.7-14.3c4.1-3.7,10.5-3.5,14.2,0.7l90.4,100.3
	c0.1,0.2,0.2,0.3,0.4,0.5c0.2,0.3,0.5,0.6,0.7,0.9c0.2,0.3,0.3,0.5,0.4,0.8c0.2,0.3,0.3,0.6,0.4,0.9c0.1,0.3,0.2,0.6,0.3,0.9
	c0.1,0.3,0.2,0.6,0.2,0.9c0.1,0.4,0.1,0.7,0.1,1.1c0,0.2,0.1,0.5,0.1,0.7c0,0,0,0.1,0,0.1c0,0.4-0.1,0.8-0.1,1.2
	c0,0.2,0,0.5-0.1,0.7c-0.1,0.4-0.2,0.8-0.4,1.1c-0.2,0.7-0.6,1.4-1,2.1c-0.1,0.1-0.1,0.2-0.2,0.3c-0.4,0.6-0.8,1.1-1.3,1.5
	l-90.3,90.3c-2,2-4.5,2.9-7.1,2.9c-2.6,0-5.1-1-7.1-2.9c-3.9-3.9-3.9-9.9,0-13.9l73.2-72.9H15.7c-5.5,0-10-4.5-10-10
	S10.2,381.9,15.7,381.9z"/>
</svg>
