<?xml version="1.0" encoding="utf-8"?>
<svg version="1.1" xmlns="http://www.w3.org/2000/svg" xmlns:xlink="http://www.w3.org/1999/xlink" x="0px" y="0px"
	 viewBox="-275 385.89 44 70" enable-background="new -275 385.89 44 70" xml:space="preserve">
<path d="M-231.121,444.373c0.373,1.92-0.106,3.904-1.315,5.443l-2.936,3.742
	c-1.186,1.511-2.989,2.324-4.817,2.324c-1.038,0-2.083-0.262-3.03-0.807c-2.614-1.504-3.734-4.743-2.605-7.534l1.781-4.406
	c0.589-1.457,1.663-2.65,3.024-3.393v-3.072c0-0.371-0.303-0.673-0.675-0.673h-22.607c-0.373,0-0.675,0.302-0.675,0.673v2.882
	h12.664c0.757,0,1.371,0.613,1.371,1.368c0,0.755-0.614,1.367-1.371,1.367h-10.058c0.157,0.271,0.298,0.553,0.417,0.848l1.781,4.406
	c1.129,2.791,0.009,6.03-2.605,7.534c-0.946,0.545-1.993,0.807-3.03,0.807c-1.828,0-3.631-0.813-4.817-2.324l-2.937-3.742
	c-1.208-1.539-1.687-3.524-1.314-5.443c0.373-1.915,1.556-3.572,3.247-4.551c-0.308-0.25-0.596-0.528-0.859-0.833
	c-1.299-1.504-1.874-3.493-1.578-5.455c0.481-3.189,1.843-6.169,3.937-8.617c1.568-1.833,3.495-3.31,5.651-4.348
	c-2.639-2.807-4.258-6.579-4.258-10.722c0-8.52,6.846-15.476,15.342-15.686c0.033-0.002,0.066-0.005,0.099-0.005l0,0
	c0.864,0,1.677-0.335,2.288-0.944c0.611-0.61,0.947-1.42,0.947-2.281c0-1.272-1.038-2.307-2.314-2.307l0,0
	c-0.48,0-0.906,0.136-1.2,0.384c-0.25,0.21-0.376,0.481-0.376,0.806c0,0.755-0.614,1.367-1.372,1.367
	c-0.757,0-1.371-0.612-1.371-1.367c0-1.136,0.48-2.165,1.351-2.897c0.789-0.662,1.843-1.027,2.968-1.027l0,0
	c2.788,0,5.057,2.261,5.056,5.041c0,1.412-0.49,2.749-1.389,3.819c6.598,1.867,11.445,7.929,11.445,15.097
	c0,4.143-1.619,7.915-4.258,10.722c2.157,1.038,4.084,2.515,5.652,4.348c2.094,2.449,3.455,5.428,3.936,8.617
	c0.296,1.962-0.279,3.951-1.577,5.455c-0.264,0.305-0.552,0.583-0.86,0.833C-232.677,440.801-231.494,442.458-231.121,444.373z
	 M-272.182,444.893c-0.223,1.142,0.062,2.323,0.781,3.238l2.937,3.742c1.023,1.303,2.879,1.662,4.316,0.834
	c1.437-0.827,2.054-2.609,1.433-4.144l-1.781-4.406c-0.436-1.078-1.319-1.915-2.422-2.294s-2.315-0.263-3.325,0.319
	C-271.253,442.763-271.96,443.752-272.182,444.893z M-240.003,409.847c0-7.144-5.83-12.956-12.995-12.956
	s-12.995,5.812-12.995,12.956c0,7.145,5.83,12.957,12.995,12.957C-245.832,422.804-240.003,416.992-240.003,409.847z
	 M-234.643,433.941c-0.785-5.203-4.264-9.502-9.148-11.376c-2.591,1.869-5.772,2.973-9.207,2.973c-3.435,0-6.616-1.104-9.207-2.973
	c-4.884,1.874-8.363,6.173-9.148,11.376c-0.177,1.174,0.167,2.364,0.944,3.265c0.688,0.796,1.651,1.292,2.69,1.395v-1.931
	c0-1.392,0.843-2.592,2.046-3.12v-1.654c0-0.755,0.614-1.367,1.371-1.367c0.758,0,1.372,0.612,1.372,1.367v1.367h19.873v-1.367
	c0-0.755,0.614-1.367,1.372-1.367c0.757,0,1.371,0.612,1.371,1.367v1.658c1.198,0.53,2.037,1.727,2.037,3.116v1.931
	c1.038-0.103,2.002-0.599,2.69-1.395C-234.81,436.305-234.466,435.115-234.643,433.941z M-233.813,444.893
	c-0.222-1.141-0.929-2.13-1.94-2.712c-0.619-0.356-1.313-0.538-2.012-0.538c-0.442,0-0.886,0.073-1.313,0.22
	c-1.103,0.379-1.985,1.215-2.421,2.294l-1.782,4.406c-0.62,1.535-0.004,3.317,1.433,4.144c1.438,0.828,3.293,0.469,4.316-0.834
	l2.937-3.742C-233.876,447.215-233.591,446.035-233.813,444.893z M-245.021,410.814c-0.536,0.534-1.404,0.534-1.939,0
	c-0.175-0.174-0.459-0.174-0.634,0c-0.267,0.267-0.619,0.401-0.969,0.401c-0.351,0-0.702-0.134-0.97-0.401
	c-0.535-0.534-0.535-1.4,0-1.934c1.244-1.24,3.268-1.24,4.512,0C-244.486,409.414-244.486,410.28-245.021,410.814z
	 M-249.016,416.439c-0.978,1.204-2.43,1.895-3.982,1.895s-3.004-0.691-3.982-1.895c-0.477-0.586-0.387-1.447,0.202-1.923
	c0.588-0.475,1.451-0.385,1.928,0.202c0.456,0.56,1.131,0.881,1.852,0.881s1.396-0.321,1.852-0.881
	c0.477-0.587,1.34-0.677,1.929-0.202C-248.629,414.992-248.539,415.853-249.016,416.439z M-256.463,410.814
	c-0.268,0.267-0.619,0.401-0.969,0.401c-0.351,0-0.702-0.134-0.97-0.401c-0.175-0.174-0.459-0.174-0.634,0
	c-0.535,0.534-1.403,0.534-1.939,0c-0.535-0.534-0.535-1.4,0-1.933c1.244-1.241,3.268-1.241,4.512,0
	C-255.927,409.415-255.927,410.28-256.463,410.814z M-247.835,441.886c-0.255-0.255-0.402-0.606-0.402-0.967
	c0-0.359,0.147-0.712,0.402-0.966c0.255-0.255,0.609-0.401,0.969-0.401c0.361,0,0.715,0.146,0.97,0.401
	c0.255,0.254,0.401,0.607,0.401,0.966c0,0.36-0.146,0.712-0.401,0.967c-0.255,0.255-0.609,0.4-0.97,0.4
	C-247.226,442.286-247.58,442.141-247.835,441.886z M-258.771,451.416c0.703-0.28,1.501,0.06,1.783,0.76
	c0.235,0.586,0.832,0.979,1.485,0.979h5.01c0.653,0,1.25-0.393,1.485-0.979c0.282-0.7,1.081-1.041,1.783-0.76
	c0.703,0.281,1.044,1.077,0.763,1.778c-0.659,1.638-2.241,2.696-4.031,2.696h-5.01c-1.79,0-3.372-1.058-4.031-2.696
	C-259.815,452.493-259.474,451.697-258.771,451.416z"/>
</svg>
