<?xml version="1.0" encoding="utf-8"?>
<!-- Generator: Adobe Illustrator 19.0.1, SVG Export Plug-In . SVG Version: 6.00 Build 0)  -->
<svg version="1.1" id="Слой_3" xmlns="http://www.w3.org/2000/svg" xmlns:xlink="http://www.w3.org/1999/xlink" x="0px" y="0px"
	 viewBox="0 0 316.496 340.022" enable-background="new 0 0 316.496 340.022" xml:space="preserve">
<g>
	<g>
		<path fill="#5A5A5A" stroke="#5A5A59" stroke-width="3" stroke-miterlimit="10" d="M279.576,269.208l0.178-0.705
			c1.666-6.639,4.891-23.109-1.119-32.649l-0.482-0.75c-3.625-5.464-7.711-10.711-11.66-15.785l-0.225-0.289
			c-1.045-1.339-2.088-2.677-3.121-4.019c-8.436-10.955-17.154-22.082-24.568-31.521c-2.83-3.6-5.668-7.284-8.506-10.876
			l-7.121-9.113h0.004l-3.832-4.763c-1.377-1.747-2.754-3.448-4.135-5.193c-0.494-0.626-1.137-1.41-1.904-2.313l-1.441-1.684
			l-1.529-1.497c-7.297-7.137-14.734-9.124-22.039-5.81c-2.078,0.943-3.846,2.467-5.115,4.404l-1.172,1.791l-1.283-1.714
			c-1.502-2.007-2.547-3.433-3.191-4.358c-0.08-0.117-0.158-0.211-0.236-0.305c-6.107-7.123-11.973-10.738-17.426-10.738
			c-3.563,0-6.301,1.605-7.972,2.951c-2.339,1.884-3.901,4.439-4.645,7.596l-0.556,2.357l-1.862-1.547
			c-4.841-4.02-9.237-5.973-13.443-5.973c-3.232,0-6.42,1.169-10.031,3.68l-0.593,0.408c-6.262,4.227-6.229,14.588-2.025,21.034
			l1.505,2.296l-2.275,0.37c-3.165,0.515-5.919,1.886-7.964,3.964c-2.191,2.225-6.641,8.593-0.656,19.687
			c0.877,1.627,1.912,3.078,2.914,4.481l0.748,1.059c4.645,6.605,9.617,13.379,14.004,19.356c3.471,4.73,7.061,9.622,10.579,14.538
			c0.976,1.364,1.94,2.739,2.9,4.113c2.276,3.252,4.63,6.614,7.165,9.811c0.492,0.625,1.035,1.259,1.59,1.905
			c1.863,2.179,3.768,4.405,3.768,6.449c0,0.099-0.003,0.182-0.007,0.249l0.127,0.991l-1.045,0.444
			c-0.71,0.304-1.785,0.228-2.684-0.219c-2.137-1.064-3.911-3.229-5.791-5.521c-1.061-1.301-2.262-2.773-3.624-4.087l-0.268-0.257
			c-4.183-4.036-11.174-10.783-18.598-10.783c-2.114,0-4.177,0.561-6.13,1.665c-2.439,1.378-4.144,2.974-5.208,4.881
			c-2.431,4.352,0.178,8.892,1.903,11.896l0.098,0.169c0.319,0.554,0.619,1.077,0.851,1.559
			c5.05,10.477,12.658,20.415,19.394,28.907c11.006,13.885,22.07,24.334,33.824,31.944c12.873,8.337,26.643,12.743,39.82,12.743
			c2.119,0,4.242-0.112,6.311-0.335c0.625-0.068,1.223-0.305,1.775-0.705l1.18-0.855l11.184,14.522
			c0.713,0.925,1.793,1.455,2.965,1.455c0.828,0,1.613-0.269,2.273-0.776c0.791-0.608,1.297-1.488,1.426-2.477
			c0.127-0.989-0.137-1.969-0.746-2.76l-12.326-16.003c-0.713-0.925-1.791-1.456-2.961-1.456c-0.83,0-1.617,0.269-2.275,0.777
			c-0.18,0.137-0.35,0.298-0.52,0.491l-0.6,0.682l-0.881-0.216c-0.463-0.113-0.871-0.149-1.299-0.105
			c-1.816,0.195-3.682,0.294-5.533,0.294c-14.795,0.001-27.598-6.277-35.734-11.545c-11.061-7.164-21.538-17.08-32.029-30.315
			c-6.49-8.186-13.81-17.739-18.518-27.511c-0.328-0.677-0.771-1.461-1.199-2.205c-0.74-1.283-1.555-2.737-1.8-3.708l-0.192-0.762
			l0.516-0.592c0.428-0.49,1.092-0.991,1.975-1.49c0.732-0.414,1.562-0.624,2.463-0.624c4.48,0,10.065,5.391,13.402,8.611
			l0.268,0.255c0.988,0.955,1.941,2.113,2.949,3.339l0.09,0.109c2.188,2.671,4.664,5.694,8.234,7.476
			c3.289,1.637,7.316,1.54,10.194-0.247c2.686-1.665,4.222-4.553,4.216-7.922c-0.008-4.807-3.22-8.555-5.565-11.29
			c-0.493-0.577-0.97-1.133-1.408-1.684c-2.396-3.026-4.583-6.151-6.897-9.459c-0.979-1.398-1.957-2.793-2.948-4.178
			c-3.51-4.904-7.13-9.838-10.63-14.608l-0.198-0.271c-4.542-6.189-9.239-12.591-13.709-18.954l-0.772-1.086
			c-0.927-1.302-1.783-2.505-2.439-3.72c-1.498-2.773-3.565-7.876-0.592-10.894c1.227-1.244,3.145-1.957,5.26-1.957
			c1.467,0,2.895,0.34,4.131,0.982c2.705,1.405,4.527,3.253,6.092,5.04c0.844,1.029,1.438,1.748,1.67,2.026
			c1.666,2.242,16.398,22.029,36.553,46.486c1.267,1.539,3.709,1.78,5.264,0.505c1.584-1.308,1.813-3.666,0.504-5.256
			c-15.476-18.779-27.643-34.656-33.52-42.448l-0.139-0.186l-0.078-0.219c-0.164-0.466-0.408-0.883-0.727-1.241
			c-0.742-0.835-1.432-1.659-2.105-2.463c-0.527-0.632-1.039-1.237-1.561-1.843c-3.057-3.737-8.602-10.661-11.676-15.378
			c-2.594-3.978-1.881-9.514-0.074-10.75l0.707-0.484c1.284-0.891,3.047-2.113,5.634-2.113c5.278,0,11.587,5.163,19.856,16.246
			c2.699,3.738,10.121,13.232,17.299,22.414c9.305,11.905,20.885,26.723,22.996,30.063c0.688,1.092,1.867,1.742,3.16,1.742
			c0.705,0,1.393-0.2,1.992-0.578c1.74-1.099,2.262-3.41,1.164-5.152c-2.314-3.661-13.049-17.394-23.428-30.673
			c-7.414-9.485-14.394-18.405-17.057-22.078l-0.419-0.393v-0.194c-3-4.202-3.941-12.742-0.261-15.706
			c0.977-0.786,2.11-1.184,3.364-1.184c3.156,0,7.038,2.634,11.53,7.826l0.093,0.118c1.645,2.338,5.443,7.383,11.291,14.994
			l0.138,0.215c0.883,1.676,1.994,3.137,3.303,4.344l0.299,0.295c12.148,15.741,26.289,33.775,26.42,33.941
			c0.715,0.912,1.787,1.434,2.947,1.434c0.84,0,1.633-0.274,2.295-0.795c1.623-1.272,1.908-3.624,0.639-5.245l-0.066-0.086
			c-2.918-3.724-18.043-23.045-29.398-37.806l-0.119-0.154l-0.074-0.18c-0.666-1.584-0.9-3.295-0.662-4.816
			c0.295-1.902,1.24-3.23,2.809-3.944c1.285-0.583,2.516-0.866,3.766-0.866c4.268,0,8.783,3.192,14.209,10.045
			c8.977,11.338,16.467,20.832,23.572,29.878c6.877,8.752,15.879,20.237,24.522,31.462c1.096,1.416,2.193,2.83,3.297,4.247
			c3.902,5.008,7.92,10.165,11.473,15.522l0.313,0.481c4.117,6.533,2.012,20.989-0.406,29.115c-0.344,1.15-0.113,2.403,0.617,3.353
			l15.225,19.763c0.713,0.925,1.793,1.455,2.965,1.455c0.83,0,1.615-0.268,2.273-0.775c0.791-0.61,1.299-1.49,1.426-2.48
			c0.129-0.989-0.135-1.969-0.744-2.758L279.576,269.208z"/>
	</g>
	<g>
		<path fill="#5A5A5A" stroke="#5A5A59" stroke-width="3" stroke-miterlimit="10" d="M212.445,145.737
			c0.006,0.098,0.012,0.194,0.027,0.292c0.018,0.103,0.045,0.199,0.07,0.297l0.053,0.217l0.57,1.71l1.611,0.635
			c0.084,0.033,0.172,0.054,0.26,0.076l0.129,0.034c0.072,0.021,0.141,0.221,0.211,0.244c0.254,0.058,0.49,0.258,0.756,0.258h0.107
			c0.227,0,0.428-0.204,0.604-0.237l0.203-0.15c0.166-0.042,0.328-0.128,0.486-0.192l0.148-0.074
			c1.104-0.451,2.379-0.718,3.521-0.718c2.258,0,3.986,0.939,4.867,2.653c1.527,2.984,1.406,5.93-0.381,9.275
			c-0.346,0.648-0.49,1.375-0.42,2.107l0.232,2.397l2.274,0.78c1.81,0.622,3.662-0.199,4.504-1.77
			c2.914-5.455,3.066-11.059,0.441-16.201c-1.148-2.24-2.92-4.045-5.123-5.217l-1.682-0.895l1.264-1.426
			c9.178-10.34,10.68-18.709,4.592-25.587c-1.99-2.246-4.613-3.687-7.801-4.282l-2.381-0.445l1.457-1.932
			c8.41-11.153,5.32-18.166,1.189-23.555l-0.438-0.578c-2.139-2.869-5.762-4.444-10.209-4.444c-3.916,0-7.887,1.243-10.895,3.411
			l-2.223,1.631l-0.48-2.275c-0.662-3.135-2.16-5.821-4.334-7.77c-1.352-1.213-4.285-3.247-8.729-3.247
			c-3.398,0-7.086,1.181-10.959,3.511c-1.609,0.972-3.035,2.094-4.414,3.18l-0.945,0.742c-6.223,4.822-12.425,9.836-18.424,14.685
			l-0.27,0.218c-4.58,3.703-9.315,7.531-14.017,11.244c-1.323,1.043-2.65,2.068-3.98,3.096c-3.141,2.423-6.387,4.928-9.461,7.609
			c-0.562,0.489-1.131,1.021-1.713,1.566l-0.121,0.113c-2.073,1.953-4.213,3.968-6.261,4.066l-0.151,0.004l-1.025,0.308
			l-0.553-1.162c-0.273-0.575-0.391-1.585,0.102-2.692c0.961-2.182,3.041-4.055,5.242-6.037c1.366-1.235,2.712-2.452,3.91-3.814
			l0.233-0.27c4.849-5.514,13.858-15.761,7.958-25.133c-1.486-2.371-3.162-3.998-5.121-4.978c-1.102-0.55-2.227-0.817-3.438-0.817
			c-3.215,0-6.305,1.971-8.348,3.273c-0.636,0.408-1.168,0.75-1.688,1.032c-10.195,5.517-19.783,13.592-27.969,20.728
			c-13.357,11.652-23.275,23.193-30.322,35.283c-6.172,10.587-9.109,24.379-9.246,43.402l-0.005,0.655l-0.484,0.442
			c-2.839,2.59-10.534,8.669-16.153,13.107C7.994,210.967,8.031,211.203,8.476,214.1c0.309,1.992,2.209,3.441,4.258,3.122
			c1.182-0.182,2.18-0.894,2.741-1.951l0.098-0.185l0.144-0.15c2.166-2.262,11.002-9.245,18.103-14.857l0.119-0.094
			c18.941-14.969,19.483-15.63,19.478-18.137c-0.051-18.377,2.644-31.975,8.235-41.57c6.631-11.379,16.044-22.308,28.777-33.416
			c7.879-6.868,17.082-14.628,26.61-19.785c0.671-0.362,1.431-0.843,2.149-1.304c1.346-0.856,2.686-1.685,3.617-1.97l0.764-0.234
			l0.621,0.502c0.51,0.414,1.038,1.053,1.568,1.899c2.929,4.656-3.436,11.896-7.238,16.221l-0.246,0.279
			c-0.899,1.026-2.01,2.031-3.185,3.094l-0.108,0.099c-2.568,2.312-5.477,4.929-7.081,8.575c-1.514,3.426-1.237,7.324,0.722,10.174
			c1.771,2.58,4.749,3.994,8.117,3.842c4.795-0.234,8.387-3.62,11.01-6.092c0.588-0.551,1.107-1.037,1.618-1.483
			c2.866-2.499,5.841-4.798,8.989-7.232l0.125-0.098c1.355-1.045,2.705-2.088,4.047-3.145c4.762-3.761,9.502-7.594,14.086-11.299
			c5.713-4.621,12.188-9.858,18.563-14.803l0.988-0.773c1.254-0.988,2.439-1.924,3.66-2.658c1.502-0.904,4.428-2.422,7.131-2.422
			c1.49,0,2.74,0.445,3.717,1.322c2.268,2.035,2.893,6.134,1.418,9.332c-1.215,2.633-2.805,4.458-4.818,6.389
			c-0.865,0.777-1.478,1.338-1.783,1.617l-0.117,0.096c-1.508,1.121-9.82,7.412-25.488,21.162c-1.546,1.357-1.701,3.723-0.344,5.27
			c0.709,0.809,1.732,1.271,2.811,1.271c0.906,0,1.779-0.329,2.461-0.928c10.08-8.846,17.16-14.63,21.322-17.924l0.219-0.174
			l0.266-0.082c0.592-0.186,1.098-0.479,1.5-0.873c0.771-0.755,1.535-1.457,2.281-2.143l0.104-0.094
			c0.584-0.535,1.166-1.076,1.75-1.631c3.601-3.234,10.267-9.105,14.809-12.379c2.391-1.723,5.063-1.979,6.443-1.979
			c0.971,0,3.336,0.137,4.289,1.403l0.518,0.68c3.527,4.604,5.73,10.803-12.934,26.138c-3.621,2.876-11.104,8.817-21.975,18.161
			c-1.561,1.344-1.738,3.705-0.396,5.266c0.709,0.828,1.742,1.301,2.836,1.301c0.891,0,1.756-0.32,2.434-0.9
			c10.689-9.191,18.033-15.031,21.637-17.892l0.252-0.194c2.371-1.897,6.725-3.303,10.297-3.303c2.558,0,4.535,0.705,5.719,2.039
			c2.967,3.355,3.805,8.756-12.477,23.389c-0.039,0.047-0.078,0.09-0.121,0.131c-0.113,0.107-0.199,0.211-0.285,0.314
			c-0.102,0.119-0.162,0.186-0.213,0.261c-0.057,0.083-0.103,0.171-0.152,0.257l-0.053,0.097c-0.055,0.095-0.109,0.188-0.152,0.287
			c-0.033,0.077-0.063,0.177-0.094,0.274l-0.041,0.12c-0.029,0.093-0.063,0.185-0.084,0.279c-0.023,0.099-0.031,0.192-0.043,0.288
			l-0.021,0.185c-0.01,0.073-0.021,0.147-0.021,0.222c-0.004,0.11,0.006,0.207,0.012,0.306l-0.461,0.073
			c0.027,0.027,0.057,0.055,0.086,0.083L212.445,145.737z"/>
	</g>
	<g>
		<path fill="#5A5A5A" stroke="#5A5A59" stroke-width="3" stroke-miterlimit="10" d="M96.711,243.394c-0.764,0-1.5,0.231-2.131,0.67
			c-7.226,5.035-31.797,26.774-32.043,26.992c-0.75,0.663-1.195,1.575-1.256,2.571c-0.06,0.995,0.27,1.955,0.931,2.703
			c0.708,0.8,1.727,1.259,2.798,1.259c0.91,0,1.789-0.333,2.475-0.939c1.001-0.886,24.608-21.75,31.368-26.459
			c1.689-1.177,2.105-3.509,0.929-5.199C99.083,243.991,97.935,243.394,96.711,243.394z"/>
	</g>
	<g>
		<path fill="#5A5A5A" stroke="#5A5A59" stroke-width="3" stroke-miterlimit="10" d="M142.492,69.666
			c1.869,0,3.797-0.265,5.732-0.786c8.657-2.335,12.37-7.598,13.96-11.601c4.578-11.52-0.563-29.176-15.714-53.967
			c-0.52-0.055-0.977-0.372-1.241-0.846c-0.408-0.83-1.072-0.967-3.018-0.967h-0.697c-2,0-2.683,0.143-3.059,0.938
			c-2.912,6.168-13.514,32.065-15.251,38.915c-1.877,7.398-0.298,15.291,4.224,21.107C131.093,67.171,136.302,69.665,142.492,69.666
			z M130.441,42.592c1.194-4.701,7.231-20.138,10.756-28.764l1.172-2.867l1.523,2.696c13.388,23.688,13.563,35.296,11.352,40.862
			c-1.418,3.565-4.351,5.904-8.967,7.149c-1.304,0.351-2.577,0.528-3.785,0.528c-4.602,0-7.524-2.514-9.166-4.623
			C130.217,53.574,129.111,47.834,130.441,42.592z"/>
	</g>
	<g>
		<path fill="#5A5A5A" stroke="#5A5A59" stroke-width="3" stroke-miterlimit="10" d="M309.011,150.227
			c-5.619-5.172-14.592-7.688-27.428-7.688c-8.016,0-17.664,1.033-28.674,3.07l-0.375,0.07l-0.365-0.119
			c-0.375-0.124-0.768-0.187-1.166-0.187c-0.967,0-1.883,0.368-2.582,1.038c-0.623,0.597-1.021,1.393-1.123,2.241l-0.035,0.19
			c-0.09,0.352-0.125,0.715-0.107,1.08c0.072,1.533,1.051,2.85,2.494,3.355l0.322,0.113l0.242,0.242
			c7.273,7.279,24.248,23.435,29.418,27.082c4.297,3.029,9.539,4.697,14.762,4.697c3.287,0,6.51-0.677,9.32-1.957
			c6.328-2.88,10.387-8.727,11.137-16.041C315.765,158.498,312.181,153.146,309.011,150.227z M307.42,166.654
			c-0.488,4.742-2.838,8.201-6.797,10.004c-1.848,0.841-3.998,1.286-6.219,1.286c-3.703,0-7.42-1.184-10.465-3.332
			c-3.855-2.718-15.949-14.118-22.488-20.427l-2.199-2.119l3.022-0.443c7.16-1.052,13.619-1.585,19.199-1.585
			c13.477,0,19.664,3.092,22.482,5.686C306.777,158.326,307.91,161.9,307.42,166.654z"/>
	</g>
	<g>
		<path fill="#5A5A5A" stroke="#5A5A59" stroke-width="3" stroke-miterlimit="10" d="M16.89,144.148
			c3.857,0,7.72-1.227,10.877-3.453c3.664-2.582,15.184-13.576,20.251-18.615l0.199-0.198l0.258-0.112
			c1.313-0.574,2.171-1.818,2.239-3.249c0.018-0.347-0.014-0.687-0.09-1.015l-0.025-0.136c-0.115-0.833-0.5-1.584-1.113-2.171
			c-0.907-0.87-2.227-1.226-3.443-0.938l-0.306,0.072l-0.31-0.057c-7.481-1.369-14.08-2.063-19.611-2.063
			c-9.229,0-15.706,1.834-19.803,5.606c-2.387,2.194-5.088,6.205-4.406,12.854c0.562,5.476,3.611,9.857,8.367,12.023
			C12.092,143.66,14.42,144.148,16.89,144.148z M11.068,123.316c1.801-1.654,5.824-3.626,14.771-3.626
			c2.923,0,6.208,0.215,9.763,0.639l3.164,0.377l-2.306,2.198c-2.386,2.274-10.376,9.84-12.997,11.686
			c-1.876,1.325-4.278,2.086-6.59,2.086c-1.37,0-2.685-0.27-3.802-0.777c-2.38-1.083-3.736-3.098-4.032-5.988
			C8.638,126.045,10.006,124.297,11.068,123.316z"/>
	</g>
</g>
</svg>
