<?xml version="1.0" encoding="utf-8"?>
<!-- Generator: Adobe Illustrator 19.0.1, SVG Export Plug-In . SVG Version: 6.00 Build 0)  -->
<svg version="1.1" id="Layer_1" xmlns="http://www.w3.org/2000/svg" xmlns:xlink="http://www.w3.org/1999/xlink" x="0px" y="0px"
	 viewBox="-120.2 141 390.4 492" enable-background="new -120.2 141 390.4 492" xml:space="preserve">
<path fill="#5A5A59" d="M218.3,343.7c-28.6,0-51.9-23.3-51.9-51.9c0-8.3,2-16.6,5.8-23.9l0.2-0.3l0.1-0.3c0.1-0.3,0.3-0.7,0.5-1
	l36.7-63.6c1.7-3,5-4.9,8.4-4.9s6.7,1.9,8.5,4.9l34.6,59.9l0.2,0.3c5.8,8.6,8.9,18.6,8.9,29C270.2,320.4,246.9,343.7,218.3,343.7z
	 M190.6,274.8l-0.2,0.4c-0.1,0.2-0.2,0.5-0.3,0.7c-2.8,4.9-4.2,10.3-4.2,15.9c0,17.9,14.5,32.4,32.4,32.4c8.7,0,16.8-3.4,22.9-9.5
	c6.1-6.1,9.5-14.3,9.5-22.9c0-6.6-2-13-5.8-18.5c-0.2-0.2-0.3-0.5-0.4-0.7L218.1,227L190.6,274.8z"/>
<path fill="#5A5A59" d="M-46.4,633c-40.7,0-73.8-33.1-73.8-73.8V385.4c0-35,24.9-65.4,59.2-72.3l8-1.6v-70.4c0-5.4,4.4-9.8,9.8-9.8
	H6.3v-70.8h-37c-5.4,0-9.8-4.4-9.8-9.8c0-5.4,4.4-9.8,9.8-9.8h249c5.4,0,9.8,4.4,9.8,9.8c0,5.4-4.4,9.8-9.8,9.8H25.8v70.8h49.5
	c5.4,0,9.8,4.4,9.8,9.8v70.4l8,1.6c34.3,6.9,59.2,37.3,59.2,72.3v173.8c0,40.7-33.1,73.8-73.8,73.8H-46.4z M-46.4,331.1
	c-29.9,0-54.3,24.4-54.3,54.3v173.8c0,29.9,24.4,54.3,54.3,54.3H78.4c29.9,0,54.3-24.4,54.3-54.3V385.4c0-29.9-24.4-54.3-54.3-54.3
	H-46.4z M-33.5,311.6h99v-60.8h-99V311.6z"/>
</svg>
