<?xml version="1.0" encoding="utf-8"?>
<!-- Generator: Adobe Illustrator 19.0.1, SVG Export Plug-In . SVG Version: 6.00 Build 0)  -->
<svg version="1.1" id="Слой_3" xmlns="http://www.w3.org/2000/svg" xmlns:xlink="http://www.w3.org/1999/xlink" x="0px" y="0px"
	 viewBox="0 0 160 265" enable-background="new 0 0 160 265" xml:space="preserve">
<g>
	<g>
		<g>
			<path fill="#5A5A59" d="M18.778,154.874c-1.866,0-3.535-1.313-3.917-3.212c-0.436-2.166,0.967-4.275,3.132-4.71
				c0.904-0.187,22.398-4.869,22.393-25.294c0-2.209,1.79-4,3.999-4.001h0.001c2.209,0,4,1.79,4,3.999
				c0.005,21.625-18.847,31.132-28.815,33.138C19.306,154.848,19.04,154.874,18.778,154.874z"/>
		</g>
		<g>
			<path fill="#5A5A59" d="M70.786,154.874c-0.262,0-0.527-0.026-0.793-0.08c-9.968-2.006-28.819-11.513-28.816-33.138
				c0-2.209,1.791-4,4-4h0c2.209,0.001,4,1.791,4,4.001c-0.002,20.551,21.48,25.11,22.395,25.294
				c2.166,0.436,3.568,2.545,3.132,4.71C74.321,153.561,72.652,154.874,70.786,154.874z"/>
		</g>
		<g>
			<g>
				<path fill="#5A5A59" d="M44.387,185.327C44.387,185.327,44.387,185.327,44.387,185.327c-2.21-0.001-4-1.792-4-4.001
					c0.005-20.55-21.479-25.109-22.393-25.294c-2.166-0.436-3.568-2.545-3.132-4.71c0.436-2.165,2.548-3.57,4.71-3.132
					c9.969,2.006,28.821,11.513,28.815,33.138C48.387,183.536,46.596,185.327,44.387,185.327z"/>
			</g>
			<g>
				<path fill="#5A5A59" d="M45.177,185.327c-2.209,0-4-1.791-4-4c-0.002-21.624,18.848-31.132,28.816-33.138
					c2.161-0.44,4.274,0.966,4.71,3.132c0.436,2.166-0.966,4.274-3.132,4.71c-0.904,0.187-22.397,4.869-22.395,25.294
					C49.177,183.535,47.386,185.326,45.177,185.327z"/>
			</g>
		</g>
	</g>
	<g>
		<g>
			<path fill="#5A5A59" d="M76.286,194.261c-1.866,0-3.535-1.313-3.917-3.212c-0.436-2.165,0.966-4.274,3.132-4.71
				c0.633-0.132,15.84-3.475,15.837-17.811c-0.001-2.209,1.79-4.001,3.999-4.001c0,0,0,0,0.001,0c2.209,0,3.999,1.79,4,3.999
				c0.003,16.75-14.558,24.106-22.259,25.656C76.813,194.235,76.548,194.261,76.286,194.261z"/>
		</g>
		<g>
			<path fill="#5A5A59" d="M114.977,194.261c-0.262,0-0.527-0.026-0.794-0.08c-7.7-1.55-22.261-8.906-22.259-25.655
				c0-2.209,1.791-3.999,4-3.999h0c2.209,0,4,1.792,4,4c-0.001,14.458,15.19,17.681,15.837,17.812
				c2.166,0.436,3.568,2.545,3.132,4.71C118.511,192.949,116.842,194.261,114.977,194.261z"/>
		</g>
		<g>
			<g>
				<path fill="#5A5A59" d="M95.338,216.915C95.338,216.915,95.338,216.915,95.338,216.915c-2.21-0.001-4.001-1.792-4-4.001
					c0.003-14.458-15.19-17.681-15.837-17.811c-2.166-0.436-3.568-2.544-3.132-4.71c0.436-2.166,2.544-3.57,4.71-3.132
					c7.7,1.549,22.262,8.905,22.259,25.656C99.338,215.125,97.547,216.915,95.338,216.915z"/>
			</g>
			<g>
				<path fill="#5A5A59" d="M95.925,216.915c-2.209,0-4-1.79-4-3.999c-0.002-16.751,14.559-24.106,22.259-25.655
					c2.163-0.439,4.274,0.966,4.711,3.132c0.436,2.166-0.967,4.275-3.132,4.71c-0.633,0.132-15.838,3.474-15.837,17.811
					C99.924,215.124,98.134,216.915,95.925,216.915z"/>
			</g>
		</g>
	</g>
	<g>
		<path fill="#5A5A59" d="M131.165,265H29.109C13.058,265,0,252.011,0,236.046V61.905C0,49.707,0,33,18.58,33h44.549
			c22.266,0,47.827,12.372,68.378,33.096C152.515,87.281,160,111.712,160,127.512v108.534C160,252.282,147.334,265,131.165,265z
			 M18.58,41C9.529,41,8,46.22,8,61.905v174.142C8,247.6,17.469,257,29.109,257h102.056c11.684,0,20.835-9.204,20.835-20.954
			V127.512c0-14.207-6.876-36.323-26.174-55.784C106.745,52.487,83.307,41,63.128,41H18.58z"/>
	</g>
	<g>
		<path fill="#5A5A59" d="M60,40H8c-2.209,0-4-1.791-4-4V4c0-2.209,1.791-4,4-4h52c2.209,0,4,1.791,4,4v32
			C64,38.209,62.209,40,60,40z M12,32h44V8H12V32z"/>
	</g>
	<g>
		<path fill="#5A5A59" d="M125.199,157.789c-0.61,0-1.221-0.139-1.783-0.42c-2.095-1.043-3.187-2-4.583-3.51
			c-12.552-13.55-41.171-56.511-50.199-75.357c-0.347-0.724-0.456-1.501-0.36-2.242c-0.528-0.678-0.842-1.53-0.842-2.455
			c0-2.209,1.791-4,4-4c4.975,0,8.79,0.465,11.855,0.839l0.235,0.029c15.931,1.948,29.716,12.844,37.825,29.896
			c8.234,17.317,8.451,40.897,7.848,53.412c-0.065,1.349-0.807,2.575-1.973,3.258C126.599,157.605,125.899,157.789,125.199,157.789z
			 M77.348,78.053c9.571,18.546,32.163,52.081,44.054,66.551c-0.051-12.1-1.428-28.291-7.28-40.599
			c-4.06-8.538-13.559-23.189-31.569-25.391l-0.235-0.028C80.855,78.407,79.21,78.206,77.348,78.053z"/>
	</g>
	<g>
		<path fill="#5A5A59" d="M19,40c-2.209,0-4-1.791-4-4V7c0-2.209,1.791-4,4-4s4,1.791,4,4v29C23,38.209,21.209,40,19,40z"/>
	</g>
	<g>
		<path fill="#5A5A59" d="M32,39c-2.209,0-4-1.791-4-4V5c0-2.209,1.791-4,4-4s4,1.791,4,4v30C36,37.209,34.209,39,32,39z"/>
	</g>
	<g>
		<path fill="#5A5A59" d="M47,39c-2.209,0-4-1.791-4-4V5c0-2.209,1.791-4,4-4s4,1.791,4,4v30C51,37.209,49.209,39,47,39z"/>
	</g>
</g>
</svg>
