<?xml version="1.0" encoding="utf-8"?>
<svg version="1.1" xmlns="http://www.w3.org/2000/svg" xmlns:xlink="http://www.w3.org/1999/xlink" x="0px" y="0px"
	 viewBox="0 0 325.116 341.761" enable-background="new 0 0 325.116 341.761" xml:space="preserve">
<g>
	<g>
		<path stroke-width="2" stroke-miterlimit="10" d="M220.246,264.64
			c-3.963,0-7.829-1.068-11.266-3.162l-47.394-28.865c-1.887-1.148-2.485-3.61-1.336-5.497c1.149-1.887,3.609-2.486,5.497-1.335
			l47.394,28.865c3.27,1.99,7.184,2.509,11.021,1.456c3.922-1.075,7.29-3.649,9.482-7.248l21.694-35.619
			c2.192-3.599,2.934-7.771,2.089-11.75c-0.826-3.893-3.081-7.133-6.351-9.123L87.17,92.53c-3.271-1.99-7.184-2.509-11.021-1.456
			c-3.922,1.075-7.29,3.649-9.482,7.248l-21.695,35.619c-4.477,7.351-2.564,16.716,4.263,20.876l51.345,31.27
			c1.887,1.148,2.485,3.609,1.336,5.496c-1.149,1.887-3.61,2.486-5.497,1.336l-51.346-31.27
			c-10.595-6.456-13.705-20.752-6.933-31.87L59.835,94.16c3.257-5.349,8.3-9.185,14.199-10.802c5.982-1.639,12.127-0.81,17.297,2.34
			l163.906,99.83c5.17,3.147,8.728,8.225,10.016,14.294c1.27,5.984,0.175,12.226-3.083,17.574l-21.694,35.619
			c-3.257,5.349-8.3,9.185-14.199,10.802C224.271,264.367,222.246,264.64,220.246,264.64z"/>
	</g>
	<g>
		<path stroke-width="2" stroke-miterlimit="10" d="M194.459,193.746
			c-0.71,0-1.427-0.189-2.077-0.585l-5.924-3.609c-1.887-1.149-2.484-3.61-1.335-5.497c1.149-1.887,3.611-2.482,5.497-1.335
			l5.924,3.609c1.887,1.149,2.484,3.61,1.335,5.497C197.125,193.063,195.808,193.746,194.459,193.746z"/>
	</g>
	<g>
		<path stroke-width="2" stroke-miterlimit="10" d="M176.686,182.92
			c-0.708,0-1.426-0.188-2.076-0.584l-5.926-3.607c-1.887-1.149-2.485-3.61-1.336-5.497c1.147-1.887,3.609-2.486,5.497-1.337
			l5.926,3.607c1.887,1.149,2.485,3.61,1.336,5.497C179.354,182.236,178.037,182.92,176.686,182.92z"/>
	</g>
	<g>
		<path stroke-width="2" stroke-miterlimit="10" d="M154.962,169.689
			c-0.709,0-1.427-0.188-2.077-0.585L113.39,145.05c-1.887-1.148-2.485-3.61-1.335-5.497c1.148-1.886,3.608-2.486,5.497-1.335
			l39.495,24.055c1.887,1.148,2.485,3.61,1.335,5.497C157.629,169.006,156.311,169.689,154.962,169.689z"/>
	</g>
	<g>
		<path stroke-width="2" stroke-miterlimit="10" d="M102.634,222.458
			c-2.131,0-3.903-1.682-3.994-3.831l-2.199-52.139c-0.033-0.791,0.169-1.574,0.58-2.25l14.434-23.699
			c1.149-1.886,3.609-2.487,5.497-1.335c1.887,1.148,2.485,3.61,1.336,5.497l-13.803,22.662l2.148,50.926
			c0.093,2.208-1.621,4.072-3.828,4.165C102.748,222.457,102.691,222.458,102.634,222.458z"/>
	</g>
	<g>
		<path stroke-width="2" stroke-miterlimit="10" d="M132.794,241.466
			c-0.723,0-1.444-0.196-2.081-0.584l-30.525-18.592c-1.887-1.148-2.485-3.61-1.335-5.497c1.148-1.886,3.608-2.486,5.497-1.335
			l28.688,17.472l44.588-21.004l13.808-22.673c1.148-1.888,3.61-2.488,5.497-1.336c1.887,1.148,2.485,3.609,1.336,5.496
			l-14.433,23.699c-0.408,0.67-1.003,1.204-1.712,1.538l-47.622,22.434C133.957,241.34,133.375,241.466,132.794,241.466z"/>
	</g>
	<g>
		<g>
			<path stroke-width="2" stroke-miterlimit="10" d="M101.187,235.756
				c-0.709,0-1.427-0.189-2.077-0.585c-1.887-1.149-2.484-3.61-1.335-5.497l4.21-6.91c1.149-1.886,3.609-2.484,5.497-1.335
				c1.887,1.149,2.484,3.61,1.335,5.497l-4.21,6.91C103.854,235.072,102.537,235.756,101.187,235.756z"/>
		</g>
		<g>
			<path stroke-width="2" stroke-miterlimit="10" d="M120.936,247.785
				c-0.709,0-1.427-0.189-2.077-0.585c-1.887-1.148-2.485-3.609-1.336-5.496l4.209-6.912c1.149-1.888,3.609-2.487,5.497-1.336
				c1.887,1.148,2.485,3.609,1.336,5.496l-4.209,6.912C123.603,247.102,122.286,247.785,120.936,247.785z"/>
		</g>
	</g>
	<g>
		<path stroke-width="2" stroke-miterlimit="10" d="M80.723,331.588
			c-0.709,0-1.427-0.188-2.077-0.585c-1.887-1.149-2.485-3.61-1.335-5.497l43.626-71.626l-28.713-17.489l-43.626,71.627
			c-1.148,1.886-3.611,2.485-5.497,1.335c-1.887-1.15-2.485-3.61-1.335-5.497l45.707-75.043c0.552-0.905,1.441-1.556,2.472-1.806
			c1.031-0.252,2.12-0.081,3.025,0.471l35.546,21.65c1.887,1.15,2.485,3.61,1.335,5.497l-45.707,75.043
			C83.39,330.904,82.072,331.588,80.723,331.588z"/>
	</g>
	<g>
		<path stroke-width="2" stroke-miterlimit="10" d="M200.889,303.811
			c-7.248,0-14.378-1.985-20.726-5.853c-7.65-4.658-13.429-11.682-16.559-19.909c-12.977,14.127-31.529,21.904-51.049,21.111
			c-2.207-0.091-3.923-1.954-3.832-4.161c0.091-2.207,1.956-3.882,4.161-3.833c19.52,0.813,37.956-8.18,49.294-24.031
			c0.943-1.318,2.588-1.942,4.17-1.566c1.579,0.372,2.777,1.661,3.033,3.263c1.483,9.289,6.929,17.415,14.943,22.295
			c7.297,4.444,15.888,5.782,24.189,3.765c8.301-2.017,15.32-7.147,19.764-14.444c3.14-5.153,4.752-11.06,4.661-17.08
			c-0.018-1.195,0.499-2.336,1.41-3.109c0.911-0.774,2.121-1.103,3.297-0.888c15.497,2.778,31.406-4.375,39.589-17.814
			c8.889-14.593,6.989-33.53-4.62-46.052c-0.77-0.83-1.152-1.947-1.051-3.075c0.101-1.127,0.674-2.159,1.579-2.84
			c1.559-1.174,2.854-2.598,3.849-4.23c4.358-7.155,2.082-16.521-5.072-20.879c-0.486-0.296-1.03-0.575-1.713-0.88
			c-1.177-0.525-2.029-1.587-2.289-2.85c-0.259-1.263,0.106-2.573,0.982-3.52c1.139-1.232,2.161-2.585,3.036-4.023
			c3.481-5.715,4.528-12.442,2.948-18.943c-1.58-6.502-5.596-11.998-11.31-15.479c-8.001-4.87-17.961-4.887-25.993-0.04
			c-1.386,0.837-3.139,0.755-4.441-0.206c-1.303-0.961-1.897-2.612-1.508-4.183c5.374-21.64-3.821-43.978-22.879-55.587
			c-21.885-13.327-50.351-8.229-66.21,11.859c-0.822,1.041-2.106,1.601-3.428,1.511c-1.322-0.096-2.511-0.84-3.175-1.988
			c-2.501-4.328-6.096-8-10.395-10.618c-6.869-4.184-14.956-5.441-22.769-3.543c-7.814,1.899-14.421,6.727-18.604,13.595
			c-0.626,1.027-1.212,2.147-1.743,3.329c-0.436,0.97-1.24,1.726-2.235,2.102c-0.994,0.374-2.098,0.341-3.066-0.1
			c-9.843-4.466-21.507-0.863-27.135,8.377c-4.352,7.145-4.129,16.242,0.566,23.178c0.985,1.455,0.905,3.382-0.197,4.751
			c-1.102,1.368-2.968,1.855-4.599,1.206c-12.187-4.865-25.994-0.254-32.83,10.97c-3.728,6.121-4.85,13.327-3.158,20.291
			c1.692,6.964,5.995,12.852,12.115,16.579c2.694,1.642,5.613,2.785,8.676,3.398c1.468,0.294,2.649,1.383,3.061,2.822
			c0.411,1.44-0.016,2.989-1.107,4.015c-1.815,1.705-3.387,3.641-4.671,5.754c-3.833,6.291-4.985,13.695-3.247,20.852
			c1.738,7.156,6.16,13.207,12.449,17.038c5.225,3.182,11.197,4.514,17.278,3.861c1.261-0.136,2.51,0.333,3.37,1.265
			c0.859,0.932,1.226,2.216,0.989,3.461c-2.185,11.454-0.867,23.181,3.812,33.914c0.882,2.025-0.043,4.383-2.069,5.266
			c-2.022,0.882-4.382-0.043-5.265-2.068c-4.657-10.686-6.388-22.238-5.084-33.693c-6.057-0.207-11.92-1.961-17.192-5.173
			c-8.115-4.942-13.819-12.749-16.062-21.981c-2.243-9.232-0.756-18.786,4.188-26.9c0.519-0.854,1.075-1.686,1.665-2.492
			c-1.706-0.698-3.36-1.535-4.953-2.505c-7.945-4.838-13.531-12.482-15.727-21.523c-2.196-9.041-0.741-18.395,4.1-26.342
			c7.282-11.956,20.663-18.132,33.976-16.472c-2.3-7.837-1.29-16.451,3.084-23.632C50.21,67.552,64.172,62.42,76.835,66.275
			c0.164-0.288,0.331-0.572,0.501-0.851c5.295-8.694,13.658-14.805,23.548-17.208c9.89-2.403,20.125-0.811,28.818,4.485
			c3.867,2.354,7.284,5.385,10.076,8.909c18.836-19.84,49.341-24.162,73.133-9.673c19.808,12.065,30.41,34.146,27.866,56.662
			c8.935-2.776,18.73-1.655,26.955,3.354c7.539,4.591,12.839,11.844,14.923,20.422c2.084,8.578,0.703,17.454-3.89,24.993
			c-0.3,0.492-0.613,0.977-0.938,1.454c9.527,7.052,12.278,20.38,5.995,30.696c-0.791,1.299-1.704,2.509-2.73,3.623
			c11.664,15.038,13.01,36.099,2.975,52.574c-9.095,14.936-26.087,23.462-43.323,22.105c-0.593,5.925-2.508,11.655-5.634,16.785
			c-5.554,9.122-14.329,15.535-24.708,18.057C207.247,303.431,204.056,303.81,200.889,303.811z"/>
	</g>
	<g>
		<path stroke-width="2" stroke-miterlimit="10" d="M233.38,160.688
			c-0.419,0-0.844-0.066-1.264-0.206c-2.096-0.697-3.23-2.962-2.532-5.058c4.196-12.608-0.811-26.248-12.176-33.169
			c-4.034-2.457-8.642-3.879-13.324-4.11c-2.206-0.109-3.906-1.986-3.797-4.192c0.109-2.207,1.987-3.889,4.193-3.798
			c6.011,0.297,11.921,2.119,17.09,5.269c14.568,8.872,20.986,26.359,15.605,42.526C236.617,159.627,235.056,160.688,233.38,160.688
			z"/>
	</g>
	<g>
		<path stroke-width="2" stroke-miterlimit="10" d="M185.816,122.144
			c-1.246,0-2.473-0.573-3.251-1.657c-1.289-1.794-0.901-4.278,0.893-5.567c1.17-0.842,2.33-1.21,3.471-1.116
			c1.74-0.4,3.605,0.403,4.46,2.066c1.011,1.965,0.244,4.374-1.721,5.385c-0.888,0.457-1.752,0.686-2.586,0.688
			C186.669,122.076,186.241,122.144,185.816,122.144z"/>
	</g>
	<g>
		<path stroke-width="2" stroke-miterlimit="10" d="M138.666,92.907
			c-0.897,0-1.8-0.301-2.546-0.917c-5.319-4.394-12.801-5.381-19.063-2.508c-2.005,0.923-4.381,0.041-5.303-1.968
			c-0.921-2.009-0.04-4.383,1.968-5.304c9.033-4.145,19.825-2.727,27.494,3.613c1.703,1.407,1.942,3.929,0.535,5.631
			C140.961,92.412,139.818,92.907,138.666,92.907z"/>
	</g>
	<g>
		<path stroke-width="2" stroke-miterlimit="10" d="M265.504,98.872
			c-4.599,0-9.116-1.271-13.062-3.674c-5.737-3.493-9.77-9.013-11.356-15.54c-1.586-6.528-0.535-13.283,2.96-19.02
			c4.603-7.558,12.639-12.069,21.498-12.069c4.599,0,9.116,1.271,13.061,3.674c5.737,3.494,9.77,9.014,11.355,15.541
			c1.586,6.527,0.534,13.282-2.961,19.018C282.397,94.36,274.361,98.872,265.504,98.872z M265.544,56.569
			c-6.044,0-11.526,3.077-14.666,8.231c-2.383,3.912-3.1,8.518-2.018,12.969c1.081,4.451,3.831,8.214,7.743,10.597
			c2.692,1.64,5.77,2.506,8.9,2.506c6.043,0,11.525-3.077,14.664-8.231c2.383-3.912,3.1-8.517,2.019-12.968
			c-1.081-4.451-3.831-8.215-7.743-10.598C271.753,57.436,268.675,56.569,265.544,56.569z"/>
	</g>
	<g>
		<path stroke-width="2" stroke-miterlimit="10" d="M137.425,43.564
			c-3.892,0-7.714-1.075-11.053-3.108c-4.854-2.957-8.267-7.627-9.609-13.15c-1.342-5.524-0.453-11.238,2.505-16.093
			C123.164,4.818,129.964,1,137.459,1c3.893,0,7.714,1.075,11.053,3.108c10.021,6.105,13.209,19.223,7.105,29.243
			C151.721,39.746,144.92,43.564,137.425,43.564z M137.459,9c-4.681,0-8.927,2.383-11.358,6.375
			c-1.846,3.029-2.4,6.596-1.563,10.042c0.837,3.446,2.967,6.361,5.997,8.207c2.084,1.27,4.467,1.94,6.891,1.94
			c4.681,0,8.927-2.383,11.359-6.375c3.809-6.253,1.82-14.44-4.435-18.249C142.266,9.671,139.883,9,137.459,9z"/>
	</g>
	<g>
		<path stroke-width="2" stroke-miterlimit="10" d="M312.445,177.061
			c-2.134,0-4.229-0.589-6.058-1.703c-5.49-3.346-7.236-10.533-3.892-16.022c2.133-3.503,5.858-5.595,9.964-5.595
			c2.134,0,4.229,0.589,6.058,1.703c2.659,1.618,4.529,4.177,5.265,7.204c0.735,3.026,0.248,6.157-1.371,8.817
			C320.276,174.97,316.55,177.061,312.445,177.061z M312.46,161.741c-1.292,0-2.462,0.656-3.132,1.756
			c-1.05,1.724-0.501,3.979,1.222,5.029c0.574,0.35,1.23,0.535,1.896,0.535c1.292,0,2.463-0.657,3.133-1.757
			c0.508-0.835,0.661-1.817,0.43-2.768c-0.23-0.949-0.817-1.752-1.651-2.26C313.781,161.927,313.125,161.741,312.46,161.741z"/>
	</g>
	<g>
		<path stroke-width="2" stroke-miterlimit="10" d="M167.54,340.761
			c-2.635,0-5.222-0.728-7.482-2.103c-6.784-4.133-8.941-13.014-4.811-19.798c2.638-4.329,7.24-6.913,12.313-6.913
			c2.637,0,5.225,0.728,7.485,2.104c3.285,2,5.596,5.161,6.504,8.9c0.909,3.739,0.307,7.608-1.695,10.893
			C177.217,338.176,172.613,340.761,167.54,340.761z M167.559,319.947c-2.258,0-4.307,1.149-5.48,3.074
			c-1.836,3.017-0.877,6.966,2.14,8.804c1.005,0.611,2.154,0.936,3.321,0.936c2.259,0,4.309-1.15,5.481-3.076
			c0.89-1.461,1.158-3.181,0.754-4.843c-0.404-1.662-1.431-3.068-2.892-3.957C169.876,320.271,168.727,319.947,167.559,319.947z"/>
	</g>
</g>
</svg>
