<?xml version="1.0" encoding="utf-8"?>
<svg version="1.1" xmlns="http://www.w3.org/2000/svg" xmlns:xlink="http://www.w3.org/1999/xlink" x="0px" y="0px"
	 viewBox="-262 385.89 70 70" enable-background="new -262 385.89 70 70" xml:space="preserve">
<path d="M-197.833,455.89h-58.334c-3.22-0.004-5.829-2.614-5.833-5.834V406.89
	c0-0.269,0.093-0.53,0.264-0.739l10.236-12.511v-6.583c0-0.645,0.522-1.167,1.167-1.167h8.166c0.645,0,1.167,0.522,1.167,1.167
	v6.583l10.236,12.511c0.171,0.209,0.264,0.47,0.264,0.739v4.666h7v-4.666c0-0.26,0.086-0.512,0.245-0.717l8.167-10.5
	c0.221-0.284,0.561-0.45,0.921-0.45h2.334v-5.833c0-0.645,0.522-1.167,1.166-1.167H-199c0.644,0,1.167,0.522,1.167,1.167v5.833
	c3.22,0.004,5.829,2.614,5.833,5.834v48.999C-192.004,453.276-194.613,455.886-197.833,455.89z M-237.5,453.556h21v-30.333h-21
	V453.556z M-259.667,450.056c0,1.934,1.567,3.5,3.5,3.5h16.334v-5.833h-19.834V450.056z M-259.667,440.723H-248v2.334h-11.667v2.333
	h19.834v-23.334c0-0.644,0.522-1.166,1.166-1.166h1.167v-4.667h-22.167V440.723z M-243.333,388.223h-5.834v4.667h5.834V388.223z
	 M-232.833,407.306l-9.887-12.083h-7.06l-9.887,12.083v6.584h22.167v-1.167c0-0.644,0.522-1.167,1.167-1.167h3.5V407.306z
	 M-223.5,418.556v-4.666h-2.333v4.666h-2.334v-4.666h-2.333v4.666h-2.333v-4.666h-2.334v7h16.334v-7h-2.334v4.666H-223.5z
	 M-200.167,390.557h-9.333v4.666h9.333V390.557z M-194.333,401.057c0-1.934-1.567-3.5-3.5-3.5h-15.763l-6.352,8.166h25.615V401.057z
	 M-194.333,408.057h-26.834v3.499h3.5c0.645,0,1.167,0.523,1.167,1.167v8.167h1.167c0.644,0,1.166,0.522,1.166,1.166v18.667h12.834
	v2.334h-12.834v2.333h19.834V408.057z M-194.333,447.723h-19.834v5.833h16.334c1.933,0,3.5-1.566,3.5-3.5V447.723z M-208.333,420.89
	v-8.167c0-0.644,0.522-1.167,1.166-1.167H-199c0.644,0,1.167,0.523,1.167,1.167v8.167c0,0.644-0.523,1.166-1.167,1.166h-8.167
	C-207.811,422.056-208.333,421.534-208.333,420.89z M-206,419.723h5.833v-5.833H-206V419.723z M-196.667,443.057H-199v-2.334h2.333
	V443.057z M-245.667,440.723h2.334v2.334h-2.334V440.723z M-227,445.39c-4.51,0-8.167-3.656-8.167-8.167
	c0-4.51,3.657-8.166,8.167-8.166c4.508,0.005,8.161,3.658,8.167,8.166C-218.833,441.734-222.49,445.39-227,445.39z M-227,443.057
	c2.655-0.01,4.969-1.812,5.629-4.384c-1.865,0.916-4.105,0.548-5.579-0.917c-0.995-0.993-2.605-0.993-3.6,0l-1.793,1.794
	C-231.418,441.677-229.32,443.054-227,443.057z M-227,431.39c-3.008,0.007-5.514,2.305-5.783,5.3l0.583-0.583
	c1.906-1.903,4.993-1.903,6.9,0c1.007,0.961,2.593,0.961,3.6,0l0.33-0.33C-222.029,433.203-224.343,431.399-227,431.39z"/>
</svg>
