<?xml version="1.0" encoding="utf-8"?>
<!-- Generator: Adobe Illustrator 19.0.1, SVG Export Plug-In . SVG Version: 6.00 Build 0)  -->
<svg version="1.1" id="Слой_3" xmlns="http://www.w3.org/2000/svg" xmlns:xlink="http://www.w3.org/1999/xlink" x="0px" y="0px"
	 viewBox="0 0 271.887 296" enable-background="new 0 0 271.887 296" xml:space="preserve">
<g>
	<g>
		<path fill="#5A5A59" d="M231.874,259h-195c-2.209,0-4-1.791-4-4V4c0-2.209,1.791-4,4-4h195c2.209,0,4,1.791,4,4v251
			C235.874,257.209,234.083,259,231.874,259z M40.874,251h187V8h-187V251z"/>
	</g>
	<g>
		<path fill="#5A5A59" d="M267.542,296H4.171c-2.186,0-3.967-1.755-4-3.94L0,280.616c-0.033-2.209,1.731-4.026,3.94-4.06
			c2.182-0.019,4.026,1.731,4.059,3.94L8.112,288h255.549l0.228-7.548c0.066-2.167,1.843-3.879,3.996-3.879
			c0.041,0,0.082,0.001,0.123,0.002c2.208,0.066,3.944,1.91,3.877,4.119l-0.345,11.427C271.475,294.282,269.704,296,267.542,296z"/>
	</g>
	<g>
		<path fill="#5A5A59" d="M124.822,169.352c-1.024,0-2.047-0.391-2.829-1.172L86.5,132.686c-1.562-1.561-1.562-4.095,0-5.656
			c1.563-1.563,4.095-1.563,5.657,0l35.493,35.494c1.562,1.562,1.562,4.095,0,5.656C126.87,168.962,125.846,169.352,124.822,169.352
			z"/>
	</g>
	<g>
		<path fill="#5A5A59" d="M168.774,124.025c-1.024,0-2.047-0.391-2.828-1.172l-38.24-38.238c-1.563-1.561-1.563-4.095-0.001-5.656
			c1.563-1.563,4.096-1.562,5.657,0l38.24,38.238c1.563,1.561,1.563,4.095,0.001,5.656
			C170.822,123.635,169.798,124.025,168.774,124.025z"/>
	</g>
	<g>
		<path fill="#5A5A59" d="M181.388,183.34c-1.024,0-2.047-0.391-2.829-1.172L81.006,84.615c-1.562-1.561-1.562-4.095,0-5.656
			c1.563-1.563,4.095-1.563,5.657,0l97.553,97.553c1.562,1.561,1.562,4.095,0,5.656C183.435,182.949,182.412,183.34,181.388,183.34z
			"/>
	</g>
</g>
</svg>
