<?xml version="1.0" encoding="utf-8"?>
<!-- Generator: Adobe Illustrator 19.0.1, SVG Export Plug-In . SVG Version: 6.00 Build 0)  -->
<svg version="1.1" id="Слой_3" xmlns="http://www.w3.org/2000/svg" xmlns:xlink="http://www.w3.org/1999/xlink" x="0px" y="0px"
	 viewBox="0 0 274.801 267.27" enable-background="new 0 0 274.801 267.27" xml:space="preserve">
<g>
	<g>
		<path fill="#5A5A59" d="M125.913,224.364c-9.159,0-17.965-0.874-26.2-2.64c-24.41-5.232-41.017-17.675-46.759-35.036
			c-6.842-20.687,2.799-44.694,26.451-65.87c1.646-1.474,4.175-1.335,5.648,0.313c1.474,1.646,1.334,4.175-0.313,5.648
			c-20.859,18.674-29.902,40.131-24.191,57.398c4.815,14.556,19.318,25.112,40.84,29.726c22.282,4.776,49.164,2.574,75.697-6.204
			c6.313-2.088,12.518-4.527,18.442-7.252c2.009-0.921,4.382-0.043,5.306,1.964c0.922,2.007,0.043,4.383-1.964,5.306
			c-6.194,2.848-12.679,5.397-19.272,7.578C161.438,221.302,143.059,224.364,125.913,224.364z"/>
	</g>
	<g>
		<path fill="#5A5A59" d="M220.619,194.951c-1.282,0-2.542-0.615-3.315-1.756c-1.239-1.829-0.761-4.316,1.067-5.556
			c2.099-1.422,4.165-2.904,6.143-4.405c1.759-1.336,4.268-0.993,5.604,0.767c1.336,1.759,0.993,4.268-0.767,5.604
			c-2.091,1.588-4.275,3.155-6.492,4.657C222.172,194.729,221.391,194.951,220.619,194.951z"/>
	</g>
	<g>
		<path fill="#5A5A59" d="M250.072,167.287c-0.813,0-1.634-0.247-2.343-0.76c-1.789-1.295-2.19-3.796-0.895-5.586
			c10.571-14.605,13.952-28.996,9.776-41.617c-9.26-27.999-53.841-39.712-103.699-27.243c-2.145,0.534-4.314-0.768-4.852-2.91
			c-0.535-2.144,0.768-4.315,2.91-4.852c25.634-6.409,51.109-6.859,71.735-1.269c21.487,5.825,36.226,17.815,41.501,33.762
			c4.944,14.946,1.076,32.284-10.892,48.82C252.533,166.713,251.311,167.287,250.072,167.287z"/>
	</g>
	<g>
		<path fill="#5A5A59" d="M132.913,267.27c-36.505,0.002-64.94-14.225-71.611-29.323c-3.054-6.912-10.721-44.149-9.997-57.007
			c0.125-2.207,2.028-3.88,4.219-3.77c2.206,0.125,3.894,2.014,3.77,4.219c-0.632,11.214,6.775,47.551,9.327,53.325
			c3.084,6.98,15.377,16.256,35.886,21.239c22.571,5.485,48.346,4.091,72.581-3.926c26.707-8.834,51.843-24.111,68.961-41.914
			c16.905-17.58,23.943-35.696,19.309-49.704c-0.816-2.468-2.464-10.998-4.703-22.78c-0.521-2.746-1.017-5.353-1.444-7.552
			c-0.421-2.169,0.995-4.269,3.164-4.689c2.176-0.423,4.269,0.996,4.69,3.164c0.429,2.209,0.927,4.826,1.45,7.584
			c1.572,8.273,3.726,19.604,4.439,21.761c5.679,17.167-1.829,37.681-21.139,57.762c-17.991,18.711-44.313,34.735-72.216,43.965
			C163.335,265.003,147.48,267.27,132.913,267.27z"/>
	</g>
	<g>
		<g>
			<path fill="#5A5A59" d="M107.596,145.485c-1.16,0-2.312-0.503-3.103-1.473c-1.396-1.712-1.139-4.231,0.573-5.628
				c33.063-26.954,83.584-43.327,121.922-19.141c1.868,1.179,2.427,3.648,1.248,5.518c-1.179,1.868-3.647,2.426-5.518,1.248
				c-34.972-22.065-81.752-6.57-112.598,18.576C109.379,145.19,108.484,145.485,107.596,145.485z"/>
		</g>
		<g>
			<path fill="#5A5A59" d="M89.295,164.305c-0.819,0-1.646-0.25-2.356-0.771c-1.784-1.303-2.174-3.806-0.87-5.589
				c1.03-1.411,2.145-2.837,3.311-4.237c1.414-1.699,3.937-1.929,5.633-0.516c1.698,1.413,1.929,3.936,0.516,5.633
				c-1.059,1.273-2.067,2.564-3,3.839C91.744,163.736,90.527,164.305,89.295,164.305z"/>
		</g>
	</g>
	<g>
		<path fill="#5A5A59" d="M106.203,122.106c-20.085,0-36.426-16.341-36.426-36.426c0-20.085,16.341-36.426,36.426-36.426
			c20.086,0,36.427,16.341,36.427,36.426C142.63,105.766,126.289,122.106,106.203,122.106z M106.203,57.255
			c-15.674,0-28.426,12.752-28.426,28.426c0,15.674,12.752,28.426,28.426,28.426c15.675,0,28.427-12.752,28.427-28.426
			C134.63,70.007,121.878,57.255,106.203,57.255z"/>
	</g>
	<g>
		<path fill="#5A5A59" d="M163.668,61.359c-16.917,0-30.68-13.763-30.68-30.68S146.751,0,163.668,0s30.68,13.763,30.68,30.68
			S180.585,61.359,163.668,61.359z M163.668,8c-12.506,0-22.68,10.174-22.68,22.68s10.174,22.68,22.68,22.68
			c12.506,0,22.68-10.174,22.68-22.68S176.174,8,163.668,8z"/>
	</g>
	<g>
		<path fill="#5A5A59" d="M30.721,79.369c-15.129,0-27.438-12.309-27.438-27.438s12.309-27.439,27.438-27.439
			c15.131,0,27.441,12.31,27.441,27.439S45.852,79.369,30.721,79.369z M30.721,32.491c-10.718,0-19.438,8.721-19.438,19.439
			c0,10.719,8.72,19.438,19.438,19.438c10.72,0,19.441-8.72,19.441-19.438C50.162,41.212,41.44,32.491,30.721,32.491z"/>
	</g>
	<g>
		<path fill="#5A5A59" d="M19.946,147.334C8.948,147.334,0,138.386,0,127.388c0-10.999,8.948-19.948,19.946-19.948
			c10.999,0,19.947,8.949,19.947,19.948C39.894,138.386,30.945,147.334,19.946,147.334z M19.946,115.439
			C13.359,115.439,8,120.8,8,127.388c0,6.587,5.359,11.946,11.946,11.946c6.588,0,11.947-5.359,11.947-11.946
			C31.894,120.8,26.534,115.439,19.946,115.439z"/>
	</g>
</g>
</svg>
