<svg width="104" height="104" viewBox="0 0 104 104" fill="none" xmlns="http://www.w3.org/2000/svg">
<g clip-path="url(#clip0_104_59)">
<path fill-rule="evenodd" clip-rule="evenodd" d="M74.5067 62.0045H29.7258C28.7753 62.0045 28.0035 62.7741 28.0035 63.7269V101.618C28.0035 102.571 28.7753 103.34 29.7258 103.34H74.5067C75.4592 103.34 76.229 102.571 76.229 101.618V63.7269C76.229 62.7741 75.4592 62.0045 74.5067 62.0045ZM72.7844 99.8958H31.4482V65.4492H72.7844V99.8958Z"/>
<path fill-rule="evenodd" clip-rule="evenodd" d="M29.7258 62.0045H2.16836C1.21781 62.0045 0.446411 62.7741 0.446411 63.7269V101.618C0.446411 102.571 1.21781 103.34 2.16836 103.34H29.7258C30.6764 103.34 31.4483 102.571 31.4483 101.618V63.7269C31.4483 62.7741 30.6767 62.0045 29.7258 62.0045ZM28.0036 99.8958H3.89104V65.4492H28.0036V99.8958Z"/>
<path fill-rule="evenodd" clip-rule="evenodd" d="M102.064 62.0045H74.5067C73.5543 62.0045 72.7847 62.7741 72.7847 63.7269V101.618C72.7847 102.571 73.5543 103.34 74.5067 103.34H102.064C103.017 103.34 103.787 102.571 103.787 101.618V63.7269C103.787 62.7741 103.017 62.0045 102.064 62.0045ZM100.342 99.8958H76.2294V65.4492H100.342L100.342 99.8958Z"/>
<path fill-rule="evenodd" clip-rule="evenodd" d="M67.6176 75.7828H36.6153C35.6648 75.7828 34.893 76.5527 34.893 77.5051V94.7284C34.893 95.6809 35.6648 96.4508 36.6153 96.4508H67.6176C68.57 96.4508 69.3399 95.6809 69.3399 94.7284V77.5051C69.3399 76.5527 68.57 75.7828 67.6176 75.7828ZM65.8952 93.0061H38.3376V79.2275H65.8949L65.8952 93.0061Z"/>
<path d="M29.7259 75.7834H2.16849V79.2281H29.7259V75.7834Z"/>
<path d="M102.064 75.7834H74.5067V79.2281H102.064V75.7834Z"/>
<path d="M90.008 77.5056H86.5632V101.618H90.008V77.5056Z"/>
<path fill-rule="evenodd" clip-rule="evenodd" d="M74.0025 28.0624L67.6177 21.6777V1.72257C67.6177 0.771646 66.8479 0.000244141 65.8954 0.000244141H38.3378C37.3873 0.000244141 36.6155 0.771646 36.6155 1.72257V21.6773L30.2308 28.062C29.7383 28.5545 29.5901 29.2953 29.857 29.9393C30.1242 30.5818 30.7527 31.0021 31.4485 31.0021H72.7848C73.4806 31.0021 74.111 30.5818 74.3763 29.9393C74.6431 29.2953 74.4949 28.5545 74.0025 28.0624ZM35.6059 27.5575L39.5555 23.6082C39.8791 23.2858 40.0601 22.8467 40.0601 22.3905V3.44489H64.1727V22.3905C64.1727 22.847 64.3537 23.2862 64.6777 23.6082L68.6269 27.5575H35.6059Z"/>
<path fill-rule="evenodd" clip-rule="evenodd" d="M93.4523 37.8915C89.6528 37.8915 86.563 40.9816 86.563 44.7808V46.5031H90.0077V44.7808C90.0077 42.8812 91.5528 41.3361 93.4527 41.3361C95.3523 41.3361 96.8974 42.8808 96.8974 44.7808V63.7264L100.342 63.7267V44.7808C100.342 40.9812 97.2519 37.8915 93.4523 37.8915Z"/>
<path fill-rule="evenodd" clip-rule="evenodd" d="M50.3943 51.6701H33.1707C32.2201 51.6701 31.4487 52.44 31.4487 53.3924L31.4483 63.7269C31.4483 64.6793 32.2201 65.4487 33.1707 65.4487H50.3943C51.3448 65.4487 52.1162 64.6792 52.1162 63.7264V53.3924C52.1162 52.44 51.3448 51.6701 50.3943 51.6701ZM48.6716 62.0045H34.893V55.1152H48.6716V62.0045Z"/>
<path fill-rule="evenodd" clip-rule="evenodd" d="M29.726 0.000244141H2.16836C1.21781 0.000244141 0.446411 0.771646 0.446411 1.72257V22.3905C0.446411 23.341 1.21781 24.1128 2.16836 24.1128H29.726C30.6765 24.1128 31.4483 23.341 31.4483 22.3905V1.72257C31.4483 0.771646 30.6769 0.000244141 29.726 0.000244141ZM28.0036 20.6682H3.89104V3.44486H28.0036V20.6682Z"/>
<path fill-rule="evenodd" clip-rule="evenodd" d="M102.064 0.000244141H74.5071C73.5546 0.000244141 72.7847 0.771646 72.7847 1.72257V22.3905C72.7847 23.341 73.5546 24.1128 74.5071 24.1128H102.064C103.017 24.1128 103.787 23.341 103.787 22.3905V1.72257C103.787 0.771646 103.017 0.000244141 102.064 0.000244141ZM100.342 20.6682H76.2294V3.44486H100.342L100.342 20.6682Z"/>
<path d="M31.4483 34.447H0.446198V37.8917H31.4483V34.447Z"/>
<path d="M7.33569 31.0022H3.89096V46.5032H7.33569V31.0022Z"/>
<path fill-rule="evenodd" clip-rule="evenodd" d="M5.61337 44.7811C2.76437 44.7811 0.446381 47.0991 0.446381 49.9481C0.446381 52.7967 2.76436 55.1151 5.61337 55.1151C8.46199 55.1151 10.7804 52.7967 10.7804 49.9481C10.7804 47.0991 8.462 44.7811 5.61337 44.7811ZM5.61337 51.6701C4.66433 51.6701 3.89104 50.8972 3.89104 49.9481C3.89104 48.9991 4.66433 48.2258 5.61337 48.2258C6.56241 48.2258 7.3357 48.9991 7.3357 49.9481C7.3357 50.8972 6.56241 51.6701 5.61337 51.6701Z"/>
<path d="M14.225 31.0022H10.7803V46.5032H14.225V31.0022Z"/>
<path fill-rule="evenodd" clip-rule="evenodd" d="M12.5026 44.7811C9.65365 44.7811 7.3357 47.0991 7.3357 49.9481C7.3357 52.7968 9.65364 55.1151 12.5026 55.1151C15.3513 55.1151 17.6696 52.7967 17.6696 49.9481C17.6696 47.0991 15.3513 44.7811 12.5026 44.7811ZM12.5026 51.6701C11.5536 51.6701 10.7804 50.8972 10.7804 49.9481C10.7804 48.9991 11.5536 48.2258 12.5026 48.2258C13.4517 48.2258 14.225 48.9991 14.225 49.9481C14.225 50.8972 13.4517 51.6701 12.5026 51.6701Z"/>
<path d="M21.1143 31.0022H17.6696V46.5032H21.1143V31.0022Z"/>
<path fill-rule="evenodd" clip-rule="evenodd" d="M19.392 44.7811C16.5433 44.7811 14.225 47.0991 14.225 49.9481C14.225 52.7968 16.5433 55.1151 19.392 55.1151C22.2406 55.1151 24.5589 52.7967 24.5589 49.9481C24.5589 47.0991 22.2406 44.7811 19.392 44.7811ZM19.392 51.6701C18.4429 51.6701 17.6696 50.8972 17.6696 49.9481C17.6696 48.9991 18.4429 48.2258 19.392 48.2258C20.341 48.2258 21.1143 48.9991 21.1143 49.9481C21.1143 50.8972 20.341 51.6701 19.392 51.6701Z"/>
<path d="M18.7295 68.813H13.1643C12.5521 68.813 12.0558 69.3094 12.0558 69.9216V71.3109C12.0558 71.9232 12.5521 72.4195 13.1643 72.4195H18.7295C19.3417 72.4195 19.838 71.9232 19.838 71.3109V69.9216C19.838 69.3094 19.3417 68.813 18.7295 68.813Z"/>
<path d="M18.7295 82.5913H13.1643C12.5521 82.5913 12.0558 83.0876 12.0558 83.6998V85.0892C12.0558 85.7014 12.5521 86.1977 13.1643 86.1977H18.7295C19.3417 86.1977 19.838 85.7014 19.838 85.0892V83.6998C19.838 83.0876 19.3417 82.5913 18.7295 82.5913Z"/>
<path d="M91.0677 68.813H85.5025C84.8903 68.813 84.394 69.3094 84.394 69.9216V71.3109C84.394 71.9232 84.8903 72.4195 85.5025 72.4195H91.0677C91.68 72.4195 92.1763 71.9232 92.1763 71.3109V69.9216C92.1763 69.3094 91.68 68.813 91.0677 68.813Z"/>
<path d="M55.7602 55.0341H50.195C49.5828 55.0341 49.0865 55.5304 49.0865 56.1427V57.532C49.0865 58.1442 49.5828 58.6405 50.195 58.6405H55.7602C56.3725 58.6405 56.8688 58.1442 56.8688 57.532V56.1427C56.8688 55.5304 56.3725 55.0341 55.7602 55.0341Z"/>
<path d="M33.3697 55.0341H27.8045C27.1923 55.0341 26.696 55.5304 26.696 56.1427V57.532C26.696 58.1442 27.1923 58.6405 27.8045 58.6405H33.3697C33.9819 58.6405 34.4782 58.1442 34.4782 57.532V56.1427C34.4782 55.5304 33.9819 55.0341 33.3697 55.0341Z"/>
<path d="M98.8185 55.0341H93.2533C92.6411 55.0341 92.1448 55.5304 92.1448 56.1427V57.532C92.1448 58.1442 92.6411 58.6405 93.2533 58.6405H98.8185C99.4308 58.6405 99.9271 58.1442 99.9271 57.532V56.1427C99.9271 55.5304 99.4308 55.0341 98.8185 55.0341Z"/>
<path d="M31.2106 34.4468H24.9016C24.4948 34.4468 24.165 34.7766 24.165 35.1834V37.1668C24.165 37.5736 24.4948 37.9034 24.9016 37.9034H31.2106C31.6175 37.9034 31.9473 37.5736 31.9473 37.1668V35.1834C31.9473 34.7766 31.6175 34.4468 31.2106 34.4468Z"/>
<path d="M7.04566 34.4468H0.736628C0.3298 34.4468 0 34.7766 0 35.1834V37.1668C0 37.5736 0.3298 37.9034 0.736628 37.9034H7.04566C7.45248 37.9034 7.78228 37.5736 7.78228 37.1668V35.1834C7.78228 34.7766 7.45248 34.4468 7.04566 34.4468Z"/>
<path d="M3.93747 30.9665V37.7363C3.93747 38.0159 4.31366 38.2426 4.7777 38.2426H6.55388C7.01793 38.2426 7.39412 38.0159 7.39412 37.7363L7.39412 30.9665C7.39412 30.6869 7.01793 30.4603 6.55388 30.4603H4.7777C4.31366 30.4603 3.93747 30.6869 3.93747 30.9665Z"/>
<path d="M10.786 30.9665V37.7363C10.786 38.0159 11.1622 38.2426 11.6262 38.2426H13.4024C13.8664 38.2426 14.2426 38.0159 14.2426 37.7363V30.9665C14.2426 30.6869 13.8664 30.4603 13.4024 30.4603H11.6262C11.1622 30.4603 10.786 30.6869 10.786 30.9665Z"/>
<path d="M17.6588 30.9665V37.7363C17.6588 38.0159 18.0349 38.2426 18.499 38.2426H20.2752C20.7392 38.2426 21.1154 38.0159 21.1154 37.7363V30.9665C21.1154 30.6869 20.7392 30.4603 20.2752 30.4603H18.499C18.0349 30.4603 17.6588 30.6869 17.6588 30.9665Z"/>
<path d="M21.1087 10.394V17.1638C21.1087 17.4434 21.4849 17.67 21.9489 17.67H23.7251C24.1891 17.67 24.5653 17.4434 24.5653 17.1638V10.394C24.5653 10.1144 24.1891 9.88779 23.7251 9.88779H21.9489C21.4849 9.88779 21.1087 10.1144 21.1087 10.394Z"/>
<path d="M79.6674 10.394V17.1638C79.6674 17.4434 80.0436 17.67 80.5077 17.67H82.2838C82.7479 17.67 83.1241 17.4434 83.1241 17.1638V10.394C83.1241 10.1144 82.7479 9.88779 82.2838 9.88779H80.5077C80.0436 9.88779 79.6674 10.1144 79.6674 10.394Z"/>
<path d="M79.6674 85.3154V92.0852C79.6674 92.3648 80.0436 92.5914 80.5077 92.5914H82.2838C82.7479 92.5914 83.1241 92.3648 83.1241 92.0852V85.3154C83.1241 85.0358 82.7479 84.8092 82.2838 84.8092H80.5077C80.0436 84.8092 79.6674 85.0358 79.6674 85.3154Z"/>
<path d="M93.4468 85.5411V92.3109C93.4468 92.5905 93.823 92.8171 94.287 92.8171H96.0632C96.5272 92.8171 96.9034 92.5905 96.9034 92.3109V85.5411C96.9034 85.2615 96.5272 85.0349 96.0632 85.0349H94.287C93.823 85.0349 93.4468 85.2615 93.4468 85.5411Z"/>
<path d="M89.3721 45.0088H87.1993C86.848 45.0088 86.5632 45.2936 86.5632 45.6449V46.8641C86.5632 47.2154 86.848 47.5002 87.1993 47.5002H89.3721C89.7234 47.5002 90.0082 47.2154 90.0082 46.8641V45.6449C90.0082 45.2936 89.7234 45.0088 89.3721 45.0088Z"/>
<path d="M42.9829 68.8914H40.4851C40.2235 68.8914 40.0115 69.1034 40.0115 69.365V71.8628C40.0115 72.1243 40.2235 72.3364 40.4851 72.3364H42.9829C43.2444 72.3364 43.4564 72.1243 43.4564 71.8628V69.365C43.4564 69.1034 43.2444 68.8914 42.9829 68.8914Z"/>
<path d="M49.9209 68.8914H47.4231C47.1616 68.8914 46.9496 69.1034 46.9496 69.365V71.8628C46.9496 72.1243 47.1616 72.3364 47.4231 72.3364H49.9209C50.1825 72.3364 50.3945 72.1243 50.3945 71.8628V69.365C50.3945 69.1034 50.1825 68.8914 49.9209 68.8914Z"/>
<path d="M56.8206 68.8914H54.3228C54.0613 68.8914 53.8493 69.1034 53.8493 69.365V71.8628C53.8493 72.1243 54.0613 72.3364 54.3228 72.3364H56.8206C57.0822 72.3364 57.2942 72.1243 57.2942 71.8628V69.365C57.2942 69.1034 57.0822 68.8914 56.8206 68.8914Z"/>
<path d="M63.6998 68.8914H61.202C60.9405 68.8914 60.7285 69.1034 60.7285 69.365V71.8628C60.7285 72.1243 60.9405 72.3364 61.202 72.3364H63.6998C63.9614 72.3364 64.1734 72.1243 64.1734 71.8628V69.365C64.1734 69.1034 63.9614 68.8914 63.6998 68.8914Z"/>
</g>
<defs>
<clipPath id="clip0_104_59">
<rect width="103.787" height="103.341" fill="white"/>
</clipPath>
</defs>
</svg>
