<?xml version="1.0" encoding="utf-8"?>
<!-- Generator: Adobe Illustrator 19.0.1, SVG Export Plug-In . SVG Version: 6.00 Build 0)  -->
<svg version="1.1" id="Слой_3" xmlns="http://www.w3.org/2000/svg" xmlns:xlink="http://www.w3.org/1999/xlink" x="0px" y="0px"
	 viewBox="0 0 232.416 143.837" enable-background="new 0 0 232.416 143.837" xml:space="preserve">
<g>
	<g>
		<path fill="#5A5A59" d="M185.665,143.837c-15.26,0-27.676-12.415-27.676-27.676c0-15.26,12.416-27.676,27.676-27.676
			c15.26,0,27.676,12.416,27.676,27.676C213.341,131.422,200.925,143.837,185.665,143.837z M185.665,96.486
			c-10.849,0-19.676,8.827-19.676,19.676s8.827,19.676,19.676,19.676c10.849,0,19.676-8.827,19.676-19.676
			S196.514,96.486,185.665,96.486z"/>
	</g>
	<g>
		<path fill="#5A5A59" d="M49.985,142.927c-15.26,0-27.676-12.415-27.676-27.676c0-15.26,12.416-27.676,27.676-27.676
			c15.26,0,27.676,12.416,27.676,27.676C77.661,130.512,65.246,142.927,49.985,142.927z M49.985,95.576
			c-10.849,0-19.676,8.827-19.676,19.676c0,10.849,8.827,19.676,19.676,19.676s19.676-8.827,19.676-19.676
			C69.661,104.402,60.834,95.576,49.985,95.576z"/>
	</g>
	<g>
		<path fill="#5A5A59" d="M159.261,120.468c-0.003,0-0.006,0-0.009,0l-83.327-0.199c-2.209-0.005-3.996-1.8-3.991-4.009
			c0.005-2.206,1.795-3.991,4-3.991c0.003,0,0.006,0,0.009,0l83.327,0.199c2.209,0.005,3.996,1.8,3.991,4.009
			C163.256,118.684,161.466,120.468,159.261,120.468z"/>
	</g>
	<g>
		<path fill="#5A5A59" d="M228.416,120.617c-0.067,0-0.134-0.002-0.201-0.005c-0.063-0.003-6.446-0.317-16.635-0.341
			c-2.209-0.005-3.996-1.8-3.991-4.009c0.005-2.206,1.795-3.991,4-3.991c0.003,0,0.006,0,0.009,0
			c5.509,0.013,9.882,0.107,12.817,0.194V67.799l-36.518-16.1c-0.696-0.307-1.29-0.806-1.712-1.438L157.954,8H8.014l0.352,104h15.05
			c2.209,0,4,1.791,4,4s-1.791,4-4,4H4.379c-2.204,0-3.993-1.783-4-3.986L0,4.014C-0.003,2.95,0.417,1.929,1.167,1.176
			C1.918,0.423,2.937,0,4,0h156.092c1.336,0,2.584,0.667,3.326,1.778l28.773,43.071l37.838,16.682c1.45,0.64,2.386,2.075,2.386,3.66
			v51.426c0,1.096-0.45,2.143-1.243,2.898C230.427,120.224,229.439,120.617,228.416,120.617z"/>
	</g>
	<g>
		<path fill="#5A5A59" d="M25.416,65.548c-1.055,0-2.067-0.417-2.816-1.16c-0.757-0.751-1.184-1.774-1.184-2.84V26
			c0-0.169,0.011-0.336,0.031-0.5c-0.02-0.164-0.031-0.331-0.031-0.5c0-2.209,1.791-4,4-4h120.088c1.317,0,2.549,0.648,3.295,1.733
			l24.31,35.337c0.839,1.219,0.936,2.801,0.253,4.114s-2.035,2.141-3.515,2.153L25.449,65.548
			C25.438,65.548,25.427,65.548,25.416,65.548z M29.416,29v28.515L162.25,56.4L143.4,29H29.416z"/>
	</g>
	<g>
		<path fill="#5A5A59" d="M131.416,63c-2.209,0-4-1.791-4-4V28c0-2.209,1.791-4,4-4s4,1.791,4,4v31
			C135.416,61.209,133.625,63,131.416,63z"/>
	</g>
	<g>
		<path fill="#5A5A59" d="M185.818,119.73c-1.401,0-2.747-0.739-3.477-2.021c-1.075-1.888-0.509-3.42-0.076-4.165
			c0.716-1.232,2.034-1.99,3.458-1.99c1.886,0,3.48,1.279,3.968,3.183c0.497,1.941-0.519,3.95-2.376,4.701
			C186.827,119.636,186.318,119.73,185.818,119.73z M185.723,115.754l-3.781,0.969c0.42,1.641,2.011,2.831,3.782,2.831
			L185.723,115.754z"/>
	</g>
	<g>
		<path fill="#5A5A59" d="M50.139,118.819c-1.396,0-2.738-0.733-3.471-2.01c-1.083-1.888-0.519-3.423-0.086-4.17
			c0.715-1.235,2.034-1.996,3.461-1.996c1.863,0,3.454,1.261,3.958,3.139c0.521,1.941-0.479,3.967-2.337,4.734
			C51.167,118.721,50.649,118.819,50.139,118.819z M50.043,114.844l-3.769,1.011c0.434,1.616,2.019,2.788,3.769,2.788V114.844z"/>
	</g>
</g>
</svg>
