<?xml version="1.0" encoding="utf-8"?>
<svg version="1.1" xmlns="http://www.w3.org/2000/svg" xmlns:xlink="http://www.w3.org/1999/xlink" x="0px" y="0px"
	 viewBox="0 0 266.656 283.041" enable-background="new 0 0 266.656 283.041" xml:space="preserve">
<g>
	<g>
		<g>
			<path d="M107.765,57.455c-1.866,0-3.535-1.313-3.918-3.212c-0.436-2.166,0.967-4.274,3.133-4.711
				c0.757-0.157,18.831-4.11,18.828-21.225c0-2.209,1.79-4.001,3.999-4.001h0.001c2.209,0,4,1.79,4,3.999
				c0.004,18.975-16.515,27.312-25.25,29.07C108.291,57.428,108.025,57.455,107.765,57.455z"/>
		</g>
		<g>
			<path d="M152.53,57.455c-0.262,0-0.526-0.026-0.793-0.079c-8.735-1.758-25.254-10.096-25.25-29.07
				c0-2.209,1.791-3.999,4-3.999c0,0,0,0,0.001,0c2.209,0,3.999,1.792,3.999,4.001c-0.003,17.237,18.06,21.07,18.828,21.225
				c2.166,0.437,3.568,2.545,3.133,4.711C156.065,56.142,154.397,57.455,152.53,57.455z"/>
		</g>
		<g>
			<g>
				<path d="M129.808,83.668C129.808,83.668,129.808,83.668,129.808,83.668c-2.21,0-4-1.792-4-4.001
					c0.003-17.236-18.06-21.07-18.828-21.226c-2.166-0.436-3.568-2.544-3.132-4.71c0.435-2.165,2.544-3.567,4.71-3.132
					c8.735,1.758,25.254,10.096,25.25,29.069C133.808,81.877,132.017,83.668,129.808,83.668z"/>
			</g>
			<g>
				<path ="M130.487,83.668c-2.209,0-4-1.79-4-3.999c-0.004-18.974,16.515-27.312,25.25-29.069
					c2.167-0.436,4.274,0.967,4.71,3.132c0.436,2.166-0.966,4.274-3.132,4.71c-0.757,0.158-18.831,4.112-18.828,21.226
					c0,2.209-1.79,4.001-3.999,4.001H130.487z"/>
			</g>
		</g>
	</g>
	<g>
		<g>
			<path d="M15.765,43.455c-1.866,0-3.535-1.313-3.918-3.212c-0.436-2.166,0.967-4.274,3.133-4.711
				c0.757-0.157,18.831-4.11,18.828-21.225c0-2.209,1.79-4.001,3.999-4.001h0.001c2.209,0,4,1.79,4,3.999
				c0.004,18.975-16.515,27.313-25.25,29.07C16.291,43.428,16.025,43.455,15.765,43.455z"/>
		</g>
		<g>
			<path d="M60.53,43.455c-0.262,0-0.526-0.026-0.793-0.079c-8.735-1.758-25.254-10.096-25.25-29.07
				c0-2.209,1.791-3.999,4-3.999c0,0,0,0,0.001,0c2.209,0,3.999,1.792,3.999,4.001c-0.003,17.237,18.06,21.07,18.828,21.225
				c2.166,0.437,3.568,2.545,3.133,4.711C64.065,42.142,62.397,43.455,60.53,43.455z"/>
		</g>
		<g>
			<g>
				<path d="M37.808,69.668C37.808,69.668,37.808,69.668,37.808,69.668c-2.21,0-4-1.792-4-4.001
					c0.003-17.236-18.059-21.07-18.828-21.226c-2.166-0.436-3.568-2.544-3.132-4.71c0.436-2.165,2.543-3.565,4.71-3.132
					c8.735,1.758,25.254,10.096,25.25,29.069C41.808,67.877,40.017,69.668,37.808,69.668z"/>
			</g>
			<g>
				<path d="M38.487,69.668c-2.209,0-4-1.79-4-3.999c-0.004-18.974,16.515-27.312,25.25-29.069
					c2.17-0.434,4.274,0.967,4.71,3.132c0.437,2.166-0.966,4.274-3.132,4.71c-0.757,0.158-18.831,4.112-18.828,21.226
					C42.487,67.876,40.697,69.668,38.487,69.668L38.487,69.668z"/>
			</g>
		</g>
	</g>
	<g>
		<g>
			<path d="M109.765,189.14c-1.866,0-3.535-1.313-3.918-3.212c-0.436-2.166,0.967-4.274,3.133-4.711
				c0.629-0.131,15.732-3.451,15.729-17.688c0-2.209,1.79-4,3.999-4.001h0.001c2.209,0,4,1.79,4,3.999
				c0.004,16.671-14.488,23.992-22.151,25.534C110.291,189.114,110.025,189.14,109.765,189.14z"/>
		</g>
		<g>
			<path d="M148.237,189.14c-0.262,0-0.526-0.026-0.793-0.079c-7.663-1.542-22.155-8.863-22.151-25.534
				c0-2.209,1.791-3.999,4-3.999c0,0,0,0,0.001,0c2.209,0.001,3.999,1.792,3.999,4.001c-0.003,14.358,15.087,17.56,15.73,17.688
				c2.166,0.437,3.568,2.545,3.133,4.711C151.773,187.828,150.104,189.14,148.237,189.14z"/>
		</g>
		<g>
			<g>
				<path d="M128.709,211.668C128.709,211.668,128.709,211.668,128.709,211.668c-2.21-0.001-4-1.792-4-4.001
					c0.003-14.357-15.087-17.561-15.729-17.691c-2.166-0.436-3.568-2.545-3.132-4.71c0.435-2.166,2.545-3.567,4.71-3.132
					c7.663,1.542,22.155,8.864,22.151,25.534C132.709,209.877,130.918,211.668,128.709,211.668z"/>
			</g>
			<g>
				<path d="M129.293,211.668c-2.209,0-4-1.79-4-3.999c-0.004-16.67,14.488-23.992,22.151-25.534
					c2.161-0.436,4.275,0.966,4.71,3.132c0.436,2.165-0.966,4.274-3.132,4.71c-0.628,0.132-15.732,3.454-15.73,17.691
					c0,2.209-1.79,4-3.999,4.001H129.293z"/>
			</g>
		</g>
	</g>
	<g>
		<path d="M186.518,77.041c-2.209,0-4-1.791-4-4v-10c0-2.209,1.791-4,4-4s4,1.791,4,4v10
			C190.518,75.25,188.727,77.041,186.518,77.041z"/>
	</g>
	<g>
		<path d="M211.518,78.041c-2.209,0-4-1.791-4-4v-11c0-2.209,1.791-4,4-4s4,1.791,4,4v11
			C215.518,76.25,213.727,78.041,211.518,78.041z"/>
	</g>
	<g>
		<path d="M233.518,65.041h-68c-2.209,0-4-1.791-4-4s1.791-4,4-4h68c2.209,0,4,1.791,4,4
			S235.727,65.041,233.518,65.041z"/>
	</g>
	<g>
		<path d="M163.518,65.041c-2.209,0-4-1.791-4-4v-6.814c0-19.401,15.788-35.186,35.194-35.186h9
			c19.192,0,34.806,15.784,34.806,35.186v3.814c0,2.209-1.791,4-4,4s-4-1.791-4-4v-3.814c0-14.99-12.025-27.186-26.806-27.186h-9
			c-14.995,0-27.194,12.195-27.194,27.186v6.814C167.518,63.25,165.727,65.041,163.518,65.041z"/>
	</g>
	<g>
		<g>
			<path d="M197.518,283.041h-50.771c-1.484,0-2.847-0.822-3.539-2.136c-0.468-0.889-11.465-22.033-11.465-45.515
				c0-12.534,7.619-23.606,14.987-34.315c7.16-10.405,13.923-20.234,13.923-30.835c0-5.226-4.693-9.877-10.128-15.264
				c-8.048-7.977-18.064-17.906-16.784-34.555C135.763,94.148,161.6,79.435,170.09,74.6c0.594-0.338,1.097-0.624,1.492-0.859
				c6.789-4.035,14.895-3.624,15.237-3.601c2.206,0.127,3.891,2.018,3.764,4.223c-0.127,2.202-2,3.887-4.21,3.765
				c-0.104-0.006-6.075-0.261-10.703,2.49c-0.43,0.256-0.977,0.566-1.621,0.935c-7.577,4.314-30.636,17.445-32.331,39.482
				c-0.997,12.959,6.851,20.737,14.439,28.26c6.427,6.369,12.496,12.386,12.496,20.945c0,13.087-7.795,24.415-15.333,35.37
				c-6.982,10.148-13.577,19.732-13.577,29.78c0,17.387,6.854,33.904,9.511,39.65h48.264c2.209,0,4,1.791,4,4
				C201.518,281.25,199.727,283.041,197.518,283.041z"/>
		</g>
		<g>
			<path d="M251.663,283.041h-51.145c-2.209,0-4-1.791-4-4c0-2.209,1.791-4,4-4h48.638
				c2.652-5.745,9.501-22.264,9.501-39.65c0-10.047-6.599-19.632-13.584-29.779c-7.541-10.955-15.34-22.284-15.34-35.371
				c0-8.559,6.064-14.574,12.485-20.944c7.583-7.523,15.425-15.301,14.428-28.261c-1.694-22.022-24.778-35.157-32.363-39.474
				c-0.652-0.371-1.204-0.686-1.638-0.943c-4.556-2.708-8.692-2.493-8.737-2.494c-2.179,0.143-4.096-1.528-4.246-3.717
				c-0.15-2.189,1.471-4.09,3.658-4.261c0.665-0.053,6.698-0.396,13.413,3.595c0.398,0.236,0.906,0.525,1.506,0.867
				c8.499,4.836,34.363,19.553,36.384,45.813c1.28,16.647-8.729,26.576-16.771,34.554c-5.43,5.387-10.119,10.038-10.119,15.265
				c0,10.6,6.767,20.429,13.93,30.835c7.371,10.708,14.994,21.781,14.994,34.315c0,23.481-10.985,44.625-11.453,45.514
				C254.511,282.217,253.148,283.041,251.663,283.041z"/>
		</g>
	</g>
	<g>
		<path d="M221.518,268.041h-44c-11.028,0-20-8.889-20-19.815v-23c0-11.13,8.972-20.186,20-20.186h44
			c8.857,0,16.758,5.93,19.214,14.42c0.613,2.122-0.609,4.34-2.732,4.954c-2.122,0.613-4.34-0.609-4.954-2.731
			c-1.472-5.089-6.212-8.643-11.528-8.643h-44c-6.617,0-12,5.467-12,12.186v23c0,6.625,5.271,11.815,12,11.815h44
			c6.729,0,12-5.19,12-11.815v-8.186c0-2.209,1.791-4,4-4s4,1.791,4,4v8.186C241.518,259.152,232.546,268.041,221.518,268.041z"/>
	</g>
	<g>
		<g>
			<path d="M35.982,200.041c-0.714,0-1.426-0.191-2.058-0.57c-12.559-7.533-20.373-28.992-23.227-63.78
				C8.63,110.509,9.975,87.039,9.988,86.805c0.125-2.114,1.876-3.765,3.993-3.765h50c2.108,0,3.854,1.636,3.991,3.739
				c0.252,3.865,5.76,94.857-30.202,112.839C37.206,199.9,36.593,200.041,35.982,200.041z M17.785,91.041
				c-1.138,26.609,0.313,85.737,18.413,100.282c22.864-14.626,25.188-73.771,23.996-100.282H17.785z"/>
		</g>
		<g>
			<path d="M38.522,268.226c-1.061,0-2.09-0.431-2.83-1.17c-0.75-0.75-1.17-1.78-1.17-2.83
				c0-1.051,0.42-2.08,1.17-2.83c0.74-0.74,1.77-1.17,2.83-1.17c1.05,0,2.08,0.43,2.82,1.17c0.75,0.75,1.18,1.779,1.18,2.83
				c0,1.05-0.43,2.08-1.18,2.83C40.602,267.795,39.571,268.226,38.522,268.226z"/>
		</g>
		<g>
			<path d="M38.518,256.041c-2.209,0-4-1.791-4-4v-56c0-2.209,1.791-4,4-4c2.209,0,4,1.791,4,4v56
				C42.518,254.25,40.727,256.041,38.518,256.041z"/>
		</g>
		<g>
			<path d="M68.518,280.041h-60c-2.209,0-4-1.791-4-4c0-2.209,1.791-4,4-4h60c2.209,0,4,1.791,4,4
				C72.518,278.25,70.727,280.041,68.518,280.041z"/>
		</g>
	</g>
	<g>
		<g>
			<path d="M85.982,199.133c-0.561,0-1.122-0.118-1.646-0.354c-8.697-3.928-15.265-13.256-19.521-27.725
				c-0.623-2.12,0.59-4.343,2.709-4.967c2.118-0.621,4.343,0.59,4.967,2.709c3.2,10.882,7.82,18.357,13.437,21.79
				c23.119-14.333,25.465-73.905,24.268-100.546H79.518c-2.209,0-4-1.791-4-4s1.791-4,4-4h34.464c2.108,0,3.854,1.637,3.991,3.74
				c0.252,3.868,5.76,94.949-30.202,112.931C87.208,198.993,86.595,199.133,85.982,199.133z"/>
		</g>
		<g>
			<path d="M88.518,277.041c-2.209,0-4-1.791-4-4v-78c0-2.209,1.791-4,4-4s4,1.791,4,4v78
				C92.518,275.25,90.727,277.041,88.518,277.041z"/>
		</g>
		<g>
			<path d="M118.518,279.041h-36c-2.209,0-4-1.791-4-4c0-2.209,1.791-4,4-4h36c2.209,0,4,1.791,4,4
				C122.518,277.25,120.727,279.041,118.518,279.041z"/>
		</g>
	</g>
	<g>
		<path d="M4.149,44.261c-3.448,0.001-4.061-3.132-4.086-3.272c-0.137-0.751-0.055-1.567,0.263-2.31
			c0.596-1.705,2.294-2.846,4.173-2.658c2.689,0.269,3.797,2.18,3.928,3.735c0.017,0.204,0.079,1.364-0.596,2.47
			c-0.624,1.097-1.757,1.882-3.108,2.008C4.523,44.252,4.332,44.261,4.149,44.261z"/>
	</g>
	<g>
		<g>
			<path d="M72.149,44.261c-3.448,0.001-4.061-3.132-4.086-3.272c-0.137-0.751-0.055-1.567,0.263-2.31
				c0.596-1.705,2.301-2.846,4.173-2.658c2.689,0.269,3.797,2.18,3.928,3.735c0.018,0.204,0.079,1.364-0.596,2.47
				c-0.624,1.097-1.757,1.882-3.108,2.008C72.523,44.252,72.332,44.261,72.149,44.261z"/>
		</g>
	</g>
	<g>
		<g>
			<path d="M38.149,8.261c-3.448,0.001-4.061-3.132-4.086-3.273c-0.137-0.751-0.055-1.567,0.263-2.31
				c0.596-1.705,2.298-2.851,4.173-2.658c2.689,0.269,3.797,2.18,3.928,3.735c0.017,0.204,0.079,1.364-0.596,2.47
				c-0.624,1.097-1.757,1.882-3.108,2.008C38.523,8.252,38.332,8.261,38.149,8.261z"/>
		</g>
	</g>
	<g>
		<g>
			<path d="M38.149,80.261c-3.448,0.001-4.061-3.132-4.086-3.273c-0.137-0.751-0.055-1.567,0.263-2.309
				c0.596-1.704,2.298-2.854,4.173-2.658c2.689,0.269,3.797,2.18,3.928,3.735c0.017,0.204,0.079,1.364-0.596,2.47
				c-0.624,1.097-1.757,1.882-3.108,2.008C38.523,80.252,38.332,80.261,38.149,80.261z"/>
		</g>
	</g>
</g>
</svg>
