<svg width="151" height="151" viewBox="0 0 151 151" fill="none" xmlns="http://www.w3.org/2000/svg">
<g clip-path="url(#clip0_106_103)">
<path fill-rule="evenodd" clip-rule="evenodd" d="M66.1342 1.71787C66.5017 0.472158 67.8094 -0.239834 69.0551 0.127589C69.82 0.353207 70.5742 0.613824 71.3152 0.908619C71.3384 0.917831 71.3614 0.927411 71.3843 0.937355C77.5837 3.63488 83.3638 9.71934 84.5689 17.0289C85.4945 22.6154 84.0466 30.1589 79.7273 35.3306L79.7255 35.3327C76.4459 39.2501 71.1612 41.1597 66.1123 41.2043C61.0588 41.2489 55.7281 39.4245 52.4747 35.2036C49.1201 30.8622 47.5636 24.2314 51.2098 18.5225C56.8075 9.75907 67.7909 10.0876 72.5448 16.9748L72.549 16.9808C74.8384 20.3199 74.5185 25.1895 72.518 28.5464C71.4732 30.2996 69.8677 31.8302 67.6949 32.5325C65.4956 33.2434 63.0175 33.008 60.44 31.7759C59.2682 31.2158 58.7723 29.8118 59.3324 28.64C59.8926 27.4682 61.2965 26.9724 62.4683 27.5325C64.1792 28.3503 65.4063 28.3294 66.2484 28.0573C67.117 27.7765 67.8892 27.1263 68.4777 26.1387C69.743 24.0156 69.7133 21.166 68.6721 19.6436C65.9419 15.6928 59.0698 14.9543 55.1735 21.0542C52.8842 24.6386 53.6915 29.0867 56.1969 32.3286L56.1989 32.3312C58.3092 35.0699 62.0388 36.5368 66.0708 36.5012C70.1073 36.4656 73.9332 34.9237 76.1181 32.315C79.444 28.332 80.6622 22.2197 79.9286 17.7962L79.9282 17.794C79.0351 12.3763 74.5714 7.4667 69.5417 5.26488C68.9457 5.02899 68.3394 4.82005 67.7245 4.6387C66.4788 4.27128 65.7668 2.96358 66.1342 1.71787ZM45.8233 59.6902C48.1413 60.2357 50.8153 61.3267 52.334 63.4585C53.0876 64.5163 52.8409 65.9847 51.7831 66.7383C50.7253 67.4919 49.257 67.2452 48.5034 66.1874C47.9974 65.4771 46.7288 64.7351 44.7457 64.2683C42.8583 63.824 40.8124 63.747 39.3735 63.9299C36.9835 64.2383 35.2197 64.8908 33.7609 65.8083C32.2858 66.7361 31.0066 68.0075 29.6735 69.7156C28.8744 70.7395 27.3967 70.9217 26.3728 70.1227C25.3489 69.3236 25.1667 67.8458 25.9658 66.822C27.4937 64.8642 29.1605 63.1456 31.2569 61.8271C33.3692 60.4985 35.8019 59.6482 38.7744 59.2649L38.7782 59.2644C40.7977 59.0074 43.4105 59.1222 45.8233 59.6902ZM89.7145 64.2682C87.7318 64.7351 86.4669 65.4768 85.9642 66.1846C85.2122 67.2435 83.7442 67.4923 82.6853 66.7403C81.6264 65.9883 81.3776 64.5202 82.1296 63.4613C83.6454 61.327 86.3199 60.2357 88.6366 59.6902C91.0488 59.1222 93.6617 59.0074 95.6811 59.2644L95.6849 59.2649C98.6572 59.6482 101.091 60.4983 103.205 61.8266C105.303 63.1449 106.971 64.8634 108.5 66.822C109.299 67.8458 109.117 69.3236 108.093 70.1227C107.069 70.9217 105.591 70.7395 104.792 69.7156C103.46 68.0083 102.179 66.7368 100.702 65.8088C99.2417 64.8909 97.4759 64.2383 95.0856 63.9298C93.6467 63.747 91.601 63.8241 89.7145 64.2682ZM39.6599 76.8143C40.9587 76.8143 42.0116 77.8671 42.0116 79.1659V83.616C42.6675 83.6917 43.3218 83.7987 43.9682 83.9381L48.1208 79.7856C49.0391 78.8672 50.5281 78.8672 51.4465 79.7856C52.3648 80.704 52.3648 82.1929 51.4465 83.1113L48.8158 85.742C50.3485 86.6099 51.6989 87.7398 52.7396 89.1524C53.5099 90.1981 53.2867 91.6702 52.2411 92.4405C51.1954 93.2108 49.7233 92.9876 48.9529 91.942C47.3236 89.7303 43.9377 88.2763 39.9695 88.1845C36.0373 88.0937 32.1969 89.3669 29.8914 91.7627C28.9909 92.6986 27.5022 92.7272 26.5663 91.8267C25.6305 90.9262 25.6019 89.4375 26.5024 88.5016C27.5963 87.3648 28.8694 86.4346 30.2519 85.6973L27.6659 83.1113C26.7475 82.1929 26.7475 80.704 27.6659 79.7856C28.5843 78.8672 30.0732 78.8672 30.9916 79.7856L35.146 83.94C35.8622 83.7877 36.5853 83.6739 37.3083 83.5972V79.1659C37.3083 77.8671 38.3612 76.8143 39.6599 76.8143ZM94.2083 76.8143C95.5071 76.8143 96.5599 77.8671 96.5599 79.1659V83.6144C97.2161 83.6904 97.8706 83.7978 98.5172 83.9376L102.669 79.7856C103.588 78.8672 105.076 78.8672 105.995 79.7856C106.913 80.704 106.913 82.1929 105.995 83.1113L103.362 85.7437C104.893 86.6117 106.242 87.7411 107.282 89.1524C108.052 90.1981 107.829 91.6702 106.783 92.4405C105.737 93.2108 104.265 92.9876 103.495 91.942C101.865 89.7296 98.4801 88.2746 94.5143 88.1822C90.5844 88.0906 86.7461 89.3635 84.4407 91.7619C83.5406 92.6982 82.0519 92.7276 81.1156 91.8275C80.1793 90.9275 80.1499 89.4388 81.0499 88.5025C82.1437 87.3646 83.4166 86.4336 84.7988 85.6958L82.2143 83.1113C81.2959 82.1929 81.2959 80.704 82.2143 79.7856C83.1327 78.8672 84.6216 78.8672 85.54 79.7856L89.6918 83.9375C90.4089 83.7849 91.1329 83.6709 91.8567 83.5942V79.1659C91.8567 77.8671 92.9096 76.8143 94.2083 76.8143ZM73.3464 93.025C74.323 93.7782 75.0991 94.7605 75.606 95.8852C76.1175 97.0199 76.3388 98.264 76.25 99.5055C76.1574 100.801 75.0321 101.776 73.7367 101.683C72.4412 101.591 71.4661 100.466 71.5587 99.1701C71.5919 98.7063 71.5092 98.2416 71.3182 97.8177C71.1271 97.3938 70.8337 97.0241 70.4643 96.7418C70.4469 96.7285 70.4296 96.7149 70.4126 96.7011C69.7423 96.1585 68.8861 95.9003 68.0276 95.9819C67.9572 95.9886 67.8866 95.9921 67.8159 95.9925C67.1745 95.9955 66.5488 96.1899 66.0188 96.5508C65.0288 97.2561 64.5515 98.0336 64.5906 99.2631C64.6318 100.561 63.613 101.647 62.3149 101.688C61.0168 101.73 59.931 100.711 59.8897 99.4125C59.7906 96.2966 61.2956 94.1327 63.3143 92.7028L63.3409 92.6843C64.6224 91.8028 66.1343 91.3185 67.6879 91.2905C69.7255 91.1239 71.7507 91.744 73.3464 93.025ZM67.4214 116.831C65.7137 116.831 64.0759 117.509 62.8684 118.717C61.6608 119.924 60.9825 121.562 60.9825 123.27C60.9825 124.978 61.6608 126.615 62.8684 127.823C64.0759 129.031 65.7137 129.709 67.4214 129.709C69.1292 129.709 70.767 129.031 71.9745 127.823C73.1821 126.615 73.8605 124.978 73.8605 123.27C73.8605 121.562 73.1821 119.924 71.9745 118.717C70.767 117.509 69.1292 116.831 67.4214 116.831ZM59.5427 115.391C61.6323 113.302 64.4663 112.128 67.4214 112.128C70.3766 112.128 73.2106 113.302 75.3002 115.391C77.3898 117.481 78.5637 120.315 78.5637 123.27C78.5637 126.225 77.3898 129.059 75.3002 131.149C73.2106 133.238 70.3766 134.412 67.4214 134.412C64.4663 134.412 61.6323 133.238 59.5427 131.149C57.4531 129.059 56.2792 126.225 56.2792 123.27C56.2792 120.315 57.4531 117.481 59.5427 115.391Z"/>
<path fill-rule="evenodd" clip-rule="evenodd" d="M6.06311 75.8586C9.391 75.1571 13.2793 76.4165 15.8171 79.8322C16.5916 80.8747 16.3744 82.3477 15.3319 83.1223C14.7704 83.5395 14.084 83.6689 13.4491 83.5367C19.397 86.2671 23.6959 92.6305 22.7099 99.6823C22.3851 101.998 21.2611 103.766 19.4406 104.736C17.7538 105.634 15.8278 105.653 14.1811 105.372C10.803 104.795 7.24099 102.448 4.9075 99.2553M12.559 83.1464C12.366 83.0081 12.191 82.8379 12.0418 82.6371C10.5807 80.6707 8.53373 80.1442 7.03269 80.4608L7.03154 80.461C6.452 80.583 5.90119 80.9967 5.43469 81.9576C4.95681 82.9418 4.70039 84.2714 4.69225 85.6048C4.67688 88.9423 6.30119 93.1963 8.70277 96.4775L8.70382 96.4789C10.4324 98.8443 12.982 100.396 14.9734 100.736C16.087 100.926 16.8239 100.801 17.2294 100.585C17.5011 100.44 17.8987 100.122 18.052 99.031M12.559 83.1464C11.7302 82.8232 10.8619 82.608 9.97564 82.5074C8.68518 82.3608 7.5202 83.288 7.3736 84.5785C7.22699 85.869 8.15428 87.0339 9.44474 87.1805C10.079 87.2526 10.6963 87.4324 11.2701 87.7122C11.296 87.7248 11.3221 87.737 11.3484 87.7486C15.7749 89.7095 18.7147 94.2885 18.052 99.031M6.06196 75.8588C3.62393 76.3723 2.08118 78.0962 1.20376 79.9034C0.337759 81.687 -3.28849e-05 83.7555 -0.0109253 85.5782L-0.0109408 85.5811C-0.0328247 90.1913 2.09053 95.4064 4.9075 99.2553M127.571 80.4608C126.07 80.1442 124.023 80.6707 122.562 82.6371C122.413 82.838 122.238 83.0082 122.045 83.1466C122.874 82.8233 123.742 82.6082 124.628 82.5074C125.918 82.3606 127.084 83.2877 127.23 84.5782C127.377 85.8686 126.45 87.0337 125.16 87.1805C124.525 87.2527 123.908 87.4325 123.334 87.7123C123.308 87.7249 123.282 87.737 123.256 87.7486C118.829 89.7095 115.889 94.2876 116.552 99.0301C116.705 100.122 117.103 100.44 117.375 100.585C117.78 100.801 118.517 100.926 119.631 100.736C121.622 100.396 124.172 98.8443 125.9 96.4789L125.901 96.4775C128.303 93.1963 129.927 88.9424 129.912 85.605C129.904 84.2715 129.647 82.9419 129.169 81.9576C128.703 80.9967 128.152 80.583 127.572 80.461L127.571 80.4608ZM121.155 83.5367C120.52 83.6689 119.834 83.5395 119.272 83.1223C118.23 82.3477 118.012 80.8747 118.787 79.8322C121.325 76.4165 125.213 75.1571 128.541 75.8586C130.98 76.3717 132.523 78.0959 133.4 79.9034C134.266 81.687 134.604 83.7555 134.615 85.5782L134.615 85.5811C134.637 90.1909 132.514 95.4051 129.697 99.2539C127.364 102.447 123.802 104.794 120.423 105.372C118.776 105.653 116.85 105.634 115.163 104.736C113.343 103.766 112.219 101.999 111.894 99.6832C110.908 92.6314 115.207 86.2671 121.155 83.5367ZM67.4214 124.163C64.4863 124.163 61.6714 125.329 59.5959 127.404C57.5205 129.48 56.3545 132.295 56.3545 135.23C56.3545 138.165 57.5205 140.98 59.5959 143.055C61.6714 145.131 64.4863 146.297 67.4214 146.297C68.8748 146.297 70.3139 146.01 71.6566 145.454C72.9993 144.898 74.2193 144.083 75.247 143.055C76.2746 142.028 77.0898 140.808 77.646 139.465C78.2022 138.122 78.4884 136.683 78.4884 135.23C78.4884 133.776 78.2022 132.337 77.646 130.995C77.0898 129.652 76.2746 128.432 75.247 127.404C74.2193 126.376 72.9993 125.561 71.6566 125.005C70.3139 124.449 68.8748 124.163 67.4214 124.163ZM56.2702 124.078C59.2277 121.121 63.2389 119.459 67.4214 119.459C69.4924 119.459 71.5431 119.867 73.4564 120.66C75.3698 121.452 77.1083 122.614 78.5727 124.078C80.0371 125.543 81.1987 127.281 81.9912 129.195C82.7837 131.108 83.1917 133.159 83.1917 135.23C83.1917 137.301 82.7837 139.351 81.9912 141.265C81.1987 143.178 80.0371 144.917 78.5727 146.381C77.1083 147.845 75.3698 149.007 73.4564 149.799C71.5431 150.592 69.4924 151 67.4214 151C63.2389 151 59.2277 149.338 56.2702 146.381C53.3127 143.423 51.6512 139.412 51.6512 135.23C51.6512 131.047 53.3127 127.036 56.2702 124.078Z"/>
<path fill-rule="evenodd" clip-rule="evenodd" d="M54.4933 102.765C49.3477 102.765 45.8336 106.183 44.1325 110.457C42.4465 114.693 42.3634 120.053 44.0125 125.001C46.5913 132.737 52.1316 138.302 61.2179 140.574C65.5679 141.659 69.3202 141.743 73.7378 140.629L73.7411 140.628C82.5956 138.38 87.9377 132.748 90.3956 124.971C91.951 120.042 91.8706 114.71 90.2799 110.497C88.6851 106.273 85.3428 102.765 80.3244 102.765C78.4896 102.765 77.1242 103.192 75.8191 103.599C75.4894 103.702 75.1636 103.804 74.835 103.898C72.6795 104.507 70.6132 105.075 67.7571 105.041L67.7302 105.041L67.7032 105.041C64.6848 105.075 62.4801 104.499 60.2099 103.889C59.8519 103.793 59.5002 103.689 59.1469 103.584C57.7751 103.178 56.3791 102.765 54.4933 102.765ZM48.4744 123.513C47.1368 119.5 47.2706 115.291 48.5023 112.196C49.7187 109.14 51.823 107.468 54.4933 107.468C55.6486 107.468 56.2924 107.656 57.5004 108.01L58.9876 108.431L77.5455 107.996C78.6803 107.646 79.2584 107.468 80.3244 107.468C82.7196 107.468 84.7064 109.05 85.8799 112.158C87.0575 115.277 87.1846 119.518 85.9104 123.556C83.9164 129.863 79.7764 134.242 72.5852 136.069C68.9804 136.978 66.0169 136.924 62.3569 136.01C54.8434 134.132 50.5487 129.736 48.4744 123.513Z"/>
<path d="M76.1195 108.422C76.6909 108.26 77.1517 108.118 77.5455 107.996L58.9876 108.431L58.9894 108.431C61.3035 109.053 64.0334 109.782 67.729 109.744C71.2971 109.782 73.9135 109.045 76.1155 108.423L76.1195 108.422Z"/>
<path fill-rule="evenodd" clip-rule="evenodd" d="M80.78 6.57849C72.3393 4.14337 63.3928 4.06715 54.9119 6.35815L54.8979 6.36193C40.9954 10.0259 31.7318 17.6498 24.641 27.0353C15.0357 39.746 10.8904 54.6195 14.1193 74.4472C14.4523 76.4668 15.37 78.7079 16.6926 81.6353C16.8933 82.0796 17.1021 82.5372 17.3172 83.0085C18.4834 85.5645 19.8333 88.5231 21.0765 91.9446C21.6168 93.4248 21.8601 95.2013 21.9962 96.941C22.1156 98.4681 22.1619 100.129 22.2067 101.736C22.2137 101.985 22.2206 102.233 22.2277 102.48C22.2821 104.351 22.35 106.13 22.531 107.719C22.7148 109.334 22.9976 110.569 23.3897 111.416L23.3917 111.42C24.6317 114.113 25.8583 115.298 27.7239 117.1C27.9165 117.286 28.1159 117.478 28.3228 117.68C33.9025 123.114 41.6261 126.004 50.1355 128.965C51.3625 129.392 52.011 130.733 51.584 131.96C51.1571 133.187 49.8162 133.835 48.5892 133.408C40.2216 130.496 31.4832 127.325 25.0403 121.05C24.8397 120.855 24.6402 120.663 24.4419 120.472C22.5365 118.637 20.7382 116.906 19.1183 113.388C18.4113 111.859 18.0595 110.035 17.8564 108.251C17.6503 106.441 17.5791 104.48 17.5249 102.616C17.5175 102.36 17.5104 102.106 17.5033 101.854C17.458 100.235 17.4152 98.7075 17.3057 97.3078C17.1774 95.6678 16.9699 94.4138 16.6562 93.5557L16.6546 93.5513C15.4807 90.3206 14.217 87.5496 13.0516 84.9944C12.8322 84.5133 12.6163 84.0398 12.4051 83.5724C11.106 80.6971 9.92372 77.924 9.4767 75.2094L9.47603 75.2053C6.0528 54.1871 10.4594 37.9982 20.8871 24.1992C28.484 14.1438 38.5854 5.79728 53.692 1.81428C63.0025 -0.699455 72.8239 -0.614607 82.0897 2.05969L82.0998 2.06259C96.5463 6.30191 105.685 14.6808 113.073 24.1654C123.83 37.9663 128.38 54.1713 124.83 75.2184C124.374 77.9414 123.151 80.7203 121.813 83.592C121.594 84.0618 121.37 84.5376 121.143 85.0211C119.942 87.5735 118.641 90.3395 117.433 93.5641C117.114 94.419 116.903 95.6692 116.772 97.3081C116.661 98.7011 116.617 100.22 116.57 101.832C116.563 102.091 116.556 102.352 116.548 102.615C116.492 104.479 116.418 106.443 116.206 108.257C115.996 110.045 115.632 111.877 114.902 113.413C113.24 116.923 111.387 118.656 109.432 120.484C109.221 120.681 109.01 120.879 108.798 121.08L108.796 121.081C102.176 127.338 93.1889 130.504 84.5683 133.421C83.3377 133.837 82.0024 133.177 81.586 131.947C81.1696 130.716 81.8296 129.381 83.0602 128.965C91.8323 125.996 99.8101 123.1 105.565 117.662C105.784 117.454 105.996 117.255 106.2 117.063C108.12 115.262 109.382 114.077 110.651 111.398L110.652 111.394C111.054 110.55 111.344 109.32 111.533 107.709C111.719 106.122 111.789 104.345 111.845 102.474C111.852 102.222 111.86 101.968 111.867 101.713C111.913 100.112 111.96 98.4564 112.082 96.9337C112.221 95.1904 112.47 93.4066 113.025 91.9193L113.026 91.9166C114.307 88.4958 115.7 85.5372 116.902 82.9834C117.125 82.5101 117.341 82.0506 117.549 81.6047C118.914 78.675 119.855 76.4432 120.191 74.4384L120.191 74.4359C123.533 54.6239 119.268 39.7663 109.362 27.0571C102.351 18.0562 93.9726 10.4511 80.78 6.57849ZM114.902 113.413C114.902 113.413 114.901 113.414 114.901 113.415L112.777 112.404L114.903 113.411C114.903 113.411 114.902 113.412 114.902 113.413Z"/>
</g>
<defs>
<clipPath id="clip0_106_103">
<rect width="134.604" height="151" fill="white"/>
</clipPath>
</defs>
</svg>
