<?xml version="1.0" encoding="utf-8"?>
<svg version="1.1" xmlns="http://www.w3.org/2000/svg" xmlns:xlink="http://www.w3.org/1999/xlink" x="0px" y="0px"
	 viewBox="0 0 241.089 259.6" enable-background="new 0 0 241.089 259.6" xml:space="preserve">
<g>
	<g>
		<g>
			<path d="M129.663,192.745c-0.277,0-0.559-0.029-0.84-0.089c-2.16-0.462-3.537-2.587-3.076-4.748
				c0.518-2.419,1.002-4.864,1.441-7.268c0.155-0.853,0.322-1.694,0.501-2.526c0.463-2.16,2.588-3.536,4.749-3.073
				c2.16,0.463,3.536,2.589,3.073,4.749c-0.161,0.754-0.313,1.516-0.454,2.288c-0.453,2.481-0.953,5.005-1.486,7.502
				C133.169,191.459,131.51,192.745,129.663,192.745z"/>
		</g>
		<g>
			<path d="M87.672,241.823c-12.161,0.001-26.108-3.562-35.072-6.927c-26.17-9.828-44.617-28.277-50.612-50.616
				c-5.108-19.035-0.291-38.816,13.565-55.7c6.348-7.735,13.871-11.756,21.146-15.644c3.853-2.059,7.836-4.187,11.602-6.861
				c1.33-0.944,2.642-1.864,3.934-2.77c8.742-6.129,16.291-11.422,22.891-19.65c5.698-7.106,9.031-20.117,11.71-30.572
				c0.43-1.68,0.842-3.286,1.242-4.784c5.632-21.096,21.572-38.677,41.599-45.883c12.468-4.486,27.582-2.035,37.571,1.754
				c14.005,5.314,33.636,22.431,38.173,28.234c10.639,13.604,19.213,26.462,16.342,46.094c-1.439,9.835-9.255,23.114-17.425,29.603
				c-5.664,4.498-13.085,8.949-20.262,13.254c-8.055,4.833-15.664,9.397-20.067,13.521c-9.733,9.12-16.143,16.77-20.779,24.807
				c-1.105,1.913-3.551,2.57-5.464,1.465c-1.914-1.104-2.569-3.55-1.466-5.463c5.048-8.748,11.907-16.966,22.24-26.646
				c5.025-4.708,12.989-9.486,21.422-14.543c6.955-4.172,14.147-8.486,19.401-12.658c6.57-5.218,13.339-16.664,14.483-24.495
				c2.417-16.527-4.905-27.449-14.727-40.009c-4.149-5.307-22.692-21.124-34.709-25.683c-10.873-4.125-23.443-4.796-32.024-1.707
				c-17.597,6.332-31.612,21.819-36.579,40.42c-0.394,1.474-0.798,3.054-1.221,4.705c-2.87,11.2-6.44,25.138-13.22,33.591
				c-7.313,9.119-15.68,14.985-24.538,21.196c-1.279,0.897-2.578,1.808-3.896,2.743c-4.179,2.967-8.39,5.217-12.462,7.394
				c-6.889,3.681-13.395,7.157-18.733,13.663C9.562,148.489,5.293,165.732,9.714,182.206c5.239,19.525,22.323,36.422,45.698,45.201
				c10.06,3.777,25.134,7.18,36.123,6.264c14.589-1.215,24.317-9.665,28.914-25.115l0.083-0.277c0.651-2.11,2.893-3.293,5.002-2.643
				c2.111,0.652,3.294,2.891,2.643,5.002l-0.045,0.148c-5.566,18.711-17.987,29.363-35.934,30.857
				C90.728,241.766,89.213,241.823,87.672,241.823z"/>
		</g>
		<g>
			<path d="M167.519,91.448c-1.452,0-2.854-0.794-3.563-2.176c-1.008-1.966-0.231-4.376,1.734-5.384
				c1.507-0.772,2.198-1.438,2.513-1.862c1.037-1.394,1.468-3.101,1.214-4.811c-0.255-1.715-1.166-3.233-2.566-4.275
				c-2.879-2.145-6.988-1.519-9.158,1.395c-1.882,2.526-1.757,6.042,0.298,8.359c1.466,1.653,1.313,4.181-0.34,5.647
				c-1.652,1.465-4.181,1.313-5.646-0.339c-4.556-5.138-4.861-12.896-0.728-18.445c4.806-6.451,13.937-7.811,20.353-3.032
				c3.108,2.315,5.133,5.694,5.701,9.515c0.569,3.831-0.393,7.654-2.709,10.764c-1.21,1.627-2.938,3.004-5.28,4.205
				C168.758,91.305,168.134,91.448,167.519,91.448z"/>
		</g>
		<g>
			<path d="M185.704,64.386c-2.059,0-4.021-0.651-5.674-1.882c-2.038-1.518-3.363-3.738-3.731-6.251
				c-0.367-2.513,0.267-5.02,1.784-7.057c1.785-2.398,4.638-3.83,7.631-3.83c2.06,0,4.022,0.651,5.677,1.884
				c2.035,1.515,3.36,3.735,3.727,6.25c0.367,2.514-0.266,5.019-1.782,7.056C191.552,62.954,188.698,64.386,185.704,64.386z
				 M185.714,53.366c-0.229,0-0.806,0.059-1.214,0.607c-0.327,0.438-0.318,0.891-0.285,1.122c0.034,0.231,0.156,0.667,0.593,0.992
				c0.332,0.247,0.671,0.299,0.896,0.299c0.229,0,0.807-0.059,1.215-0.608c0.326-0.438,0.317-0.891,0.284-1.122
				c-0.034-0.23-0.155-0.667-0.591-0.99C186.278,53.418,185.939,53.366,185.714,53.366z"/>
		</g>
		<g>
			<path d="M55.984,187.44c-2.059,0-4.021-0.651-5.676-1.882c-2.038-1.519-3.362-3.739-3.729-6.252
				c-0.367-2.513,0.267-5.019,1.784-7.056c1.785-2.397,4.639-3.83,7.632-3.83c2.06,0,4.022,0.651,5.676,1.884
				c2.036,1.515,3.361,3.735,3.73,6.25c0.367,2.514-0.266,5.02-1.782,7.056C61.829,186.009,58.975,187.44,55.984,187.44z
				 M55.995,176.419c-0.229,0-0.807,0.06-1.215,0.608c-0.327,0.438-0.318,0.891-0.285,1.122c0.034,0.231,0.155,0.667,0.592,0.992
				c0.331,0.247,0.671,0.298,0.897,0.298c0.229,0,0.808-0.059,1.219-0.611c0.323-0.434,0.315-0.887,0.281-1.119
				c-0.033-0.231-0.155-0.667-0.591-0.991C56.559,176.47,56.222,176.419,55.995,176.419z"/>
		</g>
		<g>
			<path d="M194.242,84.415c-1.63,0-3.183-0.515-4.49-1.49c-1.612-1.202-2.66-2.957-2.951-4.945
				c-0.291-1.989,0.211-3.972,1.412-5.584c1.411-1.896,3.668-3.029,6.035-3.029c1.63,0,3.184,0.516,4.491,1.491
				c1.611,1.199,2.66,2.956,2.95,4.946c0.291,1.989-0.211,3.972-1.413,5.583C198.865,83.282,196.608,84.415,194.242,84.415z
				 M194.242,76.415c-0.175,0-0.31,0.099-0.38,0.191c-0.073,0.098-0.106,0.231-0.089,0.354c0.018,0.122,0.088,0.24,0.188,0.313
				c0.21,0.157,0.558,0.048,0.668-0.099c0.072-0.097,0.105-0.23,0.088-0.353c-0.018-0.122-0.087-0.239-0.186-0.312
				C194.449,76.449,194.345,76.415,194.242,76.415z"/>
		</g>
		<g>
			<path d="M41.891,164.758c-3.015,0-6.052-0.933-8.65-2.868c-6.416-4.779-7.749-13.889-2.972-20.308
				c4.713-6.324,13.47-7.747,19.934-3.24c1.813,1.263,2.258,3.756,0.994,5.569c-1.263,1.813-3.756,2.258-5.568,0.994
				c-2.898-2.021-6.828-1.383-8.942,1.456c-2.144,2.88-1.546,6.969,1.334,9.113c2.879,2.144,6.968,1.547,9.113-1.335
				c0.616-0.828,1.018-1.76,1.193-2.772c0.378-2.177,2.457-3.638,4.626-3.256c2.177,0.378,3.635,2.449,3.257,4.626
				c-0.393,2.26-1.288,4.34-2.661,6.182C50.704,162.739,46.323,164.757,41.891,164.758z"/>
		</g>
		<g>
			<path d="M26.619,183.232L26.619,183.232c-1.553,0-3.031-0.491-4.276-1.419c-3.162-2.354-3.822-6.848-1.467-10.016
				c1.349-1.81,3.496-2.887,5.748-2.887c1.551,0,3.028,0.49,4.273,1.416c3.167,2.359,3.825,6.854,1.468,10.021
				C31.02,182.154,28.872,183.232,26.619,183.232z M26.619,175.232c-0.263,0-0.514,0.127-0.671,0.339
				c-0.276,0.371-0.198,0.896,0.172,1.173c0.357,0.264,0.907,0.186,1.173-0.17c0.278-0.375,0.2-0.9-0.171-1.177
				C26.981,175.291,26.801,175.232,26.619,175.232L26.619,175.232z"/>
		</g>
	</g>
	<g>
		<path d="M106.411,259.6c-9.22,0-17.425-1.958-23.813-3.86c-9.712-2.892-19.567-9.659-30.001-16.822
			c-3.326-2.283-6.765-4.645-10.226-6.894c-1.852-1.204-2.378-3.681-1.175-5.534c1.204-1.852,3.683-2.378,5.534-1.174
			c3.546,2.304,7.027,4.695,10.395,7.006c9.9,6.797,19.251,13.217,27.756,15.75c16.529,4.921,30.035,4.663,42.503-0.814
			c21.398-9.396,25.782-29.231,30.424-50.231c1.512-6.84,3.075-13.912,5.263-20.587c6.226-19.004,18.263-26.794,31.006-35.041
			c4.435-2.87,9.019-5.837,13.622-9.418c8.767-6.822,15.232-17.204,17.741-28.483c5.061-22.767-7.003-39.689-19.776-57.606
			c-2.146-3.011-4.365-6.124-6.5-9.262c-1.242-1.827-0.769-4.315,1.059-5.557c1.826-1.242,4.314-0.769,5.557,1.058
			c2.085,3.065,4.277,6.142,6.398,9.117c13.229,18.555,26.907,37.741,21.071,63.986c-2.905,13.064-10.427,25.114-20.637,33.06
			c-4.877,3.795-9.61,6.858-14.188,9.821c-12.518,8.101-22.405,14.499-27.751,30.816c-2.063,6.298-3.583,13.174-5.053,19.823
			c-4.868,22.025-9.901,44.801-35.019,55.83C122.151,258.294,113.942,259.6,106.411,259.6z"/>
	</g>
	<g>
		<path d="M207.138,122.109c-0.695,0-1.364-0.183-1.93-0.489c-1.697-0.922-2.492-2.95-1.891-4.786
			c0.591-1.802,2.416-3.455,4.744-3.139c1.998,0.273,3.459,1.921,3.553,4.006c0.08,1.78-1.017,3.34-2.601,3.929
			C208.402,121.963,207.759,122.109,207.138,122.109z"/>
	</g>
	<g>
		<path d="M220.022,108.568c-0.142,0-0.284-0.008-0.429-0.023c-1.109-0.118-2.064-0.679-2.707-1.488
			c-0.81-0.645-1.369-1.601-1.485-2.711c-0.23-2.197,1.365-4.164,3.561-4.395c1.462-0.151,2.791,0.3,3.765,1.274
			c0.973,0.974,1.423,2.312,1.268,3.766C223.776,107.044,222.041,108.568,220.022,108.568z"/>
	</g>
	<g>
		<path d="M196.404,134.919c-2.019,0-3.753-1.523-3.973-3.576c-0.108-1.014,0.172-1.979,0.722-2.748
			c0.488-2.008,2.443-3.386,4.504-3.074c2.115,0.323,3.594,2.333,3.367,4.459c-0.027,0.254-0.077,0.5-0.148,0.735
			c-0.764,3.169-2.602,4.026-4.042,4.18C196.689,134.911,196.546,134.919,196.404,134.919z"/>
	</g>
	<g>
		<path d="M220.451,217.578c-9.944,0-16.796-3.252-20.364-9.665c-8.761-15.741,6.836-46.106,17.678-63.873
			c-0.565-1.806,0.219-3.813,1.952-4.728c1.953-1.03,4.373-0.284,5.404,1.67c8.64,16.369,22.387,51.623,12.581,67.885
			C235.307,212.842,230.369,217.578,220.451,217.578z M221.926,152.683c-13.781,23.703-19.454,43.064-14.849,51.34
			c2.08,3.738,6.455,5.555,13.374,5.555c5.034,0,8.436-1.583,10.4-4.841C237.135,194.317,229.735,169.976,221.926,152.683z"/>
	</g>
</g>
</svg>
