<svg width="459" height="275" viewBox="0 0 459 275" fill="none" xmlns="http://www.w3.org/2000/svg">
<g clip-path="url(#clip0_106_157)">
<path fill-rule="evenodd" clip-rule="evenodd" d="M416.971 138.185C423.405 137.747 430.293 138.767 436.444 140.649C442.759 142.581 448.574 145.491 452.556 148.415C454.44 149.799 456.47 151.585 457.722 153.696C458.35 154.755 459.153 156.513 459.012 158.694C458.847 161.239 457.475 163.267 455.669 164.507L455.667 164.508C445.874 171.227 424.141 185.393 400.636 200.221C404.505 200.643 408.271 201.313 411.807 202.133C417.816 203.528 423.399 205.414 428.018 207.463C432.469 209.439 436.585 211.81 439.18 214.413C441.038 216.276 442.787 219.086 442.398 222.641C442.149 224.912 440.694 226.872 438.592 227.767C429.475 231.648 418.152 235.38 406.336 239.133C403.865 239.918 401.37 240.704 398.861 241.495C389.27 244.518 379.489 247.601 370.117 250.886C365.028 252.669 360.102 254.561 355.207 256.455C354.772 256.623 354.336 256.792 353.901 256.96C349.47 258.676 345.042 260.391 340.645 261.969C330.982 265.438 321.13 268.375 310.702 269.466C300.446 270.54 292.809 269.088 285.192 267.639C283.531 267.323 281.871 267.008 280.185 266.718C277.519 266.261 274.925 265.783 272.397 265.318C267.615 264.438 263.066 263.6 258.697 263.019C258.133 263.167 257.574 263.313 257.019 263.459C256.356 263.633 255.7 263.805 255.049 263.976C240.1 267.898 227.878 271.049 212.229 273.675C201.432 275.488 192.056 273.65 182.37 270.129C176.597 268.03 170.278 265.144 163.391 261.998C159.255 260.109 154.914 258.126 150.362 256.164C139.406 251.439 128.436 246.009 117.74 240.716C113.1 238.419 108.511 236.148 103.997 233.971C88.8811 226.68 74.3896 220.329 60.3338 216.726C45.422 212.905 32.5094 214.25 14.4096 216.137C12.0114 216.387 9.52206 216.646 6.92495 216.904C3.45248 217.249 0.357658 214.714 0.0124746 211.242C-0.332709 207.769 2.20246 204.675 5.67493 204.329C8.20058 204.078 10.6674 203.818 13.0867 203.563C30.951 201.677 46.2251 200.065 63.4708 204.485C78.8124 208.418 94.2488 215.239 109.487 222.588C114.254 224.888 118.984 227.229 123.697 229.562C134.249 234.786 144.723 239.97 155.365 244.559C160.601 246.817 165.196 248.92 169.385 250.838C175.825 253.787 181.307 256.297 186.688 258.253C195.125 261.32 202.201 262.545 210.137 261.213C225.172 258.689 236.911 255.67 251.842 251.753C252.496 251.582 253.155 251.408 253.821 251.234C254.728 250.995 255.647 250.754 256.579 250.51C256.647 250.491 256.716 250.473 256.785 250.456C270.777 246.787 287.742 242.407 312.118 237.101C312.918 236.927 315.282 235.99 319.502 233.858C323.47 231.855 328.508 229.096 334.33 225.769C345.055 219.641 358.246 211.696 371.928 203.248C371.996 203.204 372.065 203.162 372.134 203.121C373.225 202.447 374.319 201.771 375.415 201.091C401.736 184.778 429.06 167.149 443.459 157.51C440.759 155.822 436.978 154.027 432.748 152.734C427.78 151.214 422.45 150.478 417.829 150.793C413.1 151.115 409.933 152.462 408.217 154.221C405.78 156.719 401.78 156.769 399.282 154.332C396.784 151.895 396.735 147.895 399.172 145.397C403.921 140.528 410.646 138.615 416.971 138.185ZM378.057 214.315C364.495 222.684 351.363 230.591 340.6 236.741C334.694 240.116 329.444 242.994 325.199 245.138C321.206 247.155 317.433 248.877 314.806 249.449C304.976 251.588 296.368 253.575 288.676 255.425C295.789 256.76 301.35 257.739 309.386 256.898C318.337 255.961 327.088 253.409 336.376 250.075C340.617 248.553 344.898 246.895 349.357 245.169C349.785 245.003 350.215 244.837 350.646 244.67C355.542 242.775 360.637 240.817 365.937 238.96C375.518 235.602 385.549 232.441 395.162 229.411C397.645 228.628 400.099 227.854 402.511 227.088C410.427 224.574 417.863 222.149 424.458 219.738C423.966 219.501 423.445 219.259 422.892 219.014C419.052 217.31 414.233 215.669 408.95 214.443C398.453 212.007 387.021 211.407 378.057 214.315Z"/>
<path d="M236.608 158.488C227.602 159.796 219.751 163.845 213.077 167.287L236.608 158.488Z"/>
<path d="M238.423 170.994L236.608 158.488L213.077 167.287C211.407 168.148 209.811 168.972 208.289 169.704L219.858 178.039C226.271 174.755 231.712 171.969 238.423 170.994Z"/>
<path d="M287.861 168.615C273.391 161.892 255.837 155.698 236.608 158.488L238.423 170.994C253.923 168.745 268.695 173.644 282.536 180.075C285.7 181.546 289.458 180.172 290.928 177.008C292.399 173.843 291.025 170.086 287.861 168.615Z"/>
<path d="M213.77 181.091C215.927 180.052 217.936 179.024 219.858 178.039L208.289 169.704C205.144 171.218 203.823 174.994 205.336 178.138C206.85 181.283 210.626 182.604 213.77 181.091Z"/>
<path d="M219.858 178.039C226.271 174.755 231.712 171.969 238.423 170.994L219.858 178.039Z"/>
<path fill-rule="evenodd" clip-rule="evenodd" d="M408.429 122.04C412.413 121.896 419.461 122.658 425.434 123.988ZM425.434 123.988C425.517 124.006 425.6 124.025 425.683 124.044ZM425.683 124.044C415.886 131.432 404.531 140.823 393.83 149.837C389.656 153.352 385.588 156.806 381.735 160.076C372.578 167.849 364.637 174.588 359.398 178.674C353.076 183.603 347.41 187.926 342.096 191.98C330.088 201.141 319.877 208.931 307.952 219.253C305.313 221.537 305.026 225.528 307.31 228.166C309.593 230.804 313.584 231.092 316.222 228.808C327.843 218.749 337.608 211.3 349.447 202.269C354.807 198.18 360.593 193.766 367.168 188.639C372.627 184.383 380.907 177.355 390.188 169.477C393.99 166.25 397.959 162.881 401.971 159.502C415.951 147.726 430.527 135.755 441.21 128.39C442.471 127.521 443.373 126.224 443.749 124.739C444.667 121.113 442.718 118.422 441.462 117.189C440.203 115.954 438.665 115.115 437.425 114.541C434.839 113.346 431.495 112.391 428.179 111.653C421.528 110.172 413.354 109.216 407.968 109.412L407.967 109.412C399.445 109.724 390.544 113.013 382.754 116.958C374.864 120.953 367.57 125.9 362.123 130.096C359.359 132.225 358.844 136.193 360.974 138.957C363.104 141.722 367.071 142.236 369.836 140.106C374.829 136.259 381.45 131.782 388.462 128.232C395.574 124.631 402.561 122.255 408.428 122.04"/>
<path fill-rule="evenodd" clip-rule="evenodd" d="M345.973 130.332C354.941 129.309 363.987 131.237 373.031 137.085C374.73 138.183 375.8 140.029 375.91 142.049C376.019 144.069 375.155 146.019 373.585 147.295C361.856 156.823 347.379 169.127 333.31 181.086C328.74 184.97 324.214 188.817 319.838 192.521C310.943 200.05 302.669 206.989 295.991 212.378C289.548 217.577 284.011 221.82 280.887 223.464C259.592 234.678 224.156 239.836 194.667 241.804C191.185 242.036 188.174 239.401 187.942 235.92C187.71 232.438 190.344 229.427 193.826 229.195C223.304 227.228 256.303 222.129 274.999 212.283C276.791 211.339 281.268 208.021 288.055 202.544C294.608 197.256 302.784 190.401 311.673 182.876C315.995 179.217 320.485 175.401 325.031 171.537C336.21 162.036 347.729 152.245 357.928 143.799C354.317 142.718 350.833 142.496 347.404 142.887C341.242 143.59 334.814 146.327 327.819 150.623C320.816 154.924 313.713 160.483 306.075 166.476L305.864 166.641C298.402 172.496 290.47 178.721 282.153 183.972C262.043 196.67 235.136 204.046 213.636 185.679C182.792 159.333 149.865 147.801 106.015 155.415C102.577 156.012 99.3057 153.709 98.7087 150.271C98.1117 146.833 100.415 143.562 103.853 142.965C151.798 134.639 188.452 147.548 221.844 176.071C236.82 188.865 256.758 185.061 275.406 173.287C283.16 168.391 290.653 162.514 298.274 156.534L298.357 156.469C305.838 150.599 313.499 144.588 321.206 139.855C328.948 135.1 337.205 131.331 345.973 130.332Z"/>
<path fill-rule="evenodd" clip-rule="evenodd" d="M114.461 115.962C101.075 116.299 87.9336 116.63 75.4216 116.63C71.932 116.63 69.1032 113.801 69.1032 110.311C69.1032 106.822 71.932 103.993 75.4216 103.993C87.2307 103.993 99.9359 103.674 113.067 103.344C145.623 102.526 180.795 101.642 211.414 105.395C245.548 109.578 291.772 128.483 321.307 143.614C324.413 145.205 325.641 149.013 324.049 152.118C322.458 155.224 318.651 156.452 315.545 154.861C286.402 139.931 241.771 121.846 209.876 117.938C180.234 114.305 146.642 115.151 114.461 115.962Z"/>
<path fill-rule="evenodd" clip-rule="evenodd" d="M268.696 49.6231C272.152 49.142 275.344 51.5538 275.825 55.01C276.15 57.3419 276.182 60.0131 275.795 62.6211C275.419 65.1616 274.572 68.1329 272.751 70.6577C270.345 73.9943 267.395 76.9309 263.023 78.2494C258.913 79.489 254.525 78.9806 249.986 77.947C246.583 77.1722 244.453 73.7858 245.228 70.3833C246.003 66.9808 249.389 64.8507 252.792 65.6255C256.794 66.5369 258.509 66.4116 259.375 66.1507C259.978 65.9686 260.876 65.5205 262.501 63.2676M268.696 49.6231C265.24 50.1042 262.828 53.2961 263.309 56.7524ZM263.309 56.7524C263.479 57.9709 263.494 59.4286 263.295 60.7677ZM263.295 60.7677C263.205 61.3738 263.085 61.8662 262.961 62.2544C262.796 62.7667 262.623 63.0973 262.501 63.2676"/>
<path d="M262.961 62.2544L268.696 49.6231L263.309 56.7524C263.479 57.9709 263.494 59.4286 263.295 60.7677C263.205 61.3738 263.085 61.8662 262.961 62.2544Z"/>
<path d="M291.845 50.8583L256.098 0.00185879L250.482 2.85016C248.429 5.98553 245.352 10.2829 241.866 15.1528L233.379 27.128L224.581 40.502L219.42 51.6933L232.896 51.5379C233.474 50.3751 234.296 48.8691 235.414 47.0079C237.637 43.3059 240.572 38.92 243.756 34.3401C246.361 30.5914 249.183 26.6461 251.853 22.9127L255.441 17.8863C258.066 21.6972 260.965 25.4337 263.757 29.0327C264.691 30.2369 265.613 31.4257 266.51 32.5967C271.337 38.9055 275.588 44.9025 278.34 51.014L291.845 50.8583Z"/>
<path d="M235.946 76.2447C231.919 71.6191 229.729 64.4495 231.805 54.2008C231.896 53.7523 232.235 52.8706 232.896 51.5379L219.42 51.6933C216.743 64.9107 219.271 76.337 226.416 84.5428C233.467 92.6415 244.174 96.6361 255.985 96.8703C267.912 97.1055 281.034 91.4769 287.616 79.9015C292.493 71.3302 294.908 59.9555 291.845 50.8583L278.34 51.014C278.918 52.2997 279.431 53.5905 279.868 54.8904C281.423 59.5061 280.376 67.0739 276.632 73.6537C272.79 80.4096 264.517 84.3989 256.235 84.2359C246.986 84.0523 240.067 80.9776 235.946 76.2447Z"/>
<path d="M261.386 3.41981C260.357 1.42078 258.343 0.119162 256.098 0.00185879L291.845 50.8583C288.592 41.1945 282.385 32.5488 276.545 24.9174C275.526 23.5852 274.522 22.2879 273.54 21.0192C268.647 14.6988 264.304 9.0889 261.386 3.41981Z"/>
<path d="M256.098 0.00185879C253.853 -0.115445 251.714 0.969233 250.482 2.85016L256.098 0.00185879Z"/>
</g>
<defs>
<clipPath id="clip0_106_157">
<rect width="459" height="274.356" fill="white"/>
</clipPath>
</defs>
</svg>
