<?xml version="1.0" encoding="utf-8"?>
<svg version="1.1" xmlns="http://www.w3.org/2000/svg" xmlns:xlink="http://www.w3.org/1999/xlink" x="0px" y="0px"
	 viewBox="0 0 270 231.281" enable-background="new 0 0 270 231.281" xml:space="preserve">
<g>
	<g>
		<path d="M219,231.281H52.917c-1.608,0-3.059-0.963-3.685-2.443L16.94,152.384
			c-0.859-2.035,0.094-4.382,2.129-5.241c2.036-0.861,4.382,0.095,5.241,2.128l31.26,74.011h160.723l29.245-73.047
			c0.821-2.051,3.146-3.045,5.2-2.228c2.051,0.821,3.048,3.149,2.227,5.2l-30.251,75.561
			C222.106,230.286,220.635,231.281,219,231.281z"/>
	</g>
	<g>
		<path d="M200,153.281h-4c-2.209,0-4-1.791-4-4s1.791-4,4-4h4c2.209,0,4,1.791,4,4S202.209,153.281,200,153.281z"/>
	</g>
	<g>
		<path d="M255.096,153.281H213c-2.209,0-4-1.791-4-4s1.791-4,4-4h42.096c3.936,0,6.904-2.785,6.904-6.477v-0.193
			c0-3.904-3.226-7.329-6.904-7.329H14.904c-3.678,0-6.904,3.425-6.904,7.329v0.193c0,3.692,2.968,6.477,6.904,6.477H179
			c2.209,0,4,1.791,4,4s-1.791,4-4,4H14.904C6.547,153.281,0,146.922,0,138.804v-0.193c0-8.31,6.825-15.329,14.904-15.329h240.191
			c8.079,0,14.904,7.02,14.904,15.329v0.193C270,146.922,263.453,153.281,255.096,153.281z"/>
	</g>
	<g>
		<g>
			<path d="M134.818,24.932c-15.782,0-29.22-7.803-32.679-18.975c-0.646-2.086,0.503-4.307,2.566-4.96
				c2.066-0.651,4.26,0.51,4.905,2.595c2.409,7.779,13.01,13.425,25.208,13.425c11.623,0,23.118-6.138,25.953-13.493
				c0.785-2.037,3.056-3.048,5.069-2.25c2.014,0.793,3.011,3.088,2.226,5.124C164.04,16.84,149.78,24.932,134.818,24.932z"/>
		</g>
		<g>
			<path d="M195.999,19.876c-0.671,0-1.352-0.17-1.977-0.525c-9.01-5.136-19.153-8.986-30.148-11.445
				c-2.156-0.481-3.513-2.62-3.031-4.776c0.482-2.155,2.625-3.517,4.777-3.03c11.772,2.632,22.661,6.772,32.364,12.301
				c1.919,1.095,2.588,3.537,1.494,5.456C198.74,19.15,197.389,19.876,195.999,19.876z"/>
		</g>
		<g>
			<path d="M71.407,22.452c-1.318,0-2.608-0.65-3.372-1.843c-1.192-1.859-0.651-4.334,1.209-5.525
				C79.585,8.456,91.469,3.528,104.57,0.436c2.148-0.501,4.304,0.825,4.812,2.975c0.507,2.15-0.824,4.305-2.975,4.813
				c-12.218,2.883-23.269,7.457-32.845,13.595C72.894,22.247,72.146,22.452,71.407,22.452z"/>
		</g>
		<g>
			<path d="M74,95.281c-2.209,0-4-1.791-4-4v-15c0-2.209,1.791-4,4-4s4,1.791,4,4v15
				C78,93.49,76.209,95.281,74,95.281z"/>
		</g>
		<g>
			<path d="M74,64.281c-2.209,0-4-1.791-4-4v-41c0-2.209,1.791-4,4-4s4,1.791,4,4v41
				C78,62.49,76.209,64.281,74,64.281z"/>
		</g>
		<g>
			<path d="M197,82.281c-2.209,0-4-1.791-4-4v-61c0-2.209,1.791-4,4-4s4,1.791,4,4v61
				C201,80.49,199.209,82.281,197,82.281z"/>
		</g>
		<g>
			<path d="M51.586,88.732c-1.268,0-2.503-0.604-3.273-1.698l-25.333-36c-0.619-0.88-0.858-1.973-0.662-3.031
				c0.196-1.059,0.811-1.993,1.705-2.593l45.152-30.281c1.835-1.229,4.32-0.74,5.55,1.095c1.23,1.834,0.74,4.319-1.094,5.55
				L31.876,49.776l21.051,29.915l9.878-4.609c2-0.932,4.382-0.069,5.316,1.934c0.934,2.002,0.068,4.382-1.934,5.316l-12.913,6.025
				C52.731,88.611,52.155,88.732,51.586,88.732z"/>
		</g>
		<g>
			<path d="M219.664,87.732c-0.637,0-1.281-0.151-1.877-0.469l-13.201-7.025c-1.95-1.038-2.689-3.46-1.652-5.41
				c1.038-1.95,3.458-2.691,5.411-1.652l10.083,5.366l20.939-29.755l-42.93-28.583c-1.839-1.224-2.337-3.707-1.113-5.546
				c1.224-1.84,3.707-2.338,5.546-1.112l46.347,30.857c0.898,0.598,1.516,1.532,1.715,2.593c0.199,1.061-0.04,2.156-0.66,3.038
				l-25.333,36C222.165,87.132,220.929,87.732,219.664,87.732z"/>
		</g>
	</g>
	<g>
		<path d="M165.153,92.95c-1.446,0-2.841-0.786-3.554-2.158c-2.209-4.255-6.554-6.898-11.341-6.898
			c-2.953,0-5.836,1.024-8.122,2.886c-1.712,1.396-4.232,1.138-5.627-0.575c-1.395-1.713-1.137-4.233,0.576-5.628
			c3.708-3.019,8.386-4.683,13.173-4.683c7.785,0,14.852,4.297,18.442,11.213c1.018,1.961,0.253,4.375-1.708,5.393
			C166.403,92.805,165.773,92.95,165.153,92.95z"/>
	</g>
	<g>
		<path d="M70.179,130.11c-1.371,0-2.706-0.705-3.451-1.973c-2.057-3.494-3.144-7.494-3.144-11.568
			c0-12.593,10.245-22.837,22.837-22.837s22.837,10.244,22.837,22.837c0,2.639-0.447,5.226-1.328,7.69
			c-0.744,2.081-3.031,3.164-5.114,2.42c-2.08-0.744-3.163-3.033-2.419-5.113c0.572-1.598,0.861-3.279,0.861-4.997
			c0-8.181-6.656-14.837-14.837-14.837c-8.181,0-14.837,6.656-14.837,14.837c0,2.648,0.705,5.245,2.038,7.512
			c1.121,1.903,0.485,4.356-1.419,5.476C71.566,129.931,70.868,130.11,70.179,130.11z"/>
	</g>
	<g>
		<path d="M32.056,128.429c-0.266,0-0.536-0.026-0.806-0.082c-2.164-0.443-3.56-2.557-3.117-4.722
			c2.558-12.492,13.682-21.56,26.451-21.56c4.071,0,7.987,0.886,11.639,2.632c1.993,0.953,2.836,3.341,1.883,5.334
			c-0.953,1.994-3.341,2.838-5.334,1.883c-2.565-1.227-5.32-1.849-8.188-1.849c-8.986,0-16.814,6.378-18.613,15.165
			C35.583,127.123,33.916,128.429,32.056,128.429z"/>
	</g>
	<g>
		<path d="M141.313,130.752c-2.082,0-3.838-1.611-3.986-3.72c-0.05-0.71-0.075-1.442-0.075-2.175
			c0-17.208,14-31.208,31.208-31.208c16.577,0,30.264,12.955,31.16,29.494c0.12,2.206-1.572,4.092-3.778,4.211
			c-2.212,0.13-4.091-1.572-4.21-3.777c-0.666-12.296-10.844-21.928-23.172-21.928c-12.797,0-23.208,10.411-23.208,23.208
			c0,0.542,0.018,1.081,0.056,1.614c0.155,2.203-1.506,4.115-3.709,4.271C141.501,130.749,141.406,130.752,141.313,130.752z"/>
	</g>
	<g>
		<path d="M213.08,105.683c-1.688,0-3.257-1.077-3.805-2.77c-1.777-5.491-6.852-9.181-12.629-9.181
			c-3.296,0-6.456,1.216-8.898,3.424c-1.639,1.483-4.168,1.354-5.65-0.284c-1.481-1.639-1.354-4.168,0.285-5.649
			c3.916-3.541,8.981-5.49,14.264-5.49c9.257,0,17.392,5.915,20.24,14.718c0.68,2.102-0.472,4.358-2.574,5.037
			C213.903,105.62,213.488,105.683,213.08,105.683z"/>
	</g>
	<g>
		<path d="M200.657,130.805c-0.242,0-0.487-0.022-0.734-0.068c-2.172-0.402-3.606-2.49-3.204-4.662
			c2.458-13.251,14.036-22.868,27.531-22.868c12.497,0,23.584,8.394,26.96,20.413c0.597,2.127-0.643,4.336-2.769,4.933
			c-2.129,0.598-4.336-0.643-4.933-2.769c-2.411-8.583-10.331-14.577-19.258-14.577c-9.64,0-17.91,6.866-19.665,16.327
			C204.228,129.46,202.547,130.805,200.657,130.805z"/>
	</g>
	<g>
		<path d="M204.583,212.708c-0.508,0-1.023-0.097-1.522-0.303c-2.042-0.841-3.017-3.179-2.175-5.222
			c0.072-0.174,7.221-17.537,12.608-30.991c0.821-2.05,3.149-3.045,5.2-2.227c2.051,0.821,3.048,3.149,2.227,5.201
			c-5.402,13.49-12.566,30.89-12.638,31.064C207.646,211.774,206.155,212.708,204.583,212.708z"/>
	</g>
	<g>
		<path d="M222.083,168.985c-0.494,0-0.996-0.092-1.482-0.287c-2.051-0.821-3.05-3.144-2.229-5.195
			c1.225-3.061,3.54-3.288,4.477-3.232c1.871,0.094,3.439,1.4,3.995,3.329c0.611,2.123-0.614,4.34-2.737,4.951
			c-0.138,0.04-0.276,0.071-0.414,0.096C223.189,168.867,222.642,168.985,222.083,168.985z"/>
	</g>
	<g>
		<g>
			<path d="M134.768,128.09c-0.934-0.055-1.852-0.436-2.571-1.144c-1.573-1.552-1.591-4.085-0.04-5.657
				c3.457-3.506,5.521-8.147,5.813-13.068c0.663-11.192-7.903-20.838-19.095-21.501c-8.636-0.512-16.667,4.509-19.985,12.491
				c-0.847,2.041-3.186,3.009-5.229,2.159c-2.04-0.848-3.007-3.189-2.158-5.229c4.623-11.125,15.813-18.12,27.845-17.407
				c15.596,0.924,27.532,14.364,26.608,29.96c-0.406,6.857-3.283,13.324-8.102,18.211
				C137.012,127.761,135.879,128.156,134.768,128.09z"/>
		</g>
		<g>
			<path d="M128.005,116.246c-0.484,0-0.976-0.088-1.454-0.275c-2.058-0.804-3.075-3.123-2.271-5.181
				c0.743-1.902,0.485-4.031-0.691-5.695c-0.911-1.29-2.267-2.161-3.819-2.454c-2.171-0.411-3.598-2.503-3.187-4.674
				c0.41-2.171,2.502-3.592,4.673-3.188c3.604,0.682,6.754,2.706,8.867,5.7c2.731,3.864,3.333,8.807,1.609,13.221
				C131.115,115.28,129.605,116.246,128.005,116.246z"/>
		</g>
	</g>
	<g>
		<path d="M30.597,95.732c-3.316,0-6.013-2.697-6.013-6.013c0-3.315,2.697-6.013,6.013-6.013
			c3.315,0,6.013,2.697,6.013,6.013C36.609,93.035,33.912,95.732,30.597,95.732z M30.597,87.732c-1.096,0-1.987,0.892-1.987,1.987
			c0,1.096,0.892,1.987,1.987,1.987c1.096,0,1.987-0.892,1.987-1.987C32.584,88.624,31.692,87.732,30.597,87.732z"/>
	</g>
	<g>
		<path d="M250.668,102.54c-2.987,0-5.417-2.43-5.417-5.417c0-2.986,2.43-5.416,5.417-5.416
			c2.986,0,5.416,2.43,5.416,5.416C256.084,100.11,253.654,102.54,250.668,102.54z M250.668,94.54c-1.425,0-2.584,1.159-2.584,2.583
			c0,1.425,1.159,2.584,2.584,2.584c1.424,0,2.583-1.159,2.583-2.584C253.251,95.699,252.092,94.54,250.668,94.54z"/>
	</g>
	<g>
		<path d="M17.13,119.374c-6.684,0-12.122-5.438-12.122-12.121c0-6.685,5.438-12.122,12.122-12.122
			c6.684,0,12.121,5.438,12.121,12.122C29.251,113.936,23.813,119.374,17.13,119.374z M17.13,103.131
			c-2.273,0-4.122,1.85-4.122,4.122c0,2.272,1.849,4.121,4.122,4.121c2.272,0,4.121-1.849,4.121-4.121
			C21.251,104.98,19.402,103.131,17.13,103.131z"/>
	</g>
</g>
</svg>
