<?xml version="1.0" encoding="utf-8"?>
<!-- Generator: Adobe Illustrator 19.0.1, SVG Export Plug-In . SVG Version: 6.00 Build 0)  -->
<svg version="1.1" id="Слой_1" xmlns="http://www.w3.org/2000/svg" xmlns:xlink="http://www.w3.org/1999/xlink" x="0px" y="0px"
	 viewBox="-279 385.89 37 70" enable-background="new -279 385.89 37 70" xml:space="preserve">
<path id="path-1" fill="#5A5A59" d="M-242.968,388.547l-9.079,2.801l9.079,2.801c0.725,0.224,1.13,0.986,0.903,1.703
	c-0.184,0.581-0.727,0.954-1.313,0.954c-0.136,0-0.275-0.02-0.412-0.062l-13.284-4.099c-0.574-0.177-0.966-0.703-0.966-1.297
	c0-0.595,0.392-1.12,0.966-1.297l13.284-4.099c0.726-0.224,1.498,0.175,1.725,0.892
	C-241.838,387.561-242.243,388.323-242.968,388.547z M-259.702,395.796c-0.261,0.288-0.634,0.452-1.025,0.452h-2.265v0.993
	c3.912,0.34,7.539,2.118,10.186,5.012h1.691c0.76,0,1.376,0.609,1.376,1.359v49.535c0,0.751-0.616,1.36-1.376,1.36h-0.99v0.024
	c0,0.75-0.617,1.359-1.377,1.359h-21.773c-0.761,0-1.377-0.609-1.377-1.359v-0.024h-0.99c-0.76,0-1.376-0.609-1.376-1.36v-49.535
	c0-0.75,0.616-1.359,1.376-1.359h1.691c2.648-2.894,6.274-4.672,10.186-5.012v-0.993h-2.264c-0.392,0-0.765-0.164-1.026-0.452
	c-0.261-0.288-0.386-0.672-0.343-1.056l0.801-7.166c0.077-0.688,0.667-1.21,1.369-1.21h5.679c0.702,0,1.292,0.522,1.369,1.21
	l0.801,7.166C-259.316,395.124-259.441,395.508-259.702,395.796z M-276.245,404.971v46.817h23.753v-46.817H-276.245z
	 M-271.819,402.253h14.902c-2.152-1.518-4.744-2.353-7.451-2.353C-267.076,399.9-269.667,400.735-271.819,402.253z
	 M-262.762,389.083h-3.213l-0.498,4.447h4.209L-262.762,389.083z M-255.582,450.352c-0.76,0-1.376-0.609-1.376-1.359v-41.226
	c0-0.751,0.616-1.359,1.376-1.359c0.761,0,1.377,0.608,1.377,1.359v41.226C-254.205,449.743-254.821,450.352-255.582,450.352z"/>
</svg>
