<?xml version="1.0" encoding="utf-8"?>
<svg version="1.1" xmlns="http://www.w3.org/2000/svg" xmlns:xlink="http://www.w3.org/1999/xlink" x="0px" y="0px"
	 viewBox="0 0 218 269" enable-background="new 0 0 218 269" xml:space="preserve">
<g>
	<g>
		<path d="M85.758,212.81c-34.659,0-65.549-23.977-75.118-58.307c-0.593-2.128,0.651-4.334,2.779-4.927
			c2.129-0.591,4.335,0.651,4.928,2.779c8.608,30.885,36.329,52.455,67.411,52.455c31.221,0,58.975-21.691,67.493-52.75
			c0.585-2.13,2.786-3.383,4.915-2.799c2.131,0.584,3.384,2.785,2.8,4.915C151.497,188.698,120.57,212.81,85.758,212.81z"/>
	</g>
	<g>
		<path d="M205.635,155H12.365C5.547,155,0,149.453,0,142.635v-0.271C0,135.547,5.547,130,12.365,130h193.27
			c6.818,0,12.365,5.547,12.365,12.365v0.271C218,149.453,212.453,155,205.635,155z M12.365,138C9.958,138,8,139.958,8,142.365
			v0.271C8,145.042,9.958,147,12.365,147h193.27c2.407,0,4.365-1.958,4.365-4.365v-0.271c0-2.407-1.958-4.365-4.365-4.365H12.365z"
			/>
	</g>
	<g>
		<path d="M157.395,153.598c-0.305,0-0.613-0.035-0.923-0.108c-2.15-0.508-3.481-2.663-2.973-4.813
			c0.771-3.261,0.74-12.363,0.533-17.739c-0.038-0.107-0.076-0.216-0.115-0.325c-0.408-1.146-0.917-2.573-0.917-4.275V15.274
			C153,6.709,160.344,0,169.719,0H202.1c8.773,0,14.9,6.281,14.9,15.274v111.063c0.003,0.267,0.047,0.942,0.095,1.75
			c0.235,3.942,0.253,4.971,0.102,5.791c-0.402,2.173-2.498,3.605-4.66,3.207c-2.095-0.387-3.505-2.341-3.243-4.428
			c0.021-0.663-0.117-2.969-0.184-4.094c-0.063-1.047-0.109-1.915-0.109-2.227V15.274C209,10.651,206.485,8,202.1,8h-32.381
			C165.492,8,161,10.549,161,15.274v111.063c0,0.319,0.251,1.024,0.453,1.591c0.132,0.371,0.261,0.736,0.372,1.095
			c0.103,0.33,0.162,0.671,0.177,1.017c0.065,1.511,0.595,14.926-0.718,20.477C160.85,152.358,159.207,153.598,157.395,153.598z"/>
	</g>
	<g>
		<path d="M187,269H75c-2.209,0-4-1.791-4-4s1.791-4,4-4h112c2.209,0,4,1.791,4,4S189.209,269,187,269z"/>
	</g>
	<g>
		<path d="M91.763,265.133c-0.963,0-1.93-0.346-2.696-1.046c-1.632-1.49-1.746-4.02-0.256-5.651
			c0.059-0.066,7.068-8.016,5.458-18.242c-1.371-8.703-8.438-16.822-21.004-24.133c-1.909-1.111-2.557-3.56-1.445-5.469
			c1.11-1.909,3.56-2.557,5.469-1.446c14.803,8.613,23.181,18.681,24.902,29.925c2.147,14.038-7.079,24.329-7.474,24.761
			C93.928,264.695,92.848,265.133,91.763,265.133z"/>
	</g>
	<g>
		<path d="M177.906,268.008c-0.348,0-0.701-0.046-1.054-0.142c-2.132-0.581-3.389-2.78-2.808-4.911l30.221-110.889
			c0.581-2.131,2.773-3.389,4.911-2.808c2.132,0.581,3.389,2.78,2.808,4.911l-30.221,110.889
			C181.278,266.838,179.666,268.008,177.906,268.008z"/>
	</g>
	<g>
		<path d="M187.888,49.47c-7.711,0-13.983-6.273-13.983-13.984c0-7.711,6.272-13.984,13.983-13.984
			c7.711,0,13.984,6.273,13.984,13.984C201.872,43.196,195.599,49.47,187.888,49.47z M187.888,29.501
			c-3.299,0-5.983,2.685-5.983,5.984c0,3.3,2.685,5.984,5.983,5.984c3.3,0,5.984-2.685,5.984-5.984
			C193.872,32.186,191.188,29.501,187.888,29.501z"/>
	</g>
	<g>
		<path d="M143,122H13c-2.209,0-4-1.791-4-4s1.791-4,4-4h130c2.209,0,4,1.791,4,4S145.209,122,143,122z"/>
	</g>
</g>
</svg>
