<svg version="1.1" xmlns="http://www.w3.org/2000/svg" xmlns:xlink="http://www.w3.org/1999/xlink" x="0px" y="0px" viewBox="0 0 409.92 410.88"
	 enable-background="new 0 0 409.92 410.88" xml:space="preserve">
<g>
	<g>
		<path d="M273.066,246.084c67.754,0,122.879-55.129,122.879-122.883S340.82,0.322,273.066,0.322
			S150.188,55.447,150.188,123.201S205.312,246.084,273.066,246.084L273.066,246.084z M273.066,13.975
			c60.227,0,109.227,49.004,109.227,109.226c0,60.227-49,109.227-109.227,109.227c-60.226,0-109.226-49-109.226-109.227
			C163.84,62.979,212.84,13.975,273.066,13.975L273.066,13.975z M273.066,13.975"/>
	</g>
	<g>
		<path d="M273.066,218.775c52.704,0,95.575-42.871,95.575-95.574s-42.871-95.574-95.575-95.574
			c-52.703,0-95.574,42.871-95.574,95.574S220.363,218.775,273.066,218.775L273.066,218.775z M273.066,41.283
			c45.172,0,81.922,36.746,81.922,81.918c0,45.172-36.75,81.922-81.922,81.922c-45.171,0-81.921-36.75-81.921-81.922
			C191.145,78.029,227.895,41.283,273.066,41.283L273.066,41.283z M273.066,41.283"/>
	</g>
	<g>
		<g>
			<path d="M34.133,365.549c0-5.645-4.594-10.238-10.238-10.238c-5.649,0-10.243,4.593-10.243,10.238
				c0,5.644,4.594,10.238,10.243,10.238C29.539,375.787,34.133,371.193,34.133,365.549L34.133,365.549z M34.133,365.549"/>
		</g>
		<g>
			<path d="M405.941,287.041c-7.531-13.043-24.289-17.508-36.879-10.219l-78.566,38.243
				c-12.215,6.113-24.543,6.113-51.562,6.113c-26.411,0-66.739-6.672-67.149-6.735c-3.711-0.621-7.234,1.891-7.847,5.606
				c-0.626,3.723,1.89,7.242,5.609,7.859c1.691,0.285,41.832,6.922,69.387,6.922c28.343,0,42.57,0,57.597-7.515l78.938-38.442
				c3.152-1.824,6.824-2.308,10.363-1.367c3.516,0.949,6.465,3.211,8.277,6.363c1.832,3.16,2.317,6.84,1.375,10.364
				c-0.945,3.523-3.203,6.464-6.554,8.402l-92.305,57.449c-0.191,0.129-19.887,12.531-64.516,12.531
				c-38.703,0-98.488-32.945-99.351-33.414c-0.621-0.301-15.422-7.543-44.012-7.543c-3.773,0-6.824,3.059-6.824,6.825
				c0,3.769,3.051,6.828,6.824,6.828c24.832,0,37.625,5.972,37.652,5.972v-0.008c2.579,1.434,63.473,34.993,105.711,34.993
				c49.289,0,71.145-14.2,71.871-14.684l91.969-57.238c6.313-3.649,10.832-9.539,12.719-16.578
				C410.562,300.717,409.586,293.358,405.941,287.041L405.941,287.041z M405.941,287.041"/>
		</g>
	</g>
	<g>
		<path d="M88.746,259.736h54.613c7.969,0,21.504,10.157,33.45,19.114c14.98,11.238,29.132,21.843,41.644,21.843
			h40.961c10.367,0,15.516,4.704,15.652,4.829c1.332,1.332,3.079,2,4.829,2c1.746,0,3.492-0.668,4.824-2
			c2.668-2.668,2.668-6.985,0-9.653c-0.899-0.902-9.285-8.828-25.305-8.828h-40.961c-7.965,0-21.504-10.156-33.449-19.113
			c-14.981-11.238-29.133-21.848-41.645-21.848H88.746c-3.773,0-6.824,3.059-6.824,6.828
			C81.922,256.678,84.973,259.736,88.746,259.736L88.746,259.736z M88.746,259.736"/>
	</g>
	<g>
		<path d="M47.785,218.775H6.828C3.051,218.775,0,221.834,0,225.6c0,3.769,3.051,6.828,6.828,6.828h40.957
			c3.77,0,6.828,3.066,6.828,6.828V389.44c0,3.761-3.058,6.828-6.828,6.828H6.828c-3.777,0-6.828,3.058-6.828,6.824
			c0,3.769,3.051,6.828,6.828,6.828h40.957c11.293,0,20.481-9.187,20.481-20.48V239.256
			C68.266,227.963,59.078,218.775,47.785,218.775L47.785,218.775z M47.785,218.775"/>
	</g>
</g>
<g>
	<g>
		<path d="M283.826,124.858c15.515,0,28.134-12.619,28.134-28.134S299.341,68.59,283.826,68.59
			c-0.062,0-0.12,0-0.182,0.004h-22.979c0,0-0.004,0-0.008,0c-2.743,0-4.965,2.222-4.965,4.965v61.229h-4.965
			c-2.743,0-4.965,2.222-4.965,4.965s2.222,4.965,4.965,4.965h4.965v28.134c0,2.743,2.222,4.965,4.965,4.965
			c2.743,0,4.965-2.222,4.965-4.965v-28.134h18.204c2.743,0,4.965-2.222,4.965-4.965s-2.222-4.965-4.965-4.965h-18.204v-9.93
			H283.826z M283.826,78.523c0.054,0,0.108,0,0.161-0.004c9.963,0.087,18.043,8.221,18.043,18.205
			c0,10.037-8.167,18.205-18.204,18.205h-18.204V78.523H283.826z"/>
		<path d="M260.656,179.885c-3.878,0-7.033-3.155-7.033-7.034v-26.065h-2.896c-3.878,0-7.033-3.155-7.033-7.034
			s3.155-7.034,7.033-7.034h2.896v-59.16c0-3.878,3.155-7.034,7.033-7.034h22.931c0.08-0.003,0.157-0.004,0.239-0.004
			c16.653,0,30.202,13.549,30.202,30.203s-13.549,30.203-30.202,30.203h-16.137v5.792h16.137c3.878,0,7.033,3.155,7.033,7.034
			s-3.155,7.034-7.033,7.034h-16.137v26.065C267.689,176.73,264.534,179.885,260.656,179.885z M250.727,136.856
			c-1.597,0-2.896,1.299-2.896,2.896s1.3,2.896,2.896,2.896h7.033v30.203c0,1.597,1.3,2.896,2.896,2.896s2.896-1.299,2.896-2.896
			v-30.203h20.273c1.597,0,2.896-1.299,2.896-2.896s-1.3-2.896-2.896-2.896h-20.273v-14.067h20.273
			c14.372,0,26.065-11.693,26.065-26.065s-11.693-26.065-26.065-26.065l-0.072,0.005l-0.11,0h-22.979
			c-1.605,0-2.905,1.299-2.905,2.896v63.298H250.727z M283.826,116.997h-20.273V76.455h20.273v2.069l0.038-2.069l0.094-0.008
			l0.047,0.003c11.08,0.097,20.094,9.191,20.094,20.273C304.099,107.902,295.005,116.997,283.826,116.997z M267.689,112.859h16.137
			c8.897,0,16.136-7.238,16.136-16.136c0-8.799-7.14-16.024-15.929-16.135c-0.069,0.003-0.138,0.004-0.207,0.004h-16.137V112.859z"
			/>
	</g>
</g>
</svg>
