<svg version="1.1" xmlns="http://www.w3.org/2000/svg" xmlns:xlink="http://www.w3.org/1999/xlink" x="0px" y="0px" viewBox="-275 398.89 44 45"
	 enable-background="new -275 398.89 44 45" xml:space="preserve">
<path d="M-231.005,439.586l-0.393-7.24c-0.179-2.778-2.01-5.172-4.666-6.099l-9.052-3.158
	c-0.416-0.145-0.887-0.04-1.199,0.269l-0.29,0.287l-1.971-0.977v-1.719c1.896-1.257,3.414-3.412,3.828-5.551
	c0.004-0.022,0.008-0.044,0.012-0.066c0.013-0.073,0.025-0.145,0.036-0.218c0.01-0.069,0.02-0.137,0.027-0.205
	c0.004-0.029,0.006-0.057,0.009-0.086c0.007-0.071,0.013-0.142,0.017-0.213c0.002-0.02,0.003-0.039,0.004-0.059
	c0.001-0.019,0.003-0.038,0.003-0.057h0.487c0.954,0,1.731-0.766,1.731-1.708v-2.092c0-0.097-0.009-0.194-0.025-0.288
	c0.016-0.056,0.025-0.114,0.025-0.174c0-0.573-0.098-1.123-0.276-1.637v-2.274c0-4.098-3.377-7.431-7.527-7.431h-5.553
	c-4.15,0-7.526,3.333-7.526,7.431v2.274c-0.178,0.514-0.276,1.064-0.276,1.637c0,0.06,0.009,0.118,0.025,0.174
	c-0.017,0.094-0.025,0.191-0.025,0.288v2.092c0,0.942,0.776,1.708,1.73,1.708h0.486c0.001,0.023,0.003,0.046,0.004,0.07
	c0.001,0.019,0.003,0.039,0.004,0.059c0.004,0.073,0.01,0.146,0.018,0.22c0.002,0.024,0.004,0.048,0.007,0.072
	c0.009,0.083,0.02,0.167,0.033,0.251c0.008,0.048,0.017,0.096,0.025,0.144c0.006,0.035,0.013,0.071,0.02,0.106
	c0.011,0.06,0.024,0.121,0.037,0.181c0.003,0.012,0.006,0.024,0.008,0.035c0.472,2.065,1.951,4.12,3.781,5.334v1.702l-1.97,0.977
	l-0.291-0.287c-0.312-0.309-0.783-0.414-1.199-0.269l-9.052,3.158c-2.656,0.927-4.487,3.321-4.666,6.106l-0.393,7.227
	c-0.035,0.553,0.164,1.102,0.549,1.506c0.383,0.404,0.924,0.635,1.485,0.635h8.8v1.173c0,0.549,0.452,0.996,1.009,0.996h20.308
	c0.556,0,1.009-0.447,1.009-0.996v-1.173h8.8c0.56,0,1.101-0.231,1.485-0.635C-231.169,440.682-230.969,440.133-231.005,439.586z
	 M-243.72,412.786c0,0.235-0.194,0.427-0.433,0.427h-0.482v-2.341h0.915V412.786z M-255.778,400.171h5.553
	c3.435,0,6.229,2.759,6.229,6.15v0.261c-0.01-0.009-0.021-0.018-0.031-0.027c-0.046-0.044-0.093-0.086-0.14-0.127
	c-0.007-0.007-0.015-0.013-0.022-0.019c-0.784-0.675-1.775-1.119-2.867-1.225c-0.007,0-0.014-0.001-0.021-0.001
	c-0.075-0.007-0.151-0.013-0.227-0.017c-0.085-0.004-0.17-0.006-0.255-0.006h-10.884c-0.086,0-0.171,0.002-0.256,0.006
	c-0.076,0.004-0.151,0.01-0.226,0.017c-0.007,0.001-0.015,0.001-0.022,0.001c-1.091,0.106-2.083,0.55-2.867,1.225
	c-0.007,0.006-0.014,0.012-0.021,0.019c-0.048,0.041-0.095,0.083-0.141,0.127c-0.01,0.009-0.021,0.018-0.031,0.027v-0.261l0,0
	C-262.007,402.93-259.212,400.171-255.778,400.171z M-261.367,413.213h-0.483c-0.239,0-0.433-0.192-0.433-0.427v-1.914h0.916
	V413.213L-261.367,413.213z M-262.228,409.591c0.135-0.778,0.511-1.476,1.049-2.016c0.015-0.015,0.03-0.03,0.045-0.044
	c0.02-0.019,0.039-0.038,0.059-0.057c0.026-0.023,0.052-0.047,0.078-0.07c0.009-0.008,0.018-0.016,0.027-0.023
	c0.033-0.029,0.066-0.057,0.1-0.084c0.001-0.001,0.002-0.001,0.003-0.002c0.519-0.417,1.146-0.7,1.82-0.806
	c0.007-0.002,0.014-0.003,0.021-0.004c0.038-0.006,0.077-0.011,0.115-0.015c0.018-0.003,0.037-0.005,0.055-0.007
	c0.031-0.003,0.063-0.006,0.094-0.009c0.029-0.002,0.058-0.004,0.087-0.006c0.023-0.001,0.046-0.003,0.07-0.004
	c0.053-0.002,0.108-0.003,0.162-0.003h10.883c0.055,0,0.109,0.001,0.163,0.003c0.023,0.001,0.046,0.003,0.069,0.004
	c0.029,0.002,0.058,0.004,0.087,0.006c0.032,0.003,0.063,0.006,0.094,0.009c0.018,0.002,0.037,0.004,0.055,0.007
	c0.038,0.004,0.077,0.009,0.115,0.015c0.007,0.001,0.014,0.002,0.021,0.004c0.674,0.106,1.301,0.389,1.82,0.806
	c0.001,0.001,0.002,0.001,0.003,0.002c0.034,0.027,0.067,0.055,0.1,0.084c0.009,0.007,0.018,0.015,0.027,0.023
	c0.026,0.023,0.052,0.047,0.078,0.07c0.02,0.019,0.039,0.038,0.059,0.057c0.015,0.014,0.03,0.029,0.045,0.044
	c0.538,0.54,0.914,1.238,1.049,2.016H-262.228z M-260.039,414.791c-0.001-0.009-0.002-0.018-0.003-0.027
	c-0.008-0.072-0.015-0.143-0.019-0.214c0-0.01-0.001-0.019-0.002-0.028c-0.004-0.079-0.007-0.157-0.007-0.235v-3.415h14.137v3.398
	c0,0.078-0.002,0.156-0.007,0.235c0,0.01-0.001,0.021-0.002,0.031c-0.004,0.069-0.01,0.139-0.018,0.209
	c-0.001,0.011-0.003,0.022-0.004,0.034c-0.294,2.486-2.646,5.295-5.04,5.883l-0.084,0.021c-1.741,0.427-2.182,0.426-3.93-0.009
	C-257.404,420.08-259.748,417.271-260.039,414.791z M-256.857,423.819c0.438-0.161,0.727-0.569,0.728-1.035v-1.129
	c0.261,0.106,0.527,0.195,0.794,0.261c0.988,0.246,1.64,0.369,2.294,0.369c0.646,0,1.293-0.12,2.266-0.359l0.085-0.021
	c0.275-0.067,0.547-0.158,0.816-0.266v1.145c0.001,0.466,0.29,0.874,0.728,1.035l1.53,0.758c-0.009,0.007-0.018,0.014-0.026,0.021
	c-0.086,0.068-0.173,0.135-0.261,0.199c-0.002,0.002-0.004,0.003-0.006,0.005c-0.087,0.063-0.175,0.125-0.265,0.185
	c-0.014,0.009-0.028,0.019-0.042,0.028c-0.087,0.058-0.175,0.114-0.263,0.169c-0.018,0.01-0.036,0.021-0.053,0.032
	c-0.09,0.054-0.18,0.106-0.271,0.157c-0.014,0.008-0.028,0.015-0.042,0.023c-0.091,0.05-0.184,0.098-0.277,0.145
	c-0.006,0.003-0.012,0.006-0.018,0.009c-0.096,0.048-0.193,0.093-0.29,0.137c-0.017,0.008-0.035,0.016-0.052,0.024
	c-0.095,0.041-0.19,0.081-0.286,0.12c-0.019,0.007-0.038,0.015-0.057,0.022c-0.098,0.038-0.196,0.075-0.295,0.11
	c-0.012,0.004-0.024,0.008-0.036,0.012c-0.098,0.034-0.196,0.066-0.294,0.096c-0.011,0.003-0.022,0.007-0.034,0.01
	c-0.101,0.03-0.203,0.059-0.306,0.085c-0.019,0.005-0.039,0.01-0.058,0.015c-0.101,0.026-0.203,0.05-0.305,0.072
	c-0.019,0.004-0.038,0.007-0.057,0.011c-0.105,0.022-0.211,0.043-0.318,0.061c-0.007,0.001-0.015,0.002-0.023,0.003
	c-0.104,0.018-0.209,0.033-0.314,0.046c-0.015,0.002-0.03,0.005-0.045,0.006c-0.106,0.013-0.212,0.024-0.319,0.034
	c-0.02,0.001-0.041,0.003-0.061,0.005c-0.107,0.008-0.213,0.015-0.32,0.02c-0.018,0-0.035,0.001-0.053,0.002
	c-0.112,0.004-0.225,0.007-0.338,0.007c-0.114,0-0.226-0.003-0.339-0.007c-0.017-0.001-0.034-0.002-0.052-0.002
	c-0.107-0.005-0.214-0.012-0.32-0.02c-0.02-0.002-0.04-0.004-0.061-0.005c-0.107-0.01-0.214-0.021-0.32-0.034
	c-0.014-0.001-0.028-0.003-0.041-0.005c-0.107-0.014-0.214-0.03-0.321-0.047c-0.005-0.001-0.012-0.002-0.018-0.003
	c-0.108-0.018-0.216-0.039-0.323-0.061c-0.016-0.004-0.033-0.007-0.05-0.011c-0.104-0.022-0.208-0.046-0.312-0.073
	c-0.016-0.004-0.031-0.008-0.047-0.012c-0.107-0.028-0.213-0.057-0.318-0.088c-0.005-0.002-0.009-0.003-0.014-0.005
	c-0.109-0.033-0.217-0.068-0.324-0.105c-0.004-0.001-0.009-0.003-0.013-0.004c-0.106-0.037-0.212-0.077-0.316-0.118
	c-0.011-0.004-0.022-0.008-0.032-0.012c-0.104-0.042-0.207-0.085-0.31-0.131c-0.007-0.003-0.014-0.006-0.021-0.009
	c-0.214-0.096-0.424-0.201-0.63-0.314c-0.001-0.001-0.002-0.001-0.002-0.001c-0.102-0.057-0.204-0.116-0.304-0.176
	c-0.005-0.003-0.01-0.006-0.015-0.01c-0.1-0.061-0.199-0.124-0.296-0.189c-0.001,0-0.001-0.001-0.002-0.001
	c-0.198-0.132-0.39-0.273-0.577-0.423c-0.003-0.001-0.005-0.003-0.007-0.005L-256.857,423.819z M-232.5,440.209
	c-0.141,0.149-0.332,0.231-0.538,0.231h-5.359v-7.586c0-0.354-0.29-0.64-0.649-0.64c-0.358,0-0.649,0.286-0.649,0.64v7.586h-2.144
	v-10.643c0-0.549-0.452-0.996-1.008-0.996h-20.308l0,0c-0.557,0-1.009,0.447-1.009,0.996v4.28c0,0.353,0.29,0.64,0.648,0.64
	c0.359,0,0.649-0.287,0.649-0.64v-3.995h6.628v5.561c0,0.227,0.121,0.437,0.32,0.552c0.198,0.115,0.443,0.118,0.644,0.008
	l2.226-1.22l2.332,1.226c0.095,0.05,0.2,0.075,0.305,0.075c0.115,0,0.231-0.031,0.334-0.092c0.195-0.115,0.315-0.324,0.315-0.549
	v-5.561h6.627v12.527h-19.731v-4.022c0-0.354-0.29-0.64-0.649-0.64c-0.358,0-0.648,0.286-0.648,0.64v1.853h-2.144v-7.586
	c0-0.353-0.291-0.64-0.649-0.64s-0.649,0.287-0.649,0.64v7.586h-5.358c-0.206,0-0.398-0.082-0.539-0.23
	c-0.142-0.15-0.213-0.345-0.199-0.556l0.392-7.227c0.146-2.265,1.639-4.217,3.803-4.972l8.966-3.128l0.56,0.554l0,0
	c1.857,1.836,4.336,2.847,6.98,2.847c0.271,0,0.54-0.011,0.807-0.032c2.338-0.184,4.505-1.167,6.172-2.815l0.003-0.003
	c0,0,0,0,0.001-0.001l0,0l0.557-0.55l8.965,3.128c2.165,0.755,3.658,2.707,3.803,4.966l0.393,7.24
	C-232.287,439.865-232.358,440.06-232.5,440.209z M-251.061,430.082v4.495l-1.69-0.888c-0.095-0.05-0.2-0.075-0.305-0.075
	c-0.108,0-0.217,0.026-0.315,0.08l-1.571,0.861v-4.473H-251.061L-251.061,430.082z"/>
</svg>
