<svg xmlns="http://www.w3.org/2000/svg" xmlns:xlink="http://www.w3.org/1999/xlink" x="0px" y="0px"
	 viewBox="-20.9 143 455.8 508" enable-background="new -20.9 143 455.8 508" xml:space="preserve">
<path d="M207,143C81.3,143-20.9,245.2-20.9,370.9c0,122.9,97.9,223.4,219.8,227.7V651l60.3-60.3l-60.3-60.3v52
	C85.9,578-4.6,484.9-4.6,370.9c0-116.7,94.9-211.6,211.6-211.6s211.6,94.9,211.6,211.6h16.3C434.9,245.2,332.7,143,207,143z
	 M215.1,569.6l21,21l-21,21V569.6z"/>
<path d="M84.9,493h244.2V248.8H84.9V493z M182.6,265.1h48.8v32.6h-48.8L182.6,265.1L182.6,265.1z M101.2,265.1h65.1
	v48.8h81.4v-48.8h65.1v211.6H101.2V265.1z"/>
<polygon points="244.2,422.5 256.4,433.3 264,424.8 264,460.4 280.3,460.4 280.3,424.8 287.8,433.3 300,422.5 
	272.1,391.2 "/>
<polygon points="176.5,422.5 188.7,433.3 196.2,424.8 196.2,460.4 212.5,460.4 212.5,424.8 220.1,433.3 232.2,422.5 
	204.4,391.2 "/>
</svg>
