<svg xmlns="http://www.w3.org/2000/svg" xmlns:xlink="http://www.w3.org/1999/xlink" x="0px" y="0px"
	 viewBox="35.8 164.89 358.4 512" enable-background="new 35.8 164.89 358.4 512" xml:space="preserve">
<g>
	<g>
		<path d="M249.133,164.89H78.467c-23.527,0-42.667,19.14-42.667,42.667v307.2c0,23.526,19.14,42.667,42.667,42.667
			h153.6v-17.067h-153.6c-14.114,0-25.6-11.486-25.6-25.6v-307.2c0-14.114,11.486-25.6,25.6-25.6h170.667
			c14.114,0,25.6,11.486,25.6,25.6v247.467H291.8V207.557C291.8,184.03,272.66,164.89,249.133,164.89z"/>
	</g>
</g>
<g>
	<g>
		<path d="M373.643,392.184l-83.712-104.619l-13.338,10.667l83.712,104.61c10.863,13.568,16.836,30.618,16.828,48
			v208.981H252.291c-44.083,0-79.957-35.866-79.957-79.957V548.89h-17.067v30.976c0,53.495,43.529,97.024,97.024,97.024h133.376
			c4.719,0,8.533-3.814,8.533-8.533V450.851C394.209,429.62,386.913,408.781,373.643,392.184z"/>
	</g>
</g>
<g>
	<g>
		<path d="M180.833,366.132c5.99,0.171,11.563,2.662,15.667,7.014l114.68,121.856l12.433-11.699L208.916,361.438
			c-7.245-7.672-17.05-12.066-27.597-12.365c-10.658-0.358-20.582,3.524-28.16,10.684c-0.094,0.094-0.777,0.742-0.862,0.836
			c-14.583,14.626-15.565,37.581-2.261,53.436l73.498,86.784v26.402c-0.009,47.155,29.645,89.933,73.805,106.47l5.99-15.983
			c-37.53-14.054-62.737-50.415-62.729-90.487V497.69c0-2.014-0.717-3.977-2.022-5.521l-75.494-89.148
			c-7.552-8.994-6.997-22.059,1.707-30.771C169.142,368.137,174.825,366.097,180.833,366.132z"/>
	</g>
</g>
<g>
	<g>
		<rect x="223.533" y="181.957" width="17.067" height="213.333"/>
	</g>
</g>
<g>
	<g>
		<rect x="180.867" y="446.49" width="17.067" height="102.4"/>
	</g>
</g>
<g>
	<g>
		<rect x="180.867" y="173.423" width="17.067" height="187.733"/>
	</g>
</g>
<g>
	<g>
		<rect x="78.467" y="207.557" width="17.067" height="110.933"/>
	</g>
</g>
<g>
	<g>
		<rect x="121.133" y="207.557" width="17.067" height="68.267"/>
	</g>
</g>
<g>
	<g>
		<path d="M138.2,446.49H87c-4.71,0-8.533,3.814-8.533,8.533v51.2c0,4.719,3.823,8.533,8.533,8.533h51.2
			c4.71,0,8.533-3.814,8.533-8.533v-51.2C146.733,450.304,142.91,446.49,138.2,446.49z M129.667,497.69H95.534v-34.133h34.133
			V497.69z"/>
	</g>
</g>
</svg>
