<svg version="1.1" xmlns="http://www.w3.org/2000/svg" xmlns:xlink="http://www.w3.org/1999/xlink" x="0px" y="0px"
	 viewBox="-49 187.933 512.16 418.133" enable-background="new -49 187.933 512.16 418.133" xml:space="preserve">
<g transform="translate(1 1)">
	<path d="M376.667,528.267H-15.867c-18.773,0-34.133-15.36-34.133-34.133V221.067
		c0-18.773,15.36-34.133,34.133-34.133h392.533c18.773,0,34.133,15.36,34.133,34.133v273.067
		C410.8,512.907,395.44,528.267,376.667,528.267z M-15.867,204c-9.387,0-17.067,7.68-17.067,17.067v273.067
		c0,9.387,7.68,17.067,17.067,17.067h392.533c9.387,0,17.067-7.68,17.067-17.067V221.067c0-9.387-7.68-17.067-17.067-17.067H-15.867
		z"/>
	<path d="M402.267,314.933H-41.467c-5.12,0-8.533-3.413-8.533-8.533v-68.267c0-5.12,3.413-8.533,8.533-8.533h443.733
		c5.12,0,8.533,3.413,8.533,8.533V306.4C410.8,311.52,407.387,314.933,402.267,314.933z M-32.933,297.867h426.667v-51.2H-32.933
		V297.867z"/>
	<path d="M359.6,477.067H223.067c-5.12,0-8.533-3.413-8.533-8.533v-76.8c0-5.12,3.413-8.533,8.533-8.533H359.6
		c5.12,0,8.533,3.413,8.533,8.533v76.8C368.133,473.653,364.72,477.067,359.6,477.067z M231.6,460h119.467v-59.733H231.6V460z"/>
	<path d="M60.933,366.133H-7.333c-5.12,0-8.533-3.413-8.533-8.533c0-5.12,3.413-8.533,8.533-8.533h68.267
		c5.12,0,8.533,3.413,8.533,8.533C69.467,362.72,66.053,366.133,60.933,366.133z"/>
	<path d="M163.333,366.133H95.067c-5.12,0-8.533-3.413-8.533-8.533c0-5.12,3.413-8.533,8.533-8.533h68.267
		c5.12,0,8.533,3.413,8.533,8.533C171.867,362.72,168.453,366.133,163.333,366.133z"/>
	<path d="M103.6,400.267H-7.333c-5.12,0-8.533-3.413-8.533-8.533c0-5.12,3.413-8.533,8.533-8.533H103.6
		c5.12,0,8.533,3.413,8.533,8.533C112.133,396.853,108.72,400.267,103.6,400.267z"/>
	<path d="M163.333,400.267h-25.6c-5.12,0-8.533-3.413-8.533-8.533c0-5.12,3.413-8.533,8.533-8.533h25.6
		c5.12,0,8.533,3.413,8.533,8.533C171.867,396.853,168.453,400.267,163.333,400.267z"/>
	<path d="M402.267,605.067c-0.853,0-2.56,0-3.413,0L4.613,560.693c-18.773-1.707-32.427-18.773-29.867-37.547
		l0.853-4.267c0-4.267,3.413-7.68,7.68-7.68c0,0,0.853,0,1.707,0h391.68c9.387,0,17.067-7.68,17.067-17.067v-225.28
		c0-2.56,0.853-5.12,2.56-5.973c1.707-1.707,4.267-2.56,6.827-1.707l28.16,3.413c9.387,0.853,17.067,5.12,23.04,12.8
		c5.973,6.827,8.533,16.213,7.68,24.747l-25.6,273.92C434.693,592.267,419.333,605.067,402.267,605.067z M-8.187,528.267
		c0.853,7.68,6.827,14.507,15.36,15.36L400.56,588c9.387,0.853,17.92-5.973,18.773-15.36l25.6-273.92
		c0.853-4.267-0.853-9.387-3.413-12.8s-6.827-5.973-11.093-5.973l0,0L410.8,278.24v215.893c0,18.773-15.36,34.133-34.133,34.133
		H-8.187z"/>
</g>
</svg>
