<svg version="1.1" xmlns="http://www.w3.org/2000/svg" xmlns:xlink="http://www.w3.org/1999/xlink" x="0px" y="0px"
	 viewBox="-208.846 375.629 116.496 90.611" enable-background="new -208.846 375.629 116.496 90.611" xml:space="preserve">
<g>
	<g>
		<path fill="#231F20" d="M-187.65,465.74v-6c0.136-1.961-1.344-3.662-3.305-3.798c-0.151-0.01-0.303-0.011-0.455-0.002
			c-1.346-0.088-2.634,0.563-3.36,1.7c-0.662-1.103-1.875-1.755-3.16-1.7c-1.119-0.057-2.184,0.484-2.8,1.42v-1.18h-2.08v9.56h2.1
			v-5.26c-0.167-1.226,0.69-2.355,1.916-2.523c0.14-0.019,0.282-0.025,0.424-0.017c1.38,0,2.08,0.9,2.08,2.52v5.32h2.1v-5.3
			c-0.162-1.232,0.706-2.362,1.938-2.524c0.133-0.017,0.268-0.023,0.402-0.016c1.42,0,2.1,0.9,2.1,2.52v5.32L-187.65,465.74z
			 M-156.58,456.18H-160v-2.9h-2.1v2.9h-1.9v1.9h1.94v4.4c0,2.22,0.86,3.54,3.32,3.54c0.919,0.003,1.82-0.253,2.6-0.74l-0.6-1.78
			c-0.558,0.333-1.191,0.518-1.84,0.54c-1,0-1.38-0.64-1.38-1.6v-4.36h3.4L-156.58,456.18z M-138.84,455.94
			c-1.033-0.03-2,0.507-2.52,1.4v-1.16h-2.06v9.56h2.08v-5.36c0-1.58,0.68-2.46,2-2.46c0.445-0.006,0.887,0.075,1.3,0.24l0.64-2
			c-0.475-0.17-0.975-0.258-1.48-0.26L-138.84,455.94z M-165.66,456.94c-1.177-0.7-2.531-1.047-3.9-1c-2.42,0-4,1.16-4,3.06
			c0,1.56,1.16,2.52,3.3,2.82l1,0.14c1.14,0.16,1.68,0.46,1.68,1c0,0.74-0.76,1.16-2.18,1.16c-1.142,0.033-2.262-0.319-3.18-1
			l-1,1.62c1.212,0.846,2.663,1.281,4.14,1.24c2.76,0,4.36-1.3,4.36-3.12s-1.26-2.56-3.34-2.86l-1-0.14
			c-0.9-0.12-1.62-0.3-1.62-0.94c0-0.64,0.68-1.12,1.82-1.12c1.054,0.012,2.087,0.295,3,0.82L-165.66,456.94z M-109.95,455.94
			c-1.033-0.03-2,0.507-2.52,1.4v-1.16h-2.06v9.56h2.08v-5.36c0-1.58,0.68-2.46,2-2.46c0.445-0.006,0.887,0.075,1.3,0.24l0.64-2
			c-0.475-0.17-0.975-0.258-1.48-0.26L-109.95,455.94z M-136.75,460.94c-0.098,2.666,1.983,4.906,4.649,5.004
			c0.15,0.006,0.301,0.004,0.451-0.004c1.249,0.064,2.476-0.343,3.44-1.14l-1-1.68c-0.719,0.548-1.596,0.85-2.5,0.86
			c-1.69-0.137-2.949-1.618-2.812-3.308c0.121-1.5,1.312-2.691,2.812-2.812c0.904,0.01,1.781,0.312,2.5,0.86l1-1.68
			c-0.964-0.797-2.191-1.204-3.44-1.14c-2.663-0.151-4.945,1.886-5.096,4.549c-0.008,0.15-0.01,0.301-0.004,0.451V460.94z
			 M-117.27,460.94v-4.76h-2.08v1.16c-0.717-0.922-1.833-1.443-3-1.4c-2.761,0-5,2.239-5,5c0,2.761,2.239,5,5,5
			c1.167,0.043,2.283-0.478,3-1.4v1.16h2.08V460.94z M-125.01,460.94c0.094-1.593,1.462-2.809,3.055-2.715
			c1.593,0.094,2.809,1.462,2.715,3.055c-0.09,1.522-1.346,2.712-2.87,2.72c-1.585,0.02-2.886-1.249-2.906-2.833
			C-125.017,461.091-125.015,461.015-125.01,460.94z M-150.11,455.94c-2.761,0.039-4.969,2.309-4.93,5.07
			c0.039,2.761,2.309,4.969,5.07,4.93l0,0c1.439,0.074,2.854-0.389,3.97-1.3l-1-1.54c-0.79,0.633-1.768,0.985-2.78,1
			c-1.43,0.123-2.697-0.914-2.86-2.34h7.1c0-0.26,0-0.52,0-0.8c0-3-1.86-5-4.54-5L-150.11,455.94z M-150.11,457.8
			c1.309-0.028,2.392,1.01,2.42,2.319c0,0,0,0.001,0,0.001h-5c0.075-1.335,1.203-2.366,2.54-2.32H-150.11z M-98,460.96v-8.62h-2v5
			c-0.717-0.922-1.833-1.443-3-1.4c-2.761,0-5,2.239-5,5c0,2.761,2.239,5,5,5c1.167,0.043,2.283-0.478,3-1.4v1.16h2V460.96z
			 M-94.53,464.35c0.13-0.002,0.259,0.022,0.38,0.07c0.115,0.047,0.22,0.115,0.31,0.2c0.088,0.086,0.159,0.188,0.21,0.3
			c0.102,0.236,0.102,0.504,0,0.74c-0.051,0.112-0.122,0.214-0.21,0.3c-0.09,0.085-0.195,0.153-0.31,0.2
			c-0.12,0.053-0.249,0.08-0.38,0.08c-0.387-0.003-0.737-0.229-0.9-0.58c-0.101-0.236-0.101-0.504,0-0.74
			c0.051-0.112,0.122-0.214,0.21-0.3c0.09-0.085,0.195-0.153,0.31-0.2c0.13-0.052,0.27-0.076,0.41-0.07H-94.53z M-94.53,466.04
			c0.1,0.001,0.199-0.02,0.29-0.06c0.086-0.038,0.164-0.093,0.23-0.16c0.259-0.283,0.259-0.717,0-1
			c-0.066-0.067-0.144-0.122-0.23-0.16c-0.091-0.04-0.19-0.06-0.29-0.06c-0.1,0.001-0.198,0.021-0.29,0.06
			c-0.09,0.037-0.171,0.091-0.24,0.16c-0.259,0.283-0.259,0.717,0,1c0.069,0.069,0.15,0.123,0.24,0.16
			c0.101,0.044,0.21,0.064,0.32,0.06H-94.53z M-94.47,464.85c0.093-0.005,0.185,0.024,0.26,0.08c0.062,0.051,0.096,0.13,0.09,0.21
			c0.003,0.067-0.022,0.132-0.07,0.18c-0.058,0.053-0.132,0.084-0.21,0.09l0.29,0.33h-0.23l-0.27-0.33h-0.09v0.33h-0.19v-0.88
			L-94.47,464.85z M-94.69,465.02v0.24h0.22c0.039,0.012,0.081,0.012,0.12,0c0.014-0.028,0.014-0.062,0-0.09
			c0.014-0.028,0.014-0.062,0-0.09c-0.039-0.012-0.081-0.012-0.12,0L-94.69,465.02z M-105.69,460.96
			c0.094-1.593,1.462-2.809,3.055-2.715s2.809,1.462,2.715,3.055c-0.09,1.522-1.346,2.712-2.87,2.72
			c-1.585,0.02-2.886-1.249-2.906-2.833C-105.697,461.111-105.695,461.035-105.69,460.96z M-175.92,460.96v-4.78H-178v1.16
			c-0.717-0.922-1.833-1.443-3-1.4c-2.761,0-5,2.239-5,5c0,2.761,2.239,5,5,5c1.167,0.043,2.283-0.478,3-1.4v1.16h2.08
			L-175.92,460.96z M-183.66,460.96c0.094-1.593,1.462-2.809,3.055-2.715s2.809,1.462,2.715,3.055
			c-0.09,1.522-1.346,2.712-2.87,2.72c-1.585,0.031-2.895-1.228-2.926-2.813c-0.002-0.082,0-0.165,0.006-0.247H-183.66z"/>
		<g>
			<rect x="-166.35" y="383.33" fill="#FF5F00" width="31.5" height="56.61"/>
			<path fill="#EB001B" d="M-164.35,411.64c-0.012-11.048,5.059-21.488,13.75-28.31
				c-15.632-12.285-38.264-9.572-50.55,6.06c-12.285,15.632-9.572,38.264,6.06,50.55c13.055,10.26,31.434,10.26,44.489,0
				C-159.288,433.121-164.359,422.685-164.35,411.64z"/>
			<path fill="#F79E1B" d="M-92.35,411.64c0,19.882-16.119,36-36.001,35.999c-8.07,0-15.905-2.712-22.249-7.699
				c15.632-12.285,18.346-34.917,6.06-50.55c-1.772-2.254-3.806-4.289-6.06-6.06c15.63-12.288,38.263-9.579,50.551,6.051
				c4.988,6.344,7.699,14.179,7.699,22.249V411.64z"/>
			<path fill="#F79E1B" d="M-95.79,433.94v-1.16h0.47v-0.24h-1.19v0.24H-96v1.16L-95.79,433.94z M-93.48,433.94v-1.4h-0.36l-0.42,1
				l-0.42-1H-95v1.4h0.26v-1.05l0.39,0.91h0.27l0.39-0.91v1.06L-93.48,433.94z"/>
		</g>
	</g>
</g>
</svg>
