<svg version="1.1" xmlns:rdf="http://www.w3.org/1999/02/22-rdf-syntax-ns#"  xmlns:svg="http://www.w3.org/2000/svg"
	 xmlns="http://www.w3.org/2000/svg" xmlns:xlink="http://www.w3.org/1999/xlink" x="0px" y="0px" viewBox="107 306.89 809 229"
	 enable-background="new 107 306.89 809 229" xml:space="preserve">
<g>
	<path fill="#4DB45E" d="M325,306.89v0.1c-0.1,0-31.6-0.1-40,30c-7.7,27.6-29.4,103.8-30,105.9h-6c0,0-22.2-77.9-30-106
		c-8.4-30.1-40-30-40-30h-72v229h72v-136h3h3l42,136h50l42-135.9h6v135.9h72v-229H325z"/>
</g>
<g>
	<path fill="#4DB45E" d="M588,306.89c0,0-21.1,1.9-31,24l-51,112h-6v-136h-72v229h68l0,0c0,0,22.1-2,32-24l50-112h6v136
		h72v-229H588z"/>
</g>
<g>
	<path fill="#4DB45E" d="M688,410.89v125h72v-73h78c34,0,62.8-21.7,73.5-52H688z"/>
</g>
<g>
	
		<linearGradient id="mir-card-gradient--blue" gradientUnits="userSpaceOnUse" x1="677.9" y1="489.78" x2="916" y2="489.78" gradientTransform="matrix(1 0 0 -1 0 843.67)">
		<stop  offset="0.3" style="stop-color:#00B4E6"/>
		<stop  offset="1" style="stop-color:#088CCB"/>
	</linearGradient>
	<path fill="url(#mir-card-gradient--blue)" d="M838,306.89H677.9c8,43.6,40.7,78.6,83,90l0,0c9.6,2.6,19.7,4,30.1,4h123.4
		c1.1-5.2,1.6-10.5,1.6-16C916,341.79,881.1,306.89,838,306.89z"/>
</g>
</svg>
