<svg version="1.1" xmlns="http://www.w3.org/2000/svg" xmlns:xlink="http://www.w3.org/1999/xlink" x="0px" y="0px"
	 viewBox="-237 401.2 119.3 38.7" enable-background="new -237 401.2 119.3 38.7" xml:space="preserve">
<g>
	<g>
		<polygon fill="#005CA9" points="-185.3,439.2 -195,439.2 -188.9,401.9 -179.2,401.9"/>
		<path fill="#005CA9" d="M-203.2,401.9l-9.3,25.7l-1.1-5.5l0,0l-3.3-16.8c0,0-0.4-3.4-4.6-3.4h-15.3l-0.2,0.6c0,0,4.7,1,10.2,4.3
			l8.5,32.5h10.1l15.5-37.4H-203.2z"/>
		<path fill="#005CA9" d="M-126.7,439.2h8.9l-7.8-37.4h-7.8c-3.6,0-4.5,2.8-4.5,2.8l-14.5,34.6h10.1l2-5.6h12.4L-126.7,439.2z
			 M-137.4,426l5.1-14l2.9,14H-137.4z"/>
		<path fill="#005CA9" d="M-151.6,410.9l1.4-8c0,0-4.3-1.6-8.8-1.6c-4.8,0-16.3,2.1-16.3,12.4c0,9.7,13.5,9.8,13.5,14.9
			s-12.1,4.2-16.1,1l-1.4,8.4c0,0,4.3,2.1,11,2.1c6.6,0,16.7-3.4,16.7-12.8c0-9.7-13.6-10.6-13.6-14.9
			C-165.2,408-155.8,408.6-151.6,410.9z"/>
	</g>
	<path fill="#F7A823" d="M-213.6,422l-3.3-16.8c0,0-0.4-3.4-4.6-3.4h-15.3l-0.2,0.6c0,0,7.4,1.5,14.4,7.3
		C-215.8,415.2-213.6,422-213.6,422z"/>
</g>
</svg>
