<svg width="18" height="19" viewBox="0 0 18 19" fill="none" xmlns="http://www.w3.org/2000/svg">
<path class="icon__color-element" d="M10.7225 7.84189H15.5639C17.7916 7.84189 14.8954 17.375 13.2994 17.375H2.3435C2.12179 17.3769 1.90842 17.2907 1.75025 17.1353C1.59209 16.9799 1.50208 16.7681 1.5 16.5464V8.33451C1.5 8.03089 1.66887 7.75176 1.93925 7.60651C3.7435 6.63876 5.86013 5.84601 6.9075 3.99364L8.0275 2.01089C8.09427 1.89308 8.19126 1.79521 8.30846 1.72739C8.42566 1.65956 8.55884 1.62422 8.69425 1.62501C11.4768 1.62501 10.6516 5.67626 10.2736 7.28626C10.2584 7.3533 10.2586 7.42291 10.2742 7.48986C10.2897 7.55682 10.3202 7.61938 10.3634 7.67285C10.4066 7.72632 10.4614 7.76931 10.5236 7.79858C10.5857 7.82786 10.6538 7.84267 10.7225 7.84189Z" stroke-width="1.5" stroke-linecap="round" stroke-linejoin="round"/>
</svg>
