<svg width="19" height="19" viewBox="0 0 19 19" fill="none" xmlns="http://www.w3.org/2000/svg">
    <path class="icon__color-element" d="M9.5 0.75C14.3326 0.75 18.25 4.66738 18.25 9.5C18.25 14.3326 14.3326 18.25 9.5 18.25C4.66738 18.25 0.75 14.3326 0.75 9.5C0.75 4.66738 4.66738 0.75 9.5 0.75ZM9.5 2.5C7.64348 2.5 5.86301 3.2375 4.55025 4.55025C3.2375 5.86301 2.5 7.64348 2.5 9.5C2.5 11.3565 3.2375 13.137 4.55025 14.4497C5.86301 15.7625 7.64348 16.5 9.5 16.5C11.3565 16.5 13.137 15.7625 14.4497 14.4497C15.7625 13.137 16.5 11.3565 16.5 9.5C16.5 7.64348 15.7625 5.86301 14.4497 4.55025C13.137 3.2375 11.3565 2.5 9.5 2.5ZM9.5 4.25C9.71432 4.25003 9.92117 4.32871 10.0813 4.47113C10.2415 4.61354 10.3438 4.80978 10.3689 5.02262L10.375 5.125V9.13775L12.7436 11.5064C12.9006 11.6638 12.9917 11.8751 12.9984 12.0973C13.0052 12.3195 12.9272 12.536 12.7802 12.7027C12.6331 12.8695 12.4281 12.974 12.2068 12.9951C11.9855 13.0162 11.7645 12.9522 11.5886 12.8162L11.5064 12.7436L8.88138 10.1186C8.74538 9.98252 8.65804 9.80538 8.63287 9.61462L8.625 9.5V5.125C8.625 4.89294 8.71719 4.67038 8.88128 4.50628C9.04538 4.34219 9.26794 4.25 9.5 4.25Z"/>
</svg>
