<svg width="19" height="16" viewBox="0 0 19 16" fill="none" xmlns="http://www.w3.org/2000/svg">
<path class="icon__color-element" fill-rule="evenodd" clip-rule="evenodd" d="M16.3048 0.876219C16.521 0.785212 16.7577 0.753824 16.9902 0.785322C17.2227 0.81682 17.4425 0.910054 17.6267 1.05532C17.8109 1.20058 17.9528 1.39257 18.0376 1.61129C18.1225 1.83001 18.1471 2.06748 18.1091 2.29897L16.1246 14.3363C15.9321 15.4975 14.6581 16.1633 13.5932 15.585C12.7024 15.1011 11.3794 14.3556 10.1894 13.5777C9.59444 13.1883 7.77182 11.9415 7.99582 11.0542C8.18832 10.2956 11.2508 7.44484 13.0008 5.74997C13.6877 5.08409 13.3744 4.69997 12.5633 5.31247C10.5491 6.83322 7.31507 9.14585 6.24582 9.79684C5.30257 10.3708 4.81082 10.4688 4.22282 10.3708C3.15007 10.1923 2.15519 9.91584 1.34319 9.57897C0.245941 9.12397 0.299316 7.61547 1.34232 7.17622L16.3048 0.876219Z"/>
</svg>
