<svg width="21" height="15" viewBox="0 0 21 15" fill="none" xmlns="http://www.w3.org/2000/svg">
<path class="icon__color-element" d="M10.5 0.28125C17.0625 0.28125 21 7.5 21 7.5C21 7.5 17.0625 14.7188 10.5 14.7188C3.9375 14.7188 0 7.5 0 7.5C0 7.5 3.9375 0.28125 10.5 0.28125ZM10.5 1.59375C5.88 1.59375 2.62237 5.86069 1.54219 7.5C2.62106 9.138 5.87869 13.4062 10.5 13.4062C15.12 13.4062 18.3776 9.13931 19.4578 7.5C18.3789 5.862 15.1213 1.59375 10.5 1.59375ZM10.5 2.90625C11.7183 2.90625 12.8868 3.39023 13.7483 4.25173C14.6098 5.11322 15.0937 6.28166 15.0938 7.5C15.0937 8.71834 14.6098 9.88678 13.7483 10.7483C12.8868 11.6098 11.7183 12.0938 10.5 12.0938C9.28166 12.0938 8.11322 11.6098 7.25173 10.7483C6.39023 9.88678 5.90625 8.71834 5.90625 7.5C5.90625 6.28166 6.39023 5.11322 7.25173 4.25173C8.11322 3.39023 9.28166 2.90625 10.5 2.90625ZM10.5 4.21875C9.63007 4.21978 8.79608 4.56581 8.18094 5.18094C7.56581 5.79608 7.21978 6.63007 7.21875 7.5C7.21875 9.30863 8.69006 10.7812 10.5 10.7812C12.3099 10.7812 13.7812 9.30863 13.7812 7.5C13.7812 5.69137 12.3099 4.21875 10.5 4.21875Z"/>
</svg>
