<svg width="19" height="12" viewBox="0 0 19 12" fill="none" xmlns="http://www.w3.org/2000/svg">
<path class="icon__color-element" d="M17.816 11.0834H15.8193C15.0641 11.0834 14.8366 10.4718 13.483 9.11727C12.3 7.97714 11.8004 7.83539 11.5011 7.83539C11.0872 7.83539 10.9744 7.94914 10.9744 8.51876V10.3143C10.9744 10.7999 10.8169 11.0843 9.54813 11.0843C8.31726 11.0016 7.12364 10.6276 6.0656 9.99328C5.00755 9.35891 4.11536 8.48225 3.4625 7.43551C1.91289 5.50581 0.834357 3.2415 0.3125 0.822264C0.3125 0.523014 0.42625 0.251764 0.99675 0.251764H2.99175C3.5045 0.251764 3.68913 0.48014 3.89038 1.00776C4.859 3.85851 6.51188 6.33826 7.183 6.33826C7.44025 6.33826 7.55225 6.22451 7.55225 5.58314V2.64664C7.46738 1.30701 6.756 1.19414 6.756 0.70939C6.765 0.5815 6.8235 0.462157 6.91908 0.376708C7.01466 0.29126 7.13978 0.246438 7.26788 0.251764H10.4039C10.8326 0.251764 10.9744 0.465264 10.9744 0.978014V4.94176C10.9744 5.36964 11.1581 5.51139 11.2876 5.51139C11.5449 5.51139 11.7426 5.36964 12.2143 4.89889C13.2248 3.66572 14.0507 2.29219 14.666 0.821389C14.7287 0.644608 14.8476 0.493257 15.0046 0.39053C15.1615 0.287802 15.3478 0.239364 15.5349 0.252639H17.5308C18.1292 0.252639 18.2561 0.55189 18.1292 0.97889C17.4031 2.6049 16.5049 4.14845 15.45 5.58314C15.2347 5.91126 15.149 6.08189 15.45 6.46689C15.6477 6.76614 16.3478 7.35064 16.8176 7.90626C17.5019 8.58877 18.0697 9.37801 18.4994 10.2425C18.6709 10.799 18.3856 11.0834 17.816 11.0834Z"/>
</svg>
