<svg version="1.1" xmlns="http://www.w3.org/2000/svg" xmlns:xlink="http://www.w3.org/1999/xlink" x="0px" y="0px"
	 viewBox="-290 411.9 15 19" enable-background="new -290 411.9 15 19" xml:space="preserve">
<path fill="#5B5B59" d="M-276.3,430.9h-12.5c-0.7,0-1.3-0.5-1.3-1.2v-14.3c0-0.7,0.6-1.2,1.3-1.2h2.5v-0.6
	c0-0.3,0.3-0.6,0.6-0.6h1.4c0.3-0.7,1-1.2,1.8-1.2s1.5,0.5,1.8,1.2h1.4c0.3,0,0.6,0.3,0.6,0.6v0.6h2.5c0.7,0,1.3,0.5,1.3,1.2v14.3
	C-275,430.4-275.6,430.9-276.3,430.9z M-280,414.3h-1.3c-0.3,0-0.6-0.3-0.6-0.6s-0.3-0.6-0.6-0.6s-0.6,0.3-0.6,0.6s-0.3,0.6-0.6,0.6
	h-1.3v1.2h5V414.3z M-276.3,415.5h-2.5v0.6c0,0.3-0.3,0.6-0.6,0.6h-6.3c-0.3,0-0.6-0.3-0.6-0.6v-0.6h-2.5v14.3h12.5V415.5z
	 M-286.4,420.4l0.8,0.8l2.1-2c0.2-0.2,0.6-0.2,0.9,0c0.2,0.2,0.2,0.6,0,0.8l-2.5,2.4c-0.1,0.1-0.3,0.2-0.4,0.2s-0.3-0.1-0.4-0.2
	l-1.3-1.2c-0.2-0.2-0.2-0.6,0-0.8C-287.1,420.1-286.7,420.1-286.4,420.4z M-286.4,425.1l0.8,0.8l2.1-2c0.2-0.2,0.6-0.2,0.9,0
	c0.2,0.2,0.2,0.6,0,0.8l-2.5,2.4c-0.1,0.1-0.3,0.2-0.4,0.2s-0.3-0.1-0.4-0.2l-1.3-1.2c-0.2-0.2-0.2-0.6,0-0.8
	C-287.1,424.9-286.7,424.9-286.4,425.1z M-280.6,420.2h2.5c0.3,0,0.6,0.3,0.6,0.6s-0.3,0.6-0.6,0.6h-2.5c-0.3,0-0.6-0.3-0.6-0.6
	S-281,420.2-280.6,420.2z M-280.6,425h2.5c0.3,0,0.6,0.3,0.6,0.6s-0.3,0.6-0.6,0.6h-2.5c-0.3,0-0.6-0.3-0.6-0.6S-281,425-280.6,425z
	"/>
</svg>
