<svg version="1.1" xmlns="http://www.w3.org/2000/svg" xmlns:xlink="http://www.w3.org/1999/xlink" x="0px" y="0px"
	 viewBox="0 0 216 306" enable-background="new 0 0 216 306" xml:space="preserve">
<g>
	<path fill="#8096A3" d="M15.1,101.5c6.1,0,11.3,2.2,12.9,5.2c1.6-3,6.8-5.2,12.9-5.2s11.3,2.2,12.9,5.2c1.6-3,6.8-5.2,12.9-5.2
		c6.4,0,11.8,2.4,13.1,5.6c4.2-4.1,15.3-7,28.2-7s24,2.9,28.2,7c1.3-3.2,6.7-5.6,13.1-5.6c6.1,0,11.3,2.2,12.9,5.2
		c1.6-3,6.8-5.2,12.9-5.2s11.3,2.2,12.9,5.2c1.6-3,6.8-5.2,12.9-5.2c6.5,0,11.9,2.5,13.2,5.7h0.2c-1.7-38-48.6-68.5-106.2-68.5
		S3.4,69.2,1.7,107.3H2C3.2,104,8.6,101.5,15.1,101.5z"/>
	<g>
		<path fill="#7A909C" d="M101,176c-0.2,0-0.4-0.1-0.6-0.2L0.5,106.4c-0.5-0.3-0.6-0.9-0.3-1.4c0.3-0.5,0.9-0.6,1.4-0.3l99.9,69.4
			c0.5,0.3,0.6,0.9,0.3,1.4C101.6,175.9,101.3,176,101,176z"/>
	</g>
	<path fill="#F9878F" d="M0,107.4c5.6-5.1,14.7-8.4,25-8.4c9.5,0,18,2.8,23.7,7.3C48.7,106.3,42,26,108,1V0C48.6,0,0.3,48,0,107.4z"
		/>
	<g opacity="0.15">
		<path fill="#FFFFFF" d="M11.9,90.8c-0.1,0-0.3,0-0.4,0c-1.1-0.2-1.8-1.3-1.5-2.4c0.7-3.4,1.6-6.7,2.7-10c0.3-1.1,1.5-1.6,2.5-1.3
			c1.1,0.3,1.6,1.5,1.3,2.5c-1,3.2-1.9,6.4-2.6,9.7C13.7,90.2,12.8,90.8,11.9,90.8z"/>
	</g>
	<g opacity="0.15">
		<path fill="#FFFFFF" d="M18.4,70.8c-0.3,0-0.5-0.1-0.8-0.2c-1-0.4-1.5-1.6-1-2.6c7.3-16.8,18.8-31.7,33.3-43
			c0.9-0.7,2.1-0.5,2.8,0.3c0.7,0.9,0.5,2.1-0.3,2.8c-14,10.9-25.1,25.2-32.1,41.4C19.9,70.3,19.1,70.8,18.4,70.8z"/>
	</g>
	<path fill="#E87E7E" d="M108,0v1c66,25,59.3,105.3,59.3,105.3c5.7-4.5,14.2-7.3,23.7-7.3c10.3,0,19.3,3.3,25,8.4
		C215.6,48,167.4,0,108,0z"/>
	<g>
		<path fill="#7A909C" d="M115,176c-0.3,0-0.6-0.1-0.8-0.4c-0.3-0.5-0.2-1.1,0.3-1.4l99.9-69.4c0.5-0.3,1.1-0.2,1.4,0.3
			c0.3,0.5,0.2,1.1-0.3,1.4l-99.9,69.4C115.4,175.9,115.2,176,115,176z"/>
	</g>
	<path fill="#5893C7" d="M108,1C42,26,48.7,106.3,48.7,106.3C58.9,95.5,81.6,88,108,88s49.1,7.5,59.3,18.3C167.3,106.3,174,26,108,1
		z"/>
	<g>
		<g>
			<path fill="#C5E6EB" d="M167.3,107.3C167.3,107.3,167.2,107.3,167.3,107.3c-0.6,0-1-0.5-1-1.1c0-0.2,1.6-20.2-4.9-43
				c-5.9-20.9-20-48.4-53.4-61.2C74.6,14.9,60.5,42.4,54.6,63.2c-6.5,22.8-4.9,42.8-4.9,43c0,0.6-0.4,1-0.9,1.1
				c-0.6,0-1-0.4-1.1-0.9c0-0.2-1.6-20.5,4.9-43.6c6.1-21.4,20.5-49.6,55-62.7c0.2-0.1,0.5-0.1,0.7,0c34.5,13.1,48.9,41.3,55,62.7
				c6.5,23.1,4.9,43.4,4.9,43.6C168.2,106.9,167.8,107.3,167.3,107.3z"/>
		</g>
	</g>
	<g>
		<path fill="#7A909C" d="M101,176c-0.3,0-0.6-0.1-0.8-0.4l-52.3-68.7c-0.3-0.4-0.2-1.1,0.2-1.4c0.4-0.3,1.1-0.2,1.4,0.2l52.3,68.7
			c0.3,0.4,0.2,1.1-0.2,1.4C101.4,175.9,101.2,176,101,176z"/>
	</g>
	<g>
		<path fill="#7A909C" d="M115,176c-0.2,0-0.4-0.1-0.6-0.2c-0.4-0.3-0.5-1-0.2-1.4l52.3-68.7c0.3-0.4,1-0.5,1.4-0.2
			c0.4,0.3,0.5,1,0.2,1.4l-52.3,68.7C115.6,175.9,115.3,176,115,176z"/>
	</g>
	<path opacity="7.000000e-002" fill="#333A46" d="M216,107.4c-0.2-28.2-11.1-53.8-28.9-72.9c7.4,19.8,9.9,47.7-18.3,70.8
		c5.6-3.8,13.5-6.2,22.2-6.2C201.3,99,210.3,102.3,216,107.4z"/>
</g>
<g>
	<g>
		<polygon fill="#AB8968" points="42,306 210,306 178,291 10,291 		"/>
		<rect x="10" y="175" fill="#E7C28E" width="168" height="116"/>
		<polygon fill="#DEB189" points="210,306 178,291 178,175 210,190 		"/>
		<rect x="94" y="175" opacity="0.5" fill="#AC7141" width="14" height="116"/>
		<polygon opacity="0.5" fill="#AC7141" points="190,296.6 197,299.9 197,183.9 190,180.6 		"/>
		<rect x="16" y="182" fill="#FFFFFF" width="49" height="24"/>
		<g>
			<path fill="#B3B3B3" d="M48.5,186.5h-12c-0.6,0-1-0.4-1-1s0.4-1,1-1h12c0.6,0,1,0.4,1,1S49,186.5,48.5,186.5z"/>
		</g>
		<g>
			<path fill="#B3B3B3" d="M31.5,186.5h-12c-0.6,0-1-0.4-1-1s0.4-1,1-1h12c0.6,0,1,0.4,1,1S32,186.5,31.5,186.5z"/>
		</g>
		<g>
			<path fill="#B3B3B3" d="M38.5,190.5h-19c-0.6,0-1-0.4-1-1s0.4-1,1-1h19c0.6,0,1,0.4,1,1S39,190.5,38.5,190.5z"/>
		</g>
		<g>
			<path fill="#B3B3B3" d="M48.5,194.5h-4c-0.6,0-1-0.4-1-1s0.4-1,1-1h4c0.6,0,1,0.4,1,1S49,194.5,48.5,194.5z"/>
		</g>
		<g>
			<path fill="#B3B3B3" d="M41.5,194.5h-6c-0.6,0-1-0.4-1-1s0.4-1,1-1h6c0.6,0,1,0.4,1,1S42,194.5,41.5,194.5z"/>
		</g>
		<g>
			<path fill="#B3B3B3" d="M32.5,194.5h-13c-0.6,0-1-0.4-1-1s0.4-1,1-1h13c0.6,0,1,0.4,1,1S33,194.5,32.5,194.5z"/>
		</g>
		<g>
			<path fill="#B3B3B3" d="M48.5,198.5h-8c-0.6,0-1-0.4-1-1s0.4-1,1-1h8c0.6,0,1,0.4,1,1S49,198.5,48.5,198.5z"/>
		</g>
		<g>
			<path fill="#B3B3B3" d="M34.5,198.5h-15c-0.6,0-1-0.4-1-1s0.4-1,1-1h15c0.6,0,1,0.4,1,1S35,198.5,34.5,198.5z"/>
		</g>
	</g>
	<path opacity="0.15" fill="#FFFFFF" d="M41.3,274.3c0,3.5-2.9,6.4-6.4,6.4H23c-3.5,0-6.4-2.9-6.4-6.4V219c0-3.5,2.9-6.4,6.4-6.4
		h11.9c3.5,0,6.4,2.9,6.4,6.4V274.3z"/>
	<g opacity="0.25">
		<g>
			<path fill="#929696" d="M81.2,181c-0.1,0-0.1,0-0.2-0.1c-0.5-0.4-0.9-0.7-1.4-0.9c-0.1-0.1-0.2-0.2-0.1-0.3
				c0.1-0.1,0.2-0.2,0.3-0.1c0.5,0.3,1,0.6,1.5,1c0.1,0.1,0.1,0.2,0,0.3C81.3,181,81.3,181,81.2,181z"/>
		</g>
		<g>
			<path fill="#929696" d="M79,179.6C78.9,179.6,78.9,179.6,79,179.6c-1.5-0.6-3.1-0.7-4.9-0.3c-0.1,0-0.3-0.1-0.3-0.2
				c0-0.1,0.1-0.3,0.2-0.3c1.9-0.4,3.6-0.3,5.1,0.3c0.1,0.1,0.2,0.2,0.1,0.3C79.1,179.6,79.1,179.6,79,179.6z"/>
		</g>
		<g>
			<path fill="#929696" d="M70.8,180.3c-0.1,0-0.2-0.1-0.2-0.2c0-0.1,0-0.3,0.1-0.3c0.9-0.4,1.7-0.6,2.5-0.8c0.1,0,0.3,0,0.3,0.2
				c0,0.1,0,0.3-0.2,0.3C72.6,179.7,71.9,179.9,70.8,180.3C70.9,180.3,70.9,180.3,70.8,180.3z"/>
		</g>
		<g>
			<path fill="#929696" d="M65.2,182.6c-0.1,0-0.2-0.1-0.2-0.2c0-0.1,0-0.3,0.2-0.3c1.2-0.4,2.3-0.9,3.5-1.4
				c0.5-0.2,0.9-0.4,1.4-0.6c0.1-0.1,0.3,0,0.3,0.1c0.1,0.1,0,0.3-0.1,0.3c-0.5,0.2-0.9,0.4-1.4,0.6
				C67.7,181.7,66.5,182.2,65.2,182.6C65.3,182.6,65.3,182.6,65.2,182.6z"/>
		</g>
		<g>
			<path fill="#929696" d="M61.4,183.3c-1.1,0-2.2-0.2-3.2-0.7c-0.1-0.1-0.2-0.2-0.1-0.3c0.1-0.1,0.2-0.2,0.3-0.1
				c1.7,0.7,3.4,0.8,5.6,0.3c0.1,0,0.3,0,0.3,0.2c0,0.1,0,0.3-0.2,0.3C63.1,183.2,62.2,183.3,61.4,183.3z"/>
		</g>
		<g>
			<path fill="#929696" d="M57.4,182.2c0,0-0.1,0-0.1,0c-0.4-0.2-0.8-0.5-1.2-0.8c-0.1-0.1-0.1-0.2,0-0.3c0.1-0.1,0.2-0.1,0.3,0
				c0.4,0.3,0.8,0.6,1.1,0.8c0.1,0.1,0.2,0.2,0.1,0.3C57.6,182.2,57.5,182.2,57.4,182.2z"/>
		</g>
		<g>
			<path fill="#929696" d="M81.2,183.4c-0.1,0-0.1,0-0.2-0.1c-0.3-0.2-0.6-0.5-0.9-0.6c-0.1-0.1-0.1-0.2-0.1-0.3
				c0.1-0.1,0.2-0.1,0.3-0.1c0.3,0.2,0.6,0.4,0.9,0.7c0.1,0.1,0.1,0.2,0,0.3C81.3,183.4,81.3,183.4,81.2,183.4z"/>
		</g>
		<g>
			<path fill="#929696" d="M79.5,182.3c0,0-0.1,0-0.1,0c-0.6-0.3-1.1-0.5-1.7-0.6c-0.1,0-0.2-0.2-0.2-0.3c0-0.1,0.2-0.2,0.3-0.2
				c0.6,0.1,1.3,0.4,1.8,0.7c0.1,0.1,0.2,0.2,0.1,0.3C79.7,182.3,79.6,182.3,79.5,182.3z"/>
		</g>
		<g>
			<path fill="#929696" d="M72.9,182c-0.1,0-0.2-0.1-0.2-0.2c0-0.1,0-0.3,0.2-0.3c1.5-0.4,2.8-0.6,4-0.5c0.1,0,0.2,0.1,0.2,0.3
				c0,0.1-0.1,0.2-0.3,0.2C75.6,181.4,74.3,181.6,72.9,182C72.9,182,72.9,182,72.9,182z"/>
		</g>
		<g>
			<path fill="#929696" d="M66.6,184.5c-0.1,0-0.2-0.1-0.2-0.2c0-0.1,0-0.3,0.1-0.3c0.7-0.3,1.4-0.6,2.1-0.9c1-0.4,2-0.8,3-1.2
				c0.1,0,0.3,0,0.3,0.1c0,0.1,0,0.3-0.1,0.3c-1,0.4-2,0.8-2.9,1.2C68.1,183.9,67.4,184.2,66.6,184.5
				C66.7,184.5,66.7,184.5,66.6,184.5z"/>
		</g>
		<g>
			<path fill="#929696" d="M63.6,185.5c-0.1,0-0.2-0.1-0.2-0.2c0-0.1,0.1-0.3,0.2-0.3c0.7-0.2,1.4-0.4,2.2-0.7c0.1,0,0.3,0,0.3,0.1
				c0,0.1,0,0.3-0.1,0.3C65.1,185.1,64.4,185.3,63.6,185.5C63.7,185.5,63.6,185.5,63.6,185.5z"/>
		</g>
		<g>
			<path fill="#929696" d="M61.4,185.7c-0.9,0-1.7-0.1-2.5-0.4c-0.1,0-0.2-0.2-0.2-0.3c0-0.1,0.2-0.2,0.3-0.2
				c1.1,0.4,2.2,0.5,3.4,0.3c0.1,0,0.3,0.1,0.3,0.2c0,0.1-0.1,0.3-0.2,0.3C62.1,185.7,61.7,185.7,61.4,185.7z"/>
		</g>
		<g>
			<path fill="#929696" d="M58.2,185.1C58.2,185.1,58.2,185.1,58.2,185.1c-0.8-0.3-1.5-0.8-2.2-1.3c-0.1-0.1-0.1-0.2,0-0.3
				c0.1-0.1,0.2-0.1,0.3,0c0.6,0.5,1.3,0.9,1.9,1.2c0.1,0.1,0.2,0.2,0.1,0.3C58.4,185,58.3,185.1,58.2,185.1z"/>
		</g>
		<g>
			<path fill="#929696" d="M81.2,185.8c-0.1,0-0.1,0-0.2-0.1c-1-0.8-2.1-1.4-3.2-1.6c-0.1,0-0.2-0.2-0.2-0.3c0-0.1,0.2-0.2,0.3-0.2
				c1.2,0.3,2.3,0.9,3.4,1.7c0.1,0.1,0.1,0.2,0,0.3C81.3,185.8,81.3,185.8,81.2,185.8z"/>
		</g>
		<g>
			<path fill="#929696" d="M70,185.5c-0.1,0-0.2-0.1-0.2-0.1c-0.1-0.1,0-0.3,0.1-0.3c2.6-1.1,4.9-1.8,7.1-1.5c0.1,0,0.2,0.1,0.2,0.3
				c0,0.1-0.1,0.2-0.3,0.2C74.8,183.7,72.7,184.4,70,185.5C70.1,185.5,70.1,185.5,70,185.5z"/>
		</g>
		<g>
			<path fill="#929696" d="M64.3,187.7c-0.1,0-0.2-0.1-0.2-0.2c0-0.1,0-0.3,0.2-0.3c1.2-0.3,2.3-0.8,3.7-1.4c0.1-0.1,0.3,0,0.3,0.1
				c0.1,0.1,0,0.3-0.1,0.3C66.7,186.9,65.5,187.4,64.3,187.7C64.3,187.7,64.3,187.7,64.3,187.7z"/>
		</g>
		<g>
			<path fill="#929696" d="M61.4,188.2c-0.6,0-1.2-0.1-1.8-0.2c-0.1,0-0.2-0.2-0.2-0.3c0-0.1,0.2-0.2,0.3-0.2c0.9,0.2,1.9,0.3,3,0.1
				c0.1,0,0.3,0.1,0.3,0.2c0,0.1-0.1,0.3-0.2,0.3C62.3,188.1,61.8,188.2,61.4,188.2z"/>
		</g>
		<g>
			<path fill="#929696" d="M58.9,187.8C58.9,187.8,58.9,187.8,58.9,187.8c-0.7-0.2-1.4-0.6-2-1c-0.1-0.1-0.1-0.2-0.1-0.3
				c0.1-0.1,0.2-0.1,0.3-0.1c0.6,0.4,1.2,0.7,1.8,0.9c0.1,0,0.2,0.2,0.2,0.3C59.1,187.7,59,187.8,58.9,187.8z"/>
		</g>
		<g>
			<path fill="#929696" d="M81.2,188.3c-0.1,0-0.1,0-0.2-0.1c-1-0.8-2-1.3-3.1-1.6c-0.1,0-0.2-0.2-0.2-0.3c0-0.1,0.2-0.2,0.3-0.2
				c1.2,0.3,2.2,0.9,3.3,1.7c0.1,0.1,0.1,0.2,0,0.3C81.3,188.2,81.3,188.3,81.2,188.3z"/>
		</g>
		<g>
			<path fill="#929696" d="M68.5,188.6c-0.1,0-0.2-0.1-0.2-0.1c-0.1-0.1,0-0.3,0.1-0.3l0.2-0.1c2.5-1.1,5.1-2.2,7.7-2.1
				c0.1,0,0.2,0.1,0.2,0.3c0,0.1-0.1,0.2-0.3,0.2c-2.5-0.1-5.1,1-7.5,2.1L68.5,188.6C68.6,188.5,68.6,188.6,68.5,188.6z"/>
		</g>
		<g>
			<path fill="#929696" d="M66.4,189.4c-0.1,0-0.2-0.1-0.2-0.2c0-0.1,0-0.3,0.1-0.3c0.4-0.2,0.8-0.3,1.4-0.6c0.1-0.1,0.3,0,0.3,0.1
				c0.1,0.1,0,0.3-0.1,0.3C67.3,189.1,66.9,189.3,66.4,189.4C66.4,189.4,66.4,189.4,66.4,189.4z"/>
		</g>
		<g>
			<path fill="#929696" d="M61.7,190.6c-0.1,0-0.2-0.1-0.2-0.2c0-0.1,0.1-0.2,0.2-0.3c1.1,0,2.4-0.3,3.9-0.8c0.1,0,0.3,0,0.3,0.1
				c0,0.1,0,0.3-0.1,0.3C64.1,190.3,62.9,190.5,61.7,190.6C61.7,190.6,61.7,190.6,61.7,190.6z"/>
		</g>
		<g>
			<path fill="#929696" d="M60.8,190.6C60.8,190.6,60.8,190.6,60.8,190.6c-1.7-0.1-3.2-0.8-4.7-1.9c-0.1-0.1-0.1-0.2,0-0.3
				c0.1-0.1,0.2-0.1,0.3,0c1.4,1.1,2.8,1.7,4.4,1.8c0.1,0,0.2,0.1,0.2,0.3C61,190.5,60.9,190.6,60.8,190.6z"/>
		</g>
		<g>
			<path fill="#929696" d="M81.2,190.7c-0.1,0-0.1,0-0.2-0.1c-2.3-1.9-4.8-2.3-8.1-1.3c-0.1,0-0.3,0-0.3-0.2c0-0.1,0-0.3,0.2-0.3
				c3.5-1,6.1-0.6,8.6,1.4c0.1,0.1,0.1,0.2,0,0.3C81.3,190.7,81.3,190.7,81.2,190.7z"/>
		</g>
		<g>
			<path fill="#929696" d="M67.4,191.4c-0.1,0-0.2-0.1-0.2-0.1c-0.1-0.1,0-0.3,0.1-0.3c0.4-0.2,0.8-0.4,1.3-0.5
				c1-0.4,2.1-0.9,3.1-1.3c0.1,0,0.3,0,0.3,0.1c0,0.1,0,0.3-0.1,0.3c-1,0.4-2.1,0.8-3.1,1.3C68.4,191.1,68,191.2,67.4,191.4
				C67.5,191.4,67.5,191.4,67.4,191.4z"/>
		</g>
		<g>
			<path fill="#929696" d="M64.3,192.6c-0.1,0-0.2-0.1-0.2-0.2c0-0.1,0-0.3,0.2-0.3c0.7-0.2,1.4-0.4,2.3-0.8c0.1,0,0.3,0,0.3,0.1
				c0,0.1,0,0.3-0.1,0.3C65.8,192.1,65.1,192.4,64.3,192.6C64.3,192.6,64.3,192.6,64.3,192.6z"/>
		</g>
		<g>
			<path fill="#929696" d="M60.9,193C60.9,193,60.9,193,60.9,193c-1.8-0.1-3.3-0.7-4.8-2c-0.1-0.1-0.1-0.2,0-0.3
				c0.1-0.1,0.2-0.1,0.3,0c1.4,1.2,2.9,1.8,4.5,1.8c0.1,0,0.2,0.1,0.2,0.3C61.2,192.9,61,193,60.9,193z"/>
		</g>
	</g>
	<g opacity="0.7">
		<g>
			<path fill="#7A909C" d="M66.6,199.3c-0.1,0.1-0.2,0.1-0.2,0c-2.6-1.7-5.9-1.5-8.3,0.4c-0.9,0.7-1.6,1.7-2.1,2.8
				c0,0.1-0.2,0.1-0.2,0.1c-0.1,0-0.1-0.1-0.1-0.2c0.5-1.1,1.2-2.2,2.2-2.9c2.5-2.1,6-2.2,8.7-0.4C66.7,199.1,66.7,199.2,66.6,199.3
				C66.6,199.3,66.6,199.3,66.6,199.3z"/>
		</g>
		<g>
			<path fill="#7A909C" d="M56.6,209.2C56.6,209.2,56.6,209.3,56.6,209.2c-0.1,0.1-0.2,0-0.3,0c-1.2-1.8-1.5-4-0.9-6
				c0-0.1,0.1-0.2,0.2-0.1c0.1,0,0.2,0.1,0.1,0.2c-0.5,1.9-0.2,4,0.9,5.7C56.7,209.1,56.7,209.2,56.6,209.2z"/>
		</g>
		<g>
			<path fill="#7A909C" d="M59.7,211.9c-0.1,0-0.1,0.1-0.2,0c-0.8-0.4-1.5-0.8-2.1-1.4c-0.1-0.1-0.1-0.2,0-0.3
				c0.1-0.1,0.2-0.1,0.3,0c0.6,0.6,1.3,1,2,1.4C59.8,211.6,59.8,211.7,59.7,211.9C59.7,211.9,59.7,211.9,59.7,211.9z"/>
		</g>
		<g>
			<path fill="#7A909C" d="M67.2,210.9c-1.8,1.5-4.3,2-6.5,1.4c-0.1,0-0.2-0.1-0.1-0.2c0-0.1,0.1-0.2,0.2-0.1
				c2.2,0.6,4.5,0.1,6.2-1.3c1.2-1,2-2.2,2.4-3.7c0-0.1,0.1-0.2,0.2-0.1c0.1,0,0.2,0.1,0.1,0.2C69.3,208.6,68.4,209.9,67.2,210.9z"
				/>
		</g>
		<g>
			<path fill="#7A909C" d="M69.7,206.6c0,0-0.1,0-0.2,0c-0.1,0-0.2-0.1-0.2-0.2c0.4-2-0.2-4.1-1.5-5.6c-0.2-0.3-0.4-0.5-0.7-0.7
				c-0.1-0.1-0.1-0.2,0-0.3c0.1-0.1,0.2-0.1,0.3,0c0.2,0.2,0.5,0.5,0.7,0.7c1.4,1.7,1.9,3.8,1.5,6C69.8,206.5,69.7,206.6,69.7,206.6
				z"/>
		</g>
		<g>
			<path fill="#7A909C" d="M67.5,203.9C67.5,203.9,67.5,203.9,67.5,203.9c-0.2,0.1-0.3,0-0.3-0.1c-0.2-0.6-0.5-1.2-0.9-1.7
				c-1.5-1.8-4.1-2.4-6.2-1.2c-0.1,0.1-0.2,0-0.3-0.1c-0.1-0.1,0-0.2,0.1-0.3c2.2-1.2,5-0.7,6.7,1.3c0.5,0.6,0.8,1.2,1,1.9
				C67.6,203.8,67.6,203.9,67.5,203.9z"/>
		</g>
		<g>
			<path fill="#7A909C" d="M57.5,205.6c0,0-0.1,0-0.1,0c-0.1,0-0.2-0.1-0.2-0.2c-0.1-1.7,0.6-3.4,1.9-4.4c0.1-0.1,0.1-0.1,0.2-0.2
				c0.1-0.1,0.2,0,0.3,0c0.1,0.1,0,0.2,0,0.3c-0.1,0-0.1,0.1-0.2,0.2c-1.2,1-1.9,2.5-1.8,4.1C57.6,205.5,57.6,205.6,57.5,205.6z"/>
		</g>
		<g>
			<path fill="#7A909C" d="M65.8,209.3c-2.3,1.8-5.6,1.5-7.5-0.8c-0.5-0.6-0.9-1.3-1-2.1c0-0.1,0-0.2,0.1-0.2c0.1,0,0.2,0,0.2,0.1
				c0.2,0.7,0.5,1.4,1,2c1.7,2.1,4.8,2.4,6.9,0.7c1.2-0.9,1.8-2.3,1.8-3.8c0-0.1,0.1-0.2,0.2-0.2c0.1,0,0.2,0.1,0.2,0.2
				C67.8,206.8,67.1,208.3,65.8,209.3z"/>
		</g>
		<g>
			<path fill="#7A909C" d="M56.6,202.6c0.2,0.1,0.3,0.2,0.2,0.4l-0.1,0.2l0.4,0.1l0,0.1l-1-0.4l0.1-0.2
				C56.3,202.6,56.4,202.5,56.6,202.6z M56.6,202.7c-0.1-0.1-0.2,0-0.3,0.1l-0.1,0.2l0.4,0.2l0.1-0.2
				C56.8,202.8,56.7,202.7,56.6,202.7z"/>
			<path fill="#7A909C" d="M57.1,202.6l-0.4-0.2c-0.2-0.1-0.3-0.3-0.2-0.4c0.1-0.2,0.3-0.2,0.5-0.1l0.4,0.2c0.2,0.1,0.3,0.3,0.2,0.4
				C57.4,202.7,57.2,202.7,57.1,202.6z M57.3,202.1l-0.4-0.2c-0.1-0.1-0.3-0.1-0.3,0.1c-0.1,0.1,0,0.2,0.1,0.3l0.4,0.2
				c0.1,0.1,0.3,0.1,0.3-0.1C57.5,202.3,57.4,202.2,57.3,202.1z"/>
			<path fill="#7A909C" d="M57.5,202L57.5,202c0.2,0,0.3,0,0.3-0.1c0.1-0.1,0-0.2,0-0.3c-0.2-0.1-0.5,0.2-0.7,0.1
				c-0.1-0.1-0.1-0.2-0.1-0.4c0.1-0.1,0.3-0.2,0.4-0.1l-0.1,0.1c-0.1-0.1-0.2,0-0.3,0c-0.1,0.1-0.1,0.2,0,0.2
				c0.2,0.1,0.5-0.2,0.7-0.1c0.1,0.1,0.2,0.2,0.1,0.4C57.8,202,57.6,202.1,57.5,202z"/>
			<path fill="#7A909C" d="M57.7,200.6l-0.2,0.2l0.7,0.6l-0.1,0.1l-0.7-0.6l-0.2,0.2l-0.1-0.1L57.7,200.6L57.7,200.6z"/>
			<path fill="#7A909C" d="M58.5,200.7l-0.2-0.3c-0.1-0.2-0.1-0.3,0-0.5c0.2-0.1,0.3-0.1,0.5,0.1l0.2,0.3c0.1,0.2,0.1,0.3,0,0.5
				C58.8,200.9,58.7,200.8,58.5,200.7z M58.9,200.3l-0.2-0.3c-0.1-0.1-0.2-0.2-0.3-0.1c-0.1,0.1-0.1,0.2,0,0.3l0.2,0.3
				c0.1,0.1,0.2,0.2,0.3,0.1C59,200.6,59,200.5,58.9,200.3z"/>
			<path fill="#7A909C" d="M58.9,199.6l0.2,0.3l0.3-0.2l0,0.1l-0.3,0.2l0.3,0.4l-0.1,0l-0.6-0.9l0.4-0.3l0,0.1L58.9,199.6z"/>
			<path fill="#7A909C" d="M59.5,199.2l0.2,0.4l0.3-0.2l0,0.1l-0.3,0.2l0.2,0.4l-0.1,0l-0.5-1l0.4-0.2l0,0.1L59.5,199.2z"/>
			<path fill="#7A909C" d="M60.1,198.9l0.4,1l-0.1,0L60.1,198.9L60.1,198.9z"/>
			<path fill="#7A909C" d="M60.6,199.5l-0.1-0.4c-0.1-0.2,0-0.3,0.2-0.4c0.2,0,0.3,0,0.4,0.2l-0.1,0c-0.1-0.1-0.1-0.2-0.3-0.2
				c-0.1,0-0.2,0.1-0.1,0.3L60.6,199.5c0.1,0.1,0.2,0.2,0.3,0.1c0.1,0,0.2-0.1,0.1-0.3l0.1,0c0,0.2,0,0.3-0.2,0.4
				C60.8,199.8,60.7,199.7,60.6,199.5z"/>
			<path fill="#7A909C" d="M61.9,199.4L61.9,199.4l-0.5,0.2l-0.2-1l0.5-0.1l0,0.1l-0.4,0.1l0.1,0.4l0.4-0.1l0,0.1l-0.4,0.1l0.1,0.4
				L61.9,199.4z"/>
		</g>
		<g>
			<path fill="#7A909C" d="M60.6,207.4L60.6,207.4L60.6,207.4L60.6,207.4L60.6,207.4L60.6,207.4l-0.1,0.1l0,0l-0.1,0l-0.1,0.1l0,0
				l0,0l0,0l-0.1-0.1l0,0l0,0l0,0l-0.1,0.1l0,0l-0.1,0.1l-0.1,0.1l0,0l0,0l-0.1,0l0,0l0,0l0,0l0,0.1l0,0l0,0l0,0l0,0l-0.1,0.1l0,0
				l-0.1,0.1l0,0l0,0l0,0l0,0l0,0l0,0l0-0.1l0,0l0-0.1l0,0l0-0.1l0,0l0-0.1l0,0l0-0.1l0,0l0-0.1l0-0.1l0,0l0-0.1l0,0l0-0.1l0,0
				l0-0.1l0,0l0,0l0,0l0.1-0.1l0.1-0.1l0.1,0l0,0l0,0l0,0l0.1,0l0,0l0.1,0l0,0l0.1,0l0,0l0.1,0l0,0l0.1,0l0,0l0.1,0l0,0l0.1,0l0,0
				l0.1,0l0.1,0l0,0L60.6,207.4L60.6,207.4z M59.9,207.4L59.9,207.4l-0.1-0.1l0,0l-0.1-0.1l0,0l0,0l0,0l0,0l0,0l0,0.1l0,0l0,0.1l0,0
				l0,0l0,0l0,0L59.9,207.4L59.9,207.4L59.9,207.4L59.9,207.4L59.9,207.4z"/>
			<path fill="#7A909C" d="M60.8,206.9L60.8,206.9L60.8,206.9l0.1,0.1l0.1,0.1l0,0l0,0l0,0l0,0l-0.1,0.1l-0.1,0.1l-0.1,0l0,0l0,0
				l0,0l0,0l0,0l0,0l0,0l-0.1-0.1l0,0l-0.1-0.1l0,0l-0.1-0.1l0,0l-0.1-0.1l-0.1-0.1l-0.1-0.1l0,0l-0.1-0.1l-0.1-0.1l-0.1-0.1l0,0
				l0,0l0,0l0,0l0,0l0,0l0,0l0.1-0.1l0.1-0.1l0,0l0,0l0,0l0,0l0,0l0.1,0.1l0.1,0.1l0,0l0.1,0.1l0,0l0.1,0.1l0,0l0.1,0.1L60.8,206.9
				L60.8,206.9z"/>
			<path fill="#7A909C" d="M62,206.3L62,206.3l-0.1,0.1l-0.1,0.1l0,0l-0.1,0l0,0l0,0l0,0l-0.1,0l0,0l-0.1,0l0,0l-0.1,0l0,0l-0.1,0
				l0,0l0,0l0,0l0,0l0,0l0,0l0,0l0.1,0.1l0,0l0.1,0.1l0,0l0,0l0,0l0,0l0,0l0,0l0,0l0,0l-0.1,0l-0.1,0.1l0,0l-0.1,0l0,0l0,0l0,0l0,0
				l0,0l0,0l0,0l-0.1-0.1l0,0l-0.1-0.1l0,0l-0.1-0.1l0,0l-0.1-0.1l0,0l-0.1-0.1l0,0l-0.1-0.1l0,0l-0.1-0.1l0,0l-0.1-0.1l0,0l0,0l0,0
				l0,0l0,0l0,0l0,0l0,0l0,0l0.1,0l0.2-0.1l0.1-0.1l0,0l0.1-0.1l0,0l0,0l0,0l0,0l0,0l0,0l0,0l0,0l0,0l0,0l0,0l0,0l0,0l0,0l0,0l0,0
				l0,0l0,0l0,0l0,0l0,0l0,0l0,0l0,0l0,0l0,0l0,0l0,0l0,0l0,0l0,0l0,0v0l0,0l0,0l0,0l0,0l0,0l0,0l0,0l0,0l0.1,0l0,0l0.1,0l0,0l0.1,0
				l0,0L62,206.3L62,206.3L62,206.3L62,206.3z M61.3,206.1L61.3,206.1L61.3,206.1L61.3,206.1L61.3,206.1l0-0.1l0,0l0,0l0,0l0,0l0,0
				l0,0l0,0l0,0l0,0l0,0l0,0L61,206l0,0l-0.1,0.1l0,0l0,0l0,0l0,0l0,0l0,0l0,0l0,0l0.1,0.1l0,0l0,0l0,0l0,0l0.1,0L61.3,206.1
				L61.3,206.1z"/>
			<path fill="#7A909C" d="M63.6,204.8L63.6,204.8L63.6,204.8L63.6,204.8L63.6,204.8L63.6,204.8l0.1,0.1l0,0l0,0l0,0l0,0l-0.1,0l0,0
				l0,0l0,0l-0.1,0l0,0l0,0l0,0l0,0l0,0l0,0l-0.1-0.1l-0.1-0.1l0,0l-0.1-0.1l-0.1-0.1l0,0l0,0l0,0l0,0l0,0l0,0.1l0,0.2l0,0.1l0,0
				l0,0l0,0l0,0l0,0l0,0l-0.1,0l-0.1,0l0,0l-0.1,0l0,0l0,0l0,0l0.1,0.1l0,0l0.1,0.1l0,0l0.1,0.1l0,0l0.1,0.1l0,0l0,0l0,0l0,0l0,0
				l0,0l0,0l0,0l0,0l-0.1,0l0,0l-0.1,0.1l0,0l0,0l0,0l0,0l0,0l0,0l0,0l-0.2-0.2l-0.1-0.1l0,0l-0.1-0.1l0,0l-0.1-0.1l0,0l-0.1-0.1
				l0,0l-0.1-0.1l0,0l0-0.1l0,0l0,0l0,0l0,0l0,0l0,0l0,0l0,0l0,0l0,0l0,0l0,0l0,0l0,0l0,0l0,0l0,0l0,0l0.1,0l0,0l0.1,0l0,0l0.1,0
				l0,0l0.1,0l0,0l0,0l0,0l0,0l0,0l0-0.1l0,0l0-0.1l0,0l0-0.1l0,0v-0.1l0,0l0,0l0,0l0,0l0.1-0.1l0.1,0l0,0l0,0l0,0l0,0l0,0l0,0l0,0
				l0,0l0,0.1l0,0l0.1,0.1l0,0l0.1,0.1l0,0l0.1,0.1l0,0l0.1,0.1l0,0l0.1,0.1l0,0l0.1,0.1l0,0L63.6,204.8L63.6,204.8L63.6,204.8z"/>
			<path fill="#7A909C" d="M64.9,204L64.9,204L64.9,204L64.9,204L64.9,204L64.9,204l-0.1,0.1l0,0l-0.1,0l-0.1,0.1l0,0l0,0l0,0
				l-0.1-0.1l0,0l0,0l0,0l-0.1,0.1l0,0l-0.1,0.1l-0.1,0.1l0,0l0,0l-0.1,0l0,0l0,0l0,0l0,0.1l0,0l0,0l0,0l0,0l-0.1,0.1l0,0l-0.1,0.1
				l0,0l0,0l0,0l0,0l0,0l0,0l0-0.1l0,0l0-0.1l0,0l0-0.1l0,0l0-0.1l0,0l0-0.1l0,0l0-0.1l0-0.1l0,0l0-0.1l0,0l0-0.1l0,0l0-0.1l0,0l0,0
				l0,0l0.1-0.1l0.1-0.1l0.1,0l0,0l0,0l0,0l0.1,0l0,0l0.1,0l0,0l0.1,0l0,0l0.1,0l0,0l0.1,0l0,0l0.1,0l0,0l0.1,0l0,0l0.1,0l0.1,0l0,0
				L64.9,204L64.9,204z M64.1,203.9L64.1,203.9l-0.1-0.1l0,0l-0.1-0.1l0,0l0,0l0,0l0,0l0,0l0,0.1l0,0l0,0.1l0,0l0,0l0,0l0,0
				L64.1,203.9L64.1,203.9L64.1,203.9L64.1,203.9L64.1,203.9z"/>
			<path fill="#7A909C" d="M65.1,203.5L65.1,203.5L65.1,203.5l0.1,0.1l0.1,0.1l0,0l0,0l0,0l0,0l-0.1,0.1l-0.1,0.1l-0.1,0l0,0l0,0
				l0,0l0,0l0,0l0,0l0,0l-0.1-0.1l0,0l-0.1-0.1l0,0l-0.1-0.1l0,0l-0.1-0.1l-0.1-0.1l-0.1-0.1l0,0l-0.1-0.1l-0.1-0.1l-0.1-0.1l0,0
				l0,0l0,0l0,0l0,0l0,0l0,0l0.1-0.1l0.1-0.1l0,0l0,0l0,0l0,0l0,0l0.1,0.1l0.1,0.1l0,0l0.1,0.1l0,0l0.1,0.1l0,0l0.1,0.1L65.1,203.5
				L65.1,203.5z"/>
			<path fill="#7A909C" d="M66.1,202.9L66.1,202.9L66.1,202.9L66.1,202.9L66.1,202.9L66.1,202.9L66.1,202.9L66.1,202.9l0,0.1
				l-0.1,0.1l-0.1,0.1l-0.1,0.1l-0.1,0.1l-0.1,0.1l-0.1,0.1l0,0l0,0l0,0l0,0l0,0l0,0l0,0l0-0.1l0,0l-0.1-0.1l0,0l-0.1-0.1l0,0
				l-0.1-0.2l0,0l-0.1-0.2l0,0l-0.1-0.1l-0.1-0.1l0,0l0,0l0,0l0,0l0,0l0,0l0,0l0,0l0,0l0.1,0l0,0l0.1-0.1l0,0l0,0l0,0l0.1,0.1
				l0.1,0.1l0,0l0.1,0.1l0,0l0.1,0.1l0,0l0.1,0.1l0,0l0.1,0.2l0,0l0,0l0,0l0,0l0,0l0,0l0,0l0,0l0.2-0.2l0,0l0,0l0,0l0,0l0,0l0,0l0,0
				l0,0L66.1,202.9L66.1,202.9L66.1,202.9z"/>
		</g>
		<g>
			<polygon fill="#7A909C" points="63.4,206.2 63.7,206.3 64,206.2 64,206.5 64.2,206.8 63.9,206.9 63.7,207.2 63.5,206.9 
				63.2,206.8 63.4,206.6 			"/>
			<polygon fill="#7A909C" points="64.5,205.3 64.8,205.4 65.2,205.2 65.2,205.6 65.4,205.8 65.1,205.9 64.9,206.2 64.7,205.9 
				64.4,205.9 64.6,205.6 			"/>
			<polygon fill="#7A909C" points="62.2,207.2 62.2,207.5 62,207.8 62.3,207.9 62.5,208.1 62.7,207.8 63,207.7 62.8,207.5 
				62.8,207.2 62.5,207.3 			"/>
		</g>
		<g>
			<path fill="#7A909C" d="M60,205.1l-0.3-0.4c-0.1-0.1-0.1-0.3,0-0.4c0.1-0.1,0.3-0.1,0.4,0.1l0.3,0.4c0.1,0.1,0.1,0.3,0,0.4
				S60.1,205.2,60,205.1z M60.3,204.8l-0.3-0.4c-0.1-0.1-0.2-0.1-0.2,0s-0.1,0.2,0,0.3L60,205c0.1,0.1,0.2,0.1,0.2,0
				C60.4,205,60.4,204.9,60.3,204.8z"/>
			<path fill="#7A909C" d="M60.3,203.8L60.3,203.8l0.4,1l-0.1,0.1l-0.4-0.9l-0.3,0.2l-0.1-0.1L60.3,203.8z"/>
			<path fill="#7A909C" d="M60.9,204.6c0,0,0-0.1,0-0.1c0,0,0.1,0,0.1,0c0,0,0,0.1,0,0.1C61,204.6,60.9,204.6,60.9,204.6z"/>
			<path fill="#7A909C" d="M61,204.2l-0.3-0.4c-0.1-0.1-0.1-0.3,0-0.4c0.1-0.1,0.3-0.1,0.4,0.1l0.3,0.4c0.1,0.1,0.1,0.3,0,0.4
				C61.3,204.4,61.1,204.4,61,204.2z M61.3,204l-0.3-0.4c-0.1-0.1-0.2-0.1-0.2,0c-0.1,0.1-0.1,0.2,0,0.3l0.3,0.4
				c0.1,0.1,0.2,0.1,0.2,0C61.4,204.1,61.4,204.1,61.3,204z"/>
			<path fill="#7A909C" d="M61.9,203.4L61.9,203.4c0.1,0.2,0.1,0.3,0,0.4c-0.1,0.1-0.3,0.1-0.4-0.1l0,0c-0.1-0.1-0.1-0.2,0-0.3
				c-0.1,0-0.2,0-0.2-0.1l0,0c-0.1-0.1-0.1-0.3,0-0.4c0.1-0.1,0.3-0.1,0.4,0.1l0,0c0.1,0.1,0.1,0.2,0.1,0.3
				C61.8,203.3,61.8,203.3,61.9,203.4z M61.9,203.5c-0.1-0.1-0.2-0.1-0.3,0c-0.1,0.1-0.1,0.2,0,0.3l0,0c0.1,0.1,0.2,0.1,0.3,0
				C61.9,203.7,61.9,203.6,61.9,203.5L61.9,203.5z M61.3,203.3c0.1,0.1,0.2,0.1,0.2,0.1s0.1-0.2,0-0.3l0,0c-0.1-0.1-0.2-0.1-0.2,0
				C61.2,203.1,61.2,203.2,61.3,203.3L61.3,203.3z"/>
			<path fill="#7A909C" d="M62.2,203.5c0,0,0-0.1,0-0.1c0,0,0.1,0,0.1,0c0,0,0,0.1,0,0.1C62.3,203.6,62.2,203.6,62.2,203.5z"/>
			<path fill="#7A909C" d="M61.9,202.5l0.7,0.8l-0.1,0.1l-0.6-0.7l0,0.2l-0.1-0.1L61.9,202.5L61.9,202.5z"/>
			<path fill="#7A909C" d="M62.9,202.6L62.9,202.6c0.1,0.2,0.1,0.3,0,0.4c-0.1,0.1-0.3,0.1-0.4-0.1l0,0c-0.1-0.1-0.1-0.2,0-0.3
				c-0.1,0-0.2,0-0.2-0.1l0,0c-0.1-0.1-0.1-0.3,0-0.4c0.1-0.1,0.3-0.1,0.4,0.1l0,0c0.1,0.1,0.1,0.2,0.1,0.3
				C62.7,202.5,62.8,202.5,62.9,202.6z M62.8,202.7c-0.1-0.1-0.2-0.1-0.3,0c-0.1,0.1-0.1,0.2,0,0.3l0,0c0.1,0.1,0.2,0.1,0.3,0
				C62.9,202.9,62.9,202.8,62.8,202.7L62.8,202.7z M62.3,202.5c0.1,0.1,0.2,0.1,0.2,0.1c0.1-0.1,0.1-0.2,0-0.3l0,0
				c-0.1-0.1-0.2-0.1-0.2,0C62.2,202.3,62.2,202.4,62.3,202.5L62.3,202.5z"/>
		</g>
		<g>
			<path fill="#7A909C" d="M65.6,200.3L65.6,200.3l-0.4-0.1l0.4-0.7l0.1,0l-0.4,0.7L65.6,200.3z"/>
			<path fill="#7A909C" d="M65.7,200.2l0.1-0.2c0.1-0.1,0.2-0.1,0.3-0.1c0.1,0.1,0.1,0.2,0,0.3l-0.1,0.2c-0.1,0.1-0.2,0.1-0.3,0.1
				C65.7,200.4,65.6,200.3,65.7,200.2z M66,200.4l0.1-0.2c0.1-0.1,0-0.2,0-0.2c-0.1,0-0.1,0-0.2,0.1l-0.1,0.2c-0.1,0.1,0,0.2,0,0.2
				C65.9,200.5,66,200.5,66,200.4z"/>
			<path fill="#7A909C" d="M66.7,200.4L66.7,200.4c-0.1,0-0.1,0-0.1,0c-0.1-0.1-0.2,0-0.2,0.1l-0.2,0.3l-0.1,0l0.4-0.5l0,0l0,0.1
				l0,0C66.5,200.3,66.6,200.3,66.7,200.4C66.7,200.4,66.7,200.4,66.7,200.4z"/>
			<path fill="#7A909C" d="M66.8,201.1c-0.1,0.1-0.2,0.1-0.3,0c-0.1-0.1-0.1-0.2,0-0.3l0.1-0.1c0.1-0.1,0.2-0.1,0.3,0
				c0.1,0.1,0.1,0.2,0,0.3L66.8,201.1l-0.2-0.3l0,0c-0.1,0.1-0.1,0.1,0,0.2C66.6,201.1,66.6,201.1,66.8,201.1L66.8,201.1z
				 M66.7,200.7L66.7,200.7l0.1,0.2l0.1-0.1c0.1-0.1,0.1-0.1,0-0.2C66.8,200.6,66.7,200.6,66.7,200.7z"/>
			<path fill="#7A909C" d="M67.5,201.6l-0.3,0.2l0-0.1L67.5,201.6c0.1-0.1,0.1-0.2,0-0.3c-0.1-0.1-0.1-0.1-0.2,0l-0.3,0.2l0-0.1
				l0.3-0.2c0.1-0.1,0.1-0.1,0.1-0.2c-0.1-0.1-0.1-0.1-0.2,0l-0.3,0.2l0-0.1l0.5-0.4l0,0l-0.1,0.1c0.1,0,0.1,0,0.2,0.1
				c0,0.1,0,0.1,0,0.2c0.1,0,0.1,0,0.2,0.1C67.6,201.4,67.6,201.5,67.5,201.6z"/>
			<path fill="#7A909C" d="M67.9,201.9L67.9,201.9l-0.5,0.4l0-0.1L67.9,201.9z M68.1,201.8C68.1,201.8,68.1,201.8,68.1,201.8
				C68.2,201.8,68.1,201.9,68.1,201.8C68.1,201.9,68.1,201.9,68.1,201.8C68,201.8,68,201.8,68.1,201.8z"/>
			<path fill="#7A909C" d="M68,202.6l-0.2,0.1c-0.1,0.1-0.2,0-0.3-0.1c0-0.1,0-0.1,0-0.2l-0.2,0.1l0-0.1l0.8-0.4l0,0.1l0,0
				c0.1,0,0.1,0,0.1,0.1C68.2,202.4,68.2,202.5,68,202.6z M68,202.5c0.1-0.1,0.1-0.1,0.1-0.2c0-0.1-0.1-0.1-0.2,0l-0.2,0.1
				c-0.1,0-0.1,0.1-0.1,0.2c0,0.1,0.1,0.1,0.2,0L68,202.5z"/>
			<path fill="#7A909C" d="M67.9,202.8L67.9,202.8c-0.1,0.1-0.1,0.2,0,0.2c0,0.1,0.1,0.1,0.1,0.1c0.1-0.1,0-0.3,0.2-0.4
				c0.1,0,0.2,0,0.2,0.1c0,0.1,0,0.2-0.1,0.3l0-0.1c0.1,0,0.1-0.1,0.1-0.2c0-0.1-0.1-0.1-0.1-0.1c-0.1,0.1,0,0.3-0.2,0.4
				c-0.1,0-0.2,0-0.2-0.1C67.7,202.9,67.8,202.8,67.9,202.8z"/>
			<path fill="#7A909C" d="M68.6,203.5l-0.6,0.2l0-0.1l0.1,0c-0.1,0-0.1-0.1-0.1-0.1c0-0.1,0-0.2,0.2-0.2l0.4-0.1l0,0.1l-0.4,0.1
				c-0.1,0-0.2,0.1-0.1,0.2c0,0.1,0.1,0.1,0.2,0.1L68.6,203.5L68.6,203.5z"/>
			<path fill="#7A909C" d="M68.6,204.5l-0.4,0.1l0-0.1L68.6,204.5c0.1-0.1,0.2-0.1,0.1-0.2c0-0.1-0.1-0.1-0.2-0.1l-0.4,0.1l0-0.1
				l0.4-0.1c0.1,0,0.2-0.1,0.2-0.1c0-0.1-0.1-0.1-0.2-0.1l-0.4,0.1l0-0.1l0.6-0.1l0,0.1l-0.1,0c0.1,0,0.1,0.1,0.1,0.1
				c0,0.1,0,0.1-0.1,0.2c0.1,0,0.1,0.1,0.2,0.2C68.8,204.4,68.7,204.5,68.6,204.5z"/>
			<path fill="#7A909C" d="M69.1,205.4l-0.9,0l0-0.1l0.1,0c0,0-0.1-0.1-0.1-0.1c0-0.1,0.1-0.2,0.2-0.2l0.2,0c0.2,0,0.2,0.1,0.2,0.2
				c0,0.1,0,0.1-0.1,0.1L69.1,205.4L69.1,205.4z M68.4,205.3l0.2,0c0.1,0,0.2-0.1,0.2-0.1c0-0.1-0.1-0.1-0.2-0.1l-0.2,0
				c-0.1,0-0.2,0.1-0.2,0.1C68.2,205.2,68.3,205.3,68.4,205.3z"/>
			<path fill="#7A909C" d="M68.4,205.5l0.2,0c0.1,0,0.2,0.1,0.2,0.2c0,0.1-0.1,0.2-0.2,0.2l-0.2,0c-0.1,0-0.2-0.1-0.2-0.2
				C68.2,205.6,68.3,205.5,68.4,205.5z M68.4,205.8l0.2,0c0.1,0,0.2,0,0.2-0.1c0-0.1,0-0.1-0.1-0.2l-0.2,0c-0.1,0-0.2,0-0.2,0.1
				C68.2,205.8,68.3,205.8,68.4,205.8z"/>
			<path fill="#7A909C" d="M69,206.2L69,206.2l-0.9-0.1l0-0.1L69,206.2z"/>
			<path fill="#7A909C" d="M68.3,206.3l0.2,0c0.1,0,0.2,0.1,0.2,0.3c0,0.1-0.1,0.2-0.3,0.2l-0.2,0c-0.1,0-0.2-0.1-0.2-0.3
				C68.1,206.3,68.2,206.3,68.3,206.3z M68.2,206.6l0.2,0c0.1,0,0.2,0,0.2-0.1c0-0.1,0-0.1-0.1-0.2l-0.2,0c-0.1,0-0.2,0-0.2,0.1
				C68.1,206.5,68.1,206.6,68.2,206.6z"/>
			<path fill="#7A909C" d="M68.5,207.3L68.5,207.3C68.4,207.2,68.4,207.2,68.5,207.3c0-0.2-0.1-0.3-0.2-0.3l-0.4-0.1l0-0.1l0.6,0.2
				l0,0.1l-0.1,0l0,0C68.5,207.1,68.5,207.1,68.5,207.3C68.5,207.2,68.5,207.2,68.5,207.3z"/>
			<path fill="#7A909C" d="M67.9,207.4L67.9,207.4c-0.1,0-0.2,0.1-0.2,0.1c0,0.1,0,0.1,0,0.2c0.1,0.1,0.2-0.3,0.4-0.2
				c0.1,0,0.1,0.1,0.1,0.2c0,0.1-0.2,0.1-0.3,0.1l0-0.1c0.1,0,0.1,0,0.2-0.1c0-0.1,0-0.1,0-0.2c-0.1-0.1-0.2,0.3-0.4,0.2
				c-0.1,0-0.1-0.1-0.1-0.3C67.7,207.4,67.8,207.4,67.9,207.4z"/>
			<path fill="#7A909C" d="M68.1,208.1L68.1,208.1l-0.6-0.2l0-0.1L68.1,208.1z M68.3,208.2C68.3,208.2,68.3,208.2,68.3,208.2
				c0,0.1,0,0.1-0.1,0.1C68.2,208.3,68.2,208.2,68.3,208.2C68.2,208.2,68.2,208.2,68.3,208.2z"/>
			<path fill="#7A909C" d="M67.4,208.3L67.4,208.3L67.4,208.3c0-0.2,0.1-0.2,0.2-0.1l0.3,0.2l0-0.1l0.1,0l0,0.1l0.1,0.1l0,0.1
				l-0.1-0.1l-0.1,0.1l-0.1,0l0.1-0.1l-0.3-0.2C67.5,208.2,67.4,208.2,67.4,208.3L67.4,208.3z"/>
			<path fill="#7A909C" d="M67.2,209.1l-0.3-0.3l0,0l0.1,0c0,0,0-0.1,0-0.2c0.1-0.1,0.2-0.1,0.3,0c0.1,0.1,0.1,0.2,0,0.3L67.2,209.1
				L67.2,209.1c0.1,0,0.2,0,0.2-0.1c0-0.1,0-0.1,0-0.2l0-0.1c0.1,0.1,0.1,0.2,0,0.3C67.4,209.2,67.3,209.2,67.2,209.1z M67.1,208.9
				L67.1,208.9l0.2,0c0.1-0.1,0.1-0.1,0-0.2c-0.1-0.1-0.1,0-0.2,0C67,208.8,67,208.8,67.1,208.9z"/>
			<path fill="#7A909C" d="M66.6,209.7l-0.3-0.3l0.1-0.1L66.6,209.7c0.1,0,0.2,0,0.3,0c0.1-0.1,0.1-0.2,0-0.2l-0.3-0.3l0.1-0.1
				l0.3,0.3c0.1,0.1,0.2,0.1,0.2,0c0.1-0.1,0-0.2,0-0.2l-0.3-0.3l0.1-0.1l0.4,0.4l0,0l-0.1-0.1c0,0.1,0,0.1,0,0.2
				c-0.1,0.1-0.1,0.1-0.2,0c0,0.1,0,0.1,0,0.2C66.8,209.9,66.7,209.9,66.6,209.7z"/>
			<path fill="#7A909C" d="M66,209.9c-0.1-0.1-0.1-0.2,0-0.3c0.1-0.1,0.2-0.1,0.3,0.1l0.1,0.2c0.1,0.1,0.1,0.2,0,0.3
				c-0.1,0.1-0.2,0.1-0.3,0L66,209.9l0.3-0.1l0-0.1c-0.1-0.1-0.1-0.1-0.2,0C66,209.8,66,209.8,66,209.9L66,209.9z M66.4,209.9
				L66.4,209.9l-0.3,0.1l0,0.1c0.1,0.1,0.1,0.1,0.2,0C66.5,210.1,66.5,210,66.4,209.9z"/>
			<path fill="#7A909C" d="M65.6,210L65.6,210L65.6,210c0.1-0.1,0.2-0.1,0.3,0l0.2,0.3l0.1-0.1l0,0.1l-0.1,0.1l0.1,0.1l-0.1,0
				l-0.1-0.1l-0.1,0.1l0-0.1l0.1-0.1l-0.2-0.3C65.7,210,65.7,210,65.6,210L65.6,210z"/>
			<path fill="#7A909C" d="M65.5,210.2l-0.1-0.2l0,0L65.5,210.2L65.5,210.2z"/>
			<path fill="#7A909C" d="M65.2,210.4l0.1,0.2c0.1,0.1,0,0.2-0.1,0.3c-0.1,0.1-0.2,0-0.3-0.1l0.1,0c0,0.1,0.1,0.1,0.2,0.1
				c0.1,0,0.1-0.1,0.1-0.2L65.2,210.4c-0.1-0.1-0.2-0.1-0.3-0.1c-0.1,0-0.1,0.1-0.1,0.2l-0.1,0c-0.1-0.1,0-0.2,0.1-0.3
				C65,210.3,65.1,210.3,65.2,210.4z"/>
			<path fill="#7A909C" d="M64.7,210.7l0.1,0.2c0.1,0.1,0,0.2-0.1,0.3c-0.1,0-0.2,0-0.3-0.1l-0.1-0.2c-0.1-0.1,0-0.2,0.1-0.3
				C64.6,210.5,64.7,210.5,64.7,210.7z M64.4,210.8l0.1,0.2c0,0.1,0.1,0.1,0.2,0.1c0.1,0,0.1-0.1,0.1-0.2l-0.1-0.2
				c0-0.1-0.1-0.1-0.2-0.1C64.4,210.6,64.3,210.7,64.4,210.8z"/>
			<path fill="#7A909C" d="M63.8,211.1l-0.1-0.4l0.1,0L63.8,211.1c0.1,0.1,0.1,0.1,0.2,0.1c0.1,0,0.1-0.1,0.1-0.2l-0.1-0.4l0.1,0
				l0.2,0.6l-0.1,0l0-0.1c0,0.1-0.1,0.1-0.1,0.1C64,211.4,63.9,211.3,63.8,211.1z"/>
			<path fill="#7A909C" d="M63.7,211L63.7,211c-0.1-0.1-0.1-0.1-0.2-0.1c-0.1,0-0.1,0.1-0.1,0.1c0,0.2,0.3,0,0.4,0.3
				c0,0.1,0,0.2-0.2,0.2c-0.1,0-0.2,0-0.2-0.2l0.1,0c0,0.1,0.1,0.1,0.1,0.1c0.1,0,0.1-0.1,0.1-0.1c0-0.1-0.3,0-0.4-0.3
				c0-0.1,0-0.2,0.2-0.2C63.5,210.8,63.6,210.8,63.7,211z"/>
			<path fill="#7A909C" d="M62.7,211.1c0-0.1,0.1-0.2,0.2-0.2c0.1,0,0.2,0.1,0.2,0.2l0,0.2c0,0.1-0.1,0.2-0.2,0.2
				c-0.1,0-0.2-0.1-0.2-0.2L62.7,211.1l0.4,0.1l0-0.1c0-0.1-0.1-0.2-0.1-0.1C62.8,210.9,62.8,211,62.7,211.1L62.7,211.1z
				 M63.1,211.3L63.1,211.3l-0.3-0.1l0,0.1c0,0.1,0.1,0.2,0.2,0.1C63.1,211.4,63.1,211.4,63.1,211.3z"/>
			<path fill="#7A909C" d="M62.6,211.1l0,0.2c0,0.1-0.1,0.2-0.2,0.2c-0.1,0-0.2-0.1-0.2-0.2l0.1,0c0,0.1,0,0.2,0.1,0.2
				c0.1,0,0.1,0,0.1-0.2L62.6,211.1c-0.1-0.1-0.1-0.2-0.2-0.2c-0.1,0-0.1,0-0.1,0.2l-0.1,0c0-0.1,0.1-0.2,0.2-0.2
				C62.5,210.9,62.6,210.9,62.6,211.1z"/>
			<path fill="#7A909C" d="M61.8,210.9L61.8,210.9L61.8,210.9c0.2-0.1,0.2,0,0.2,0.1l0,0.4l0.1,0l0,0.1l-0.1,0l0,0.1l-0.1,0l0-0.1
				l-0.1,0l0-0.1l0.1,0l0-0.4C62,211,61.9,210.9,61.8,210.9L61.8,210.9z"/>
			<path fill="#7A909C" d="M61.3,211c0-0.1,0.1-0.2,0.3-0.2c0.1,0,0.2,0.1,0.2,0.3l0,0.2c0,0.1-0.1,0.2-0.2,0.2
				c-0.1,0-0.2-0.1-0.2-0.3L61.3,211l0.3,0.1l0-0.1c0-0.1,0-0.2-0.1-0.2C61.5,210.8,61.4,210.9,61.3,211L61.3,211z M61.6,211.2
				L61.6,211.2l-0.3-0.1l0,0.1c0,0.1,0,0.2,0.1,0.2C61.5,211.4,61.6,211.3,61.6,211.2z"/>
			<path fill="#7A909C" d="M61,210.7L61,210.7L61,210.7c0.2,0,0.2,0.1,0.2,0.2l-0.1,0.4l0.1,0l0,0.1l-0.1,0l0,0.1l-0.1,0l0-0.1
				l-0.1,0l0-0.1l0.1,0l0.1-0.4C61.1,210.8,61.1,210.8,61,210.7L61,210.7z"/>
			<path fill="#7A909C" d="M60.3,211.1l0.2-0.6l0.1,0l0,0.1c0,0,0.1-0.1,0.2,0c0.1,0,0.1,0.1,0.1,0.3l-0.1,0.4l-0.1,0l0.1-0.4
				c0-0.1,0-0.2-0.1-0.2c-0.1,0-0.2,0-0.2,0.1L60.3,211.1L60.3,211.1z"/>
			<path fill="#7A909C" d="M59.9,210.5c0.1-0.1,0.2-0.2,0.3-0.1c0.1,0,0.2,0.2,0.1,0.3l-0.1,0.2c-0.1,0.1-0.2,0.2-0.3,0.1
				c-0.1-0.1-0.2-0.2-0.1-0.3L59.9,210.5l0.3,0.2l0-0.1c0-0.1,0-0.2-0.1-0.2C60.1,210.4,60,210.4,59.9,210.5L59.9,210.5z
				 M60.2,210.8L60.2,210.8l-0.2-0.2l0,0.1c0,0.1,0,0.2,0.1,0.2C60,211,60.1,210.9,60.2,210.8z"/>
			<path fill="#7A909C" d="M59.3,210.7L59.3,210.7c0.1,0,0.1,0,0.1,0c0.1,0,0.2,0,0.2-0.1l0.2-0.3l0.1,0l-0.3,0.6l-0.1,0l0-0.1l0,0
				C59.5,210.7,59.5,210.7,59.3,210.7C59.4,210.7,59.3,210.7,59.3,210.7z"/>
			<path fill="#7A909C" d="M58.8,210.1l0.3-0.4l0.1,0l0,0.1c0,0,0.1,0,0.2,0c0.1,0.1,0.1,0.2,0.1,0.3c-0.1,0.1-0.2,0.1-0.3,0
				L58.8,210.1L58.8,210.1c0,0.1,0,0.2,0.1,0.2c0.1,0,0.1,0,0.2,0l0.1,0c-0.1,0.1-0.2,0.1-0.3,0C58.7,210.3,58.7,210.2,58.8,210.1z
				 M59,209.9l-0.1,0.1l0.1,0.1c0.1,0.1,0.1,0,0.2,0c0-0.1,0-0.1,0-0.2C59.1,209.8,59,209.8,59,209.9z"/>
			<path fill="#7A909C" d="M58,210l0.6-0.7l0,0l0,0.1c0.1,0,0.1,0,0.2,0c0.1,0.1,0.1,0.2,0,0.3l-0.1,0.1c-0.1,0.1-0.2,0.1-0.3,0.1
				c0,0-0.1-0.1-0.1-0.2L58,210L58,210z M58.5,209.6l-0.1,0.1c-0.1,0.1-0.1,0.2,0,0.2c0.1,0.1,0.1,0.1,0.2,0l0.1-0.1
				c0.1-0.1,0.1-0.2,0-0.2C58.7,209.5,58.6,209.5,58.5,209.6z"/>
			<path fill="#7A909C" d="M58,209.8C57.9,209.9,57.9,209.9,58,209.8C57.8,209.8,57.8,209.8,58,209.8
				C57.9,209.7,57.9,209.7,58,209.8C58,209.8,58,209.8,58,209.8z M58.1,209.7L58.1,209.7l0.4-0.5l0.1,0.1L58.1,209.7z"/>
			<path fill="#7A909C" d="M57.8,209l0.1-0.1c0.1-0.1,0.2-0.1,0.3,0c0,0,0.1,0.1,0,0.2l0.2-0.2l0,0.1l-0.6,0.6l0,0l0,0
				c-0.1,0-0.1,0-0.2-0.1C57.6,209.3,57.7,209.2,57.8,209z M57.8,209.1c-0.1,0.1-0.1,0.2,0,0.2c0,0.1,0.1,0.1,0.2,0l0.1-0.1
				c0.1-0.1,0.1-0.2,0-0.2c-0.1-0.1-0.1-0.1-0.2,0L57.8,209.1z"/>
			<path fill="#7A909C" d="M57.4,209.2C57.3,209.2,57.3,209.2,57.4,209.2C57.3,209.1,57.3,209.1,57.4,209.2
				C57.3,209.1,57.4,209.1,57.4,209.2C57.4,209.1,57.4,209.2,57.4,209.2z M57.5,209.1L57.5,209.1l0.5-0.4l0,0.1L57.5,209.1z"/>
			<path fill="#7A909C" d="M57.7,208.6L57.7,208.6c0-0.1,0-0.2,0-0.2c0-0.1-0.1-0.1-0.2,0c-0.1,0.1,0.1,0.3-0.1,0.4
				c-0.1,0.1-0.2,0-0.2-0.1c-0.1-0.1,0-0.2,0.1-0.3l0,0.1c-0.1,0-0.1,0.1,0,0.2c0,0.1,0.1,0.1,0.2,0c0.1-0.1-0.1-0.3,0.1-0.4
				c0.1-0.1,0.2,0,0.3,0.1C57.9,208.5,57.8,208.6,57.7,208.6z"/>
			<path fill="#7A909C" d="M57.4,208.2l-0.2,0.1c-0.1,0.1-0.2,0-0.3-0.1c-0.1-0.1,0-0.2,0.1-0.3l0,0.1c-0.1,0.1-0.1,0.1-0.1,0.2
				c0,0.1,0.1,0.1,0.2,0L57.4,208.2c0.1-0.1,0.1-0.2,0-0.3c0-0.1-0.1-0.1-0.2,0l0-0.1c0.1-0.1,0.2,0,0.3,0.1
				C57.6,208,57.6,208.2,57.4,208.2z"/>
			<path fill="#7A909C" d="M56.6,208C56.6,208.1,56.6,208,56.6,208c-0.1-0.1-0.1-0.1-0.1-0.1C56.6,207.9,56.7,207.9,56.6,208
				C56.7,208,56.7,208,56.6,208z M56.8,207.9L56.8,207.9l0.5-0.3l0,0.1L56.8,207.9z"/>
			<path fill="#7A909C" d="M56.7,207.2l0.4-0.2l0,0.1L56.7,207.2c-0.1,0.1-0.1,0.2-0.1,0.2c0,0.1,0.1,0.1,0.2,0.1l0.4-0.1l0,0.1
				l-0.6,0.2l0-0.1l0.1,0c-0.1,0-0.1,0-0.1-0.1C56.5,207.4,56.6,207.3,56.7,207.2z"/>
			<path fill="#7A909C" d="M56.4,206.8l0.7-0.2c0.1,0,0.2,0,0.2,0.1c0,0.1,0,0.2-0.1,0.2l0-0.1c0.1,0,0.1-0.1,0.1-0.2
				c0-0.1-0.1-0.1-0.2-0.1l-0.1,0c0,0,0.1,0.1,0.1,0.1c0,0.1,0,0.2-0.2,0.3l-0.2,0c-0.2,0-0.3,0-0.3-0.1
				C56.4,206.9,56.4,206.9,56.4,206.8L56.4,206.8L56.4,206.8z M56.7,206.7l-0.2,0c-0.1,0-0.1,0.1-0.1,0.2c0,0.1,0.1,0.1,0.2,0.1
				l0.2,0c0.1,0,0.1-0.1,0.1-0.2C56.9,206.7,56.9,206.7,56.7,206.7z"/>
		</g>
	</g>
	<g opacity="0.5">
		<g>
			<path fill="#F98794" d="M146,182.9c0.8,0.3,1.3,0.9,1,1.8c-0.3,0.9-1.1,1.2-1.9,0.9l-0.6-0.2l-0.5,1.6l-1-0.3l1.4-4.2L146,182.9z
				 M145.1,184.7c0.4,0.1,0.8,0.1,0.9-0.3c0.1-0.4-0.2-0.7-0.6-0.8l-0.3-0.1l-0.4,1.1L145.1,184.7z"/>
			<path fill="#F98794" d="M149.4,184c0.8,0.3,1.2,0.9,1,1.7c-0.2,0.6-0.7,1-1.3,1l0.9,2.2l-1.2-0.4l-0.8-2.1l-0.5,1.7l-1-0.3
				l1.4-4.2L149.4,184z M148.4,185.8c0.4,0.1,0.8,0.2,1-0.3c0.2-0.5-0.3-0.7-0.6-0.8l-0.1,0l-0.4,1.1L148.4,185.8z"/>
			<path fill="#F98794" d="M151.2,189.3l-1-0.3l1.4-4.2l1,0.3L151.2,189.3z"/>
			<path fill="#F98794" d="M155.2,185.8c1.2,0.4,1.8,1.6,1.4,2.9c-0.4,1.2-1.6,1.9-2.8,1.5c-1.3-0.4-1.8-1.7-1.4-2.9
				C152.7,186,154,185.4,155.2,185.8z M154.1,189.2c0.8,0.2,1.3-0.3,1.5-0.9c0.2-0.6,0.1-1.4-0.7-1.6c-0.7-0.2-1.3,0.3-1.5,0.9
				C153.2,188.3,153.3,189,154.1,189.2z"/>
			<path fill="#F98794" d="M159.2,187.2c0.8,0.3,1.2,0.9,1,1.7c-0.2,0.6-0.7,1-1.3,1l0.9,2.2l-1.2-0.4l-0.8-2.1l-0.5,1.7l-1-0.3
				l1.4-4.2L159.2,187.2z M158.2,188.9c0.4,0.1,0.8,0.2,1-0.3c0.2-0.5-0.3-0.7-0.6-0.8l-0.1,0l-0.4,1.1L158.2,188.9z"/>
			<path fill="#F98794" d="M161,192.4l-1-0.3l1.4-4.2l1,0.3L161,192.4z"/>
			<path fill="#F98794" d="M162.5,188.2l3,1l-0.3,0.8l-1-0.3l-1.1,3.4l-1-0.3l1.1-3.4l-1-0.3L162.5,188.2z"/>
			<path fill="#F98794" d="M166.5,189.5l0.4,1.6l1.3-1.1l1.2,0.4l-2.3,1.8l-0.6,1.9l-1-0.3l0.6-1.9l-0.8-2.8L166.5,189.5z"/>
		</g>
		<g>
			<path fill="#F98794" d="M156.8,193.6l-7.5-2.4c-0.2-0.1-0.3-0.3-0.2-0.5c0.1-0.2,0.3-0.3,0.5-0.2l7.5,2.4
				c0.2,0.1,0.3,0.3,0.2,0.5C157.2,193.5,157,193.7,156.8,193.6z"/>
		</g>
		<g>
			<path fill="#F98794" d="M169,197.5l-10.1-3.3c-0.2-0.1-0.3-0.3-0.2-0.5c0.1-0.2,0.3-0.3,0.5-0.2l10.1,3.3
				c0.7,0.2,1.5-0.2,1.7-0.9l1.2-3.7c0.1-0.2,0.3-0.3,0.5-0.2c0.2,0.1,0.3,0.3,0.2,0.5l-1.2,3.7C171.3,197.3,170.1,197.9,169,197.5z
				"/>
		</g>
		<g>
			<path fill="#F98794" d="M172.8,190.8c-0.1,0-0.2-0.2-0.3-0.3c-0.1-0.5-0.4-0.9-0.9-1.1l-7.1-2.3c-0.2-0.1-0.3-0.3-0.2-0.5
				c0.1-0.2,0.3-0.3,0.5-0.2l7.1,2.3c0.8,0.2,1.3,0.9,1.5,1.7c0,0.2-0.1,0.4-0.3,0.4C172.9,190.8,172.8,190.8,172.8,190.8z"/>
		</g>
		<g>
			<path fill="#F98794" d="M145.8,190.1l-5.1-1.6c-1.1-0.4-1.7-1.6-1.4-2.7l1.5-4.7c0.4-1.1,1.6-1.7,2.7-1.4l19,6.1
				c0.2,0.1,0.3,0.3,0.2,0.5c-0.1,0.2-0.3,0.3-0.5,0.2l-19-6.1c-0.7-0.2-1.5,0.2-1.7,0.9l-1.5,4.7c-0.2,0.7,0.2,1.5,0.9,1.7l5.1,1.6
				c0.2,0.1,0.3,0.3,0.2,0.5C146.2,190,146,190.1,145.8,190.1z"/>
		</g>
	</g>
</g>
</svg>
