<?xml version="1.0" encoding="utf-8"?>
<svg version="1.1" xmlns="http://www.w3.org/2000/svg" xmlns:xlink="http://www.w3.org/1999/xlink" x="0px" y="0px"
	 viewBox="-291 414.89 12 12" enable-background="new -291 414.89 12 12" xml:space="preserve">
<path class="icon-search" d="M-279.187,425.82l-2.958-2.971c0.761-0.872,1.177-1.971,1.177-3.114
	c0-2.672-2.25-4.845-5.016-4.845c-2.767,0-5.017,2.173-5.017,4.845c0,2.671,2.25,4.845,5.017,4.845c1.038,0,2.028-0.303,2.874-0.877
	l2.979,2.993c0.125,0.125,0.293,0.194,0.472,0.194c0.17,0,0.331-0.063,0.453-0.177C-278.946,426.472-278.937,426.071-279.187,425.82
	z M-285.984,416.154c2.044,0,3.708,1.606,3.708,3.581c0,1.974-1.664,3.581-3.708,3.581c-2.045,0-3.709-1.607-3.709-3.581
	C-289.693,417.76-288.029,416.154-285.984,416.154z"/>
</svg>
