<svg xmlns="http://www.w3.org/2000/svg" xmlns:xlink="http://www.w3.org/1999/xlink" width="20" height="20" viewBox="0 0 20 20">
  <defs>
    <style>

      .social-button-instagram {
        fill: #ffffff;
      }
    </style>
  </defs>
  <path d="M14.480,20.000 C14.480,20.000 5.519,20.000 5.519,20.000 C2.476,20.000 -0.000,17.524 -0.000,14.480 C-0.000,14.480 -0.000,5.519 -0.000,5.519 C-0.000,2.476 2.476,-0.000 5.519,-0.000 C5.519,-0.000 14.480,-0.000 14.480,-0.000 C17.524,-0.000 20.000,2.476 20.000,5.519 C20.000,5.519 20.000,14.480 20.000,14.480 C20.000,17.524 17.524,20.000 14.480,20.000 ZM18.225,14.480 C18.225,14.480 18.225,5.519 18.225,5.519 C18.225,3.454 16.545,1.774 14.480,1.774 C14.480,1.774 5.519,1.774 5.519,1.774 C3.454,1.774 1.774,3.454 1.774,5.519 C1.774,5.519 1.774,14.480 1.774,14.480 C1.774,16.545 3.454,18.225 5.519,18.225 C5.519,18.225 14.481,18.225 14.481,18.225 C16.546,18.225 18.226,16.545 18.226,14.480 C18.226,14.480 18.225,14.480 18.225,14.480 ZM15.370,5.944 C15.028,5.944 14.692,5.805 14.450,5.564 C14.208,5.321 14.068,4.985 14.068,4.643 C14.068,4.300 14.208,3.964 14.450,3.723 C14.692,3.480 15.028,3.342 15.370,3.342 C15.713,3.342 16.049,3.480 16.290,3.723 C16.532,3.964 16.671,4.300 16.671,4.643 C16.671,4.985 16.532,5.321 16.290,5.564 C16.047,5.805 15.713,5.944 15.370,5.944 ZM10.000,15.153 C7.158,15.153 4.846,12.841 4.846,10.000 C4.846,7.158 7.158,4.847 10.000,4.847 C12.842,4.847 15.153,7.158 15.153,10.000 C15.153,12.841 12.842,15.153 10.000,15.153 ZM10.000,6.621 C8.137,6.621 6.621,8.136 6.621,10.000 C6.621,11.863 8.137,13.378 10.000,13.378 C11.863,13.378 13.379,11.863 13.379,10.000 C13.379,8.136 11.863,6.621 10.000,6.621 Z" class="social-button-instagram" fill-rule="evenodd"/>
</svg>
