<svg xmlns="http://www.w3.org/2000/svg" xmlns:xlink="http://www.w3.org/1999/xlink" width="20" height="12" viewBox="0 0 20 12">
  <defs>
    <style>

      .social-button-vk {
        fill: #ffffff;
      }
    </style>
  </defs>
  <path d="M17.213,7.642 C17.877,8.330 18.577,8.977 19.172,9.734 C19.435,10.071 19.684,10.418 19.874,10.808 C20.144,11.364 19.899,11.975 19.431,12.007 C19.431,12.007 16.517,12.006 16.517,12.006 C15.765,12.072 15.166,11.751 14.662,11.205 C14.258,10.769 13.885,10.305 13.497,9.853 C13.338,9.669 13.171,9.496 12.973,9.359 C12.575,9.085 12.230,9.169 12.002,9.609 C11.771,10.057 11.718,10.553 11.696,11.053 C11.664,11.781 11.457,11.973 10.768,12.006 C9.295,12.080 7.897,11.843 6.598,11.054 C5.454,10.359 4.566,9.377 3.793,8.265 C2.289,6.100 1.137,3.721 0.101,1.276 C-0.132,0.725 0.038,0.430 0.611,0.419 C1.561,0.399 2.512,0.401 3.463,0.418 C3.850,0.424 4.105,0.659 4.255,1.047 C4.769,2.390 5.398,3.667 6.188,4.851 C6.398,5.166 6.613,5.482 6.918,5.704 C7.256,5.949 7.514,5.868 7.672,5.468 C7.773,5.215 7.817,4.942 7.840,4.670 C7.916,3.736 7.925,2.804 7.793,1.873 C7.712,1.293 7.404,0.917 6.858,0.807 C6.580,0.751 6.621,0.641 6.756,0.472 C6.991,0.181 7.211,-0.000 7.650,-0.000 C7.650,-0.000 10.943,-0.000 10.943,-0.000 C11.461,0.108 11.576,0.356 11.647,0.909 C11.647,0.909 11.650,4.794 11.650,4.794 C11.644,5.008 11.751,5.645 12.115,5.786 C12.406,5.887 12.598,5.640 12.772,5.444 C13.561,4.556 14.124,3.506 14.626,2.418 C14.849,1.940 15.041,1.443 15.227,0.947 C15.365,0.579 15.581,0.398 15.971,0.406 C15.971,0.406 19.141,0.409 19.141,0.409 C19.235,0.409 19.330,0.411 19.421,0.427 C19.955,0.524 20.101,0.767 19.936,1.321 C19.676,2.190 19.171,2.914 18.676,3.642 C18.148,4.418 17.582,5.168 17.058,5.949 C16.577,6.663 16.615,7.022 17.213,7.642 C17.213,7.642 17.213,7.642 17.213,7.642 Z" class="social-button-vk" fill-rule="evenodd"/>
</svg>
