<?xml version="1.0" encoding="utf-8"?>
<svg version="1.1" xmlns="http://www.w3.org/2000/svg" xmlns:xlink="http://www.w3.org/1999/xlink" x="0px" y="0px"
	 viewBox="-274 395.89 46 50" enable-background="new -274 395.89 46 50" xml:space="preserve">
<path fill="#3B3B3B" d="M-232.093,445.889l-37.814,0.001c-2.257,0-4.093-1.84-4.093-4.102v-30.03
	c0-0.027,0.002-0.054,0.004-0.081c-0.002-0.054-0.004-0.108-0.004-0.162c0-2.262,1.836-4.102,4.093-4.102h6.449
	c0.538,0,0.975,0.437,0.975,0.977c0,0.539-0.437,0.976-0.975,0.976h-6.449c-1.182,0-2.144,0.964-2.144,2.149
	c0,1.184,0.962,2.148,2.144,2.148h16.227v-2.978c0-0.54,0.436-0.977,0.974-0.977c0.539,0,0.975,0.437,0.975,0.977v2.978h14.375
	c2.257,0,4.093,1.84,4.093,4.102v7.209h1.004c1.274,0,2.31-1.038,2.31-2.315v-11.144c0-1.185-0.962-2.149-2.144-2.149h-5.701
	c-0.539,0-0.975-0.437-0.975-0.976c0-0.54,0.436-0.977,0.975-0.977h5.701c2.257,0,4.093,1.84,4.093,4.102v30.272
	C-228,444.049-229.836,445.889-232.093,445.889z M-235.212,417.765c0-1.185-0.962-2.149-2.144-2.149h-32.551
	c-0.786,0-1.52-0.223-2.144-0.609v26.781c0,1.185,0.962,2.149,2.144,2.149h32.528c0.008,0,0.015-0.002,0.023-0.002h0.045
	c1.161-0.024,2.099-0.977,2.099-2.147v-4.705h-8.771c-3.332,0-6.042-2.715-6.042-6.054c0-3.339,2.71-6.055,6.042-6.055h8.771
	V417.765z M-229.949,426.242c-0.666,0.433-1.459,0.685-2.31,0.685h-11.724c-2.257,0-4.093,1.84-4.093,4.102
	c0,2.261,1.836,4.102,4.093,4.102h11.305c1.505,0,2.729-1.227,2.729-2.735V426.242z M-229.949,436.2
	c-0.769,0.555-1.711,0.883-2.729,0.883h-0.585v4.705c0,0.787-0.222,1.523-0.607,2.148h1.777c1.182,0,2.144-0.964,2.144-2.149V436.2z
	 M-243.392,432.127c-0.256,0-0.506-0.103-0.689-0.286c-0.181-0.181-0.284-0.433-0.284-0.69s0.103-0.509,0.284-0.691
	c0.183-0.182,0.433-0.286,0.689-0.286c0.258,0,0.508,0.105,0.691,0.286c0.181,0.182,0.285,0.434,0.285,0.691
	s-0.104,0.509-0.285,0.69C-242.884,432.024-243.134,432.127-243.392,432.127z M-267.535,431.274c-0.539,0-0.975-0.437-0.975-0.977
	v-8.04c0-0.539,0.436-0.976,0.975-0.976c0.538,0,0.974,0.437,0.974,0.976v8.04C-266.561,430.837-266.997,431.274-267.535,431.274z
	 M-267.536,432.691c0.258,0,0.508,0.104,0.689,0.286c0.183,0.182,0.286,0.433,0.286,0.69c0,0.257-0.103,0.509-0.286,0.691
	c-0.181,0.181-0.431,0.286-0.689,0.286c-0.256,0-0.507-0.105-0.689-0.286c-0.181-0.182-0.285-0.434-0.285-0.691
	c0-0.257,0.104-0.508,0.285-0.69C-268.043,432.795-267.792,432.691-267.536,432.691z M-238.655,399.47h-0.553v0.554
	c0,0.539-0.436,0.977-0.974,0.977c-0.539,0-0.975-0.438-0.975-0.977v-0.554h-0.553c-0.538,0-0.974-0.437-0.974-0.977
	c0-0.539,0.436-0.976,0.974-0.976h0.553v-0.554c0-0.54,0.436-0.977,0.975-0.977c0.538,0,0.974,0.437,0.974,0.977v0.554h0.553
	c0.539,0,0.975,0.437,0.975,0.976C-237.68,399.033-238.116,399.47-238.655,399.47z M-241.256,406.842
	c0,2.53-2.054,4.589-4.579,4.589c-2.525,0-4.579-2.059-4.579-4.589s2.054-4.588,4.579-4.588
	C-243.31,402.254-241.256,404.312-241.256,406.842z M-245.835,404.207c-1.45,0-2.63,1.182-2.63,2.635s1.18,2.636,2.63,2.636
	c1.45,0,2.63-1.183,2.63-2.636S-244.385,404.207-245.835,404.207z M-257.465,406.412v3.956c0,0.539-0.436,0.976-0.974,0.976
	c-0.539,0-0.975-0.437-0.975-0.976v-3.956c0-0.539,0.436-0.976,0.975-0.976C-257.901,405.436-257.465,405.873-257.465,406.412z
	 M-255.288,405.067c-2.525,0-4.579-2.059-4.579-4.589s2.054-4.588,4.579-4.588s4.579,2.058,4.579,4.588
	S-252.763,405.067-255.288,405.067z M-255.288,397.843c-1.45,0-2.63,1.182-2.63,2.635s1.18,2.635,2.63,2.635
	c1.45,0,2.63-1.182,2.63-2.635S-253.838,397.843-255.288,397.843z"/>
</svg>
