<?xml version="1.0" encoding="utf-8"?>
<svg version="1.1" xmlns="http://www.w3.org/2000/svg" xmlns:xlink="http://www.w3.org/1999/xlink" x="0px" y="0px"
	 viewBox="0 0 486.31 458.97" enable-background="new 0 0 486.31 458.97" xml:space="preserve">
<g>
	<g>
		<path fill="#3B3B3B" d="M212.934,425.866C95.521,425.866,0,330.345,0,212.934C0,95.521,95.521,0,212.934,0
			c49.349,0,97.452,17.27,135.448,48.627c37.488,30.938,63.47,74.052,73.158,121.4c0.83,4.059-1.786,8.021-5.844,8.852
			c-4.068,0.826-8.021-1.786-8.852-5.844c-9.004-44.002-33.157-84.076-68.011-112.84C303.52,31.051,258.807,15,212.934,15
			C103.793,15,15,103.793,15,212.934s88.793,197.933,197.934,197.933c20.077,0,39.881-2.994,58.861-8.898
			c3.954-1.235,8.159,0.979,9.389,4.934c1.23,3.955-0.978,8.159-4.934,9.389C255.826,422.645,234.523,425.866,212.934,425.866z"/>
		<path fill="#3B3B3B" d="M212.934,425.866c-34.386,0-66.393-22.703-90.126-63.928c-22.982-39.922-35.64-92.839-35.64-149.005
			s12.657-109.084,35.64-149.006C146.54,22.703,178.547,0,212.934,0c29.681,0,58.395,17.533,80.852,49.369
			c21.418,30.361,36.396,72.6,42.174,118.936c0.513,4.11-2.404,7.857-6.515,8.37c-4.104,0.507-7.856-2.403-8.37-6.515
			C309.862,80.255,264.382,15,212.934,15c-28.794,0-56.185,20.034-77.127,56.412c-21.692,37.681-33.639,87.94-33.639,141.521
			c0,53.58,11.946,103.84,33.639,141.521c20.942,36.378,48.333,56.412,77.127,56.412c4.143,0,7.5,3.357,7.5,7.5
			C220.434,422.509,217.076,425.866,212.934,425.866z"/>
		<path fill="#3B3B3B" d="M212.934,122.322c-59.568,0-116.732-14.722-156.834-40.392c-3.489-2.233-4.507-6.871-2.273-10.359
			c2.233-3.489,6.871-4.507,10.359-2.273c37.753,24.165,91.969,38.025,148.748,38.025c56.778,0,110.994-13.859,148.747-38.025
			c3.488-2.232,8.126-1.216,10.359,2.273c2.233,3.488,1.216,8.127-2.273,10.359C329.665,107.601,272.502,122.322,212.934,122.322z"
			/>
		<path fill="#3B3B3B" d="M49.345,344.702c-2.27,0-4.512-1.025-5.986-2.975c-2.5-3.303-1.848-8.007,1.455-10.506
			c40.518-30.659,101.795-48.242,168.12-48.242c9.387,0,18.835,0.361,28.083,1.074c4.13,0.318,7.22,3.924,6.901,8.054
			c-0.318,4.13-3.923,7.217-8.054,6.901c-8.866-0.683-17.927-1.029-26.931-1.029c-63.125,0-121.103,16.476-159.069,45.203
			C52.511,344.207,50.921,344.702,49.345,344.702z"/>
		<path fill="#3B3B3B" d="M212.934,425.866c-4.143,0-7.5-3.357-7.5-7.5V7.5c0-4.143,3.357-7.5,7.5-7.5c4.143,0,7.5,3.357,7.5,7.5
			v410.866C220.434,422.509,217.076,425.866,212.934,425.866z"/>
		<path fill="#3B3B3B" d="M240.521,220.434H7.5c-4.143,0-7.5-3.357-7.5-7.5c0-4.143,3.357-7.5,7.5-7.5h233.021
			c4.143,0,7.5,3.357,7.5,7.5C248.021,217.076,244.664,220.434,240.521,220.434z"/>
	</g>
	<g>
		<path fill="#3B3B3B" d="M377.88,458.97c-1.221,0-2.44-0.298-3.548-0.893c-39.859-21.404-67.188-40.292-83.549-57.741
			c-14.648-15.624-21.471-30.916-21.471-48.124c0-16.263,0.138-127.199,0.139-128.318c0.005-4.138,3.361-7.49,7.5-7.49
			c59.605,0,95.204-35.835,95.557-36.197c1.411-1.449,3.349-2.267,5.372-2.267c2.023,0,3.961,0.817,5.372,2.267
			c0.345,0.351,36.251,36.197,95.558,36.197c1.993,0,3.903,0.793,5.31,2.204c1.407,1.411,2.195,3.324,2.19,5.317
			c-0.003,1.081-0.309,108.338-0.309,128.287c0,16.743-7.45,32.757-22.777,48.958c-16.803,17.759-43.559,36.374-81.796,56.907
			C380.32,458.672,379.1,458.97,377.88,458.97z M284.442,231.233c-0.031,25.153-0.13,107.181-0.13,120.979
			c0,34.756,44.504,64.15,93.564,90.734c83.38-45.403,93.125-73.487,93.125-90.734c0-16.894,0.219-96.271,0.288-120.98
			c-48.515-2.214-81.144-25.334-93.409-35.67C365.611,205.9,332.976,229.029,284.442,231.233z"/>
		<path fill="#3B3B3B" d="M348.307,365.569c-2.048,0-4.006-0.837-5.421-2.316l-25.067-26.217c-2.862-2.994-2.756-7.742,0.237-10.604
			c2.993-2.861,7.74-2.756,10.604,0.237l19.647,20.548l84.163-88.022c2.864-2.992,7.611-3.101,10.604-0.237
			c2.993,2.862,3.1,7.61,0.237,10.604l-89.584,93.691C352.313,364.732,350.354,365.569,348.307,365.569z"/>
	</g>
</g>
</svg>
