<svg version="1.1" xmlns="http://www.w3.org/2000/svg" xmlns:xlink="http://www.w3.org/1999/xlink" x="0px" y="0px" viewBox="0 0 162.1 161.4"
	 enable-background="new 0 0 162.1 161.4" xml:space="preserve">
<g>
	<g>
		<g>
			<g>
				<path fill="none" stroke="#292E34" stroke-width="2" d="M117,34.4c5.3,0,9.5,4.2,9.5,9.4v11.3h-11.1"/>
				<path fill="none" stroke="#292E34" stroke-width="2" d="M18.6,138.4V43.9c0-4.8,3.7-8.8,8.4-9.4c2.6,0,84.6,0,88.8,0
					c-4.7,0.5-8.4,4.5-8.4,9.4v105.6h0l0,1.6c0,4.9-3.7,8.8-8.5,9.4c-2.6,0-84.6,0-88.8,0"/>
				<path fill="none" stroke="#292E34" stroke-width="2" d="M89.8,146.3v4.7c0,4.9,3.7,8.8,8.4,9.4c-4.2,0-86.2,0-88.8,0
					c-4.7-0.5-8.4-4.5-8.4-9.4v-4.7H89.8z"/>
				<path fill="none" stroke="#292E34" stroke-width="2" d="M107.4,43.9c0-5.2,4.3-9.4,9.5-9.4c5.3,0,9.5,4.2,9.5,9.4v11.7"/>
				<path fill="none" stroke="#292E34" stroke-width="2" d="M89.8,145.4v5.6c0,4.9,4.3,9.4,9,9.4"/>
			</g>
		</g>
	</g>
	<g>
		<polyline fill="none" stroke="#292E34" stroke-width="2" points="88,120.4 88,134.7 81.3,130.1 74.5,134.7 74.5,120.4"/>
		<g>
			<path fill="none" stroke="#292E34" stroke-width="2" d="M90.5,114c0,5.1-4.2,9.2-9.3,9.2c-5.1,0-9.3-4.1-9.3-9.2
				c0-5.1,4.2-9.2,9.3-9.2C86.4,104.8,90.5,109,90.5,114z"/>
		</g>
		<line fill="none" stroke="#292E34" stroke-width="2" x1="81.3" y1="111.7" x2="81.3" y2="117"/>
	</g>
	<g>
		<line fill="none" stroke="#292E34" stroke-width="2" x1="43.9" y1="53.6" x2="78.3" y2="53.6"/>
		<line fill="none" stroke="#292E34" stroke-width="2" x1="32.2" y1="66.8" x2="90" y2="66.8"/>
		<line fill="none" stroke="#292E34" stroke-width="2" x1="32.2" y1="79.8" x2="90" y2="79.8"/>
		<line fill="none" stroke="#292E34" stroke-width="2" x1="32.2" y1="92.9" x2="90" y2="92.9"/>
		<line fill="none" stroke="#292E34" stroke-width="2" x1="32.2" y1="105.9" x2="66.6" y2="105.9"/>
		<line fill="none" stroke="#292E34" stroke-width="2" x1="32.2" y1="119" x2="55" y2="119"/>
	</g>
</g>
<path fill="none" stroke="#292E34" stroke-width="2" stroke-dasharray="2" d="M109.7,125.8c12-2.3,23.5-8.1,32.8-17.3
	c24.8-24.6,24.8-64.5,0-89.1c-24.8-24.6-65.1-24.6-89.9,0C48,24,44.3,29.1,41.4,34.5"/>
</svg>
