<?xml version="1.0" encoding="utf-8"?>
<!-- Generator: Adobe Illustrator 19.0.1, SVG Export Plug-In . SVG Version: 6.00 Build 0)  -->
<svg version="1.1" id="Режим_изоляции"
	 xmlns="http://www.w3.org/2000/svg" xmlns:xlink="http://www.w3.org/1999/xlink" x="0px" y="0px" viewBox="0 0 92.9 93.8"
	 enable-background="new 0 0 92.9 93.8" xml:space="preserve">
<g id="Слой_1">
	<g>
		<g>
			<defs>
				<rect id="SVGID_1_" width="92.9" height="93.8"/>
			</defs>
			<clipPath id="SVGID_2_">
				<use xlink:href="#SVGID_1_"  overflow="visible"/>
			</clipPath>
			<path clip-path="url(#SVGID_2_)" fill="#1285C7" d="M27.2,43.7c-1.3-1.3-3.4-1.3-4.6,0c-1.3,1.3-1.3,3.4,0,4.6l15.1,15.1
				c0.6,0.6,1.4,1,2.3,1h0.2c0.9-0.1,1.8-0.5,2.4-1.2l37.8-45.4c1.1-1.4,1-3.4-0.4-4.6c-1.4-1.1-3.4-1-4.6,0.4L39.8,56.2L27.2,43.7z
				 M27.2,43.7"/>
			<path clip-path="url(#SVGID_2_)" fill="#5A5A5A" d="M70.9,7c-18.4-11.5-42-8.8-57.4,6.6c-18.1,18.1-18.1,47.6,0,65.7
				c9,9,21,13.6,32.8,13.6c11.8,0,23.8-4.6,32.8-13.6c15.4-15.4,18.1-39.1,6.5-57.5c-1-1.5-3-2-4.5-1c-1.5,1-2,3-1,4.5
				c10,15.8,7.7,36.2-5.6,49.4c-15.5,15.5-40.9,15.5-56.4,0c-15.5-15.5-15.5-40.9,0-56.4C31.4,5,51.6,2.7,67.5,12.6
				c1.5,1,3.5,0.5,4.5-1C72.9,10,72.4,8,70.9,7L70.9,7z M70.9,7"/>
		</g>
	</g>
</g>
</svg>
