<svg version="1.1" xmlns="http://www.w3.org/2000/svg" xmlns:xlink="http://www.w3.org/1999/xlink" x="0px" y="0px"
	 viewBox="-289 413.9 16 14" enable-background="new -289 413.9 16 14" xml:space="preserve">
<path d="M-273.4,420.2c0.3-0.3,0.4-0.7,0.3-1.1c-0.1-0.4-0.5-0.7-0.9-0.7l-3.9-0.5
	c-0.2,0-0.3-0.1-0.4-0.3l-1.7-3.2c-0.2-0.4-0.6-0.6-1-0.6c-0.4,0-0.8,0.2-1,0.6l-1.7,3.2c-0.1,0.1-0.2,0.2-0.4,0.3l-3.9,0.5
	c-0.4,0.1-0.8,0.3-0.9,0.7c-0.1,0.4,0,0.8,0.3,1.1l2.8,2.5c0.1,0.1,0.2,0.3,0.1,0.4l-0.7,3.5c-0.1,0.3,0,0.6,0.2,0.9
	c0.3,0.4,0.9,0.5,1.4,0.3l3.5-1.7c0.1-0.1,0.3-0.1,0.5,0l3.5,1.7c0.2,0.1,0.3,0.1,0.5,0.1c0.3,0,0.7-0.1,0.9-0.4
	c0.2-0.2,0.3-0.5,0.3-0.9l-0.7-3.5c0-0.1,0-0.3,0.1-0.4L-273.4,420.2z"/>
</svg>
