<?xml version="1.0" encoding="utf-8"?>
<svg version="1.1" xmlns="http://www.w3.org/2000/svg" xmlns:xlink="http://www.w3.org/1999/xlink" x="0px" y="0px" viewBox="0 0 380.828 445.001"
	 enable-background="new 0 0 380.828 445.001" xml:space="preserve">
<path class="icon-bag" stroke-miterlimit="10" d="M370.332,110.149h-61.176V83.36
	c0.039-26.418-12.543-51.269-33.864-66.879C253.976,0.876,226.484-3.616,201.308,4.399c-25.176-8.015-52.668-3.523-73.988,12.082
	c-21.317,15.61-33.899,40.461-33.863,66.879v26.789H75.261c-0.199,0-0.398,0.102-0.597,0.102c-0.102,0-0.301,0.098-0.403,0.098
	c-0.199,0-0.297,0.101-0.5,0.101c-0.199,0-0.297,0.102-0.496,0.102c-0.148,0.023-0.289,0.094-0.398,0.199
	c-0.2,0.098-0.301,0.098-0.5,0.199c-0.102,0.102-0.2,0.102-0.399,0.199c-0.179,0.079-0.347,0.18-0.5,0.301
	c-0.101,0-0.101,0.102-0.203,0.102l-12.293,7.394c-9.555,5.801-21.535,5.801-31.086,0l-12.195-7.394
	c-3.074-1.891-6.934-1.969-10.086-0.207c-3.152,1.765-5.105,5.094-5.105,8.703v274.476c0.007,27.594,22.374,49.969,49.976,49.977
	h279.875c27.598-0.008,49.965-22.383,49.977-49.977V120.146C380.312,114.634,375.847,110.165,370.332,110.149L370.332,110.149z
	 M289.167,83.36v26.789h-29.988V83.36c0.02-24.14-10.539-47.078-28.887-62.765C263.402,22.716,289.167,50.189,289.167,83.36
	L289.167,83.36z M163.324,110.149V83.36c0.019-25.074,14.89-47.754,37.883-57.769c23.007,9.992,37.89,32.687,37.882,57.769v26.789
	H163.324z M113.347,83.36c0.035-33.16,25.781-60.613,58.871-62.765c-18.308,15.718-28.859,38.636-28.886,62.765v26.789h-29.985
	V83.36z M20.492,394.626V137.739c14.406,7.496,31.566,7.496,45.976,0v256.887c-0.011,10.813,3.496,21.34,9.996,29.984H50.476
	C33.933,424.56,20.539,411.165,20.492,394.626L20.492,394.626z M360.335,394.626c-0.05,16.539-13.445,29.934-29.984,29.984H116.449
	c-16.547-0.05-29.942-13.445-29.989-29.984V130.142h15.29c0.558,0.121,1.128,0.191,1.703,0.199c0.57-0.016,1.14-0.082,1.699-0.199
	h38.281v71.168c0,5.519,4.477,9.996,9.996,9.996c5.52,0,9.996-4.477,9.996-9.996v-71.168h84.16c0.559,0.121,1.129,0.191,1.7,0.199
	c0.57-0.016,1.14-0.082,1.699-0.199h38.285v71.168c0,5.519,4.473,9.996,9.992,9.996c5.524,0,9.996-4.477,9.996-9.996v-71.168h51.078
	V394.626z M360.335,394.626"/>
</svg>
