<?xml version="1.0" encoding="utf-8"?>
<svg version="1.1" xmlns="http://www.w3.org/2000/svg" xmlns:xlink="http://www.w3.org/1999/xlink" x="0px" y="0px"
	 viewBox="-292 418.89 10 5" enable-background="new -292 418.89 10 5" xml:space="preserve">
<path class="icon-arrow" d="M-291.9,419.406l0.501-0.429c0.067-0.058,0.144-0.086,0.231-0.086c0.086,0,0.163,0.028,0.23,0.086l3.938,3.375
	l3.938-3.375c0.067-0.058,0.143-0.086,0.23-0.086s0.164,0.028,0.231,0.086l0.501,0.429c0.066,0.057,0.1,0.123,0.1,0.198
	c0,0.074-0.034,0.14-0.1,0.197l-4.67,4.002c-0.066,0.057-0.143,0.086-0.23,0.086s-0.164-0.029-0.23-0.086l-4.67-4.002
	c-0.067-0.057-0.1-0.123-0.1-0.197C-292,419.529-291.967,419.463-291.9,419.406z"/>
</svg>
