<?xml version="1.0" encoding="utf-8"?>
<svg version="1.1" xmlns="http://www.w3.org/2000/svg" xmlns:xlink="http://www.w3.org/1999/xlink" x="0px" y="0px" viewBox="0 0 51.8 51.8">
	<g>
		<path d="M23.2,25.5L0.5,48.1c-0.6,0.6-0.6,1.7,0,2.3c0.3,0.3,0.7,0.5,1.1,0.5 c0.4,0,0.8-0.2,1.1-0.5l22.8-22.8l22.8,22.8c0.3,0.3,0.7,0.5,1.1,0.5c0.4,0,0.8-0.2,1.1-0.5c0.6-0.6,0.6-1.6,0-2.3L28.1,25.5 L50.7,2.8c0.6-0.6,0.6-1.6,0-2.3c-0.6-0.6-1.6-0.6-2.3,0L25.6,23.4L2.8,0.5c-0.6-0.6-1.6-0.6-2.3,0s-0.6,1.6,0,2.3L23.2,25.5z M23.2,25.5"/>
	</g>
</svg>
