<?xml version="1.0" encoding="utf-8"?>
<svg version="1.1" id="Слой_1" xmlns="http://www.w3.org/2000/svg" xmlns:xlink="http://www.w3.org/1999/xlink" x="0px" y="0px"
	 viewBox="0 0 346.209 61.587" enable-background="new 0 0 346.209 61.587" xml:space="preserve">
<path fill-rule="evenodd" clip-rule="evenodd" d="M327.104,17.6c-2.088-0.517-4.594-0.975-7.75-0.975
	c-14.566,0-26.11,8.832-29.937,22.136c-3.185,11.068-0.418,22.375,15.87,22.375c3.729,0,6.753-0.344,9.575-0.987l2.739-9.518
	c-2.264,0.688-4.788,1.089-7.023,1.089c-5.277,0-11.646-2.579-8.661-12.959c2.227-7.742,8.652-12.731,17.025-12.731
	c0.803,0,3.006,0.114,5.506,0.801L327.104,17.6z M254.559,17.6l-12.243,42.549h12.1l6.368-22.134
	c0.812-0.229,1.581-0.515,2.312-0.86c3.282,4.932,6.906,13.075,5.884,22.994h12.447c0.947-10.664-1.811-21.217-6.589-28.328
	c6.497-3.038,14.061-9.405,17.797-14.221h-14.509c-3.185,3.496-8.868,7.112-13.941,8.6l2.473-8.6H254.559z M209.485,17.6
	l-12.243,42.549h12.101l4.817-16.743c4.391-4.704,12.448-10.78,17.937-13.706l-8.76,30.449h12.099L247.677,17.6h-12.101
	c-5.329,2.178-12.926,7.455-17.26,11.354l3.267-11.354H209.485z M190.5,17.6l-3.464,12.043h-11.698l-2.74,9.52h11.697l-6.038,20.987
	h12.102L202.602,17.6H190.5z M164.466,17.6l-12.243,42.549h12.102L176.568,17.6H164.466z M157.279,30.617h-15.941l-2.738,9.519
	h15.94L157.279,30.617z M158.445,17.6h-27.7l-12.24,42.549h28.786l2.739-9.518h-16.688l6.765-23.513h15.599L158.445,17.6z
	 M336.864,7.004h1.557c0.743,0,1.251-0.114,1.522-0.334c0.271-0.222,0.408-0.515,0.408-0.884c0-0.234-0.068-0.445-0.197-0.631
	c-0.131-0.185-0.312-0.324-0.542-0.415c-0.235-0.094-0.663-0.138-1.291-0.138h-1.457V7.004z M335.579,11.479V3.527h2.731
	c0.937,0,1.612,0.071,2.03,0.218c0.418,0.146,0.749,0.406,0.999,0.769c0.248,0.367,0.371,0.756,0.371,1.167
	c0,0.582-0.207,1.086-0.622,1.518c-0.414,0.431-0.967,0.672-1.652,0.726c0.281,0.116,0.509,0.257,0.676,0.421
	c0.32,0.314,0.712,0.84,1.176,1.578l0.97,1.555h-1.568l-0.705-1.255c-0.555-0.983-1-1.601-1.341-1.848
	c-0.233-0.185-0.579-0.275-1.029-0.275h-0.753v3.377H335.579z M338.822,1.223c-1.04,0-2.049,0.268-3.033,0.799
	c-0.983,0.533-1.751,1.295-2.307,2.281c-0.556,0.989-0.833,2.02-0.833,3.093c0,1.063,0.275,2.083,0.819,3.058
	c0.545,0.977,1.308,1.739,2.287,2.284c0.979,0.546,2,0.819,3.066,0.819c1.063,0,2.087-0.274,3.066-0.819
	c0.978-0.544,1.739-1.307,2.28-2.284c0.541-0.975,0.813-1.996,0.813-3.058c0-1.073-0.275-2.104-0.826-3.093
	c-0.551-0.986-1.32-1.749-2.307-2.281C340.863,1.492,339.852,1.223,338.822,1.223z M338.822,0c1.241,0,2.452,0.318,3.635,0.952
	c1.18,0.639,2.102,1.549,2.761,2.735c0.659,1.185,0.99,2.423,0.99,3.709c0,1.273-0.324,2.498-0.976,3.672
	c-0.649,1.176-1.561,2.089-2.732,2.737c-1.174,0.653-2.398,0.977-3.678,0.977c-1.28,0-2.508-0.324-3.677-0.977
	c-1.174-0.649-2.087-1.561-2.74-2.737c-0.655-1.174-0.979-2.399-0.979-3.672c0-1.287,0.331-2.525,0.994-3.709
	c0.661-1.185,1.584-2.096,2.768-2.735C336.369,0.318,337.582,0,338.822,0z M0,128.448h0.286 M66.555,55.304v6.284
	c-6.284,0-12.284-1.712-17.139-4.57c-4.856,2.858-10.283,4.57-15.996,4.57c0,0,0,0-0.285,0c-5.999,0-11.14-1.712-15.996-4.57
	c-4.857,2.858-10.854,4.57-16.853,4.57H0v-6.284h0.286c5.712,0,12.567-2,17.14-5.997c4.854,5.14,12.281,5.997,15.424,5.997
	c0.286,0,0.286,0,0.286,0c0.285,0,0.285,0,0.285,0s0,0,0.287,0c5.712,0,11.138-2.284,15.424-5.997
	c1.714,1.427,3.713,2.571,5.711,3.426C58.271,54.446,62.27,55.304,66.555,55.304z M66.555,45.877
	c-8.855,0-17.139-6.284-17.139-15.424h-0.571c0,8.568-7.142,15.71-15.71,15.71c-8.283,0-15.425-7.142-15.425-15.71h-0.571
	c0,9.139-8.571,15.424-16.853,15.424H0v6.571h0.286c6.284,0,12.283-2,16.853-6.571c4.285,4.856,9.998,6.855,15.996,6.855h0.572
	c6.284-0.284,11.424-2.284,15.709-6.855c4.274,4.559,10.536,6.56,17.086,6.571h0.002h0.011h0.013h0.001h0.013h0.013V45.877z
	 M45.055,27.239c0.201,1.071,0.361,2.143,0.361,3.214c0,6.569-5.425,12.282-12.281,12.282c-6.57,0-11.996-5.713-11.996-12.282
	c0-1.43,0-2.858,0.569-4c2.286-5.141,8.571-14.282,11.427-19.423L43.836,24.52C44.431,25.493,44.848,26.123,45.055,27.239z
	 M86.104,60.149h12.101l9.501-33.03h16.86l2.738-9.519H98.347L86.104,60.149z"/>
</svg>
