<?xml version="1.0" encoding="utf-8"?>
<svg version="1.1" xmlns="http://www.w3.org/2000/svg" xmlns:xlink="http://www.w3.org/1999/xlink" x="0px" y="0px"
	 viewBox="-289 412.9 16 16" enable-background="new -289 412.9 16 16" xml:space="preserve">
<path d="M-282.1,416.2l1.6,1.6l4.1-4.1c0.3-0.3,0.7-0.3,0.9,0l1.5,1.5c0.3,0.3,0.3,0.7,0,0.9l-4.1,4.1
	l1.6,1.6c0.3,0.3,0.2,0.5-0.2,0.5l-5.9,0.6c-0.4,0-0.6-0.2-0.6-0.6l0.6-5.9C-282.6,416-282.4,416-282.1,416.2z M-275.7,420.1
	l2.3,2.3c0.4,0.4,0.4,1,0,1.4l-4.8,4.8c-0.4,0.4-1,0.4-1.4,0l-9.2-9.2c-0.4-0.4-0.4-1,0-1.4l4.7-4.8c0.4-0.4,1-0.4,1.4,0l2.3,2.3
	l-0.5,0.5l-1.8-1.8l-5.2,5.2l8.2,8.2l5.2-5.2l-1.7-1.7L-275.7,420.1z M-286.6,417c0,0,0.1,0,0.2,0l1.5-1.5c0,0,0-0.1,0-0.2
	c0,0-0.1,0-0.2,0l-1.5,1.5C-286.6,416.9-286.6,417-286.6,417z M-276.1,425.1c-0.2-0.2-0.5-0.2-0.7,0c-0.2,0.2-0.2,0.5,0,0.7
	c0.2,0.2,0.5,0.2,0.7,0C-275.9,425.7-275.9,425.3-276.1,425.1z"/>
</svg>
