<?xml version="1.0" encoding="iso-8859-1"?>
<!-- Generator: Adobe Illustrator 19.0.1, SVG Export Plug-In . SVG Version: 6.00 Build 0)  -->
<svg version="1.1" xmlns="http://www.w3.org/2000/svg" xmlns:xlink="http://www.w3.org/1999/xlink" x="0px" y="0px"
	 viewBox="0 0 606.7 332.4" enable-background="new 0 0 606.7 332.4" xml:space="preserve">
<g id="comp_x5F_Russia">
	<g>
		<circle cx="160.9" cy="2.6" r="2.6"/>
		<circle cx="171.5" cy="2.6" r="2.6"/>
		<circle cx="182" cy="2.6" r="2.6"/>
		<circle cx="372" cy="2.6" r="2.6"/>
		<circle cx="160.9" cy="13.2" r="2.6"/>
		<circle cx="171.5" cy="13.2" r="2.6"/>
		<circle cx="182" cy="13.2" r="2.6"/>
		<circle cx="372" cy="13.2" r="2.6"/>
		<circle cx="55.4" cy="23.7" r="2.6"/>
		<circle cx="65.9" cy="23.7" r="2.6"/>
		<circle cx="76.5" cy="23.7" r="2.6"/>
		<circle cx="87" cy="23.7" r="2.6"/>
		<circle cx="160.9" cy="23.7" r="2.6"/>
		<circle cx="171.5" cy="23.7" r="2.6"/>
		<circle cx="182" cy="23.7" r="2.6"/>
		<circle cx="192.6" cy="23.7" r="2.6"/>
		<circle cx="203.1" cy="23.7" r="2.6"/>
		<circle cx="213.7" cy="23.7" r="2.6"/>
		<circle cx="340.3" cy="23.7" r="2.6"/>
		<circle cx="350.9" cy="23.7" r="2.6"/>
		<circle cx="361.4" cy="23.7" r="2.6"/>
		<circle cx="372" cy="23.7" r="2.6"/>
		<path d="M382.5,26.3c1.4,0,2.6-1.2,2.6-2.6s-1.2-2.6-2.6-2.6c-1.4,0-2.6,1.2-2.6,2.6S381.1,26.3,382.5,26.3z"/>
		<circle cx="393.1" cy="23.7" r="2.6"/>
		<circle cx="44.8" cy="34.3" r="2.6"/>
		<circle cx="55.4" cy="34.3" r="2.6"/>
		<circle cx="65.9" cy="34.3" r="2.6"/>
		<circle cx="76.5" cy="34.3" r="2.6"/>
		<circle cx="87" cy="34.3" r="2.6"/>
		<circle cx="171.5" cy="34.3" r="2.6"/>
		<circle cx="182" cy="34.3" r="2.6"/>
		<circle cx="192.6" cy="34.3" r="2.6"/>
		<circle cx="203.1" cy="34.3" r="2.6"/>
		<circle cx="213.7" cy="34.3" r="2.6"/>
		<circle cx="224.2" cy="34.3" r="2.6"/>
		<circle cx="234.8" cy="34.3" r="2.6"/>
		<circle cx="340.3" cy="34.3" r="2.6"/>
		<circle cx="350.9" cy="34.3" r="2.6"/>
		<circle cx="361.4" cy="34.3" r="2.6"/>
		<circle cx="372" cy="34.3" r="2.6"/>
		<path d="M382.5,36.9c1.4,0,2.6-1.2,2.6-2.6c0-1.4-1.2-2.6-2.6-2.6c-1.4,0-2.6,1.2-2.6,2.6C379.9,35.7,381.1,36.9,382.5,36.9z"/>
		<circle cx="393.1" cy="34.3" r="2.6"/>
		<circle cx="34.3" cy="44.8" r="2.6"/>
		<circle cx="44.8" cy="44.8" r="2.6"/>
		<circle cx="55.4" cy="44.8" r="2.6"/>
		<circle cx="65.9" cy="44.8" r="2.6"/>
		<circle cx="76.5" cy="44.8" r="2.6"/>
		<circle cx="203.1" cy="44.8" r="2.6"/>
		<circle cx="213.7" cy="44.8" r="2.6"/>
		<circle cx="224.2" cy="44.8" r="2.6"/>
		<circle cx="234.8" cy="44.8" r="2.6"/>
		<circle cx="245.3" cy="44.8" r="2.6"/>
		<circle cx="255.9" cy="44.8" r="2.6"/>
		<circle cx="340.3" cy="44.8" r="2.6"/>
		<circle cx="350.9" cy="44.8" r="2.6"/>
		<circle cx="361.4" cy="44.8" r="2.6"/>
		<circle cx="372" cy="44.8" r="2.6"/>
		<path d="M382.5,47.4c1.4,0,2.6-1.2,2.6-2.6c0-1.4-1.2-2.6-2.6-2.6c-1.4,0-2.6,1.2-2.6,2.6C379.9,46.3,381.1,47.4,382.5,47.4z"/>
		<circle cx="34.3" cy="55.4" r="2.6"/>
		<circle cx="44.8" cy="55.4" r="2.6"/>
		<circle cx="55.4" cy="55.4" r="2.6"/>
		<circle cx="76.5" cy="55.4" r="2.6"/>
		<circle cx="182" cy="55.4" r="2.6"/>
		<circle cx="203.1" cy="55.4" r="2.6"/>
		<circle cx="213.7" cy="55.4" r="2.6"/>
		<circle cx="224.2" cy="55.4" r="2.6"/>
		<circle cx="234.8" cy="55.4" r="2.6"/>
		<circle cx="245.3" cy="55.4" r="2.6"/>
		<circle cx="255.9" cy="55.4" r="2.6"/>
		<circle cx="266.4" cy="55.4" r="2.6"/>
		<circle cx="277" cy="55.4" r="2.6"/>
		<circle cx="350.9" cy="55.4" r="2.6"/>
		<circle cx="361.4" cy="55.4" r="2.6"/>
		<circle cx="372" cy="55.4" r="2.6"/>
		<path d="M382.5,58c1.4,0,2.6-1.2,2.6-2.6s-1.2-2.6-2.6-2.6c-1.4,0-2.6,1.2-2.6,2.6S381.1,58,382.5,58z"/>
		<circle cx="403.6" cy="55.4" r="2.6"/>
		<circle cx="414.2" cy="55.4" r="2.6"/>
		<circle cx="424.7" cy="55.4" r="2.6"/>
		<circle cx="466.9" cy="55.4" r="2.6"/>
		<circle cx="477.5" cy="55.4" r="2.6"/>
		<circle cx="498.6" cy="55.4" r="2.6"/>
		<circle cx="509.1" cy="55.4" r="2.6"/>
		<circle cx="519.7" cy="55.4" r="2.6"/>
		<circle cx="530.2" cy="55.4" r="2.6"/>
		<circle cx="540.8" cy="55.4" r="2.6"/>
		<circle cx="551.4" cy="55.4" r="2.6"/>
		<circle cx="561.9" cy="55.4" r="2.6"/>
		<circle cx="572.5" cy="55.4" r="2.6"/>
		<circle cx="583" cy="55.4" r="2.6"/>
		<circle cx="593.6" cy="55.4" r="2.6"/>
		<circle cx="604.1" cy="55.4" r="2.6"/>
		<circle cx="182" cy="65.9" r="2.6"/>
		<circle cx="203.1" cy="65.9" r="2.6"/>
		<circle cx="213.7" cy="65.9" r="2.6"/>
		<circle cx="224.2" cy="65.9" r="2.6"/>
		<circle cx="234.8" cy="65.9" r="2.6"/>
		<circle cx="245.3" cy="65.9" r="2.6"/>
		<circle cx="255.9" cy="65.9" r="2.6"/>
		<circle cx="266.4" cy="65.9" r="2.6"/>
		<circle cx="277" cy="65.9" r="2.6"/>
		<circle cx="319.2" cy="65.9" r="2.6"/>
		<circle cx="329.7" cy="65.9" r="2.6"/>
		<circle cx="340.3" cy="65.9" r="2.6"/>
		<path d="M382.5,68.5c1.4,0,2.6-1.2,2.6-2.6c0-1.4-1.2-2.6-2.6-2.6c-1.4,0-2.6,1.2-2.6,2.6C379.9,67.4,381.1,68.5,382.5,68.5z"/>
		<circle cx="393.1" cy="65.9" r="2.6"/>
		<circle cx="403.6" cy="65.9" r="2.6"/>
		<circle cx="414.2" cy="65.9" r="2.6"/>
		<circle cx="424.7" cy="65.9" r="2.6"/>
		<circle cx="435.3" cy="65.9" r="2.6"/>
		<circle cx="445.8" cy="65.9" r="2.6"/>
		<circle cx="456.4" cy="65.9" r="2.6"/>
		<circle cx="466.9" cy="65.9" r="2.6"/>
		<circle cx="477.5" cy="65.9" r="2.6"/>
		<circle cx="488" cy="65.9" r="2.6"/>
		<circle cx="498.6" cy="65.9" r="2.6"/>
		<circle cx="509.1" cy="65.9" r="2.6"/>
		<circle cx="519.7" cy="65.9" r="2.6"/>
		<circle cx="530.2" cy="65.9" r="2.6"/>
		<circle cx="540.8" cy="65.9" r="2.6"/>
		<circle cx="551.4" cy="65.9" r="2.6"/>
		<circle cx="561.9" cy="65.9" r="2.6"/>
		<circle cx="572.5" cy="65.9" r="2.6"/>
		<circle cx="583" cy="65.9" r="2.6"/>
		<circle cx="593.6" cy="65.9" r="2.6"/>
		<circle cx="604.1" cy="65.9" r="2.6"/>
		<circle cx="108.1" cy="76.5" r="2.6"/>
		<circle cx="118.7" cy="76.5" r="2.6"/>
		<circle cx="171.5" cy="76.5" r="2.6"/>
		<circle cx="192.6" cy="76.5" r="2.6"/>
		<circle cx="203.1" cy="76.5" r="2.6"/>
		<circle cx="213.7" cy="76.5" r="2.6"/>
		<circle cx="224.2" cy="76.5" r="2.6"/>
		<circle cx="234.8" cy="76.5" r="2.6"/>
		<circle cx="245.3" cy="76.5" r="2.6"/>
		<circle cx="255.9" cy="76.5" r="2.6"/>
		<circle cx="266.4" cy="76.5" r="2.6"/>
		<circle cx="277" cy="76.5" r="2.6"/>
		<circle cx="287.5" cy="76.5" r="2.6"/>
		<circle cx="298.1" cy="76.5" r="2.6"/>
		<circle cx="308.6" cy="76.5" r="2.6"/>
		<circle cx="319.2" cy="76.5" r="2.6"/>
		<circle cx="329.7" cy="76.5" r="2.6"/>
		<circle cx="340.3" cy="76.5" r="2.6"/>
		<circle cx="350.9" cy="76.5" r="2.6"/>
		<circle cx="361.4" cy="76.5" r="2.6"/>
		<circle cx="372" cy="76.5" r="2.6"/>
		<path d="M382.5,79.1c1.4,0,2.6-1.2,2.6-2.6c0-1.4-1.2-2.6-2.6-2.6c-1.4,0-2.6,1.2-2.6,2.6C379.9,77.9,381.1,79.1,382.5,79.1z"/>
		<circle cx="393.1" cy="76.5" r="2.6"/>
		<circle cx="403.6" cy="76.5" r="2.6"/>
		<circle cx="414.2" cy="76.5" r="2.6"/>
		<circle cx="424.7" cy="76.5" r="2.6"/>
		<circle cx="435.3" cy="76.5" r="2.6"/>
		<circle cx="445.8" cy="76.5" r="2.6"/>
		<circle cx="456.4" cy="76.5" r="2.6"/>
		<circle cx="466.9" cy="76.5" r="2.6"/>
		<circle cx="477.5" cy="76.5" r="2.6"/>
		<circle cx="488" cy="76.5" r="2.6"/>
		<circle cx="498.6" cy="76.5" r="2.6"/>
		<circle cx="509.1" cy="76.5" r="2.6"/>
		<circle cx="519.7" cy="76.5" r="2.6"/>
		<circle cx="530.2" cy="76.5" r="2.6"/>
		<circle cx="540.8" cy="76.5" r="2.6"/>
		<circle cx="551.4" cy="76.5" r="2.6"/>
		<circle cx="561.9" cy="76.5" r="2.6"/>
		<circle cx="572.5" cy="76.5" r="2.6"/>
		<circle cx="583" cy="76.5" r="2.6"/>
		<circle cx="593.6" cy="76.5" r="2.6"/>
		<circle cx="604.1" cy="76.5" r="2.6"/>
		<circle cx="97.6" cy="87" r="2.6"/>
		<circle cx="108.1" cy="87" r="2.6"/>
		<circle cx="118.7" cy="87" r="2.6"/>
		<circle cx="171.5" cy="87" r="2.6"/>
		<circle cx="182" cy="87" r="2.6"/>
		<circle cx="192.6" cy="87" r="2.6"/>
		<circle cx="203.1" cy="87" r="2.6"/>
		<circle cx="213.7" cy="87" r="2.6"/>
		<circle cx="224.2" cy="87" r="2.6"/>
		<circle cx="234.8" cy="87" r="2.6"/>
		<circle cx="245.3" cy="87" r="2.6"/>
		<circle cx="255.9" cy="87" r="2.6"/>
		<circle cx="266.4" cy="87" r="2.6"/>
		<circle cx="277" cy="87" r="2.6"/>
		<circle cx="287.5" cy="87" r="2.6"/>
		<circle cx="298.1" cy="87" r="2.6"/>
		<circle cx="308.6" cy="87" r="2.6"/>
		<circle cx="319.2" cy="87" r="2.6"/>
		<circle cx="329.7" cy="87" r="2.6"/>
		<circle cx="340.3" cy="87" r="2.6"/>
		<circle cx="350.9" cy="87" r="2.6"/>
		<circle cx="361.4" cy="87" r="2.6"/>
		<circle cx="372" cy="87" r="2.6"/>
		<path d="M382.5,89.6c1.4,0,2.6-1.2,2.6-2.6c0-1.4-1.2-2.6-2.6-2.6c-1.4,0-2.6,1.2-2.6,2.6C379.9,88.5,381.1,89.6,382.5,89.6z"/>
		<circle cx="393.1" cy="87" r="2.6"/>
		<circle cx="403.6" cy="87" r="2.6"/>
		<circle cx="414.2" cy="87" r="2.6"/>
		<circle cx="424.7" cy="87" r="2.6"/>
		<circle cx="435.3" cy="87" r="2.6"/>
		<circle cx="445.8" cy="87" r="2.6"/>
		<circle cx="456.4" cy="87" r="2.6"/>
		<circle cx="466.9" cy="87" r="2.6"/>
		<circle cx="477.5" cy="87" r="2.6"/>
		<circle cx="488" cy="87" r="2.6"/>
		<circle cx="498.6" cy="87" r="2.6"/>
		<circle cx="509.1" cy="87" r="2.6"/>
		<circle cx="519.7" cy="87" r="2.6"/>
		<circle cx="530.2" cy="87" r="2.6"/>
		<circle cx="540.8" cy="87" r="2.6"/>
		<circle cx="551.4" cy="87" r="2.6"/>
		<circle cx="561.9" cy="87" r="2.6"/>
		<circle cx="572.5" cy="87" r="2.6"/>
		<circle cx="583" cy="87" r="2.6"/>
		<circle cx="593.6" cy="87" r="2.6"/>
		<circle cx="604.1" cy="87" r="2.6"/>
		<circle cx="87" cy="97.6" r="2.6"/>
		<circle cx="97.6" cy="97.6" r="2.6"/>
		<circle cx="108.1" cy="97.6" r="2.6"/>
		<circle cx="118.7" cy="97.6" r="2.6"/>
		<circle cx="160.9" cy="97.6" r="2.6"/>
		<circle cx="171.5" cy="97.6" r="2.6"/>
		<circle cx="182" cy="97.6" r="2.6"/>
		<circle cx="192.6" cy="97.6" r="2.6"/>
		<circle cx="203.1" cy="97.6" r="2.6"/>
		<circle cx="213.7" cy="97.6" r="2.6"/>
		<circle cx="224.2" cy="97.6" r="2.6"/>
		<circle cx="234.8" cy="97.6" r="2.6"/>
		<circle cx="245.3" cy="97.6" r="2.6"/>
		<circle cx="255.9" cy="97.6" r="2.6"/>
		<circle cx="266.4" cy="97.6" r="2.6"/>
		<circle cx="277" cy="97.6" r="2.6"/>
		<circle cx="287.5" cy="97.6" r="2.6"/>
		<circle cx="298.1" cy="97.6" r="2.6"/>
		<circle cx="308.6" cy="97.6" r="2.6"/>
		<circle cx="319.2" cy="97.6" r="2.6"/>
		<circle cx="329.7" cy="97.6" r="2.6"/>
		<circle cx="340.3" cy="97.6" r="2.6"/>
		<circle cx="350.9" cy="97.6" r="2.6"/>
		<circle cx="361.4" cy="97.6" r="2.6"/>
		<circle cx="372" cy="97.6" r="2.6"/>
		<path d="M382.5,100.2c1.4,0,2.6-1.2,2.6-2.6c0-1.4-1.2-2.6-2.6-2.6c-1.4,0-2.6,1.2-2.6,2.6C379.9,99,381.1,100.2,382.5,100.2z"/>
		<circle cx="393.1" cy="97.6" r="2.6"/>
		<circle cx="403.6" cy="97.6" r="2.6"/>
		<circle cx="414.2" cy="97.6" r="2.6"/>
		<circle cx="424.7" cy="97.6" r="2.6"/>
		<circle cx="435.3" cy="97.6" r="2.6"/>
		<circle cx="445.8" cy="97.6" r="2.6"/>
		<circle cx="456.4" cy="97.6" r="2.6"/>
		<circle cx="466.9" cy="97.6" r="2.6"/>
		<circle cx="477.5" cy="97.6" r="2.6"/>
		<circle cx="488" cy="97.6" r="2.6"/>
		<circle cx="498.6" cy="97.6" r="2.6"/>
		<circle cx="509.1" cy="97.6" r="2.6"/>
		<circle cx="519.7" cy="97.6" r="2.6"/>
		<circle cx="530.2" cy="97.6" r="2.6"/>
		<circle cx="540.8" cy="97.6" r="2.6"/>
		<circle cx="551.4" cy="97.6" r="2.6"/>
		<circle cx="561.9" cy="97.6" r="2.6"/>
		<circle cx="572.5" cy="97.6" r="2.6"/>
		<circle cx="583" cy="97.6" r="2.6"/>
		<circle cx="87" cy="108.1" r="2.6"/>
		<circle cx="97.6" cy="108.1" r="2.6"/>
		<circle cx="108.1" cy="108.1" r="2.6"/>
		<circle cx="139.8" cy="108.1" r="2.6"/>
		<circle cx="150.3" cy="108.1" r="2.6"/>
		<circle cx="160.9" cy="108.1" r="2.6"/>
		<circle cx="171.5" cy="108.1" r="2.6"/>
		<circle cx="182" cy="108.1" r="2.6"/>
		<circle cx="192.6" cy="108.1" r="2.6"/>
		<circle cx="203.1" cy="108.1" r="2.6"/>
		<circle cx="213.7" cy="108.1" r="2.6"/>
		<circle cx="224.2" cy="108.1" r="2.6"/>
		<circle cx="234.8" cy="108.1" r="2.6"/>
		<circle cx="245.3" cy="108.1" r="2.6"/>
		<circle cx="255.9" cy="108.1" r="2.6"/>
		<circle cx="266.4" cy="108.1" r="2.6"/>
		<circle cx="277" cy="108.1" r="2.6"/>
		<circle cx="287.5" cy="108.1" r="2.6"/>
		<circle cx="298.1" cy="108.1" r="2.6"/>
		<circle cx="308.6" cy="108.1" r="2.6"/>
		<circle cx="319.2" cy="108.1" r="2.6"/>
		<circle cx="329.7" cy="108.1" r="2.6"/>
		<circle cx="340.3" cy="108.1" r="2.6"/>
		<circle cx="350.9" cy="108.1" r="2.6"/>
		<circle cx="361.4" cy="108.1" r="2.6"/>
		<circle cx="372" cy="108.1" r="2.6"/>
		<path d="M382.5,110.8c1.4,0,2.6-1.2,2.6-2.6s-1.2-2.6-2.6-2.6c-1.4,0-2.6,1.2-2.6,2.6S381.1,110.8,382.5,110.8z"/>
		<circle cx="393.1" cy="108.1" r="2.6"/>
		<circle cx="403.6" cy="108.1" r="2.6"/>
		<circle cx="414.2" cy="108.1" r="2.6"/>
		<circle cx="424.7" cy="108.1" r="2.6"/>
		<circle cx="435.3" cy="108.1" r="2.6"/>
		<circle cx="445.8" cy="108.1" r="2.6"/>
		<circle cx="456.4" cy="108.1" r="2.6"/>
		<circle cx="466.9" cy="108.1" r="2.6"/>
		<circle cx="477.5" cy="108.1" r="2.6"/>
		<circle cx="488" cy="108.1" r="2.6"/>
		<circle cx="498.6" cy="108.1" r="2.6"/>
		<circle cx="509.1" cy="108.1" r="2.6"/>
		<circle cx="519.7" cy="108.1" r="2.6"/>
		<circle cx="530.2" cy="108.1" r="2.6"/>
		<circle cx="540.8" cy="108.1" r="2.6"/>
		<circle cx="551.4" cy="108.1" r="2.6"/>
		<circle cx="561.9" cy="108.1" r="2.6"/>
		<circle cx="572.5" cy="108.1" r="2.6"/>
		<circle cx="583" cy="108.1" r="2.6"/>
		<circle cx="593.6" cy="108.1" r="2.6"/>
		<circle cx="87" cy="118.7" r="2.6"/>
		<circle cx="97.6" cy="118.7" r="2.6"/>
		<circle cx="139.8" cy="118.7" r="2.6"/>
		<circle cx="150.3" cy="118.7" r="2.6"/>
		<circle cx="160.9" cy="118.7" r="2.6"/>
		<circle cx="171.5" cy="118.7" r="2.6"/>
		<circle cx="182" cy="118.7" r="2.6"/>
		<circle cx="192.6" cy="118.7" r="2.6"/>
		<circle cx="203.1" cy="118.7" r="2.6"/>
		<circle cx="213.7" cy="118.7" r="2.6"/>
		<circle cx="224.2" cy="118.7" r="2.6"/>
		<circle cx="234.8" cy="118.7" r="2.6"/>
		<circle cx="245.3" cy="118.7" r="2.6"/>
		<circle cx="255.9" cy="118.7" r="2.6"/>
		<circle cx="266.4" cy="118.7" r="2.6"/>
		<circle cx="277" cy="118.7" r="2.6"/>
		<circle cx="287.5" cy="118.7" r="2.6"/>
		<circle cx="298.1" cy="118.7" r="2.6"/>
		<circle cx="308.6" cy="118.7" r="2.6"/>
		<circle cx="319.2" cy="118.7" r="2.6"/>
		<circle cx="329.7" cy="118.7" r="2.6"/>
		<circle cx="340.3" cy="118.7" r="2.6"/>
		<circle cx="350.9" cy="118.7" r="2.6"/>
		<circle cx="361.4" cy="118.7" r="2.6"/>
		<circle cx="372" cy="118.7" r="2.6"/>
		<path d="M382.5,121.3c1.4,0,2.6-1.2,2.6-2.6c0-1.4-1.2-2.6-2.6-2.6c-1.4,0-2.6,1.2-2.6,2.6C379.9,120.1,381.1,121.3,382.5,121.3z"
			/>
		<circle cx="393.1" cy="118.7" r="2.6"/>
		<circle cx="403.6" cy="118.7" r="2.6"/>
		<circle cx="414.2" cy="118.7" r="2.6"/>
		<circle cx="424.7" cy="118.7" r="2.6"/>
		<circle cx="435.3" cy="118.7" r="2.6"/>
		<circle cx="445.8" cy="118.7" r="2.6"/>
		<circle cx="456.4" cy="118.7" r="2.6"/>
		<circle cx="466.9" cy="118.7" r="2.6"/>
		<circle cx="477.5" cy="118.7" r="2.6"/>
		<circle cx="488" cy="118.7" r="2.6"/>
		<circle cx="498.6" cy="118.7" r="2.6"/>
		<circle cx="509.1" cy="118.7" r="2.6"/>
		<circle cx="519.7" cy="118.7" r="2.6"/>
		<circle cx="530.2" cy="118.7" r="2.6"/>
		<circle cx="540.8" cy="118.7" r="2.6"/>
		<circle cx="551.4" cy="118.7" r="2.6"/>
		<circle cx="561.9" cy="118.7" r="2.6"/>
		<circle cx="572.5" cy="118.7" r="2.6"/>
		<circle cx="583" cy="118.7" r="2.6"/>
		<circle cx="593.6" cy="118.7" r="2.6"/>
		<circle cx="604.1" cy="118.7" r="2.6"/>
		<circle cx="87" cy="129.2" r="2.6"/>
		<circle cx="97.6" cy="129.2" r="2.6"/>
		<circle cx="139.8" cy="129.2" r="2.6"/>
		<circle cx="150.3" cy="129.2" r="2.6"/>
		<circle cx="160.9" cy="129.2" r="2.6"/>
		<circle cx="171.5" cy="129.2" r="2.6"/>
		<circle cx="182" cy="129.2" r="2.6"/>
		<circle cx="192.6" cy="129.2" r="2.6"/>
		<circle cx="203.1" cy="129.2" r="2.6"/>
		<circle cx="213.7" cy="129.2" r="2.6"/>
		<circle cx="224.2" cy="129.2" r="2.6"/>
		<circle cx="234.8" cy="129.2" r="2.6"/>
		<circle cx="245.3" cy="129.2" r="2.6"/>
		<circle cx="255.9" cy="129.2" r="2.6"/>
		<circle cx="266.4" cy="129.2" r="2.6"/>
		<circle cx="277" cy="129.2" r="2.6"/>
		<circle cx="287.5" cy="129.2" r="2.6"/>
		<circle cx="298.1" cy="129.2" r="2.6"/>
		<circle cx="308.6" cy="129.2" r="2.6"/>
		<circle cx="319.2" cy="129.2" r="2.6"/>
		<circle cx="329.7" cy="129.2" r="2.6"/>
		<circle cx="340.3" cy="129.2" r="2.6"/>
		<circle cx="350.9" cy="129.2" r="2.6"/>
		<circle cx="361.4" cy="129.2" r="2.6"/>
		<circle cx="372" cy="129.2" r="2.6"/>
		<path d="M382.5,131.9c1.4,0,2.6-1.2,2.6-2.6c0-1.4-1.2-2.6-2.6-2.6c-1.4,0-2.6,1.2-2.6,2.6C379.9,130.7,381.1,131.9,382.5,131.9z"
			/>
		<circle cx="393.1" cy="129.2" r="2.6"/>
		<circle cx="403.6" cy="129.2" r="2.6"/>
		<circle cx="414.2" cy="129.2" r="2.6"/>
		<circle cx="424.7" cy="129.2" r="2.6"/>
		<circle cx="435.3" cy="129.2" r="2.6"/>
		<circle cx="445.8" cy="129.2" r="2.6"/>
		<circle cx="456.4" cy="129.2" r="2.6"/>
		<circle cx="466.9" cy="129.2" r="2.6"/>
		<circle cx="477.5" cy="129.2" r="2.6"/>
		<circle cx="488" cy="129.2" r="2.6"/>
		<circle cx="498.6" cy="129.2" r="2.6"/>
		<circle cx="509.1" cy="129.2" r="2.6"/>
		<circle cx="519.7" cy="129.2" r="2.6"/>
		<circle cx="530.2" cy="129.2" r="2.6"/>
		<circle cx="540.8" cy="129.2" r="2.6"/>
		<circle cx="551.4" cy="129.2" r="2.6"/>
		<circle cx="561.9" cy="129.2" r="2.6"/>
		<circle cx="572.5" cy="129.2" r="2.6"/>
		<circle cx="583" cy="129.2" r="2.6"/>
		<circle cx="593.6" cy="129.2" r="2.6"/>
		<circle cx="604.1" cy="129.2" r="2.6"/>
		<circle cx="87" cy="139.8" r="2.6"/>
		<circle cx="97.6" cy="139.8" r="2.6"/>
		<circle cx="108.1" cy="139.8" r="2.6"/>
		<circle cx="139.8" cy="139.8" r="2.6"/>
		<circle cx="150.3" cy="139.8" r="2.6"/>
		<circle cx="160.9" cy="139.8" r="2.6"/>
		<circle cx="171.5" cy="139.8" r="2.6"/>
		<circle cx="182" cy="139.8" r="2.6"/>
		<circle cx="192.6" cy="139.8" r="2.6"/>
		<circle cx="203.1" cy="139.8" r="2.6"/>
		<circle cx="213.7" cy="139.8" r="2.6"/>
		<circle cx="224.2" cy="139.8" r="2.6"/>
		<circle cx="234.8" cy="139.8" r="2.6"/>
		<circle cx="245.3" cy="139.8" r="2.6"/>
		<circle cx="255.9" cy="139.8" r="2.6"/>
		<circle cx="266.4" cy="139.8" r="2.6"/>
		<circle cx="277" cy="139.8" r="2.6"/>
		<circle cx="287.5" cy="139.8" r="2.6"/>
		<circle cx="298.1" cy="139.8" r="2.6"/>
		<circle cx="308.6" cy="139.8" r="2.6"/>
		<circle cx="319.2" cy="139.8" r="2.6"/>
		<circle cx="329.7" cy="139.8" r="2.6"/>
		<circle cx="340.3" cy="139.8" r="2.6"/>
		<circle cx="350.9" cy="139.8" r="2.6"/>
		<circle cx="361.4" cy="139.8" r="2.6"/>
		<circle cx="372" cy="139.8" r="2.6"/>
		<path d="M382.5,142.4c1.4,0,2.6-1.2,2.6-2.6s-1.2-2.6-2.6-2.6c-1.4,0-2.6,1.2-2.6,2.6S381.1,142.4,382.5,142.4z"/>
		<circle cx="393.1" cy="139.8" r="2.6"/>
		<circle cx="403.6" cy="139.8" r="2.6"/>
		<circle cx="414.2" cy="139.8" r="2.6"/>
		<circle cx="424.7" cy="139.8" r="2.6"/>
		<circle cx="435.3" cy="139.8" r="2.6"/>
		<circle cx="445.8" cy="139.8" r="2.6"/>
		<circle cx="456.4" cy="139.8" r="2.6"/>
		<circle cx="466.9" cy="139.8" r="2.6"/>
		<circle cx="477.5" cy="139.8" r="2.6"/>
		<circle cx="488" cy="139.8" r="2.6"/>
		<circle cx="498.6" cy="139.8" r="2.6"/>
		<circle cx="509.1" cy="139.8" r="2.6"/>
		<circle cx="519.7" cy="139.8" r="2.6"/>
		<circle cx="530.2" cy="139.8" r="2.6"/>
		<circle cx="540.8" cy="139.8" r="2.6"/>
		<circle cx="551.4" cy="139.8" r="2.6"/>
		<circle cx="561.9" cy="139.8" r="2.6"/>
		<circle cx="572.5" cy="139.8" r="2.6"/>
		<circle cx="583" cy="139.8" r="2.6"/>
		<circle cx="97.6" cy="150.3" r="2.6"/>
		<circle cx="108.1" cy="150.3" r="2.6"/>
		<circle cx="118.7" cy="150.3" r="2.6"/>
		<circle cx="129.2" cy="150.3" r="2.6"/>
		<circle cx="139.8" cy="150.3" r="2.6"/>
		<circle cx="150.3" cy="150.3" r="2.6"/>
		<circle cx="160.9" cy="150.3" r="2.6"/>
		<circle cx="171.5" cy="150.3" r="2.6"/>
		<circle cx="182" cy="150.3" r="2.6"/>
		<circle cx="192.6" cy="150.3" r="2.6"/>
		<circle cx="203.1" cy="150.3" r="2.6"/>
		<circle cx="213.7" cy="150.3" r="2.6"/>
		<circle cx="224.2" cy="150.3" r="2.6"/>
		<circle cx="234.8" cy="150.3" r="2.6"/>
		<circle cx="245.3" cy="150.3" r="2.6"/>
		<circle cx="255.9" cy="150.3" r="2.6"/>
		<circle cx="266.4" cy="150.3" r="2.6"/>
		<circle cx="277" cy="150.3" r="2.6"/>
		<circle cx="287.5" cy="150.3" r="2.6"/>
		<circle cx="298.1" cy="150.3" r="2.6"/>
		<circle cx="308.6" cy="150.3" r="2.6"/>
		<circle cx="319.2" cy="150.3" r="2.6"/>
		<circle cx="329.7" cy="150.3" r="2.6"/>
		<circle cx="340.3" cy="150.3" r="2.6"/>
		<circle cx="350.9" cy="150.3" r="2.6"/>
		<circle cx="361.4" cy="150.3" r="2.6"/>
		<circle cx="372" cy="150.3" r="2.6"/>
		<path d="M382.5,153c1.4,0,2.6-1.2,2.6-2.6c0-1.4-1.2-2.6-2.6-2.6c-1.4,0-2.6,1.2-2.6,2.6C379.9,151.8,381.1,153,382.5,153z"/>
		<circle cx="393.1" cy="150.3" r="2.6"/>
		<circle cx="403.6" cy="150.3" r="2.6"/>
		<circle cx="414.2" cy="150.3" r="2.6"/>
		<circle cx="424.7" cy="150.3" r="2.6"/>
		<circle cx="435.3" cy="150.3" r="2.6"/>
		<circle cx="445.8" cy="150.3" r="2.6"/>
		<circle cx="456.4" cy="150.3" r="2.6"/>
		<circle cx="466.9" cy="150.3" r="2.6"/>
		<circle cx="477.5" cy="150.3" r="2.6"/>
		<circle cx="488" cy="150.3" r="2.6"/>
		<circle cx="498.6" cy="150.3" r="2.6"/>
		<circle cx="509.1" cy="150.3" r="2.6"/>
		<circle cx="519.7" cy="150.3" r="2.6"/>
		<circle cx="530.2" cy="150.3" r="2.6"/>
		<circle cx="540.8" cy="150.3" r="2.6"/>
		<circle cx="551.4" cy="150.3" r="2.6"/>
		<circle cx="561.9" cy="150.3" r="2.6"/>
		<circle cx="572.5" cy="150.3" r="2.6"/>
		<circle cx="583" cy="150.3" r="2.6"/>
		<circle cx="2.6" cy="160.9" r="2.6"/>
		<circle cx="13.2" cy="160.9" r="2.6"/>
		<circle cx="23.7" cy="160.9" r="2.6"/>
		<circle cx="34.3" cy="160.9" r="2.6"/>
		<circle cx="65.9" cy="160.9" r="2.6"/>
		<circle cx="76.5" cy="160.9" r="2.6"/>
		<circle cx="87" cy="160.9" r="2.6"/>
		<circle cx="97.6" cy="160.9" r="2.6"/>
		<circle cx="108.1" cy="160.9" r="2.6"/>
		<circle cx="118.7" cy="160.9" r="2.6"/>
		<circle cx="129.2" cy="160.9" r="2.6"/>
		<circle cx="139.8" cy="160.9" r="2.6"/>
		<circle cx="150.3" cy="160.9" r="2.6"/>
		<circle cx="160.9" cy="160.9" r="2.6"/>
		<circle cx="171.5" cy="160.9" r="2.6"/>
		<circle cx="182" cy="160.9" r="2.6"/>
		<circle cx="192.6" cy="160.9" r="2.6"/>
		<circle cx="203.1" cy="160.9" r="2.6"/>
		<circle cx="213.7" cy="160.9" r="2.6"/>
		<circle cx="224.2" cy="160.9" r="2.6"/>
		<circle cx="234.8" cy="160.9" r="2.6"/>
		<circle cx="245.3" cy="160.9" r="2.6"/>
		<circle cx="255.9" cy="160.9" r="2.6"/>
		<circle cx="266.4" cy="160.9" r="2.6"/>
		<circle cx="277" cy="160.9" r="2.6"/>
		<circle cx="287.5" cy="160.9" r="2.6"/>
		<circle cx="298.1" cy="160.9" r="2.6"/>
		<circle cx="308.6" cy="160.9" r="2.6"/>
		<circle cx="319.2" cy="160.9" r="2.6"/>
		<circle cx="329.7" cy="160.9" r="2.6"/>
		<circle cx="340.3" cy="160.9" r="2.6"/>
		<circle cx="350.9" cy="160.9" r="2.6"/>
		<circle cx="361.4" cy="160.9" r="2.6"/>
		<circle cx="372" cy="160.9" r="2.6"/>
		<path d="M382.5,163.5c1.4,0,2.6-1.2,2.6-2.6c0-1.4-1.2-2.6-2.6-2.6c-1.4,0-2.6,1.2-2.6,2.6C379.9,162.3,381.1,163.5,382.5,163.5z"
			/>
		<circle cx="393.1" cy="160.9" r="2.6"/>
		<circle cx="403.6" cy="160.9" r="2.6"/>
		<circle cx="414.2" cy="160.9" r="2.6"/>
		<circle cx="424.7" cy="160.9" r="2.6"/>
		<circle cx="435.3" cy="160.9" r="2.6"/>
		<circle cx="445.8" cy="160.9" r="2.6"/>
		<circle cx="456.4" cy="160.9" r="2.6"/>
		<circle cx="466.9" cy="160.9" r="2.6"/>
		<circle cx="477.5" cy="160.9" r="2.6"/>
		<circle cx="488" cy="160.9" r="2.6"/>
		<circle cx="498.6" cy="160.9" r="2.6"/>
		<circle cx="509.1" cy="160.9" r="2.6"/>
		<circle cx="519.7" cy="160.9" r="2.6"/>
		<circle cx="530.2" cy="160.9" r="2.6"/>
		<circle cx="540.8" cy="160.9" r="2.6"/>
		<circle cx="551.4" cy="160.9" r="2.6"/>
		<circle cx="561.9" cy="160.9" r="2.6"/>
		<circle cx="2.6" cy="171.5" r="2.6"/>
		<circle cx="13.2" cy="171.5" r="2.6"/>
		<circle cx="23.7" cy="171.5" r="2.6"/>
		<circle cx="34.3" cy="171.5" r="2.6"/>
		<circle cx="44.8" cy="171.5" r="2.6"/>
		<circle cx="55.4" cy="171.5" r="2.6"/>
		<circle cx="65.9" cy="171.5" r="2.6"/>
		<circle cx="76.5" cy="171.5" r="2.6"/>
		<circle cx="87" cy="171.5" r="2.6"/>
		<circle cx="97.6" cy="171.5" r="2.6"/>
		<circle cx="108.1" cy="171.5" r="2.6"/>
		<circle cx="118.7" cy="171.5" r="2.6"/>
		<circle cx="129.2" cy="171.5" r="2.6"/>
		<circle cx="139.8" cy="171.5" r="2.6"/>
		<circle cx="150.3" cy="171.5" r="2.6"/>
		<circle cx="160.9" cy="171.5" r="2.6"/>
		<circle cx="171.5" cy="171.5" r="2.6"/>
		<circle cx="182" cy="171.5" r="2.6"/>
		<circle cx="192.6" cy="171.5" r="2.6"/>
		<circle cx="203.1" cy="171.5" r="2.6"/>
		<circle cx="213.7" cy="171.5" r="2.6"/>
		<circle cx="224.2" cy="171.5" r="2.6"/>
		<circle cx="234.8" cy="171.5" r="2.6"/>
		<circle cx="245.3" cy="171.5" r="2.6"/>
		<circle cx="255.9" cy="171.5" r="2.6"/>
		<circle cx="266.4" cy="171.5" r="2.6"/>
		<circle cx="277" cy="171.5" r="2.6"/>
		<circle cx="287.5" cy="171.5" r="2.6"/>
		<circle cx="298.1" cy="171.5" r="2.6"/>
		<circle cx="308.6" cy="171.5" r="2.6"/>
		<circle cx="319.2" cy="171.5" r="2.6"/>
		<circle cx="329.7" cy="171.5" r="2.6"/>
		<circle cx="340.3" cy="171.5" r="2.6"/>
		<circle cx="350.9" cy="171.5" r="2.6"/>
		<circle cx="361.4" cy="171.5" r="2.6"/>
		<circle cx="372" cy="171.5" r="2.6"/>
		<path d="M382.5,174.1c1.4,0,2.6-1.2,2.6-2.6s-1.2-2.6-2.6-2.6c-1.4,0-2.6,1.2-2.6,2.6S381.1,174.1,382.5,174.1z"/>
		<circle cx="393.1" cy="171.5" r="2.6"/>
		<circle cx="403.6" cy="171.5" r="2.6"/>
		<circle cx="414.2" cy="171.5" r="2.6"/>
		<circle cx="424.7" cy="171.5" r="2.6"/>
		<circle cx="435.3" cy="171.5" r="2.6"/>
		<circle cx="445.8" cy="171.5" r="2.6"/>
		<circle cx="456.4" cy="171.5" r="2.6"/>
		<circle cx="466.9" cy="171.5" r="2.6"/>
		<circle cx="477.5" cy="171.5" r="2.6"/>
		<circle cx="488" cy="171.5" r="2.6"/>
		<circle cx="498.6" cy="171.5" r="2.6"/>
		<circle cx="509.1" cy="171.5" r="2.6"/>
		<circle cx="519.7" cy="171.5" r="2.6"/>
		<circle cx="540.8" cy="171.5" r="2.6"/>
		<circle cx="551.4" cy="171.5" r="2.6"/>
		<circle cx="561.9" cy="171.5" r="2.6"/>
		<circle cx="2.6" cy="182" r="2.6"/>
		<circle cx="13.2" cy="182" r="2.6"/>
		<circle cx="23.7" cy="182" r="2.6"/>
		<circle cx="34.3" cy="182" r="2.6"/>
		<circle cx="44.8" cy="182" r="2.6"/>
		<circle cx="55.4" cy="182" r="2.6"/>
		<circle cx="65.9" cy="182" r="2.6"/>
		<circle cx="76.5" cy="182" r="2.6"/>
		<circle cx="87" cy="182" r="2.6"/>
		<circle cx="97.6" cy="182" r="2.6"/>
		<circle cx="108.1" cy="182" r="2.6"/>
		<circle cx="118.7" cy="182" r="2.6"/>
		<circle cx="129.2" cy="182" r="2.6"/>
		<circle cx="139.8" cy="182" r="2.6"/>
		<circle cx="150.3" cy="182" r="2.6"/>
		<circle cx="160.9" cy="182" r="2.6"/>
		<circle cx="171.5" cy="182" r="2.6"/>
		<circle cx="182" cy="182" r="2.6"/>
		<circle cx="192.6" cy="182" r="2.6"/>
		<circle cx="203.1" cy="182" r="2.6"/>
		<circle cx="213.7" cy="182" r="2.6"/>
		<circle cx="224.2" cy="182" r="2.6"/>
		<circle cx="234.8" cy="182" r="2.6"/>
		<circle cx="245.3" cy="182" r="2.6"/>
		<circle cx="255.9" cy="182" r="2.6"/>
		<circle cx="266.4" cy="182" r="2.6"/>
		<circle cx="277" cy="182" r="2.6"/>
		<circle cx="287.5" cy="182" r="2.6"/>
		<circle cx="298.1" cy="182" r="2.6"/>
		<circle cx="308.6" cy="182" r="2.6"/>
		<circle cx="319.2" cy="182" r="2.6"/>
		<circle cx="329.7" cy="182" r="2.6"/>
		<circle cx="340.3" cy="182" r="2.6"/>
		<circle cx="350.9" cy="182" r="2.6"/>
		<circle cx="361.4" cy="182" r="2.6"/>
		<circle cx="372" cy="182" r="2.6"/>
		<path d="M382.5,184.6c1.4,0,2.6-1.2,2.6-2.6c0-1.4-1.2-2.6-2.6-2.6c-1.4,0-2.6,1.2-2.6,2.6C379.9,183.4,381.1,184.6,382.5,184.6z"
			/>
		<circle cx="393.1" cy="182" r="2.6"/>
		<circle cx="403.6" cy="182" r="2.6"/>
		<circle cx="414.2" cy="182" r="2.6"/>
		<circle cx="424.7" cy="182" r="2.6"/>
		<circle cx="435.3" cy="182" r="2.6"/>
		<circle cx="445.8" cy="182" r="2.6"/>
		<circle cx="456.4" cy="182" r="2.6"/>
		<circle cx="466.9" cy="182" r="2.6"/>
		<circle cx="477.5" cy="182" r="2.6"/>
		<circle cx="488" cy="182" r="2.6"/>
		<circle cx="498.6" cy="182" r="2.6"/>
		<circle cx="509.1" cy="182" r="2.6"/>
		<circle cx="519.7" cy="182" r="2.6"/>
		<circle cx="540.8" cy="182" r="2.6"/>
		<circle cx="551.4" cy="182" r="2.6"/>
		<circle cx="561.9" cy="182" r="2.6"/>
		<circle cx="2.6" cy="192.6" r="2.6"/>
		<circle cx="13.2" cy="192.6" r="2.6"/>
		<circle cx="23.7" cy="192.6" r="2.6"/>
		<circle cx="34.3" cy="192.6" r="2.6"/>
		<circle cx="44.8" cy="192.6" r="2.6"/>
		<circle cx="55.4" cy="192.6" r="2.6"/>
		<circle cx="65.9" cy="192.6" r="2.6"/>
		<circle cx="76.5" cy="192.6" r="2.6"/>
		<circle cx="87" cy="192.6" r="2.6"/>
		<circle cx="97.6" cy="192.6" r="2.6"/>
		<circle cx="108.1" cy="192.6" r="2.6"/>
		<circle cx="118.7" cy="192.6" r="2.6"/>
		<circle cx="129.2" cy="192.6" r="2.6"/>
		<circle cx="139.8" cy="192.6" r="2.6"/>
		<circle cx="150.3" cy="192.6" r="2.6"/>
		<circle cx="160.9" cy="192.6" r="2.6"/>
		<circle cx="171.5" cy="192.6" r="2.6"/>
		<circle cx="182" cy="192.6" r="2.6"/>
		<circle cx="192.6" cy="192.6" r="2.6"/>
		<circle cx="203.1" cy="192.6" r="2.6"/>
		<circle cx="213.7" cy="192.6" r="2.6"/>
		<circle cx="224.2" cy="192.6" r="2.6"/>
		<circle cx="234.8" cy="192.6" r="2.6"/>
		<circle cx="245.3" cy="192.6" r="2.6"/>
		<circle cx="255.9" cy="192.6" r="2.6"/>
		<circle cx="266.4" cy="192.6" r="2.6"/>
		<circle cx="277" cy="192.6" r="2.6"/>
		<circle cx="287.5" cy="192.6" r="2.6"/>
		<circle cx="298.1" cy="192.6" r="2.6"/>
		<circle cx="308.6" cy="192.6" r="2.6"/>
		<circle cx="319.2" cy="192.6" r="2.6"/>
		<circle cx="329.7" cy="192.6" r="2.6"/>
		<circle cx="340.3" cy="192.6" r="2.6"/>
		<circle cx="350.9" cy="192.6" r="2.6"/>
		<circle cx="361.4" cy="192.6" r="2.6"/>
		<circle cx="372" cy="192.6" r="2.6"/>
		<path d="M382.5,195.2c1.4,0,2.6-1.2,2.6-2.6c0-1.4-1.2-2.6-2.6-2.6c-1.4,0-2.6,1.2-2.6,2.6C379.9,194,381.1,195.2,382.5,195.2z"/>
		<circle cx="393.1" cy="192.6" r="2.6"/>
		<circle cx="403.6" cy="192.6" r="2.6"/>
		<circle cx="414.2" cy="192.6" r="2.6"/>
		<circle cx="424.7" cy="192.6" r="2.6"/>
		<circle cx="435.3" cy="192.6" r="2.6"/>
		<circle cx="445.8" cy="192.6" r="2.6"/>
		<circle cx="456.4" cy="192.6" r="2.6"/>
		<circle cx="466.9" cy="192.6" r="2.6"/>
		<circle cx="477.5" cy="192.6" r="2.6"/>
		<circle cx="540.8" cy="192.6" r="2.6"/>
		<circle cx="551.4" cy="192.6" r="2.6"/>
		<circle cx="561.9" cy="192.6" r="2.6"/>
		<circle cx="572.5" cy="192.6" r="2.6"/>
		<circle cx="583" cy="192.6" r="2.6"/>
		<circle cx="23.7" cy="203.1" r="2.6"/>
		<circle cx="34.3" cy="203.1" r="2.6"/>
		<circle cx="44.8" cy="203.1" r="2.6"/>
		<circle cx="55.4" cy="203.1" r="2.6"/>
		<circle cx="65.9" cy="203.1" r="2.6"/>
		<circle cx="76.5" cy="203.1" r="2.6"/>
		<circle cx="87" cy="203.1" r="2.6"/>
		<circle cx="97.6" cy="203.1" r="2.6"/>
		<circle cx="108.1" cy="203.1" r="2.6"/>
		<circle cx="118.7" cy="203.1" r="2.6"/>
		<circle cx="129.2" cy="203.1" r="2.6"/>
		<circle cx="139.8" cy="203.1" r="2.6"/>
		<circle cx="150.3" cy="203.1" r="2.6"/>
		<circle cx="160.9" cy="203.1" r="2.6"/>
		<circle cx="171.5" cy="203.1" r="2.6"/>
		<circle cx="182" cy="203.1" r="2.6"/>
		<circle cx="192.6" cy="203.1" r="2.6"/>
		<circle cx="203.1" cy="203.1" r="2.6"/>
		<circle cx="213.7" cy="203.1" r="2.6"/>
		<circle cx="224.2" cy="203.1" r="2.6"/>
		<circle cx="234.8" cy="203.1" r="2.6"/>
		<circle cx="245.3" cy="203.1" r="2.6"/>
		<circle cx="255.9" cy="203.1" r="2.6"/>
		<circle cx="266.4" cy="203.1" r="2.6"/>
		<circle cx="277" cy="203.1" r="2.6"/>
		<circle cx="287.5" cy="203.1" r="2.6"/>
		<circle cx="298.1" cy="203.1" r="2.6"/>
		<circle cx="308.6" cy="203.1" r="2.6"/>
		<circle cx="319.2" cy="203.1" r="2.6"/>
		<circle cx="329.7" cy="203.1" r="2.6"/>
		<circle cx="340.3" cy="203.1" r="2.6"/>
		<circle cx="350.9" cy="203.1" r="2.6"/>
		<circle cx="361.4" cy="203.1" r="2.6"/>
		<circle cx="372" cy="203.1" r="2.6"/>
		<path d="M382.5,205.7c1.4,0,2.6-1.2,2.6-2.6c0-1.4-1.2-2.6-2.6-2.6c-1.4,0-2.6,1.2-2.6,2.6C379.9,204.6,381.1,205.7,382.5,205.7z"
			/>
		<circle cx="393.1" cy="203.1" r="2.6"/>
		<circle cx="403.6" cy="203.1" r="2.6"/>
		<circle cx="414.2" cy="203.1" r="2.6"/>
		<circle cx="424.7" cy="203.1" r="2.6"/>
		<circle cx="435.3" cy="203.1" r="2.6"/>
		<circle cx="445.8" cy="203.1" r="2.6"/>
		<circle cx="456.4" cy="203.1" r="2.6"/>
		<circle cx="466.9" cy="203.1" r="2.6"/>
		<circle cx="540.8" cy="203.1" r="2.6"/>
		<circle cx="551.4" cy="203.1" r="2.6"/>
		<circle cx="561.9" cy="203.1" r="2.6"/>
		<circle cx="572.5" cy="203.1" r="2.6"/>
		<circle cx="583" cy="203.1" r="2.6"/>
		<circle cx="593.6" cy="203.1" r="2.6"/>
		<circle cx="604.1" cy="203.1" r="2.6"/>
		<circle cx="23.7" cy="213.7" r="2.6"/>
		<circle cx="34.3" cy="213.7" r="2.6"/>
		<circle cx="44.8" cy="213.7" r="2.6"/>
		<circle cx="55.4" cy="213.7" r="2.6"/>
		<circle cx="65.9" cy="213.7" r="2.6"/>
		<circle cx="76.5" cy="213.7" r="2.6"/>
		<circle cx="87" cy="213.7" r="2.6"/>
		<circle cx="97.6" cy="213.7" r="2.6"/>
		<circle cx="108.1" cy="213.7" r="2.6"/>
		<circle cx="118.7" cy="213.7" r="2.6"/>
		<circle cx="129.2" cy="213.7" r="2.6"/>
		<circle cx="139.8" cy="213.7" r="2.6"/>
		<circle cx="150.3" cy="213.7" r="2.6"/>
		<circle cx="160.9" cy="213.7" r="2.6"/>
		<circle cx="171.5" cy="213.7" r="2.6"/>
		<circle cx="182" cy="213.7" r="2.6"/>
		<circle cx="192.6" cy="213.7" r="2.6"/>
		<circle cx="203.1" cy="213.7" r="2.6"/>
		<circle cx="213.7" cy="213.7" r="2.6"/>
		<circle cx="224.2" cy="213.7" r="2.6"/>
		<circle cx="234.8" cy="213.7" r="2.6"/>
		<circle cx="245.3" cy="213.7" r="2.6"/>
		<circle cx="255.9" cy="213.7" r="2.6"/>
		<circle cx="266.4" cy="213.7" r="2.6"/>
		<circle cx="277" cy="213.7" r="2.6"/>
		<circle cx="287.5" cy="213.7" r="2.6"/>
		<circle cx="298.1" cy="213.7" r="2.6"/>
		<circle cx="308.6" cy="213.7" r="2.6"/>
		<circle cx="319.2" cy="213.7" r="2.6"/>
		<circle cx="329.7" cy="213.7" r="2.6"/>
		<circle cx="340.3" cy="213.7" r="2.6"/>
		<circle cx="350.9" cy="213.7" r="2.6"/>
		<circle cx="361.4" cy="213.7" r="2.6"/>
		<circle cx="372" cy="213.7" r="2.6"/>
		<path d="M382.5,216.3c1.4,0,2.6-1.2,2.6-2.6c0-1.4-1.2-2.6-2.6-2.6c-1.4,0-2.6,1.2-2.6,2.6C379.9,215.1,381.1,216.3,382.5,216.3z"
			/>
		<circle cx="393.1" cy="213.7" r="2.6"/>
		<circle cx="403.6" cy="213.7" r="2.6"/>
		<circle cx="414.2" cy="213.7" r="2.6"/>
		<circle cx="424.7" cy="213.7" r="2.6"/>
		<circle cx="435.3" cy="213.7" r="2.6"/>
		<circle cx="445.8" cy="213.7" r="2.6"/>
		<circle cx="456.4" cy="213.7" r="2.6"/>
		<circle cx="466.9" cy="213.7" r="2.6"/>
		<circle cx="540.8" cy="213.7" r="2.6"/>
		<circle cx="551.4" cy="213.7" r="2.6"/>
		<circle cx="561.9" cy="213.7" r="2.6"/>
		<circle cx="572.5" cy="213.7" r="2.6"/>
		<circle cx="2.6" cy="224.2" r="2.6"/>
		<circle cx="13.2" cy="224.2" r="2.6"/>
		<circle cx="23.7" cy="224.2" r="2.6"/>
		<circle cx="34.3" cy="224.2" r="2.6"/>
		<circle cx="44.8" cy="224.2" r="2.6"/>
		<circle cx="55.4" cy="224.2" r="2.6"/>
		<circle cx="65.9" cy="224.2" r="2.6"/>
		<circle cx="76.5" cy="224.2" r="2.6"/>
		<circle cx="87" cy="224.2" r="2.6"/>
		<circle cx="97.6" cy="224.2" r="2.6"/>
		<circle cx="108.1" cy="224.2" r="2.6"/>
		<circle cx="118.7" cy="224.2" r="2.6"/>
		<circle cx="129.2" cy="224.2" r="2.6"/>
		<circle cx="139.8" cy="224.2" r="2.6"/>
		<circle cx="150.3" cy="224.2" r="2.6"/>
		<circle cx="160.9" cy="224.2" r="2.6"/>
		<circle cx="171.5" cy="224.2" r="2.6"/>
		<circle cx="182" cy="224.2" r="2.6"/>
		<circle cx="192.6" cy="224.2" r="2.6"/>
		<circle cx="203.1" cy="224.2" r="2.6"/>
		<circle cx="213.7" cy="224.2" r="2.6"/>
		<circle cx="224.2" cy="224.2" r="2.6"/>
		<circle cx="234.8" cy="224.2" r="2.6"/>
		<circle cx="245.3" cy="224.2" r="2.6"/>
		<circle cx="255.9" cy="224.2" r="2.6"/>
		<circle cx="266.4" cy="224.2" r="2.6"/>
		<circle cx="277" cy="224.2" r="2.6"/>
		<circle cx="287.5" cy="224.2" r="2.6"/>
		<circle cx="298.1" cy="224.2" r="2.6"/>
		<circle cx="308.6" cy="224.2" r="2.6"/>
		<circle cx="319.2" cy="224.2" r="2.6"/>
		<circle cx="329.7" cy="224.2" r="2.6"/>
		<circle cx="340.3" cy="224.2" r="2.6"/>
		<circle cx="350.9" cy="224.2" r="2.6"/>
		<circle cx="361.4" cy="224.2" r="2.6"/>
		<circle cx="372" cy="224.2" r="2.6"/>
		<path d="M382.5,226.8c1.4,0,2.6-1.2,2.6-2.6s-1.2-2.6-2.6-2.6c-1.4,0-2.6,1.2-2.6,2.6S381.1,226.8,382.5,226.8z"/>
		<circle cx="393.1" cy="224.2" r="2.6"/>
		<circle cx="403.6" cy="224.2" r="2.6"/>
		<circle cx="414.2" cy="224.2" r="2.6"/>
		<circle cx="424.7" cy="224.2" r="2.6"/>
		<circle cx="435.3" cy="224.2" r="2.6"/>
		<circle cx="445.8" cy="224.2" r="2.6"/>
		<circle cx="456.4" cy="224.2" r="2.6"/>
		<circle cx="466.9" cy="224.2" r="2.6"/>
		<circle cx="477.5" cy="224.2" r="2.6"/>
		<circle cx="488" cy="224.2" r="2.6"/>
		<circle cx="498.6" cy="224.2" r="2.6"/>
		<circle cx="551.4" cy="224.2" r="2.6"/>
		<circle cx="561.9" cy="224.2" r="2.6"/>
		<circle cx="572.5" cy="224.2" r="2.6"/>
		<circle cx="2.6" cy="234.8" r="2.6"/>
		<circle cx="13.2" cy="234.8" r="2.6"/>
		<circle cx="23.7" cy="234.8" r="2.6"/>
		<circle cx="34.3" cy="234.8" r="2.6"/>
		<circle cx="44.8" cy="234.8" r="2.6"/>
		<circle cx="55.4" cy="234.8" r="2.6"/>
		<circle cx="65.9" cy="234.8" r="2.6"/>
		<circle cx="76.5" cy="234.8" r="2.6"/>
		<circle cx="87" cy="234.8" r="2.6"/>
		<circle cx="97.6" cy="234.8" r="2.6"/>
		<circle cx="108.1" cy="234.8" r="2.6"/>
		<circle cx="118.7" cy="234.8" r="2.6"/>
		<circle cx="129.2" cy="234.8" r="2.6"/>
		<circle cx="139.8" cy="234.8" r="2.6"/>
		<circle cx="150.3" cy="234.8" r="2.6"/>
		<circle cx="160.9" cy="234.8" r="2.6"/>
		<circle cx="171.5" cy="234.8" r="2.6"/>
		<circle cx="182" cy="234.8" r="2.6"/>
		<circle cx="192.6" cy="234.8" r="2.6"/>
		<circle cx="203.1" cy="234.8" r="2.6"/>
		<circle cx="213.7" cy="234.8" r="2.6"/>
		<circle cx="224.2" cy="234.8" r="2.6"/>
		<circle cx="234.8" cy="234.8" r="2.6"/>
		<circle cx="245.3" cy="234.8" r="2.6"/>
		<circle cx="255.9" cy="234.8" r="2.6"/>
		<circle cx="266.4" cy="234.8" r="2.6"/>
		<circle cx="277" cy="234.8" r="2.6"/>
		<circle cx="287.5" cy="234.8" r="2.6"/>
		<circle cx="298.1" cy="234.8" r="2.6"/>
		<circle cx="308.6" cy="234.8" r="2.6"/>
		<circle cx="319.2" cy="234.8" r="2.6"/>
		<circle cx="329.7" cy="234.8" r="2.6"/>
		<circle cx="340.3" cy="234.8" r="2.6"/>
		<circle cx="350.9" cy="234.8" r="2.6"/>
		<circle cx="361.4" cy="234.8" r="2.6"/>
		<circle cx="372" cy="234.8" r="2.6"/>
		<path d="M382.5,237.4c1.4,0,2.6-1.2,2.6-2.6s-1.2-2.6-2.6-2.6c-1.4,0-2.6,1.2-2.6,2.6S381.1,237.4,382.5,237.4z"/>
		<circle cx="393.1" cy="234.8" r="2.6"/>
		<circle cx="403.6" cy="234.8" r="2.6"/>
		<circle cx="414.2" cy="234.8" r="2.6"/>
		<circle cx="424.7" cy="234.8" r="2.6"/>
		<circle cx="435.3" cy="234.8" r="2.6"/>
		<circle cx="445.8" cy="234.8" r="2.6"/>
		<circle cx="456.4" cy="234.8" r="2.6"/>
		<circle cx="466.9" cy="234.8" r="2.6"/>
		<circle cx="477.5" cy="234.8" r="2.6"/>
		<circle cx="488" cy="234.8" r="2.6"/>
		<circle cx="498.6" cy="234.8" r="2.6"/>
		<circle cx="561.9" cy="234.8" r="2.6"/>
		<circle cx="572.5" cy="234.8" r="2.6"/>
		<circle cx="2.6" cy="245.3" r="2.6"/>
		<circle cx="13.2" cy="245.3" r="2.6"/>
		<circle cx="23.7" cy="245.3" r="2.6"/>
		<circle cx="34.3" cy="245.3" r="2.6"/>
		<circle cx="44.8" cy="245.3" r="2.6"/>
		<circle cx="55.4" cy="245.3" r="2.6"/>
		<circle cx="65.9" cy="245.3" r="2.6"/>
		<circle cx="76.5" cy="245.3" r="2.6"/>
		<circle cx="87" cy="245.3" r="2.6"/>
		<circle cx="97.6" cy="245.3" r="2.6"/>
		<circle cx="108.1" cy="245.3" r="2.6"/>
		<circle cx="118.7" cy="245.3" r="2.6"/>
		<circle cx="129.2" cy="245.3" r="2.6"/>
		<circle cx="139.8" cy="245.3" r="2.6"/>
		<circle cx="150.3" cy="245.3" r="2.6"/>
		<circle cx="160.9" cy="245.3" r="2.6"/>
		<circle cx="171.5" cy="245.3" r="2.6"/>
		<circle cx="182" cy="245.3" r="2.6"/>
		<circle cx="192.6" cy="245.3" r="2.6"/>
		<circle cx="203.1" cy="245.3" r="2.6"/>
		<circle cx="213.7" cy="245.3" r="2.6"/>
		<circle cx="224.2" cy="245.3" r="2.6"/>
		<circle cx="234.8" cy="245.3" r="2.6"/>
		<circle cx="245.3" cy="245.3" r="2.6"/>
		<circle cx="255.9" cy="245.3" r="2.6"/>
		<circle cx="266.4" cy="245.3" r="2.6"/>
		<circle cx="277" cy="245.3" r="2.6"/>
		<circle cx="287.5" cy="245.3" r="2.6"/>
		<circle cx="298.1" cy="245.3" r="2.6"/>
		<circle cx="308.6" cy="245.3" r="2.6"/>
		<circle cx="319.2" cy="245.3" r="2.6"/>
		<circle cx="329.7" cy="245.3" r="2.6"/>
		<circle cx="340.3" cy="245.3" r="2.6"/>
		<circle cx="350.9" cy="245.3" r="2.6"/>
		<circle cx="361.4" cy="245.3" r="2.6"/>
		<circle cx="372" cy="245.3" r="2.6"/>
		<path d="M382.5,247.9c1.4,0,2.6-1.2,2.6-2.6c0-1.4-1.2-2.6-2.6-2.6c-1.4,0-2.6,1.2-2.6,2.6C379.9,246.8,381.1,247.9,382.5,247.9z"
			/>
		<circle cx="393.1" cy="245.3" r="2.6"/>
		<circle cx="403.6" cy="245.3" r="2.6"/>
		<circle cx="414.2" cy="245.3" r="2.6"/>
		<circle cx="424.7" cy="245.3" r="2.6"/>
		<circle cx="435.3" cy="245.3" r="2.6"/>
		<circle cx="445.8" cy="245.3" r="2.6"/>
		<circle cx="456.4" cy="245.3" r="2.6"/>
		<circle cx="466.9" cy="245.3" r="2.6"/>
		<circle cx="477.5" cy="245.3" r="2.6"/>
		<circle cx="488" cy="245.3" r="2.6"/>
		<circle cx="498.6" cy="245.3" r="2.6"/>
		<circle cx="509.1" cy="245.3" r="2.6"/>
		<circle cx="561.9" cy="245.3" r="2.6"/>
		<circle cx="2.6" cy="255.9" r="2.6"/>
		<circle cx="13.2" cy="255.9" r="2.6"/>
		<circle cx="23.7" cy="255.9" r="2.6"/>
		<circle cx="34.3" cy="255.9" r="2.6"/>
		<circle cx="44.8" cy="255.9" r="2.6"/>
		<circle cx="55.4" cy="255.9" r="2.6"/>
		<circle cx="65.9" cy="255.9" r="2.6"/>
		<circle cx="76.5" cy="255.9" r="2.6"/>
		<circle cx="87" cy="255.9" r="2.6"/>
		<circle cx="97.6" cy="255.9" r="2.6"/>
		<circle cx="108.1" cy="255.9" r="2.6"/>
		<circle cx="118.7" cy="255.9" r="2.6"/>
		<circle cx="129.2" cy="255.9" r="2.6"/>
		<circle cx="139.8" cy="255.9" r="2.6"/>
		<circle cx="150.3" cy="255.9" r="2.6"/>
		<circle cx="160.9" cy="255.9" r="2.6"/>
		<circle cx="171.5" cy="255.9" r="2.6"/>
		<circle cx="182" cy="255.9" r="2.6"/>
		<circle cx="192.6" cy="255.9" r="2.6"/>
		<circle cx="203.1" cy="255.9" r="2.6"/>
		<circle cx="213.7" cy="255.9" r="2.6"/>
		<circle cx="224.2" cy="255.9" r="2.6"/>
		<circle cx="234.8" cy="255.9" r="2.6"/>
		<circle cx="245.3" cy="255.9" r="2.6"/>
		<circle cx="255.9" cy="255.9" r="2.6"/>
		<circle cx="266.4" cy="255.9" r="2.6"/>
		<circle cx="277" cy="255.9" r="2.6"/>
		<circle cx="287.5" cy="255.9" r="2.6"/>
		<circle cx="298.1" cy="255.9" r="2.6"/>
		<circle cx="308.6" cy="255.9" r="2.6"/>
		<circle cx="319.2" cy="255.9" r="2.6"/>
		<circle cx="329.7" cy="255.9" r="2.6"/>
		<circle cx="340.3" cy="255.9" r="2.6"/>
		<circle cx="350.9" cy="255.9" r="2.6"/>
		<circle cx="361.4" cy="255.9" r="2.6"/>
		<circle cx="372" cy="255.9" r="2.6"/>
		<path d="M382.5,258.5c1.4,0,2.6-1.2,2.6-2.6s-1.2-2.6-2.6-2.6c-1.4,0-2.6,1.2-2.6,2.6S381.1,258.5,382.5,258.5z"/>
		<circle cx="393.1" cy="255.9" r="2.6"/>
		<circle cx="403.6" cy="255.9" r="2.6"/>
		<circle cx="414.2" cy="255.9" r="2.6"/>
		<circle cx="435.3" cy="255.9" r="2.6"/>
		<circle cx="445.8" cy="255.9" r="2.6"/>
		<circle cx="456.4" cy="255.9" r="2.6"/>
		<circle cx="466.9" cy="255.9" r="2.6"/>
		<circle cx="477.5" cy="255.9" r="2.6"/>
		<circle cx="488" cy="255.9" r="2.6"/>
		<circle cx="498.6" cy="255.9" r="2.6"/>
		<circle cx="509.1" cy="255.9" r="2.6"/>
		<circle cx="519.7" cy="255.9" r="2.6"/>
		<circle cx="561.9" cy="255.9" r="2.6"/>
		<circle cx="34.3" cy="266.4" r="2.6"/>
		<circle cx="44.8" cy="266.4" r="2.6"/>
		<circle cx="55.4" cy="266.4" r="2.6"/>
		<circle cx="65.9" cy="266.4" r="2.6"/>
		<circle cx="76.5" cy="266.4" r="2.6"/>
		<circle cx="87" cy="266.4" r="2.6"/>
		<circle cx="97.6" cy="266.4" r="2.6"/>
		<circle cx="108.1" cy="266.4" r="2.6"/>
		<circle cx="118.7" cy="266.4" r="2.6"/>
		<circle cx="129.2" cy="266.4" r="2.6"/>
		<circle cx="139.8" cy="266.4" r="2.6"/>
		<circle cx="150.3" cy="266.4" r="2.6"/>
		<circle cx="160.9" cy="266.4" r="2.6"/>
		<circle cx="224.2" cy="266.4" r="2.6"/>
		<circle cx="234.8" cy="266.4" r="2.6"/>
		<circle cx="245.3" cy="266.4" r="2.6"/>
		<circle cx="255.9" cy="266.4" r="2.6"/>
		<circle cx="266.4" cy="266.4" r="2.6"/>
		<circle cx="277" cy="266.4" r="2.6"/>
		<circle cx="287.5" cy="266.4" r="2.6"/>
		<circle cx="298.1" cy="266.4" r="2.6"/>
		<circle cx="308.6" cy="266.4" r="2.6"/>
		<circle cx="319.2" cy="266.4" r="2.6"/>
		<circle cx="329.7" cy="266.4" r="2.6"/>
		<circle cx="340.3" cy="266.4" r="2.6"/>
		<circle cx="350.9" cy="266.4" r="2.6"/>
		<circle cx="361.4" cy="266.4" r="2.6"/>
		<circle cx="372" cy="266.4" r="2.6"/>
		<path d="M382.5,269c1.4,0,2.6-1.2,2.6-2.6c0-1.4-1.2-2.6-2.6-2.6c-1.4,0-2.6,1.2-2.6,2.6C379.9,267.9,381.1,269,382.5,269z"/>
		<circle cx="393.1" cy="266.4" r="2.6"/>
		<circle cx="403.6" cy="266.4" r="2.6"/>
		<circle cx="445.8" cy="266.4" r="2.6"/>
		<circle cx="456.4" cy="266.4" r="2.6"/>
		<circle cx="466.9" cy="266.4" r="2.6"/>
		<circle cx="477.5" cy="266.4" r="2.6"/>
		<circle cx="488" cy="266.4" r="2.6"/>
		<circle cx="498.6" cy="266.4" r="2.6"/>
		<circle cx="509.1" cy="266.4" r="2.6"/>
		<circle cx="519.7" cy="266.4" r="2.6"/>
		<circle cx="551.4" cy="266.4" r="2.6"/>
		<circle cx="561.9" cy="266.4" r="2.6"/>
		<circle cx="34.3" cy="277" r="2.6"/>
		<circle cx="44.8" cy="277" r="2.6"/>
		<circle cx="55.4" cy="277" r="2.6"/>
		<circle cx="65.9" cy="277" r="2.6"/>
		<circle cx="76.5" cy="277" r="2.6"/>
		<circle cx="87" cy="277" r="2.6"/>
		<circle cx="97.6" cy="277" r="2.6"/>
		<circle cx="108.1" cy="277" r="2.6"/>
		<circle cx="118.7" cy="277" r="2.6"/>
		<circle cx="129.2" cy="277" r="2.6"/>
		<circle cx="139.8" cy="277" r="2.6"/>
		<circle cx="150.3" cy="277" r="2.6"/>
		<circle cx="160.9" cy="277" r="2.6"/>
		<circle cx="234.8" cy="277" r="2.6"/>
		<circle cx="245.3" cy="277" r="2.6"/>
		<circle cx="255.9" cy="277" r="2.6"/>
		<circle cx="266.4" cy="277" r="2.6"/>
		<circle cx="277" cy="277" r="2.6"/>
		<circle cx="287.5" cy="277" r="2.6"/>
		<circle cx="298.1" cy="277" r="2.6"/>
		<circle cx="308.6" cy="277" r="2.6"/>
		<circle cx="319.2" cy="277" r="2.6"/>
		<circle cx="361.4" cy="277" r="2.6"/>
		<circle cx="372" cy="277" r="2.6"/>
		<path d="M382.5,279.6c1.4,0,2.6-1.2,2.6-2.6c0-1.4-1.2-2.6-2.6-2.6c-1.4,0-2.6,1.2-2.6,2.6C379.9,278.4,381.1,279.6,382.5,279.6z"
			/>
		<circle cx="456.4" cy="277" r="2.6"/>
		<circle cx="466.9" cy="277" r="2.6"/>
		<circle cx="477.5" cy="277" r="2.6"/>
		<circle cx="488" cy="277" r="2.6"/>
		<circle cx="498.6" cy="277" r="2.6"/>
		<circle cx="509.1" cy="277" r="2.6"/>
		<circle cx="519.7" cy="277" r="2.6"/>
		<circle cx="540.8" cy="277" r="2.6"/>
		<circle cx="551.4" cy="277" r="2.6"/>
		<circle cx="55.4" cy="287.5" r="2.6"/>
		<circle cx="65.9" cy="287.5" r="2.6"/>
		<circle cx="76.5" cy="287.5" r="2.6"/>
		<circle cx="87" cy="287.5" r="2.6"/>
		<circle cx="97.6" cy="287.5" r="2.6"/>
		<circle cx="108.1" cy="287.5" r="2.6"/>
		<circle cx="129.2" cy="287.5" r="2.6"/>
		<circle cx="139.8" cy="287.5" r="2.6"/>
		<circle cx="150.3" cy="287.5" r="2.6"/>
		<circle cx="160.9" cy="287.5" r="2.6"/>
		<circle cx="466.9" cy="287.5" r="2.6"/>
		<circle cx="477.5" cy="287.5" r="2.6"/>
		<circle cx="488" cy="287.5" r="2.6"/>
		<circle cx="498.6" cy="287.5" r="2.6"/>
		<circle cx="530.2" cy="287.5" r="2.6"/>
		<circle cx="540.8" cy="287.5" r="2.6"/>
		<circle cx="551.4" cy="287.5" r="2.6"/>
		<circle cx="65.9" cy="298.1" r="2.6"/>
		<circle cx="76.5" cy="298.1" r="2.6"/>
		<circle cx="87" cy="298.1" r="2.6"/>
		<circle cx="97.6" cy="298.1" r="2.6"/>
		<circle cx="108.1" cy="298.1" r="2.6"/>
		<circle cx="466.9" cy="298.1" r="2.6"/>
		<circle cx="477.5" cy="298.1" r="2.6"/>
		<circle cx="488" cy="298.1" r="2.6"/>
		<circle cx="530.2" cy="298.1" r="2.6"/>
		<circle cx="540.8" cy="298.1" r="2.6"/>
		<circle cx="65.9" cy="308.6" r="2.6"/>
		<circle cx="76.5" cy="308.6" r="2.6"/>
		<circle cx="87" cy="308.6" r="2.6"/>
		<circle cx="97.6" cy="308.6" r="2.6"/>
		<circle cx="108.1" cy="308.6" r="2.6"/>
		<circle cx="118.7" cy="308.6" r="2.6"/>
		<circle cx="466.9" cy="308.6" r="2.6"/>
		<circle cx="477.5" cy="308.6" r="2.6"/>
		<circle cx="488" cy="308.6" r="2.6"/>
		<circle cx="65.9" cy="319.2" r="2.6"/>
		<circle cx="76.5" cy="319.2" r="2.6"/>
		<circle cx="87" cy="319.2" r="2.6"/>
		<circle cx="97.6" cy="319.2" r="2.6"/>
		<circle cx="108.1" cy="319.2" r="2.6"/>
		<circle cx="97.6" cy="329.7" r="2.6"/>
		<circle cx="108.1" cy="329.7" r="2.6"/>
		<circle cx="118.7" cy="329.7" r="2.6"/>
	</g>
</g>
<g id="Layer_1">
</g>
</svg>
