<svg version="1.1" xmlns="http://www.w3.org/2000/svg" xmlns:xlink="http://www.w3.org/1999/xlink" x="0px" y="0px"
	 viewBox="0 0 389.8 370.8" enable-background="new 0 0 389.8 370.8" xml:space="preserve">
<g>
	<defs>
		<rect id="SVGID_1_" width="389.8" height="370.8"/>
	</defs>
	<clipPath id="SVGID_2_">
		<use xlink:href="#SVGID_1_"  overflow="visible"/>
	</clipPath>
	<path clip-path="url(#SVGID_2_)" fill="#5B5B5A" d="M375.3,253.6c-7.4-0.6-22.9,8.1-27,10.3c-15,7.8-35.9,20.2-49.6,30
		c-1,0.6-2.2,1.5-3.2,2.2c-6.2,4.2-12.7,6.9-19.9,8.5c-39.8,8.8-98,9.8-98,9.8l-3.4,0.2c-2.6,0.2-4.8-1.7-5.2-4.2
		c-0.4-2.8,1.6-5.4,4.5-5.7l86.4-8.6c9.5-1,17.1-10.3,16.1-20.7c-1-10.4-10.2-18-19.8-16.9l-76.9-1c-5.2-0.1-13.6-1.4-18.6-3
		c-49.5-15-77.4-1-92.3,5.6c-3.3-5.7-9.6-9.4-16.6-8.9l-33.1,2.3c-11,0.8-19.4,10.3-18.6,21.4l5.3,76.3c0.8,11,10.3,19.4,21.4,18.6
		l33.1-2.3c7-0.5,12.7-5,15.2-11l145.5,6.5c16.2,1.8,31.4-0.2,45.7-8l4.2-2.2l110.1-66.8c5.4-3.3,9.3-9,9.4-15.3
		C390.1,262.9,385.8,254.4,375.3,253.6L375.3,253.6z M38.8,351.7c-6.2,0-11.3-5-11.3-11.3c0-6.2,5-11.3,11.3-11.3
		c6.2,0,11.3,5,11.3,11.3C50.1,346.6,45,351.7,38.8,351.7L38.8,351.7z M38.8,351.7"/>
</g>
<path fill="#5B5B5A" d="M291.8,265.8c0.8,2.5,1.4,5,1.7,7.8c0.2,2.2,0.2,4.3,0.1,6.4c1.1-0.8,2.3-1.7,3.4-2.5
	c11.2-8.2,34.2-21.1,47.2-27.9c3.9-2.1,8.1-4.1,12.5-5.8c-5.7-3.9-11.8-4.1-18-1.6c-12.4,5-35.1,16.5-46.7,23
	C292,265.5,291.9,265.6,291.8,265.8L291.8,265.8z M291.8,265.8"/>
<g>
	<defs>
		<rect id="SVGID_3_" width="389.8" height="370.8"/>
	</defs>
	<clipPath id="SVGID_4_">
		<use xlink:href="#SVGID_3_"  overflow="visible"/>
	</clipPath>
	<path clip-path="url(#SVGID_4_)" fill="#5B5B5A" d="M309,233.2c-7.6,3.1-24.7,8.9-32.3,13c3.3,2.1,6.2,4.6,8.6,7.7
		c0.5-0.3,1-0.7,1.5-1l5.5-3.2c8.2-4.6,25.4-11,34.4-15.1C321.1,230.8,315.1,230.7,309,233.2L309,233.2z M309,233.2"/>
	<path clip-path="url(#SVGID_4_)" d="M179.3,148.7"/>
</g>
<g>
	<path fill="#5B5B5A" d="M183,97.3c0-3.9-2.1-7.8-7.5-7.8c-5.6,0-7.7,3.9-7.7,7.8c0,3.9,2.1,7.8,7.7,7.8
		C181,105.1,183,101.2,183,97.3z"/>
	<path fill="#5B5B5A" d="M240.5,137.6c-5.6,0-7.7,3.9-7.7,7.8c0,3.9,2.1,7.8,7.7,7.8c5.5,0,7.5-3.9,7.5-7.8
		C248,141.5,246,137.6,240.5,137.6z"/>
	<path fill="#5B5B5A" d="M316.2,138c-4.7-7.2-9.4-14.5-14.2-21.6c-1.1-1.6-1-2.7,0-4.3c4.6-7,9.2-14.1,13.8-21.2
		c5.4-8.3,2.6-16.6-6.7-20c-7.9-2.9-15.8-6-23.6-8.9c-1.7-0.6-2.3-1.5-2.4-3.4c-0.4-8.6-0.9-17.2-1.4-25.8
		c-0.5-9.1-7.7-14.3-16.5-12c-8.3,2.2-16.6,4.4-24.9,6.8c-1.9,0.6-2.9,0.1-4.1-1.4C231,19.7,225.5,13,220.2,6.5
		c-5.8-7.3-14.6-7.3-20.6,0c-5.3,6.6-10.6,13-15.8,19.8c-1.4,1.8-2.7,2.2-4.8,1.5c-8.1-2.3-16.2-4.4-22.1-6
		c-11.4-2.7-18,1.9-18.6,11.2c-0.6,8.7-1,17.4-1.3,26.1c-0.1,1.8-0.7,2.6-2.3,3.3c-8.2,3-16.3,6.2-24.4,9.4
		c-8.4,3.4-11,11.6-6.1,19.2c4.4,7.4,9.1,14.6,13.9,21.8c1.1,1.6,1,2.7,0,4.3c-4.9,7.4-9.7,14.7-14.3,22.2
		c-4.5,7.2-1.7,15.5,6.2,18.6c8.2,3.2,16.4,6.3,24.6,9.4c1.8,0.6,2.3,1.5,2.4,3.3c0.4,8.3,1.3,16.6,1.2,25
		c-0.1,8.5,7.4,15.9,17.4,12.7c8-2.6,16.2-4.4,24.3-6.7c1.6-0.5,2.6-0.2,3.7,1.2c5.4,6.7,10.8,13.4,16.3,20.1c6,7.3,14.6,7.3,20.6,0
		c5.4-6.7,10.8-13.4,16.2-20.2c1-1.3,1.9-1.8,3.6-1.3c8.4,2.3,16.8,4.6,25.3,6.8c8.6,2.3,15.9-3,16.4-11.8c0.5-8.7,1-17.4,1.3-26.1
		c0.1-2,1-2.8,2.6-3.4c8-3,15.9-6.1,23.8-9.2C318.4,154,321.1,145.7,316.2,138z M150.7,97.3c0-15.6,11.4-23.4,24.8-23.4
		c13.3,0,24.7,7.8,24.7,23.4s-11.4,23.4-24.7,23.4C162.1,120.7,150.7,112.9,150.7,97.3z M188.8,174.7h-14.3l53.2-106.6h14.3
		L188.8,174.7z M240.5,168.8c-13.4,0-24.8-7.8-24.8-23.4s11.4-23.4,24.8-23.4c13.3,0,24.7,7.8,24.7,23.4S253.8,168.8,240.5,168.8z"
		/>
</g>
</svg>
